<?xml version="1.0" standalone="no"?>
<!DOCTYPE svg PUBLIC "-//W3C//DTD SVG 1.1//EN" "http://www.w3.org/Graphics/SVG/1.1/DTD/svg11.dtd" >
<svg xmlns="http://www.w3.org/2000/svg">
<metadata>
This is a custom SVG webfont generated by Fontspring.
Designer    : Ray Larabie
Foundry     : Ray Larabie
Foundry URL : httpwwwtypodermiccom
</metadata>
<defs>
<font id="OctinSpraypaintARegular" horiz-adv-x="543" >
<font-face units-per-em="1000" ascent="800" descent="-200" />
<missing-glyph horiz-adv-x="309" />
<glyph unicode=" "  horiz-adv-x="309" />
<glyph unicode="&#x09;" horiz-adv-x="309" />
<glyph unicode="&#xa0;" horiz-adv-x="309" />
<glyph unicode="!" horiz-adv-x="214" d="M87 212l-5 23l-2 4l2 7v46l2 6l-4 6l3 30l-3 25l-4 11l6 17l-5 13v21l3 7v13l-5 9l7 10l-5 5v14l6 19l-3 3v10l2 4l-5 10l4 7l-4 9l7 11l-2 8v45l-2 12l2 5v18l10 22l13 3l19 -3l9 -4l9 -20l4 -22l-2 -20l-6 -5l8 -11v-30l-5 -14l7 -11v-35l-4 -10l4 -1l-6 -4l4 -15v-11 l-2 -9l4 -8l-5 -8l7 -7l-4 -19v-20l-6 -13l4 -25h-5v-4l6 -7l-7 -11l6 -12l-4 -8l4 -10v-21l-6 -12l5 -9l-9 -20l3 -4l-3 -8l-8 -8l-14 3l-14 -2zM89 11l-9 18v24l6 23h5l13 7h12l5 -6l7 -1l10 -10l8 -16l-2 -9v-22l-20 -13h-21z" />
<glyph unicode="&#x22;" horiz-adv-x="242" d="M154 524l-3 7l-12 30l10 10l-4 4v18l2 3l-2 23l-3 2v30l3 4v38l11 10l7 3l6 7l18 -10l9 -24l-3 -3l8 -15l-3 -17v-23l-3 -11l5 -6l-2 -9v-23l-7 -2l7 -7l-3 -4v-26l-14 -13l-6 2l-4 -3zM61 521l-6 24l-2 2v19l-5 7l6 6l-4 2v83l3 8v11l6 19l9 9h21l5 -9v-12h4v-9l4 -7 l-4 -2v-5l8 -4v-5l-3 -3v-11l-3 -6l3 -3v-7l3 -3l-5 -23v-31h-3v-8l-6 -2l7 -15l-2 -8l-5 -7l-11 -10l-8 3z" />
<glyph unicode="#" horiz-adv-x="460" d="M278 -2l-10 9l-4 3l-5 23l3 2v11l-3 5v15l3 6v19l-4 13l7 2l-3 8v7l-9 23h-8l12 4l5 14l10 10l-4 10l-15 -8l4 -8l-3 -6v-6l-12 -5l-5 8h6l2 3l-4 7h-8v11h-9v3l6 5l6 -3l2 3h7l5 -10h3l1 7l9 15l-15 9l7 -15h-11l-11 19h-6l-7 -5h-12v8l-11 -3l-3 2l-1 -6l10 -6v-5 l-9 -6h-9l-2 2l-10 -2v-4l-4 -3l-5 4h-18l2 -6v-5l-2 -2v-14h-7v-4l4 -3l-4 -5l-9 -2v-5l3 -3l-4 -5l8 -7v-3h-7v-18l-5 -5l-3 -37h-6v-5l5 -7l-5 -18v-11l-10 -14l-29 -3l-16 19v21l6 11l-5 11l6 9l-3 9l5 24v32l7 7l-5 12l-5 5l10 6l-3 5l4 3l-4 7l-4 1v3h7l-3 24l-4 8h-5 l-8 9l-16 4l-6 6v30h7l7 7l3 -3l9 3v7l10 5l3 -3h6l3 7v18l6 6l-5 14l7 10h5l-6 18l8 8v4l-7 7l-3 19l7 7v4l-7 13l-16 8h-10v5h3v2l-9 3v9l5 7l2 8l11 7l12 3l19 10l-3 6l14 7l2 33l4 4v32l6 21l6 4l-6 12l9 19v29l9 4v20l9 9l14 -2h14l10 -10l-3 -1l7 -8l5 -41l-3 -5 l-2 -11l-3 -3v-7l4 -3l-8 -15v-5l4 -9v-9l-3 -4l12 -9l-1 -6l-5 3h-7v-8l9 3h16v7h5v-10h4l8 5l1 3v-21h-10l-10 4l2 8h-17l-4 -19l14 -10v15l10 -12l3 -12h-8l2 -6v-7h7l6 20l7 3l8 -7v-5l5 -4h14l6 -4l3 19l9 3l3 -3l-4 -13l19 -2l-6 2v7l4 5l6 -7l3 4l3 12h6v7h-11v5l9 5 l5 10v5l5 7l-8 8l10 10v5l-3 3l11 14l-7 9l3 14l5 11l2 28l9 18l12 12l12 4l11 -4l9 -9l12 -20v-19l-7 -12v-8l5 -4l-5 -23v-24l-5 -4v-14l-2 -13l2 -8l3 3h4l-11 -14l4 -10l5 -1l-4 -16l9 -4v-6h14l11 -18v-29l-8 -5l-3 -6l-19 -11h-11v-9l-7 -10l-2 -7h7l-3 -9v-9l2 -2v-8 l-10 -10l4 -10v-10l-12 -11l2 -9l10 -14h2l4 -7l5 -2v7l7 11l2 -2v-16l-5 -5l8 -7l7 -16v-9l-10 -7l-5 -12l-6 -6l-5 4l-4 -4v-5l-9 -9l4 -7h2v-7l-7 -2l-5 4h-9l-2 -25l-7 -8v-27l-5 -4l-4 -21l9 -9h-9l-5 -10l-4 -19v-16l-8 -11v-17l-13 -11v-8zM199 312v-6l14 2l-2 16 l4 2v7h-9v-14l-16 -2v-5h9zM173 208l2 -6l8 4v7l-5 4l3 5l-19 -5l-2 -4l9 -5h4zM158 162l2 5v7l-5 2l9 5l5 -10l3 -2l1 -7l-6 -3zM203 373l12 -4v17l3 5l-5 2l-2 -2v-14l-5 9h-4zM241 539h-8l3 9h5l4 3l5 -5l-5 -15h-2zM185 389v-19h5v9l7 10v4h-7zM248 500v13h6l7 -6 l-12 -6l13 -4v-2l-8 -3zM253 372l5 -5l6 3l-4 4l9 5l-3 2h-7l-11 -4v-2zM233 299l2 -7l8 4l2 -2l4 4l-6 5h-7zM285 534h11l5 -4v-3h-18zM218 186h-3v4l-9 3l13 4l4 -7v-7zM268 366l3 -5v-2l9 13v5h-2l-4 -7h-6v-4zM202 135v6l1 3l5 -8l7 -4v-2h-7zM177 177l4 4h7l2 -3l-5 -4 h-4zM264 561h4l9 -5l-11 -4zM181 326l1 -2l6 2v3l-7 7v-10zM199 564l6 3l5 -4l-5 -4zM352 178l2 5h2l2 -5l-2 -7zM167 132l3 6l5 -5l-5 -5zM266 530h7v-5h-7v5zM242 397l3 -4l8 7zM264 536v7h4v-7l-2 -2zM206 178l2 -4v-5h-6zM142 111v5h6v-5h-6zM365 366l3 -3h2v7l-2 2z M311 547l3 -4l-1 -2h-8zM177 198l4 -3l4 6h-7zM177 307l6 -6v7l-2 2zM175 397l3 -4l3 3v4zM173 276v-5l8 5h-8zM173 349v-4l8 4h-8zM95 398v-2h5l-2 4zM208 294v-3h3l2 3h-5zM358 296v-5h3zM148 204v-5h3zM259 354v-3l3 5zM164 225l3 -3v3h-3zM287 384l-3 -3h3v3zM275 326 v-2h3zM197 483v-2l2 2h-2zM236 368v-2l2 4zM202 349v-2h1z" />
<glyph unicode="$" horiz-adv-x="495" d="M235 15l-9 4l-2 16l-8 4v18l-4 2l-6 -3l-5 6l-40 7l-15 6l-8 8h-9l-12 9l-6 9l-18 18l-4 7l-6 3l-2 11l-11 3l-10 14l-9 28l-3 25l5 5v9l-4 6l7 30l8 8l23 4l3 3h9l11 -17h5l2 -7l3 5l-5 9h5l5 -5v-11l5 -6l-4 -3v-10l5 -4v-6l-6 4h-5v-7l6 -7h8v-5h-3v-14l10 -9l9 -18 l6 6l5 -2v-9h12l4 -4l-2 -12h5v9l6 7v-7l5 -7l12 -2l4 -5h5l6 6l10 -4v-2l9 2v7l5 2l7 -6l2 -5l7 5l6 -8l6 3l14 2l13 -4l10 7l9 -3l5 5h6l10 -4l20 16l3 -2l5 4h4l5 5v9l-4 6h8l10 12l-5 3v6l10 7l-3 5l2 5h-9v11h7v19l3 2l-5 21l-4 8l4 10l-10 17l-1 11h-8l-7 4l-4 8h-5 v-12l-2 -2l-10 11l-8 6l-12 -6l-4 3h-12v4l-12 -4v-5h-6v9l-7 6l-3 -3h-7v11h7l-3 9l-16 5l-2 -2h-5l-2 -8l5 -4v-7h-12l-14 -14l-9 6l-7 -11h-5v3h-6l-7 -4l-4 9l-10 2l-14 -10l-5 5l-44 12l-9 12l-11 5l-2 6l-17 16l-9 4v15l-9 4v7l-3 3v30l3 4v14l-7 7v18l6 15l-5 19 l6 25l2 1v5l-6 3l10 13l6 15l10 7l3 7l10 5l10 15l15 11l21 9l14 10l6 -7l12 5h30l11 -3l12 5l5 11v14h9l6 13l15 3l16 -11v-16h7l12 -10l-4 -5l5 -5l17 8h8l4 -7l6 -5l15 3l20 -9l13 -11l7 -10l9 -4l5 -12l11 -13l16 -12l17 -21l3 -12v-23l-5 -14v-13l-6 -3h-16l-3 -8 l-14 3l-7 14l-8 4l-3 14h-5l2 12l-2 9l-7 5h-5l-9 16l-7 3l-6 -3l-10 10l-22 5l-6 6l-21 4l-16 -4h-16l-5 -3h-9l-12 -4l-6 7h-8l-4 -5h-9v6l-17 -4l-12 -12l-12 12l-5 -14l7 -4l1 -9l3 -3h-7l-9 10h-11v-10l2 -4l-9 -7l4 -13l7 -11h-4l-12 -10l-3 -10l9 -3v-7l-7 -10l3 -3 h12l-8 -9v-14l12 -9l8 -3l4 -4l5 2l3 -7l-12 -4l16 -10h9l3 5l11 -7h7l7 8l8 -6l12 -2v-17h12v10l7 2l-2 -25l18 4l3 4l5 -8h6v9l-5 4v9l11 -4l4 7v7h4l3 -7h6l7 5l3 -7l17 5l10 -5h16l4 -5h31l5 -10l9 5l5 -4l1 -7l12 -11h7l14 -8l5 -15l8 -6l10 -13l-5 -9v-17l-4 -9v-18 l7 -8l-3 -15l2 -12l-2 -11l-4 -7v-19l-3 -4v-41l-14 -12l-11 -19l-14 -14l-5 -2l-7 -7l-6 4l-7 -16h-4l-13 -8l-39 -10l-5 -5h-13v-4h-13l-4 -8l-1 8l-9 -9l-4 -9l-8 -4v-16l-12 -10h-18l-4 -2zM207 512h-4l-9 5l7 7l-5 9v5h5l9 -14v-3h-7v-4h7l5 -5l-4 -3zM192 450l6 2l5 5 h7v-17h-4zM185 461v5l-4 8l5 5l5 -13l-2 -6zM240 159l-7 14l3 2l1 -5h8v-11h-5zM337 179h-5v6l5 2l2 4l2 -2l3 -10l-3 -2zM143 520h13v-5h-4l-9 -6v11zM222 437l6 6l8 -4v-5h-8zM210 187v2h9l7 -4l-2 -3h-8zM164 455h9l-5 -3h7v-4l-11 -3v10zM272 152v9l5 3l2 -12l-4 -3z M224 242l-5 3l7 5l6 -12h-6zM199 255l11 10v-5l-5 -10zM164 498l7 10l3 -9l-10 -5v4zM175 429l10 4v-11h-3zM358 418h11v-5l-4 -4zM266 217v7h6v-11zM245 410l-5 3v2l6 3l5 -12zM297 565h8v-6h-8v6zM261 178l5 4h6v-3l-5 -4zM185 499l-3 4l3 2l6 -3v-7zM226 485l2 2l8 -3 l-3 -6zM288 187l6 2l6 -2v-5zM254 385l-7 7l9 3zM300 258l4 -7h-10zM228 215h8v-5h-5zM236 347l6 -3l3 6h-5zM305 314l4 4h2l-4 -7h-2v3zM452 256l3 -2h2l-2 4zM161 155l3 -6v6h-3zM241 3l1 -1h-2z" />
<glyph unicode="%" horiz-adv-x="694" d="M451 7l-10 -4l-22 12l-20 15l-13 20l-7 3l-2 16l-7 2v5l5 7l-3 4l3 8v13l3 6l-3 3v14l-5 5l5 4l-3 7l-4 -4l-3 3l5 11l5 2v9l-7 7v9l4 3l-2 2v23l-6 5l4 4l-2 7h9v7l-3 4l-6 21l-8 4v5l14 4v11h-4l-5 4l3 10l4 -3h16l6 13l-3 3h-10v7h-15l-3 -20l-3 -3v-18h-11l-2 -5 l2 -7l9 -3l-12 -12l-6 5l-2 -16l-8 -1l6 -7l-3 -3l-3 3l-5 -4l-8 3l-3 5h-4l-7 -16h9v-7h-12l-4 5h-3v-5l-11 -7l-4 -16v-10l-18 -17l5 -5l-6 -5l-10 -3v-15h3v-5l-11 3l-9 -18l-10 -10v-8h-7v-9l-9 -9l-14 -21l-12 -12v-9l-4 -4h-5v-7l-12 -11h-33l-3 6v25l10 21l8 4v13 l5 4l2 8h7l13 27l5 14l15 13l4 10l7 5v8l7 3l3 10l9 11v16l13 2l2 21h10v21h-12v12l4 -8h5l9 -4l5 2v5l3 2v4h-3l-2 -4l-3 3l-1 6h5l14 10l8 14l-6 4v5l6 4v7l3 2l5 -8l6 8v8h-9v12l12 5l-3 5l3 8h8l10 9l-3 8l-8 4h-10v-5l-5 -10l-9 -9l-6 -2v-3h6v-9h-6l-6 5h-9l-5 -5 l-10 8h-6v9h6l1 -3l8 -5l4 3l7 -4v6h10v14l4 10l2 -3l3 9l-8 4l-4 -15l-5 5l-2 -5l-10 -3l-4 -4l-5 4l-16 5l-2 3l-3 -3v-5h-6l-3 3h-21v9h3l2 -4l6 5l-11 5l-4 12l4 3l-1 6l-10 -9l-20 -2v-11l-5 -5h-19l-9 -4l-9 6h-10l-11 7l-21 21l-2 7l-7 2l-11 26v25l-3 2v9l6 11l-7 7 l5 30l-4 15l3 4l-4 24l6 11l2 18v30l14 15l11 4l5 11l18 12h10l4 5l14 3l16 -8h8l1 -7l8 -7v-7l2 -3l-5 -9l-6 -1v-5l-5 -5h-15v-8l-20 -11v-6h2v-3l-9 -4l-4 -11h7l2 -3l-8 -7v-9l7 -6l-7 -8l4 -9l11 2l2 -9l-12 3l-5 -3v-9l10 -3l2 -7l-4 -7l-5 -18v-7l-3 -3l8 -8l-2 -8 l4 -4l-7 -13l9 -3l5 -5h3l-5 9l3 4l9 -9l-3 -6l2 -9h4l4 3l4 -3v-5h4l5 -5h11l4 -16l13 5l16 9v12l16 -4l5 7l-2 13h8l-7 9v8l10 -3l6 -6l4 3l-3 8h-5v4h8l-8 11v6l8 -3l5 6l-5 12v23l-10 -7l-5 5v7h15l5 -6l5 5l-5 10h-8v5h12l3 14l-3 4l-5 -4h-7v4l4 5v4l5 9h4l-1 17l-5 7 h-12v16l-13 7l-5 8l-6 -7l-8 8l9 13l-8 17l14 10h15l7 -3l10 4l11 -7h5l11 -6l5 -9l11 -12l11 -5l-6 -9l14 -13v-6l4 -4v-16h9l-5 -6l5 -6h-7v-13h12l9 -5l-2 -7l2 -13l-9 6l-5 -7l2 -2v-7l6 -4l-15 -3v-14l3 -2l-3 -13l5 -10h7l7 4l-3 5l8 4h9l2 -4h-10l-5 -14l10 -4v-5 l-6 2l-8 -18l8 -3v-9h-9l-3 -5h-9v-4h4l8 -13l15 16h5v-3h10l13 18l-4 15l15 1v19l8 8l-8 8h8l2 3l7 2v9l10 -8l6 12v6h8l17 29l10 11l8 22h4l13 18l-4 3l9 9l33 45l13 6l6 -3h9l13 -8l-4 -5l3 -3v-15l-12 -17l-1 -12l-14 -14v-8l-9 -4l-6 -14l-10 -10l-3 -19l-11 -11 l-4 -11l-6 -6l-5 -28l-6 -6v-12h9v-7l-11 2l-5 -4h-7v-3l-5 -6v-8l-9 -2v-20l-3 -4l4 -7l-3 -6l-7 -2l-3 -9l10 -2l2 -5h4l-2 -4l-7 1l-2 3l-11 -12l-3 -7v-13l16 11h7v-8l-13 -8h-10v-17l-7 10l-4 2l-4 8h-5l-19 -12l11 5l14 -5v-17l-6 -3v-9l4 -4v-6h-4l-12 -12v-5l8 -3 l4 3v7l15 14l10 16l8 3l-4 -8l10 -5l13 3l10 -3l7 8l5 -2v-6h10l3 -9l9 -4l8 -16l1 -21l-4 5l-9 -5v-4l-10 -11l5 -5v-3h-4l-11 -6l-4 8l-11 3l4 -10l-5 -13l4 -3v-7h-15l-10 -10l8 -6l7 -2l-7 -5l5 -7l9 -20l-14 2l5 5l-3 2l-7 -11l5 -14l-9 -5v-7l2 -3v-11l6 -3l-3 -6v-7 l4 -3v-4l-5 -8l17 -18l9 -4l5 -5h5l13 -16v-18l3 -5l-7 -7l-8 -2l-9 -7zM530 6h-3l-6 9l5 4l-8 13l7 12l14 9l8 8l14 5l8 30l7 8v15l-5 10v7l3 6l-3 3h-7v9l9 6l-2 13v21l-4 3l7 11l-3 18l-16 18l-15 5l-15 13l-7 15h-7l-3 5l18 6l4 19h6l3 -3h18l9 -5h7l13 -4l7 -11l8 -3 l20 -18v-9l8 -35l2 -23l-2 -16l3 -12l-7 -11l4 -3l-4 -10l4 -10l-4 -8l5 -9l-4 -16v-21l-2 -2v-24l-7 -4l-2 -5l-20 -24l-14 -3l-4 -7l-11 -8zM351 187l-2 4l-4 3v9l4 4l-2 13l14 -4l-5 -11v-6l-7 -3l9 -9l-3 -4zM327 200h-15v9h3l4 -4l8 7h4l5 -9v-5h-8zM190 478v2l-3 4 l3 5l2 -2h9l4 -13l-9 -4zM349 464l2 5l-4 4l4 16h5v-30h-7v5zM238 307l9 1l10 10l2 -2l-2 -14h-14zM427 327l9 6l4 7l6 -6l-5 -2l-2 -8l-7 -4zM193 530l9 4l11 -11v-4h-6zM486 129v7h15v7h5v-5l-5 -7h-13l2 -2l-2 -3zM176 439h2l5 -5h9v-5l-16 -2v12zM310 404l5 -5l2 11 l-7 8l-8 -5l8 -3v-6zM294 388h7l7 6v3h-14v-9zM400 367l7 -8h4v8l-4 4h-7v-4zM470 191v5h-5v7h6l5 -5v-7h-6zM363 505l3 9l9 -9l-7 -6zM310 466l5 -5l12 14l-6 -2l-2 -4h-7zM170 550l7 7l4 -4v-6zM446 415l3 5h7v-7h-7zM336 517l2 4l5 -13h-7v9zM444 126v8l7 -8l5 -2l-7 -2z M358 244v5l9 -2l-4 -8zM169 450v7h7v-7h-7zM211 355h9v-5h-9v5zM441 137v6h10v-3zM419 328l3 -4l-3 -4h-8zM317 561l4 -5h6v5h-10zM407 383v-4l9 1l-2 3h-7zM321 247v-9l6 1zM445 111l6 6v-9zM280 392l5 -4h4v4h-9zM465 358h5v-5h-5v5zM291 200h7v-6zM340 540l2 4h3v-6z M389 358v-3h7l-3 4zM316 549l-4 -7l9 9zM421 385l2 -5v8zM291 404l-4 -3h4v3zM375 325v-2h2v2h-2zM308 434v-3l2 3h-2zM319 480v-2h2zM347 431l2 -2v2h-2zM386 269v-1l3 1h-3z" />
<glyph unicode="&#x26;" horiz-adv-x="540" d="M200 -2h-14l-10 2l-4 -2l-17 2l-4 3l-27 2l-8 7l-6 9l-10 2l-18 19l-7 3v7l-16 22l-6 3l-3 6v7l-8 7l-4 28v42l5 4v21l-4 7l4 8v17l7 7l-5 2l5 3l-6 4l15 35l9 2v14l27 17l7 16l5 -3l3 2v13l6 10l3 -2l2 -9l13 2l-6 12l5 4l2 7h6l4 14l-22 16l12 7l-2 2h-8l-10 17l-5 2 v12l-5 4l-17 28l-6 -2v10l-3 6l3 29v37l3 9l-5 5l6 25l-2 13l5 6l-3 2l8 23l25 26l6 2l4 12l17 9l19 4l5 -4l6 2l11 -5l3 -13l5 -5l2 -21l-4 -7v-6l5 -7l-4 -4l-18 6l-7 -8l3 -6l-7 -7v-18h-6l-4 6l-9 -2l5 -11l6 -27l-8 -4v-11l3 -3l3 8v7h10v-7l2 -2v-18l-7 -15h-5v-11h21 l3 -3h18v12l9 8l-6 5l-6 -14l-8 4l7 6h-8l-4 -7h-9v7h9l9 5l-2 12h5l2 -3h16l3 -2l-5 -4v-8h7l4 -3h5l-5 15l3 5l-3 1l3 3h13v-9h5l5 6l8 -4l5 3v11h6l4 -10l6 6l-6 14l-2 1l6 3l-6 6v8l5 5l-6 7l-7 -3l7 27l-7 3l-6 7l-3 -5h-4v17l-23 12v5l4 3l-10 10l18 8l2 14l16 6 l18 -3l14 -8l32 -32l-4 -4l12 -3l11 -13l6 -20l-6 -17l9 -19v-44l12 -12h-10v-13l-2 -2l2 -9l5 -3l-9 -4l2 -14l-2 -7h-3l-2 -8l-8 -3l4 -9l-5 -6h-14v-10l7 4h5l-3 -7l-9 -10v-20h-7l-4 -3l2 -5l-7 -6l-9 -17l6 -5l10 10l-3 8l21 6l-18 -21v-7l17 2l-4 -6v-5h-9l-4 5l-2 -3 h-5v3l-4 2l-6 -14h3l6 6l17 -8v-7l5 -10l7 3l2 19h14v-3l-12 -5l5 -9v-11l11 -3l-5 -13l7 -12l5 -4v-5l-11 5l-5 -9l2 -3h7l4 -7l6 2v-2l4 2h17v17l6 4h4v14l10 4v9l16 5l4 -4l4 13h8l7 -3l2 3h10l11 -6v-30l-9 -17v-13h-4l-9 -11l4 -10l-4 -5l-12 -2v-11l5 -18l-14 -3 l1 -26l4 -2l-5 -11l4 -3v-9l-3 -5l3 -2h8l-4 -15l8 -8l6 -14l14 -14l6 -9l9 -6v-5l6 -8l9 -20v-14l-6 -9l-10 -5l-8 3l-26 2l-24 16l-1 10l-19 14l-6 13l-13 7l-3 -4l-3 4h-10l-5 9h-2l-2 -5l-7 -6v-6l-9 -12l-10 -24l-2 2h-7l3 -2v-7h-5l-3 -4l-14 -5l-4 -10l-7 8h-9l-4 -5 l-2 2l-6 -2h-18l-6 7h-6v-4l-29 -6v3zM137 99l9 -9l5 5v4l14 14v4l-7 10h-3v7l11 11l6 -7h9l-2 14h-14l-2 5h-8l-13 16v3l9 -3l4 -5l12 -5l3 5l20 -4l-4 -14h4l5 7l2 -2l5 7h4l10 10l-5 8l-5 2l-1 3l-3 -14h-5l-4 5l2 1l-9 5l-3 4l-11 -6h-12v2h7l5 10l-14 2l-4 4l4 8h2 l7 10v8h-12l-3 7l-10 -6l5 -7l-2 -3h-5l-10 -7l3 -10l12 7v-11l-10 -2v-7l2 -8l-7 -6l5 -4v-5h-5l-5 5v6l3 4v10l-7 5h-5v-5l7 -11h-4l-4 -8l4 -11v-10h-3v-9l5 -13h7l-4 7h6v-3l10 -4l-5 -9l-10 -10zM202 521l-2 5l-9 -4l5 13l4 -4h5l6 10v13l9 9h7l2 2h6l2 -11l13 -4h9 l-2 -8h-8l4 -7l-5 -2l-2 -4l-10 2l-1 19h-19l-2 -15l6 -4v-5h-4l-10 -6zM160 228l2 -1l13 1l2 9l-10 -5v6h5l5 10l-5 4l4 11l-1 9l-17 -5l-5 -13h-11l5 -15l11 3l5 10v-12l-5 -4zM236 81l14 -5l4 3l-6 8h-16v-6h-9l4 5v9l4 3l-11 8h-9v7l4 3l-4 6l3 3l4 -3v3l-4 4l-14 -10 v-3h5l4 -12l9 -11v-6l-4 -1v-8h15zM186 210v-4h4l3 15l5 -11h16l3 7h3l12 11v3h-12l-4 5l-4 -9l4 -8l-2 -2h-12v5l-7 6h-5v-6l-7 -8zM170 76l2 -2l14 7l4 5h7l-2 13l-5 -2l-6 2l-14 -13v-10zM239 473l2 -4h7v4l5 5l-3 4l-4 -2l-7 21l5 4l-3 6h-4l-3 -20h-7l9 -9v-6h5z M259 107l8 -3h11v18l-4 3l-3 -8h5l-17 -1l-2 11l-7 -7v-4l9 -4v-5zM249 91l4 4v6l-9 3l-7 6l5 10h-13v-4l-3 -4l7 -9l11 -6zM164 110l6 -8h9l2 9l14 2l-2 7l-7 5l-7 -9zM130 217l6 6l-4 13h-11l-4 -4zM318 393l4 4l7 2l7 7l7 -7v-4h-17l4 -9h-8zM197 242l-2 -4l5 2l6 -2 l14 7v7h-5l-4 -7l-6 4l-8 -2v-5zM175 466l3 -6h10v6l-9 4v8h-9v-9zM229 452l3 -4h5l-2 9l-6 4h-9l-5 4l-4 -4l7 -4h5zM326 271l9 10l-6 3l-5 -3h-9l-2 6v-10h6zM181 569l3 8h-8l-1 3h-5v2l6 4l5 -5l5 -1l2 -10l-4 -5zM220 581l9 4v8h6v-13l-12 -3zM225 138v-4h2l9 13v5h-7 l-5 -5l5 -6zM149 512l9 -9h2v8l-5 10l-6 -4v-5zM188 136l14 -2v8l-9 4zM197 448v-8h8v10h4l-7 6zM155 87l3 -9h5l2 8l5 7zM354 284h10l2 -5l-2 -2h-12zM205 266v-12h6v7l-2 2l2 5zM176 531h10l3 -3l-13 -5v8zM274 369l6 -6l9 6h-9l-6 5v-5zM116 207v-10l4 6h4l4 7zM229 180 l6 -4h9v4h-5l-3 3zM190 261v-4h5v9h-7l-2 -3zM229 197l3 -3l3 3v4h-8l-7 -3zM351 314l3 9l5 -2v-7h-8zM179 293l4 -4l3 4l-2 3h-9v-3h4zM210 486l4 -4h6l-5 8zM343 383l6 5l4 -4l-4 -4zM287 388v-2h10v5zM227 480v-10l7 7zM259 173v-6l7 5l-4 4zM181 592v3h7v-6zM259 141v-5 l8 7h-10zM175 198l2 -3l7 6h-8zM160 97h5l-2 7h-3v-7zM283 162l4 -3v8h-4v-5zM202 83l-5 -9h5v9zM220 439l3 -3l4 3l-3 3zM250 500v-4h3l2 4h-5zM347 240l7 -7v3zM259 491l3 -4l3 3zM262 182v-2v2zM216 192l2 -3l-2 8v-5zM184 448l2 -2l2 4h-4v-2zM250 203v-2h5v2h-5z M170 279l5 -2v4zM265 500l2 -1l-2 6v-5zM181 311v-4h3zM306 386l2 -3l2 5zM246 173l2 -5v8zM347 83l2 -5l-2 8v-3zM276 341l4 -4v4h-4zM193 108l2 -2l2 5zM278 356l-2 -3l4 3h-2zM176 189v-2l5 2h-5zM414 155l3 -3v3h-3zM223 171v-4l2 4h-2zM255 494v-3l2 3h-2zM176 159v-2 l3 2h-3z" />
<glyph unicode="'" horiz-adv-x="140" d="M56 525l-11 34v67l3 5v22l-3 17l7 7v5l-6 6l13 19l7 2l5 5h4l5 -5v-5l7 -1l5 -9l-3 -8l7 -14v-16l-5 -5l2 -20l5 -14v-24l-5 -13v-26h-4l3 -4l-4 -15l-16 -16z" />
<glyph unicode="(" horiz-adv-x="224" d="M128 -78l-4 7l-7 7v7h-3l-6 19l-19 29l-5 4v10l-6 5l-4 6v8l-10 18v7l-9 12v27l-2 7v85l4 5l-4 4v35l-2 4l2 7v46l5 6l-10 12l10 15l-7 31l2 24l3 10l-5 5l2 5l2 30l-7 7l5 18l-2 5v16l3 8l-4 7l4 34l-4 21l3 15v19l3 6l-3 16l4 35l5 9l4 2l9 33l12 11l7 3l2 16l5 4 l10 29l4 3l7 9l3 12l10 5l3 5l15 7l22 -11l1 -13l-9 -9v-5l6 -5l-7 -11l-9 -27l-10 -7l-7 -21l-7 -7v-12l-14 -14v-13l4 -7l-4 -8l3 -6l-9 -9v-5l-3 -2v-9l5 -4v-12l-10 -20l3 -3l2 -16l-5 -14l3 -4v-8l4 -12l-4 -31l-3 -2l3 -3v-39l4 -12l-5 -4l3 -10v-31l-5 -14l-2 -68 l3 -9l-2 -13l-3 -5l3 -1v-31l-5 -9l6 -16l-3 -38l3 -24l-1 -7l5 -14h-8v-4l7 -7v-12l9 -30l5 -4l2 -9l7 -14v-13l7 -3l7 -14l9 -9v-14l9 -9l4 -19l3 -4v-10l-3 -1v-9l-17 -3z" />
<glyph unicode=")" horiz-adv-x="224" d="M55 -85l-3 7l3 3l-3 4h-4l4 11v9l4 5v5l6 6l3 10l11 22l8 10l10 20l8 3l7 11v7l5 10l4 25v23l7 10l-5 8v19l5 4l-5 10v20l-2 7v32l2 7l-2 7v76l2 4v19l3 7l-3 9v75l4 8l-4 22l3 9l-3 10v25l3 7v53l3 5l-6 24v21l3 5h-5l-12 27l-6 21l-10 9v12l-11 12l-19 47l3 21l5 9 l28 -6l9 -9l4 -9l16 -17v-12l9 -9l7 -13v-12l7 -7l23 -43l-3 -8l3 -4l6 -16l-2 -77l3 -7l-2 -15l-3 -4l4 -14v-12l-4 -13v-11l9 -3l-9 -16v-21l3 -5l1 -36l-5 -6l8 -8v-14l-7 -12l3 -24l-6 -6l3 -4v-21l-7 -32v-25l6 -21l-6 -11l2 -21l3 -6l-3 -17v-21l-4 -9l-5 -4l3 -15 l-3 -11l5 -4v-14l-8 -7l-5 -29l-5 -10l-12 -15l-15 -32l-8 -8l-3 -17l-29 -31z" />
<glyph unicode="*" horiz-adv-x="381" d="M168 457v10l-7 3l-9 47h7l-4 9v13l-17 7v6l-27 -2l-6 -3h-6l-14 -7h-7l-12 -6l-18 12v17h5v6l7 3h9l26 14l20 5l5 9l11 -3v5l-5 3l-4 18v13l-18 11l-3 12l-6 3l-9 19l4 21h15l4 3l11 -8v-5l30 -25v-7l11 -20l10 6h6v-4h5l9 7l5 9l7 4l3 10h6l4 4l-1 7l21 19h6l7 4l7 -3 v-10h7l3 -2l-6 -11l3 -6l-11 -21l-15 -13l-6 -15l-5 -3l11 -22l9 -9h8l2 -5l10 -2l4 -3h12l19 -14l4 -6l-3 -7l5 -4v-8l-10 -2l-6 -7h-14l-19 5l-4 4h-14l-4 5h-3l-3 4l-9 -6l-2 -5l-8 8l-8 -5l-7 -19l-2 -12l2 -7l-2 -31l-12 -17h-14z" />
<glyph unicode="+" horiz-adv-x="394" d="M190 205l-6 7h-9v9l-5 5l-3 21l3 1v12l-3 5v23l-14 28h-20l-9 2h-21l-6 7h-7l-3 -7l-7 7h-9l-9 4l-14 16l13 16h15l9 5h30l21 7h14l6 9v12l9 8l2 24l4 9l-4 12l3 7l-3 15l16 16l19 -8l-3 -15l6 3l2 -12l7 -13l-6 -8l6 -11l2 -9h2v-3l-4 -4v-16l6 -7h10l5 -9h23l9 -3h34 l25 -5l7 -15v-11l-14 -14h-10l-5 -3h-15l-1 -2l-42 -2l-5 -5h-9l-2 -5l-16 -13l3 -7l-8 -7l2 -16l4 -7l-5 -4l4 -7v-26l-16 -16h-8zM172 242l3 -5v5h-3z" />
<glyph unicode="," horiz-adv-x="176" d="M38 -111l-3 13l-3 6l7 19l-3 3l8 38l10 32l4 3v41l9 3l7 7l5 2l6 7l3 -7h7l4 4l2 -6l7 -3l11 -27v-14l-4 -5l-6 -20v-18l-10 -3l-4 -7v-7l-8 -7l3 -13l-10 -3v-11l-9 -3v-14l-18 -11h-5l-6 -4z" />
<glyph unicode="-" horiz-adv-x="248" d="M116 328l-4 -8l-12 5h-44l-5 3h-20l-13 9l-4 6v16l17 12h25l6 -2l8 4h43l5 -2l10 3l7 -4l16 6h13l10 -4l11 4h21l14 -7l8 -16l-8 -16v-4l-18 -12l-16 7l-5 -5h-9l-9 -3l-12 4l-8 -4h-13z" />
<glyph unicode="." horiz-adv-x="160" d="M71 9h-7l-7 6v8l-9 18v25l3 2v5l11 12h18l9 -3h9l5 -5l7 -21v-6l4 -11l-10 -23l-20 -7l-1 -3h-9z" />
<glyph unicode="/" horiz-adv-x="260" d="M-4 -77v9l-6 8l6 26l4 2l-2 5l2 2l-2 3l5 11v12l11 34l10 19v21l4 9v12l2 13l8 7l1 21l12 37l5 9l9 24l3 22l6 8v13l5 25l4 -4l3 16l7 14l2 28l3 2l2 21l7 7l16 58l5 23l9 14l-4 17l10 19v16l6 17l6 7v21l12 22l3 25l7 21l6 12v10h5v25l9 22l12 17h26l5 -18l-4 -24l-3 -4 v-14l-4 -7v-12l-7 -14l-2 -16l-5 -5v-25l-5 -6l-2 -19l-7 -14v-10l-9 -16v-20l-3 -4l-6 -28l-3 -5l-2 -22l-9 -8v-14l-5 -19v-24l-7 -13l-4 -25l-3 -4l5 -5v-7l-12 4v-4l3 -2v-12l-3 -4v-8l-9 -13l-2 -16l-3 -5l-1 -18l-8 -23v-5l-7 -7v-9l-9 -19v-9l-5 -21l-4 -5v-6l-5 -12 v-18l-9 -21l-7 -10v-17l-6 -8l-5 -16v-12l-7 -20v-7l-8 -14l-4 -18l-5 -7l-5 -17l-8 -9h-17z" />
<glyph unicode="0" d="M85 360l-22 10l-6 13v33l-2 4v50l-2 8v21l3 7l-5 21l5 5l-8 4l5 14v18l4 4v9l5 10l9 4l2 9l11 14l8 3l25 28l10 4l6 14l7 5l12 4l11 7l4 5h54l6 5l14 -3l10 -5h11l3 3h6l3 -3h5l5 6l6 -3h20l6 -5h15l8 5l13 -6l10 5l18 -6l14 -2l2 -6l9 -4l8 -16h8l17 -16v-7h14l9 -16 l4 -2l5 -8v-9h10l-4 -6l10 -5l7 -12l-4 -9l8 -8l4 -12l-3 -17l-3 -5l3 -4v-7l3 -6l-7 -15l4 -7l3 -13l-4 -14l4 -5l-8 -23l2 -5v-23l-4 -4v-16l-15 -15l-6 3h-7l-7 -7h-6l-15 6v3l-6 7v14l-5 7v46l-4 14l5 9l-8 12l3 2l4 12l-3 8v29l-11 11l5 4l8 -3l-13 24l-7 3l-18 21 l-7 2v6l-9 3l-8 7h-13l-14 5h-25l-12 -12l-7 10l-4 -10l-12 12l-7 -5h-20l-3 2l-7 -3l-7 3l-12 -2l-2 -3l-7 3h-16l-10 -7h-9l-4 -11l-7 -4v-5l-6 -4l-12 -17h-8l3 -12l-5 -11l-9 -5l3 -11l-2 -3v-7l-5 -10l11 -15h-6v-12l-3 -3l3 -12l-5 -10l2 -30l4 -9l-6 -7l5 -9l-8 -7 v-13l-12 -4l3 -4l-10 -8l-6 3l-7 -3zM309 3h-28l-7 2l-26 -4l-17 4l-5 -2l-12 4l-42 2l-18 9l-2 3l-10 4l-16 20l-11 3l-8 13l-10 7l-14 22l-11 8l-8 12v13l-5 13v51l-2 7l2 4v19l-2 23l2 5l-3 33l3 18l3 5l-3 6l9 19l14 6h13l3 -6h3l5 -5l4 2l9 -9v-12l-2 -2h5v-7l-3 -2 l9 -23l-2 -17l7 -15l-6 -5l8 -11l-11 -26v-5l-3 -5l3 -7h3l4 -20l5 -7l-5 -3v-18h6l8 -9v-8l9 -4l21 -21l7 -1l6 -8l23 -6h19l2 -3h5l4 5l19 -2l2 9l7 -3l4 -6h8l2 2h16l10 3l7 -3l10 2l12 -5l10 10v5l7 7l4 -6l-9 -9l9 -2l21 20l-2 10l2 2h11l7 9l6 -1l11 20l6 19v32l6 13 l-3 6v51h-5l2 9v38l8 3l-3 2v9h4l15 14h16l9 5l15 -10l8 -11v-9l6 -10l-7 -26l3 -8v-21l5 -35l5 -15l-5 -5v-7l6 -13l-4 -8v-25l-2 -14l-9 -9v-6l-7 -10h-3l-4 -5v-16l-7 -7l-23 -7v-2l8 -2l-4 -8l-6 -2v-7l4 -4l-9 -2l-2 -3h-5v5l-9 -10l-16 -9h-5l-3 -4h8v-7l-21 2l-5 -7 h-21l-8 5l-3 -2l-3 -10l-11 7h-18l-5 -5v-4h-4v12zM465 358v4l3 3l6 -6l-6 -3z" />
<glyph unicode="1" horiz-adv-x="324" d="M175 3v2l-28 -2l-21 2l-6 6l-10 -6l-20 4h-19l-20 13l-3 13v27l13 13l10 3h14l2 3l24 5l5 15l-5 10l6 19l-2 8l-7 4v5l11 8l-11 4l-3 5l12 7v8l6 8l-6 9l-4 2v5h7l-3 11l2 7h4l-6 12v6l5 9v24l4 9l-7 12l6 9v41l-6 5l6 4l1 37l-4 7l-3 16l6 14l-3 4l-7 48l7 12v20l-3 9 l6 9l-6 6l3 3v25l3 2l-8 15v5l-13 6l-8 -5l-28 -4l-17 18v17l11 17l8 3l5 9l15 14l9 3l14 13l30 12h18l8 -8l5 3l7 -3l7 -17v-12l6 -8v-15l3 -13l-3 -3v-17l-3 -2l3 -7v-12l5 -5l-5 -13v-22l6 -3v-7l-9 -4l3 -9l8 -7l-6 -5l-2 -38l-3 -10l3 -3v-7l-7 -12l9 -8v-21l-5 -8 l3 -2l4 -9l-6 -13l6 -15l-4 -12l5 -24h4l2 -3l-11 -2v-7l4 -5v-11l5 -5v-15l-9 -5l4 -9v-10l6 -3l-4 -3v-5l-8 -3l8 -9l-6 -14v-9h13l-9 -9l-2 5h-2l2 -15h7v-9l-3 -2l3 -4l-3 -3h-4v-14l-5 -9l7 -18v-19l5 -5h4l11 -15h8l1 -5l17 2l4 -9l8 -7l5 -11l-4 -7l3 -2l2 -12l-5 -3 l-18 -20h-16l-2 -4h-18l-5 2h-12l-3 -7z" />
<glyph unicode="2" horiz-adv-x="526" d="M308 308l-6 11h-16l-6 6l-13 4l-1 16l11 15v8l19 9l5 -6l8 6h7l9 4l13 -4l10 7l4 -5l19 7l8 14l13 9v7l7 4v8h-7l5 4l4 9l-7 28l3 2l-2 17l4 2v5l-11 16h7v7l-5 4l8 9l-6 5v19l-5 16l-16 -3v3l3 2v5l4 2l-4 2l-3 8l-6 6h-9l-14 11l-5 8l-7 -7h-4l-3 -5l-12 12h-18l-12 7 h-11l2 7l-6 24l9 8l2 14h4l9 5h72l9 -8h3l12 -9h4l9 -7l2 -4l5 -2l5 -11l11 -6l6 -9l6 -2l3 -6l10 -7l5 -10l5 -3v-5l7 -6l2 -33l3 -15l-3 -6l5 -33l-2 -15l1 -37l5 -11l-7 -8l3 -14l-2 -15l-10 -9v-8l-9 -18l-19 -12l-4 -10l-18 -12l-4 -7l-15 -7l-10 2l-11 -5h-16l-7 -2z M152 3h-23l-4 -2h-12l-27 8l-16 -5l-15 29v13l5 5l5 11l10 5l3 5l9 -5l8 8h13l8 -3l10 4l3 5l5 -9l7 -5l14 5l4 -2h14v-3l4 -4l13 9h22l4 -2l3 5l14 -3l3 3l21 -9l6 6h16l11 -6l3 4v5h7v-7l9 7h17l5 -7l8 4h14l4 3h17l11 -3h37l18 -5h10l16 -11v-40l-6 -5l-17 -6l-35 -2h-41 l-17 -3l-18 5l-29 -7l-10 5h-16l-7 -5h-12l-5 3l-37 -5l-20 7l-28 -2l-7 -3zM92 93l-29 9l-3 9l-8 8l5 17l-4 8v39l-2 3v22l3 4l-6 34l3 15v24l6 13v9l7 3l3 9l9 5l16 19l30 25l9 4l4 5h8v-5l4 3l4 -4l5 4l19 2h31l1 -2h8l3 4l8 -4l3 -7h11l5 -3l-8 -5l12 -18l-3 -7l-4 -2 v-9l-8 -9l-18 -3l-14 -6l-5 5l-22 -8l2 -3l-12 3h-13v-18h-9l-8 -3l-6 -12l-7 -7l3 -20h4l2 -3l-2 -2l2 -2v-11l-5 -5v-12l3 -2l5 -16l-5 -10v-9l-12 -23l6 -5l-3 -4v-16l-11 -22l-13 -5v-8h-4v5zM75 492l-4 5l-8 4l-8 30v46l19 31l18 21l7 4l6 7l13 8l7 14l23 18l17 2h47 l7 -7h11l6 -5v-5l10 -13l-4 -22l-6 -13l-15 -5l-7 -7l-11 5h-9l-9 -5l-4 4l-4 -4v-11h-4l-16 -13l-3 -17l-11 2l-3 -3l3 -13l-12 -9v-10l-6 -3v-10l4 -3l-6 -2l-7 -13h4v-3l-27 -5l-3 3h-5l-2 -5zM147 571l3 -2h2v2h-5zM288 368l2 -3v3h-2z" />
<glyph unicode="3" horiz-adv-x="527" d="M303 7l-12 3l-3 4v8l-10 3l-6 7l-13 3l8 7l1 -3l7 4l-4 8h-7l-5 5h8l7 7l-6 9l12 2v16h5l3 -3l3 5l7 -14l5 3l-3 4l6 5l2 -3h4l9 -7l10 17l-3 2v7l4 4l-9 5l-13 -4l5 -5l-14 -4l-3 14h-6l-3 -5h-3l3 6l8 3l1 5l3 2l4 11h10v-6l-3 -3v-4l6 -2v-3l8 6l2 -6l8 -3l2 -13h2v-9 l5 -5l7 5l2 9l7 -2l7 2l-5 4l-18 -2v5l3 2l-5 4l18 3l9 7l5 9l-3 2l3 5h-5l-9 4h-7l-6 -11l10 -2v-6l-10 -5v6l-17 3l-4 9v5l-3 4v7l-12 3v-5l3 -2v-6h-5l-2 10l4 5l-14 15l5 6h3v14h13l-1 -5l-10 -12l4 -4v-9l12 -3h12v12l5 5l-5 12l-8 -5l3 9l17 -5v18l2 7l11 -11v-9 l3 -10h-12v-4l5 -6l4 3l2 -4h9l-3 17l9 8h4v6l-16 3v6l6 3l10 12v9l5 8l4 1v8l-2 1l-2 -4l-12 3v11h-8l3 7l12 -2l7 6v5h-2l-3 -5h-9l-6 7l-5 -15l-6 -3l-9 7l9 9v4l12 7v14h-7v5h-5v-11l-9 -5v-5l-12 -5l9 -10l-4 -3l-9 3v4l-3 3l8 11l7 2l-5 2l-3 4l-10 -4v-16h-3l-6 11 l5 7l-4 10l-13 3v8l-6 -2l3 12h5l6 -10h5v3l-4 2v10l-19 3l-10 -4l-7 6l3 4h6l-3 6h-10l3 14l-5 5l-6 -3v5l13 19l21 23l6 -6l16 -5l8 4h5l16 16v6l20 6l10 18l5 5l-4 6l13 13v4l-21 -3v5h4l18 22l-4 6v7h-6v4l12 14l-12 3v9l6 3v11h-6v17l-12 3l-5 5l-7 18l-30 12h-17l-4 7 h-4l-5 -4h-15v7l-24 23v7l14 18l3 12l13 2l4 -2l58 4l33 -12l9 -9l10 -4v-5l15 -8v-8l10 -5l3 -8l6 -3l14 -14l4 -14l5 -4v-8l8 -10l-3 -10l5 -9l-3 -5v-26l-4 -18l6 -7v-14l-2 -4l7 -4l-2 -17l-3 2v-7l3 -7l-3 -6v-10l-4 -5v-9l-7 -5l2 5h-2l-10 -14l12 -4l5 -5l-2 -7h-15 l-4 3l-7 -3l3 -16l-12 -5l9 -2l2 -3l14 -1l-2 -5h-6l3 -14l-2 -2l5 -3l8 -15l10 -3v-8l9 -4l-7 -7l4 -15l-3 -13l4 -36l5 -5l2 -10l-7 -4l4 -10l-4 -20l5 -9v-12l2 -2v-14l-10 -20l3 -14l-7 -7v-10l-13 -13l-3 -12l-14 -12v-10l-11 -3l-16 -17l-6 -11l-19 -6l-8 -8l-33 -10 l-15 6l-9 -5l-9 5l-7 -7zM70 511l-7 4h-5v8l-6 10v17l-4 19l6 13l4 21l5 2l4 12l15 14l3 8l12 5l3 8l5 2l18 18l19 10l9 10l25 3l6 3l8 -3h9l7 -6l7 4l3 -2h11l5 -5l10 -5l8 -11l-4 -11l1 -10l3 -9l-3 -2l-1 -14l-3 2l-2 -4l-4 2l-5 -2h-19l-5 4l-18 -7l-7 -7h-9l-2 -4h-5 l-2 -8l-19 -13l-11 -12l1 -6l3 -3l-16 -16l-2 -30l-9 -5l-4 -7l-16 4l-5 -7zM176 12h-4l-16 2l-21 11v5l-16 6l-10 17l-12 7l-13 21v5l-19 11l-7 9l-9 67l6 11l-5 12l4 14l7 14l9 4h14l3 4l6 -5l15 -4l4 -6l2 -14l2 -47l9 -13l2 -11l9 -3l-4 -4l3 -2v-7l5 -6l6 3v-7h-4v-3 l14 -11l16 -7l11 2l-2 -9l6 -6l8 4l12 2l4 3l5 -5l4 2l5 -4l13 2v-14l12 -7v-13l-10 -27l-6 -3h-12l-10 -4l-19 4l-5 -3zM204 347l-12 2l-9 7l-5 17l8 10l5 15h41l14 -15v-15l6 -15l-18 -6h-9l-14 -8zM342 240l4 7l-6 5l6 6l-5 4l6 6l11 -10l-10 -4l14 -17l-10 -4h-10v7z M379 143l9 -4l4 8h-3l-10 10v19l-7 -3v-18l-2 -2zM303 231l3 5h-3v7h7l2 -15h12v-6h-6v5l-15 -14v18zM280 140v7l-2 10l12 10l-3 -20l2 -6h3l2 -3l-6 -2zM356 456l2 6v11l5 -2v-4h10l-4 -12l-9 -2zM365 549l5 5v7l5 5l4 -2l-1 -5l4 -5l-4 -4h-8v-5zM267 194v3l9 1l8 4l4 -5 l-15 -7zM254 173l8 7l9 -3l-9 -4l-3 -5l5 -1l-2 -3h-5zM384 165l9 -3v14h7l-4 4l-9 -9h-3v-6zM328 317l3 -9h5v6l-8 7h-6v-4h6zM306 291l-13 3l4 4h9l4 -10zM280 326l9 4l5 3v-7l-14 -5v5zM217 162v9h5v-9l-2 -3zM255 642v2h7l2 -4l-4 -4zM335 502l5 7l2 -3v-7h-4zM267 113 h9v-7h-3zM336 147l2 -4h2l2 4h3v3h-5zM358 562l4 5l4 -3l-3 -5zM294 248v4h7v-4h-7zM393 243v-10l3 3v7h-3zM292 99h6v-4h-4zM345 308h4l-4 6v-6zM384 189l-6 -3l13 3h-7zM393 263v-2h3v2h-3zM340 167v-5l2 5h-2zM363 287l3 -3v3h-3z" />
<glyph unicode="4" horiz-adv-x="509" d="M334 8v10l-7 7v12l-5 16l3 10v34l-3 6l4 13l-6 7l2 6l-2 14l-2 3l9 11h-5l-2 2h-7l-5 -4h-5l4 7h4l5 5v8l-12 2l-5 3l-2 -3l8 -7l-3 -3l-5 4h-5l-14 -12l-7 6l3 8l-13 4l-5 12h-8l-4 -9l-7 7h-11l-3 -13l-14 13h-22l-17 11l-9 -9l-7 8l-9 1l-9 6l-4 -4l5 -6h-4l-11 12v4 l-6 5l-6 12v6h-4l-5 -5l-21 -1l-8 -11l-10 -7l-12 6h-16v16l-5 7l3 10v10l11 15l3 13l12 6l-3 4l7 4l18 33l14 14l4 13l9 9h3l6 8v6h6v15l14 13v12l4 5l4 -5l2 14l10 5l5 11l16 16l-3 3l8 11h6l8 14l-3 2l9 2l10 19l20 23v5h-2v6l14 4l3 8l9 9v7l16 16v10l12 15l6 3l12 16 l16 25l29 19h12l15 -4l4 -8l-2 -2l4 -14l-4 -5l-9 -31l-5 -3l-5 -14l-7 -7l-2 -9l4 -5h7l-2 14h30l14 -14l5 -13l2 -14l8 -4l-9 -12l5 -5v-9l-2 -3l2 -2v-9l-4 -5v-11l-4 -8l11 -11v-5l-6 -5l3 -6l-2 -4h-4l-3 -17h14l-7 -9h2l-5 -8l3 -15l7 -4v-7h-9l-3 -11l7 -13l5 -2v-9 l-5 -5l5 -5l-2 -14l-5 -4v-17l8 -17l-6 -5v-5l7 -7v-11l-2 -3l7 -6l11 7l-9 9l12 7l6 -16l-6 -5l7 -8l15 -7l6 -11h2l2 -4l10 -7l-17 -26l-16 -14l-5 3l-2 -7h-7l-3 -10l-15 12h-9v-7l4 -4v-3l-11 4l-2 -10l7 -4l-6 -12l3 -4h6l-4 -6l7 -33l-2 -2l2 -11l-4 -5v-33l-7 -27 l-5 -7l-2 -9l-12 -11l-13 -3h-19zM142 275v-4l4 2l6 -3h14l13 9l-4 5l2 4h-7v5h14l3 8l9 4v7h-12v-9l-14 -4l6 13h-10v-9l-20 -10l-4 3l-5 -5v-9zM299 510v-11l8 3v9h11v7l-7 6l-3 6l12 3l-2 8l-16 -12v-11h-7l-4 -5zM207 284l2 -5h8l-4 14h10v5l6 11h-15v-4h3l-5 -9l-7 4 l-5 -2l-3 -7h5v-3zM304 467l5 -6l13 9l3 10l-3 12l-6 5h-5v-7l6 -6l-4 -11h-9v-6zM182 330v-4h12l6 12l9 -5h9v6h-9v3l3 2l-7 3l-4 -8l-14 -4zM278 171l-1 -3h6l7 8v8l-7 3l-5 -4v-12zM278 483v-7h11l6 12l-5 7l-2 -5zM114 248l2 -3l10 7l-4 5l-6 -3zM258 373l-5 -8h9l10 4 h-7zM202 317l3 -3l4 3v6h-7v-6zM294 453l9 -5l-5 13zM334 571v-3h7v10zM220 362l3 3l-2 7h-7zM316 455l4 -5h2v9zM231 300l5 -8l3 4l-4 4h-4zM265 450v-7h4v7h-4zM188 353v-4l5 2v7zM170 339v-1l7 1l-2 5zM239 402v-4h5v4h-5zM188 282l3 -3h5v3h-8zM308 437v-3h3l2 3h-5z M205 358l2 -5l2 3l-4 4v-2zM248 287v-3h3v4zM262 300l3 -4l2 2zM158 284l5 3l-2 -5zM218 398v-3h3v3h-3zM223 287l3 -3l1 4zM299 434l3 -2l-3 5v-3zM232 368l-2 -3h5zM329 563v-2h3v2h-3zM256 420l-3 -2h5zM251 430l-3 -2h3v2zM156 291l2 -3h-2v3zM237 309l2 -1l3 1h-5z M256 434l2 -2v2h-2zM274 187l-2 -2h2v2zM397 185v-2l2 2h-2zM307 305v-2h1zM235 339v-1l2 4z" />
<glyph unicode="5" horiz-adv-x="526" d="M185 1h-15l-26 5l-27 27l-13 9l-5 9l-7 7l-2 5l-15 7l-2 9h-4l-3 11h-5l-13 19v26l3 9v12l-3 1v30l3 10v11l6 7v5l6 10l12 4h17l13 -6l5 -9l12 -6v-3h-5v-6l5 -9v-5l3 -5v-9l-7 -7l7 -9l1 -12l5 -9l-6 -9l10 -4l15 -26l11 -3l8 -7l6 3l-2 -7l2 -10h10l3 5l10 -6h9l11 5 l3 -5l12 -3l9 -5h6l4 -21h15l12 14h5l17 12h10l9 4l15 -1l11 11h3l-3 -11l16 13l7 15l25 17l8 26l-5 4l7 4v31h-9l4 10l-4 2l10 2l-4 11v7l-2 3l2 11l4 7l-5 16l8 7v5l-11 2l4 11l5 9l-5 8v9l-6 7v8l-12 6l-7 7l-11 5l-10 1l-9 10h-5l-4 -4h-10l-4 4h-33l-5 11l-13 3l11 3 l-11 5l3 10l-12 5v4h4l10 12l12 10l-3 4l9 9l2 -10l12 5h7l8 -3l5 6l8 2l4 -2l13 3l8 -3h12l3 -5l11 5l18 -9l4 -5l15 -2l-3 -3v-10l16 -8l32 -37v-11l5 -9v-17l4 -18h-4v-3l3 -2v-34l-3 -5l3 -7v-9l-6 -6l7 -11l-5 -13h5v-5l-6 -12l5 -9v-9h4v-23l-3 -2l5 -8l-2 -9v-7 l-3 -6l3 -6l-3 -8l-1 9l-15 -29l-13 -9l-12 -15v-5l-4 -5l-15 -6l6 -5l-6 -2l-7 -8l-4 3l-7 -7l-5 -10l-5 4l-13 -12h-13l-19 -5h-37l-4 3l-15 3l-13 12h-12l-7 3h-9v-7l-7 -7h-9l-14 -7h-25zM167 341l-3 8l-9 -2l-30 7l-11 -5l-15 7h-21l-9 9l-7 3v4l-5 5v37l-4 20l3 12 l-5 11l6 13l-4 31l2 7l-2 3v18l-5 12l7 3l-2 31l3 7l-3 12l2 8l-2 15v39l4 14l9 16h12l5 5h12l1 -2l9 4l56 2l14 -2l5 5l14 -7h30l4 -5l2 3h5l2 -6l8 -6l4 -7l7 -4v-3l-6 -3l-5 -11v-14l-10 -6l-3 -7h-8l-8 4l-3 -7h-10l-6 3l-6 -3h-16l-14 -5l-5 5h-6l-4 -3l8 -7l-14 -4 l3 -6l9 -5v-3h-9l-7 7l-5 -11v-14l13 -9l-4 -3v-14l-6 -4l-5 -14l2 -5l3 -20l-3 -3l4 -2v-5l-5 -3l10 -3v-9l-9 1v-10l4 -6l-1 -11l5 -11l8 -2l8 -11l6 -4l17 6l9 -9l9 5l14 -5l6 3h12l6 3l12 -17v-4h5l5 -5v-3l-5 3l-3 -5l6 -20l5 -6l-4 -8h-9l-11 -9l-9 -3l-2 -6h-5l2 4 l-4 4l-19 -6l-16 2l-12 6zM348 629h-7l-4 -3h-10l-4 3h-19l-27 10v24l10 15l15 11h87l8 2l46 -5l9 -4v-3l7 -3v-20l-5 -9v-5l-2 -2v-6l-14 -3h-16l-9 -5h-16l-8 3h-20l-4 -6h-17v6zM164 601v7l6 2l5 -2v-7h-11zM260 25h5l6 7l-8 3zM165 527l3 2l4 -7h-7v5zM324 234h5v-5 l-2 -2zM260 45v-5h3v5h-3z" />
<glyph unicode="6" horiz-adv-x="527" d="M226 -2h-21l-5 2l-14 -3l-16 8l-2 4l-13 7v5h-8l-32 32v4l-28 20l-4 13l-8 7l-1 16l-8 7l8 25l-3 2l-2 8v12l4 13l-7 9l4 7l-6 5l-2 7l4 11v37l-2 4l-2 13l5 13l-3 21l2 7v32l-5 15l3 3l-2 5l2 15l-2 17l-3 8l8 24l-7 7v3h2v18l-2 5l4 10l-2 6l-14 7h14l-2 9l3 9l-3 5 l4 11l-4 5l2 7v16l-4 7l5 8l-4 8l5 3v6l11 12v13l9 4l6 10l9 5h4l2 7l15 14l3 6l12 8l5 11h6l22 9l12 -2l16 7h32l26 -5v-6l15 -14v-2h-8l4 -8v-10l6 3l4 -7l-15 -8l-5 -12h-13v-9l-5 -7l-4 5l-7 2l-6 -6l-6 4l-7 -3l-8 -12l-24 -1l4 -5v-5l-2 2l-9 -6l5 -5v-4h-8l-4 -10 l-9 -2l3 -9l-3 -3l3 -4h-3l3 -5l-5 -3v-6l-5 -9h-5l12 -6v-16l9 5l3 12l1 -7l3 -2v-3h5v-4l-7 -9l-2 6l-4 -6l-10 2v-5l-8 -8l3 -3l10 2l4 -2l-7 -7v-3l4 3v-5h9l-1 -11l-9 -5v-6l9 -10l20 8l5 -6h5l4 15l9 -6l12 -4v-2l-5 -3l5 -4l5 -10l32 5l9 3v-5l-8 -8l12 -6l8 7h16 l4 2h21l5 5l4 10l6 -10l10 -2l3 -3h4v7l-3 2l3 10h3l4 -10v-6h7l3 -3h4l2 3l-5 4l4 3l6 -3l3 7h6l2 -11l5 -3l11 5l12 -11l7 2l9 -2l13 -19l11 -2l21 -29l9 -6l4 -9v-5l7 -7l2 -21l5 -18l-5 -8l8 -4l-3 -13l-5 -10v-9l7 -7l-4 -17l10 -7l-4 -17l3 -14l-3 -7l7 -3l-2 -4 l-5 -2l3 -4l-4 -9l8 -8l-7 -3v-9l4 -3l-4 -3l-2 -19l-5 -7v-4l-4 -5v-5l-11 -14v-4l-6 -5h-9v-7l-15 -16l-9 -3l-3 -8l-17 -18l-4 -10l-7 -2l-2 2l-21 -7l-6 -5l-6 3l-8 -3l-6 3l-13 -3l-9 3h-17l-4 5h-7l-17 8l-5 19h6v9h-3l-2 -4h-3l13 22l30 8h20l5 4h15l8 12l4 2v7 l21 18v8h5l2 9l6 8l-4 3l3 5v11l5 3v4l-5 8v6l6 7l-1 16l-8 11h-11l4 12l12 2v5h-5l-2 -2h-5l-4 4l9 5h7v5l-5 7v23l-4 4l2 14l2 2l-2 5l3 9l-8 12l-9 2l-6 13l-6 -4l-9 3l-7 11l-25 -2l-7 4h-6l-3 -4h-8l-4 -8l-11 3l8 5l-3 7l-13 -4l-16 11l-16 -4l-7 7l-11 -8l-5 -11 l-2 2l-9 -3v-11l-4 -5h-5l2 2l-3 13l-11 -5h-8l-3 -8h7v-4h-8l-4 7h-4l-2 12h-8l-4 -6l-9 -1l-8 4l-10 -4v-3l10 -5l3 -4l-4 -5l-12 9h-5v-5l10 -5l-2 -22h-4l-4 -7l3 -4l-3 -2v-45h12l-4 -4l-10 -3l7 -13l-5 -3v-22l11 -3l-8 -5l-3 -16v-14l-2 -4v-21l-4 -4l15 -7l3 -4l7 4 l6 -23l10 -10l12 -2l2 5l2 -8l9 4l4 -12h22v-3l4 3l2 -3l17 -2l9 -4l4 -17l6 -10l-3 -13l-14 -13l-25 -8zM442 494l-4 9l-7 2l-12 12v4l5 4l-8 12l4 4l-3 10l-7 7l-2 14l-7 9h-3l-8 14l-17 7h-9v5l-14 6h-18l-14 8h-16l-7 6l-5 10h-7l-6 6v5l-3 3v6h4l3 -5h5v8l5 11l6 2l2 3 l19 9h25l13 -3l8 4l33 -8l6 -6v-6l12 -8v-3h9l11 -14l17 -9l2 -5l15 -15l6 -17h2l4 -7v-11l6 -5v-4l-8 -4v-3l6 -6l4 -11l-10 -15v-15l-16 -11zM175 469h-5v18l5 5l8 -3l4 11l7 -7l-8 -4l5 -2l-2 -12l-3 -2v-7h-7zM219 450l-15 6l-5 -5l-5 6v9h6v-5l5 -2l2 2h19l11 -14 l-5 -5zM246 321l2 7l10 4l2 12h5l2 -17l-15 -11zM175 544l3 9h8l12 12l6 -3l-6 -9l-7 -4h-8l-4 -8zM182 298l-3 13l-2 3l3 9h9l-5 -15l7 -10l-2 -3zM239 484l-2 3h-7v11h-4v5l3 3l15 -19h4v-6zM277 541l6 6h14v-5l-4 -4zM205 285v8l-2 5h9v-3l7 -5zM274 399v-7l9 2v10h-11z M242 440v5h6l9 -8l-9 -3zM209 510l4 3l-6 6l2 2h10l-3 -13zM389 108l-1 5v5l9 -2v-5l-8 -7v4zM225 548l3 3h9v-7zM242 506v11l6 -5v-9zM286 331l7 4h5l-3 -7h-9v3zM179 510l3 4h7l2 -2l-2 -4h-7zM235 305l4 2l3 4h4l-4 -11v2zM267 358l5 -3h5l-3 9zM310 429l3 10l3 -3v-7h-6 zM256 470h2l5 -7l-7 -2v9zM412 176v6h5l-2 -9zM283 364v-5l5 3l2 5l-2 2zM273 466h5v-12zM198 528h5v-5l-5 -2v7zM198 429l2 -5l3 3v4h-7zM175 424l4 -4l3 4h-7zM357 290h2v-6h-2v6zM254 418l-3 -5l5 2zM143 180v-3h2v3h-2zM419 217v-2h3zM145 500l-2 -2h2v2zM147 302l-2 -2 h2v2z" />
<glyph unicode="7" horiz-adv-x="473" d="M160 15l-11 4l3 25l9 18l9 27l5 9l5 19l9 19l2 21l9 9l8 16v11l6 12l3 2l7 28l5 4v14l4 5l5 20l6 3l5 7l2 19l5 4v12l12 17l6 18v14l10 5v8l5 16l9 9l13 35v7l7 10l-5 13v7h3l3 -7l6 7v7l3 4l-9 3l4 2l7 9l4 10l7 6l13 27l-3 3v5l-5 -5l-3 3v9h6l2 2l-2 4l6 12h9v8l3 11 l9 10l-3 1l-2 7l-7 -7h-9l-3 4l-7 -4l-17 5l-17 -2l-5 -3l-20 3l-5 -11l-4 11h-12l-6 -3h-10l-2 5l-3 -2v-9h-9l-14 9h-11l-5 5h-21l-14 -5h-48l-9 5l-6 -4l-4 6l-14 -2l-2 -4l-11 5h-9l-9 5h-8l-13 9l-5 12v21l5 9l18 9l21 5h39l7 3l15 -4l34 6l9 -3h20l5 5l7 -4l9 7l4 -8 h51l3 8h2v-6h3l2 6h5l3 -8l26 8l3 -3v-7l35 2l9 3l9 -3h23l4 -4l5 2l7 -2l14 -14v-9l7 -15l-12 -6v-7l5 -2l-2 -5l-7 -3v-13h-9v2l-7 -3l18 -12l2 -12l8 -8v-12l8 -10l-8 -5l-5 -9v-12l-3 -12l-9 -21l-6 -2l4 -9l-12 -17l-9 -22l2 -2v-8l-6 -6l-5 -12v-13l-7 -10v-9l-7 -3 l3 -7l-14 -18l3 -10l-8 -8l-4 -16l-12 -12l-5 -2l-2 -16l2 -6l-4 -11l-5 -5l-12 -25l-4 -15v-8l-11 -10l4 -3l-13 -14l-3 -21l-12 -12v-9l-7 -14l-11 -13v-15l-5 -9l2 -4h-4v-5l-9 -13v-14l-8 -8l-13 -22l-5 -15l-12 -19l-9 -4h-16zM319 532l2 3l-4 7h4l18 -9v-2h-9l-4 3 l-7 -8v6zM263 607v5h11v-5l-4 -3zM321 612l3 2l6 -5v-5z" />
<glyph unicode="8" horiz-adv-x="527" d="M153 7h-10l-6 -2l3 7l-7 7l-5 2l-22 24h-5v8l-9 3l-6 12l-14 8l-15 24v5l-4 9v39h-4l5 14l-5 5l4 13l-4 11l7 9l-6 18l9 28l-4 13l-7 13l9 9l-2 15l-4 7l13 2v11l19 13l6 13l8 4l1 8l-6 4l11 7v5h7l-9 9v14l-18 19l-6 10l-11 5v9l3 7l-5 5l-5 -2v9l5 5l-2 6l2 10l-3 23 l4 16l-3 11l2 8l-4 3l4 4v30l4 15v11l9 6v13l23 16l5 12l10 5l18 23l12 7l4 5h9l11 8l29 4l7 -3h37l6 -9l10 -4l-3 -6l8 -17l-3 -12h3l5 -5l-3 -3l-2 -9l-3 11l-17 -14l-4 3l-6 -9h-16l-12 -4v-5l-5 -4l-12 3l-11 -4v-7l11 3v-9h-6v2l-12 -2l-9 -10l2 -2l-5 -7l-1 4h-8 l-6 -4l-10 -15l9 -4l-9 -9l4 -13l-6 -12h-4l13 -24l-8 -8l5 -12l8 -3v-8h-9v-8l11 -11h6l4 -7l2 -12h7l5 9l6 -9l-8 -4l4 -7l17 -4l3 -8h23l-4 17h-4l-7 5l4 4h3v-5h4l3 3l6 -3l-5 -5l2 -8l10 -3v-7h-10v-5h24v-4h6l8 7l4 -7v-9l5 -12l5 -6l6 32l-15 7l4 4l3 -3h6l5 3l4 -3 l-3 -2l17 -8l2 6h10v7l-5 3l-6 -3l-9 14l1 9l-2 5l21 -2v-3l-5 -5l-4 -14l9 4l7 -3l7 4h5l-15 -16h19l5 2l2 -2l14 4l-4 4l11 18l7 -3h10l3 11l8 8l-6 8l10 5v3l11 16l-6 -3l5 14l-5 5l7 4l6 10l-7 7l3 4l-5 8l-4 1l2 3h7v7l-9 7l9 3v6h-7l-5 19l-5 5l-4 -3h-6l-3 4h-3 l-2 -4l-2 9l16 3v4h-6l-6 -3v12h-14v9h-4l-6 -5l-10 10h-10l-3 -3l-7 8h-13l-4 7l-7 4v5h-6v-5h-6v29l-6 2v11h4l9 5v6l17 10h22l10 5l4 -3h33l9 -5h9l23 -19l13 -17h10l3 -10l7 -6l4 -9l9 -10l8 -4l20 -33v-12l2 -2l-2 -24l2 -46l-8 -17l4 -7v-6l4 -3l-6 -12v-9l-3 -3v-12 l-4 -6h-9v-5l4 -4v-6l-4 -4h-12l-2 -16l-14 -3l2 -9l-9 -2v-7l9 2v-6l-4 -8l7 -7l7 -2l8 -20l17 -21l11 -29l-9 -8v-12l7 -12l-5 -9l-4 -1l7 -8v-13l2 -12l-8 -8l6 -9l-5 -16v-15l7 -5l-6 -17l6 -9l-7 -7v-13l-4 -9l-19 -20l-9 -4v-11l-9 -8l-17 -7l-9 -18h-9v-8l-12 -5 l-6 -8l-24 -6l-2 -3h-9v5h-24l-17 -3l-26 12h-7l-2 12l-5 4v7h-12l-4 -4l3 -4l-9 -9l3 -3l7 3v-4l-12 -7v-6l-17 3l-5 -6h-17l-11 6l-7 -3l-25 -3zM260 49l8 -8l5 8h-5v5h6l3 -3l2 7l-5 3l-2 5l6 -4l7 6l4 -3l12 8l10 -3l4 7l5 -5l12 -2l7 2l2 3l14 6l12 10h4l9 14l5 4l3 7 l9 10l3 -5l6 11v25l7 10l-3 7l-1 42l-6 6v20l7 4v11l-14 3l-6 7l13 6v7l-4 -2l-9 11h-2l4 5l-4 3v4l-5 7l-7 -4l-3 -24l-9 9l-6 -11l-3 4l-10 -4l-16 7l9 4l3 12h6l4 -10l-5 3l-3 -3l9 -7l18 18l-6 4l-2 6l-7 7h-6l-8 17l-18 -9l-11 -4l-8 8h-9l-14 6l-5 12h-13v5h-10v-3 l7 -6l-7 -14l-14 -7l-1 -3l-9 -3l-3 3l13 14l-15 4l-6 -6l-1 6l-9 -12h-21l-6 -4l-8 4l3 -6l-3 -6l4 2l19 -5l-5 -14v-7h-12v10l-9 9h-12v-12h-11l-8 -8l4 -3l-3 -2h-9v-26l-4 -8l6 -13l-9 -9l3 -7l6 3h12l4 -8l3 -1l-3 -3l4 -4l10 8l-9 -18l4 -2v-7l-6 -3l-9 3v-12h-7v9 l-8 -4l-3 -8l8 -5v-8l12 3l2 -3h10l-3 14h4l5 -9h3v-5h-3l-6 -6h-21l4 -15l5 3l12 2l-5 -19l-7 -1l5 -4l7 4l10 -7v-8l-6 -14l4 -3l5 6l-3 2l14 6l-10 4l7 7l6 -5v-5l7 -11l-3 -5l5 -5h12l4 -4h17l7 7l5 2l1 12l3 1l-9 8v4h14v-18l2 -3l-10 -6l-6 -12l6 -12l8 -6l1 -12h12z M263 298l6 8l5 2v4l-14 15l-2 -3l3 -6l-8 3v8l7 2l3 6l8 4l8 -14h11v-8l-9 -9l-2 -13zM277 206l-5 5l-4 -3l-3 3h-7v7l16 -2l5 -3l11 3l14 13l-2 -4l2 -9l-5 -15l-5 6l-15 -8zM200 139h-7v7l10 7h9l-7 7l-5 2v3h14l4 -15l5 3v-9h-6l-11 -10zM298 252l-8 7l-8 -5l-4 8l3 5 l5 1l6 7l7 -11l8 -7v-9l-9 -2v6zM152 268v10l-5 2l3 8l14 -7l-8 -9l2 -4h9v5l6 5l2 -2v-5l-4 -4l6 -3v-3l-18 -2zM173 201v5l-4 3l13 13v7h9l8 -5l-8 -8h-4l-5 -5v-10h-9zM325 241l-5 5v4l9 -3l3 5v7l9 5l-3 -6l3 -10v-10l-7 -4h-9v7zM329 444h-6l-4 -4h-6l6 11l15 -2 l14 -11l1 -8h-10zM163 132v3h7v25l3 5l6 -5v-4h3l-3 -17l-10 -10zM243 289h-13v5l3 3l-3 1l9 7l3 -14l9 3l-3 3v9l11 -11l-11 -13zM319 303l-6 5v4h8l6 -10l5 15l7 -9l-19 -19zM209 222l3 5l9 11h5l4 5h8l4 3l2 -3v-9h-5l-9 4l-9 -7l-3 -5l-6 -4l-3 -5v5zM133 231l3 3l4 9 l7 7l-2 -9l7 -4l6 2l3 -6l-12 -4l-4 5l-8 -7zM166 238l-3 3l-5 7v4h4l4 -9h16v-9h-15zM242 132l2 3h7l-3 15l5 5l9 -5l-4 -4h-5l5 -8l-10 -9zM233 465v6l6 6l21 2v-3l-12 -8l-9 6l-4 -14zM215 310h-6l-4 2l3 5l18 -2v-9l-5 -5zM298 148v14h6l8 -8l-12 -12zM309 289l-5 5h-5 v9h8l9 -14l-7 -7v7zM239 207l3 15l10 -5l-10 -18zM223 261l10 10v5h5v-12l-5 -5zM229 500l4 10l14 -10l-5 -3h-9zM364 479l-5 4v3h7l3 -7l7 -5v-3h-9zM220 207l8 9l7 -8l-11 -8zM230 428l3 4l-3 5h5l4 -5l12 -2l-3 -2l-10 2l-10 -7zM202 182l13 20l-3 -16l-7 -8zM277 282v5 l2 2l2 -2h8v-9h-6zM182 182v4h15l-4 -10zM167 199l3 -2l5 -2l-2 -3h4v-2l-14 -4zM303 143l10 3v7l7 -7v-5l-4 -2l-4 4l-6 -3zM321 157l-3 12h10v-9zM212 118l-3 3l-4 -3l-7 3v5l5 -3l6 4l6 -8l-3 -5v4zM341 259l8 8l9 -4v-6h-5l-4 6l-6 -6zM191 199l5 5l7 -9l-12 -4v8z M223 169v7l3 5l2 -5l5 -2l-5 -8zM192 242l4 4l12 4v-2l-12 -10zM299 192v3h5l7 4h5l-10 -10zM325 543h-2v9l2 3l7 -14v-4h-3zM221 278l-3 3l3 4h7v-9h-7v2zM362 206l11 3l3 -3v-5l-12 3l-2 -5v7zM128 199h15v6l-7 -4v3h-8v-5zM322 220h10v-4l-6 -7zM289 88l1 3l-1 2l2 3 l7 -5v-5h-9v2zM193 544l3 7h4v-12h-4zM260 237v1l9 -1l5 -6l-6 -2zM191 419v10l9 -3l-4 -7h-5zM307 278h12v-5l-6 -2zM379 245l6 3l7 -10h-4zM346 227v2h16l2 -2l-11 -2zM228 139l10 7v-7l-10 -3v3zM286 181l3 5l6 1l-5 -9h-7zM196 303h4l9 -6v-3h-4zM162 602l4 -3h4v7l-3 2 zM238 176l1 5l8 -7l-4 -4zM286 162h3l4 -6l-7 -4v10zM242 165h6v-5l-6 -4v9zM302 521h-6l3 6h5v-9zM326 268l4 4l6 -5l-7 -3zM149 564v5h8v-5h-8zM217 79l1 -4h8v4h-9zM332 500h5v-5h-8zM332 165h7l4 -5h-6zM265 267v4h4l3 -3l-4 -4zM251 127l4 4l4 -5l-3 -3zM299 460l4 3 l4 -7h-5zM390 162h7v-6h-3zM253 271l7 2v-5h-7v3zM248 341l-4 -8h4l3 3zM307 241l2 5l4 -3l-3 -6zM253 186l7 1v-4h-9zM376 252h-3v3h6l4 -5zM157 516l1 2l5 -7h-5zM263 79h9l-3 -3l-6 -1v4zM295 615h3v-7l-3 -2v9zM380 276l5 2v-5h-5v3zM349 509h4v-5h-4v5zM373 190l3 2 l3 5v-5l-6 -5v3zM173 460v2h6v-4zM140 278l5 -5l-5 -2v7zM286 297v1h7l-3 -4zM208 282v5l6 -5h-6zM187 135h1l-1 -5h-5zM293 123l3 3l3 -3l-4 -2zM345 244l4 4v-7zM279 118l2 5l2 -5l-2 -2zM265 366v-5h4zM286 141l3 3l1 -5h-4v2zM143 303l2 -2l2 2l-4 3v-3zM217 267h1l3 -3 l-3 -3zM233 483h6v-2h-6v2zM187 153l1 3l3 -5h-4v2zM154 594v-3h3v3h-3zM265 144h3v-3h-3v3zM281 91l2 -3v-2h-2v5zM214 206h3v-2h-3v2zM179 310v-2h3v2h-3zM329 208h5l-2 -2zM244 10l-2 -3l5 3h-3zM179 174l3 2l-3 -5v3zM260 171v-2h-4zM272 141v-2h-3zM277 372l-3 -2h3v2z M230 333h3v-2zM184 282h3l-5 -2zM362 201h-3l3 2v-2zM184 97l-2 -1h5zM221 106h5h-5zM55 199v-2l2 4zM399 578l2 -2v2h-2zM332 183h2l-2 -2v2zM223 132v-2h-2zM306 140l1 -1h-3zM319 208h1v-2zM127 197v-2h1zM136 217v-1l1 1h-1zM160 259h-1h-1h2z" />
<glyph unicode="9" horiz-adv-x="524" d="M330 3h-24l-16 5l-8 25l3 2v12l11 9l-4 3l14 6h15l3 -2l14 6h11v9h19l7 15l4 4l5 11l9 4v15h12l4 23l-7 5l-2 9h-3l3 12l7 -8l2 6l-3 11l-11 2v5h7v5l-7 4l3 14l-3 2l3 2v19l4 9v12l-12 7v4l5 7h-6l-4 3l-6 -5h-4l-6 -6l-6 3v7h7l-3 11l10 4v8h-12l-5 -4l-6 2l-5 5l-2 -3 v-15l11 -9v-6l-4 -4l-9 2l-3 7l-9 10l-9 2l-3 11l-11 -2l-2 -10h-8v-6h-9l-2 2h-9v3l5 1l2 12l12 3l-3 8l-8 4l-7 -15h-15l2 -12l-2 -4h-9v4l11 19l2 10l-2 1v10l-4 9l-4 -3l5 -18l-13 -11h-5l-1 -5l-8 9v-13l-4 -3l-7 7l-7 2l-4 5l-4 -9h5l-6 -10h6v-4l8 7h4v-7l-9 -2 l-3 -5h-6l-5 5l-7 -5l-2 2h-5l-2 3l7 9l-2 5h-5l11 13h-15v-7l-20 10l-13 -5l3 -2h-12l-18 13l-16 4l-4 11l-12 9l-4 14h-10l-9 13l-13 8l-2 4l2 2l-6 14v14l-4 12l4 7v9l3 8l-5 8l4 6l-6 3l4 23l-4 30l6 4l-6 24l4 9v21l15 31l21 13l23 30l5 2l16 16h4l10 12l32 2l6 5l8 -4 l7 3l28 -2l4 -7h7v-9h8l6 -5l6 -12l-9 -5l-11 -17v-3h5v-4l-12 -2l-2 -3h-18l-16 -9l-4 4l-15 -9l-2 -7h-12l-14 -15h-4l2 -7l-5 -7l-6 5l1 -15l-4 -5l6 -5l-3 -4h-8v-11h10l-15 -12l-5 -8l6 -20l-2 -20l-4 -6l6 -5v-29l-2 -4l5 -2l2 -6l8 -3l7 -13l8 -4l9 -9h5l-3 9l5 3 l4 -7h7l5 -5h8l-4 -9l18 5l15 9l2 -3l9 3l3 -12h9l5 12h16l6 -5l10 7h5l-6 -8l8 -12v12l9 3v12h12l2 16l4 -4l9 5l3 -8v-8l-8 4l-10 -9l4 -3v-5h12l4 -4l9 8l-4 3l5 2l8 8l7 -6l-4 -4v-6l15 -4l6 6l2 -5h7v5l-7 4l3 3l8 -3l6 19l9 3v13h5l-3 7l-5 5v5l-6 4l-3 5l-7 4l7 5 l-2 4l4 4l2 -6l5 -5l6 13l-12 6l4 5h12v10h-16l-5 6l11 8l7 -3l3 1l-3 19l5 23h-12l-5 -3l-1 26l-18 9l-33 27l-12 -8h-9v11h-17l-8 -8l-3 8v9l-11 12l2 26l20 18h10l8 8l15 -6l14 -2l2 2h7l7 -4h21l16 -17l7 -4l16 -16l9 -6l3 -11h6l9 -6l19 -20l2 -13l4 -3l6 -13l-3 -10 l5 -13l-4 -5v-6l4 -11l-4 -10l1 -4l5 -3v-14l4 -7l-9 -5l8 -11l-5 -2l2 -17l-3 -3l6 -6l-5 -4v-19l3 -15l-5 -9l10 -7l-6 -8v-16h5v-7l-7 -14l5 -5l-8 -7l-1 -9l-4 -4l14 -4l-6 -8h-3v-5l5 -6h6l-8 -12l5 -17l-6 -9l6 -18l-5 -9l2 -7l-5 -9v-28l4 -6l-4 -22l-1 -25l2 -11 l-2 -21l-5 -5v-10l-14 -13l-2 -5l-5 -2l-18 -14l-3 -10l-13 -5l-14 -10l-4 -7l-22 -14l-19 -7h-13l-2 -2h-7zM176 0v3h-10l-26 5l-40 38l-9 14l-19 12l-11 15l-7 21l-3 61l4 42l3 4h3l6 7h9l8 6h9l3 -5l11 4l14 -7v-8l6 -10v-8l7 -3l-4 -9v-6l5 -3v-2l-5 -3l-3 -6l3 -24 l6 -2l-4 -13l16 -17l12 -16l5 3l2 -11l14 -6l10 -10l8 3h14l9 5l7 -7l18 -10l5 -6v-30l-5 -14h-11v-8l-20 4v-5l-5 -3l-9 3l-5 -3h-14zM350 223l4 4v9l4 9l21 5v-5l-13 -6l-6 -11l-2 -9h-4zM255 365l4 -5l11 11l-6 10l-12 -2l4 3l-6 4v-9l5 -6v-6zM315 257v1h4v10h-2v7h16 v-7l-12 -15zM308 212v5l9 3v7l-10 5l5 6h3v-5h6l7 -6l-9 -8l-2 -7l-5 -2zM365 439l5 7h2l-4 9h11l2 -12l-2 -4l-14 -5v5zM287 233l-5 3v6l16 -2l-4 -9l-7 -7v9zM297 452l-3 9h-7v9l13 -5v-13h-3zM250 219v5l-4 3l8 5l3 -4l2 -13zM328 521l5 5l3 5l2 -7h9l-5 -4h-6l-8 -5v6z M347 461h-7l-2 3l2 2h7l4 -5v-4l3 -2v-3h-7v9zM220 252v6h-3v3h8l4 -3l-5 -10zM384 252l2 2l3 -2v-16h-5v16zM391 409l-2 -14l9 4v7zM270 430l3 11h5v-11h-8zM156 473v5l9 -3v-6l-3 -3zM300 441l6 5v4h2l5 -9l-13 -2v2zM270 176l3 4l5 -4v-8h-5zM384 291l6 -7h5v6l-11 4v-3z M372 413h-3l4 9l6 -9l-3 -4zM345 136l2 7h7l-6 -11zM379 207h7l7 -1l-9 -5h-5v6zM381 515v7l9 -2v-3h-4v-5zM160 257v4l2 2l4 -5h3l2 -4l-2 -2zM383 154l6 5l4 -9h-7zM337 239l8 9l-3 -15zM336 431v8l7 -9l-5 -4zM334 475l4 7h2v-9l-2 -2zM259 646h7v-6h-7v6zM276 275h6v-7 h-6v7zM300 395l-2 -7l10 2v2zM333 503l3 3l6 -7h-9v4zM185 234l5 11v-14zM326 300l10 -2v4h-10v-2zM340 390l2 -7l5 7h-7zM243 318v-4h7v4h-7zM187 258h5l9 3l3 -3h-17zM395 113l3 -2l2 5h-5v-3zM405 206v-5l2 5h-2zM220 381v-2l5 2h-5zM480 388l3 -2h2z" />
<glyph unicode=":" horiz-adv-x="160" d="M66 161l-11 3l-2 13l2 46l6 9l16 6l6 -3h16l15 -8l5 -18v-13l-5 -27l-18 -13l-9 3l-13 -2zM78 421h-14l-2 5l-11 12l3 14l-6 13l5 9v7l7 9h2l11 9l7 -4h16l12 -12v-22l8 -3l-3 -9l2 -7l-10 -9l-5 -11z" />
<glyph unicode=";" horiz-adv-x="171" d="M43 -108l-3 2l-4 -7l-9 3v23l6 11l-4 8l7 41l5 13v19l4 14v26l8 6l2 8l16 6l19 -5l6 -4h8l9 -11v-15l-3 -6l5 -11l-7 -31l-8 -22l-9 -9l-6 -16l-10 -4v-10l-21 -27l-11 -9v7zM54 370v2l-11 3v14l-4 6v30l12 15l6 4l12 -4l5 5l20 -10l10 -10l-3 -6l6 -12l-6 -21l-7 -14 l-14 -7z" />
<glyph unicode="&#x3c;" horiz-adv-x="412" d="M318 187l-12 7l-10 9l-20 7h-9l-8 7l-2 5h-5l-25 9l-14 9h-9l-7 8l-5 1l-9 9h-14l-9 10l-7 2l-5 5h-13l-9 9l-14 4l-10 8l-14 2l-18 14l-9 9l-9 14v12l-4 8l22 28l9 3l6 10l60 25l21 18l8 -2l2 4l5 2v5l36 16l14 9h6l5 10l26 8l10 8l9 4l6 7l13 2l4 5l27 5l14 -14v-18 l-13 -17l-12 -9l-11 -4l-5 -5l-7 -3v-3l-16 -3l-7 -7h-4l-13 -13l-17 -6l-8 -7l-21 -4l-1 -12l-5 -2l-14 6l-4 -9l-12 -4v-7h6v-4h-9l-13 -5h-9l-10 -10l3 -3l-3 -3v-9l11 -6l3 -9l6 -6h8l2 -7l14 -2l2 -8h8l4 -7l13 -6h14l10 -9l20 -8l47 -30h13l7 -9l28 -18v-34l-13 -3z " />
<glyph unicode="=" horiz-adv-x="394" d="M267 270h-9l-8 -4l-15 4l-20 -4h-30l-6 2l-49 -3l-9 4l-8 -3h-8l-4 4l-9 -4h-12l-6 6h-12l-11 12v22l13 10h14l30 7h35l9 5l28 -8h18l9 12l7 -9h14l8 4l3 -4h15l2 -3h7l4 3l5 -3v-2l7 2h16l12 -2l9 -4h15l6 -12v-12l-17 -18h-11l-14 -4h-11l-10 -5zM212 383l-16 5l-6 -3 l-8 3h-48l-5 -3h-9l-5 3l-10 -3h-15l-7 4l-25 4l-10 11v18l7 8h9l10 9h81l9 4h64l5 -3h13l8 4l11 -4h44l5 -4l9 3l3 -6l13 -5l-2 -15l-8 -7l-2 -11h-9l-2 -6l-18 -2l-11 6l-18 -4l-13 -6l-7 5h-10l-9 -5h-6l-5 -4z" />
<glyph unicode="&#x3e;" horiz-adv-x="412" d="M48 193v17l6 17h6l9 4v5h6l20 17l13 4l7 6l46 28h12l9 9l14 5l9 9l16 7h7l35 23l3 13l-3 8l-7 2l-13 12l-8 -5v6l-11 8l-16 2l-17 14l-10 4l-11 10h-5l-6 7l-30 14l-11 10l-17 6l-11 9h-9l-19 18l-8 11l3 28h18l32 -10l19 -15l21 -9l5 -9h9l19 -12h11l8 -7l11 -4l6 -5 l16 -5l3 3h5l2 -5l9 -4l6 -6l10 -3l4 -8h11l11 -6l18 -5l16 -16h10l20 -20l2 -36l-13 -22l-19 -10l-10 -11l-22 -3l-25 -21l-10 -2l-5 -5l-4 3l-12 -10h-11l-2 -4l-14 -5v-4l-16 -8l-3 4l-12 -12l-21 -6l-10 -11h-15l-6 -9h-7l-5 3l-2 -7l-30 -14h-21zM267 349v-2l3 2h-3z M170 233l-2 -2h2v2z" />
<glyph unicode="?" horiz-adv-x="472" d="M210 211l-11 16v16l3 5l-3 9v25l4 9v12l5 12l4 4h5l13 25l14 11l8 13l17 11l6 10l9 4l9 14v9l15 4l8 8v4l10 7v11h11l17 18l11 17v16l6 11l-4 3l3 15l-5 4v19l-7 -3l-5 2v4l14 5v5l-6 5h-5l-3 11l-16 14l-2 -5l-7 10l-2 -7h-5l-2 2l4 9l-2 9h-7l-13 8h-17l-7 -3l-8 8 l-3 -3v-5l-5 -2l-2 5l2 2v7h-5l-7 10l3 13v16h7l7 7l2 9l14 5l32 -2l5 -3h12l19 -5l17 -16l17 -10l11 -17l7 -7h4l9 -14h3l18 -23v-14l3 -5v-21l2 -4l-6 -10l10 -10v-8l-4 -7v-11l3 -4l-3 -6v-14l-6 -10l4 -3l-5 -5l-2 -7l-9 -9l-2 -9l-7 -9v-12l-17 -9l-18 -18l-8 -12h-9 l-6 -26h-7l-6 7l-6 -11l-11 -12h-7l-7 -14l-5 -4l-32 -37l-7 -2v-14h3v-3l-8 -2l8 -9h-8l-9 -33l-4 -4h-8v-7h-13zM60 500l-12 20l-4 16l5 5l-7 22l5 8v16l13 25l10 6l13 16l12 10l6 3l24 30l26 12h22l9 2l10 -5h16l24 -13v-8l-3 -2l3 -4l1 -12l-7 -3l6 -4l1 -5l3 -4h-10 l-2 -12h-9l2 10l-14 -7v-11l-12 4l-18 -3l-7 -7h-15l-3 -11l-8 -3l8 -9l-2 -2h-15l-13 -14l3 -2l-5 -10v-30l-9 -6v-7l-12 -11h-7l-5 -3h-12zM210 5l-12 28l4 7v21l9 6l4 10l11 4h20l17 -20l-2 -12l7 -9v-16l-5 -9l-12 -7l-5 -9l-4 4l-15 -7zM185 578h5l4 -3l-9 -2v5z" />
<glyph unicode="@" horiz-adv-x="546" d="M284 201l4 3v4l-11 11h-7v5l-7 12l-14 13h-7l-2 5l6 7v7l-4 2l-2 5h-3v12l6 5l-7 8h-8v3l17 7v4l-9 9v10l4 5v9l-7 13v9l4 -1l-1 18l5 6l-4 24l-4 4v10l3 4l-7 9h11v12l20 23v12h-6v7l10 6l3 8l3 -3l3 -14h4l7 7h6l10 5l-3 3l5 15l5 -4l2 -9l11 4v-2l5 -2l7 -8h9l9 10 v-10h10l5 10v5l13 -11l-7 -6l-5 3l-9 -12l3 -2v-5l-3 3l-2 -3v-9h14v7l7 14h14v18l2 7h21v-7h-7l-5 -4l7 -7l2 7h15l4 2l2 -14l5 4v8l7 -3l2 -5l15 6l8 -8l21 -2l2 -7l-2 -5l11 -7l-4 -13l10 -16l-7 -7l4 -46l6 -4l-6 -5l-3 -20l8 -11l-3 -9v-11l4 -5h-10l4 -19l5 -5l-3 -1 v-30l-9 -21v-8l-5 -4l-6 -12l-17 -14h-9v-5l-7 -4h-7v-6l-13 -3l-10 5h-22l-4 11h-6l-6 6l5 5l3 12v12l14 5v6h11l17 13v32h6l4 12l-6 6h-4l-3 3l9 5l-2 9l2 18l-11 7l5 1l6 8v27h-6v26l-5 4h-7l-2 -4h-7l2 -12l-9 -2l-7 7v9h7v11l-13 -3l-8 13h-5l-6 7h-6l-10 -14h7v-5 l-30 -4v-5h4l5 -7l9 -2l-5 -5v-5h-4l-5 -9l-9 -2v2l5 3l-8 2l12 8v11h-9l-3 -8l-2 6l-9 -5l4 -12l-2 -2l-3 3l-5 -4l4 -4v-7h-3l-2 -7l-7 -7v-9l3 -3v-10l9 -6l-5 -2l6 -2l5 2v-4l5 -3v-6l-9 6l-5 -2l-9 9l-5 -2l5 -12l-4 -21l9 -11l10 -3l-10 -21l23 -15v-8l11 -4l14 -14 l2 -13l-5 -6l13 -13h9l-17 -5l-16 5l-14 -7h-11l-2 3h-17l-7 -6zM90 359l-7 10h-14l-8 9l5 5h-7l-7 23l5 12l-6 2v8l3 2l-3 11v23l-3 12v66l5 10v14l9 9l2 9l7 4l4 10l6 7h4l11 12l6 11l13 6l5 8l6 2l7 16l10 2l16 12l11 12l46 2l5 3l6 -4l22 4l6 -3l10 4l19 -7l11 6l16 2 l7 -7l9 5h12l11 -3h33l21 3l4 -5h14l26 -14l9 -11v-3l9 -6v-8l9 -4l12 -12v-14l4 -9h5v-60l-9 -14l-13 -7l-5 3l-10 -5l-4 2l-4 7l-8 2l-12 15l3 2l5 21l-8 16l-4 4v10h-9l-5 -3v7l-7 7l-5 2l-6 8h-7l-4 -4l-10 -4v-4h-3l-3 9h-3l-3 -5h-7v12h-9l-5 -4h-18l-8 2l-8 -2l-7 2 l-7 -7l2 -5h-7l-9 10h-7l-5 -8l-1 3h-3l-6 -5l-11 5h-14l-4 -7l-18 -2l-4 -6l-3 3h-9v-9l-9 -5l-18 -3l-8 -8l6 -8l-9 -11l-10 4l-11 -11l3 -13l-9 -8l2 -4v-16l-9 -3v-7l4 -4l-6 -7v-51l2 -4v-21l3 -3l5 -25l-5 2v5l-8 -7l-6 -14l-13 -9l6 -2v-3h-8l-1 3zM267 -6h-11 l-10 -6l-11 6l-11 -4l-11 4l-7 -3h-20l-4 4h-5l-13 14l-24 15l-5 11l-10 6l-21 22l-9 6l-3 9l-16 11l-12 22v9l-7 9l5 9l-2 8v22l-3 6v34l-3 8l5 17l-4 7v65l2 13l8 11l16 9v9h14l9 -5l5 -14l7 3l5 -4l-6 -4v-9h11v-14l-4 -9v-12l-2 -4l6 -14v-9h-5l4 -14v-19h5l-6 -12 l3 -10l14 -3l-4 -13l-3 4h-7l-3 -11l2 -26l5 -4l3 -6v-4l10 -10l6 3l-3 -7l8 -4l1 -5l7 -3l5 -11l14 -7h12v-12l15 -2l6 5h6l3 -3l-3 -5l12 -6h21l8 -4l13 6h20l5 9h7v-6h2l4 -7h7l7 -4l12 6h14l4 2l19 -2l9 -4l21 6h9l9 3l11 -7l13 2h18l13 -10l7 -22l-4 -7l-3 -9l-1 -8 l-12 -8l-14 -5h-42l-4 -3h-9l-5 5h-14l-4 -5h-33l-15 -2l-11 3l-8 -5h-17l-6 -5h-9zM376 404l-2 3h-5v4h7l4 9h5l5 -4h9v-7l-12 -8zM272 516v6l-12 11v5h6l4 -8l5 3l2 5l7 -2l-8 -4l3 -10l5 -2v-8zM357 317v30l8 -8l3 -22h-11zM197 86l6 9l3 4l1 -4l17 -2l-5 -5l-9 3l-8 -9z M332 372v9l14 8v-8l-7 -9l-5 -2zM196 430l7 13l9 5l-2 -12l-7 -4l-3 -6zM311 545v3l-2 2l5 2v11h9v-4l-4 -4l-3 -14zM323 584l-9 -4h-5v2l5 2l10 11l3 -4v-13h-2zM179 484l7 8h5l-2 -2v-7l9 2v-7l-2 -2zM230 77v7h6l1 -3h8v-5l-3 -4zM353 531l-5 5l3 3l15 -3l-4 -7zM385 584 v5l14 7l2 -3l-2 -2h-7v-9l-2 -2zM261 591l11 5l4 4l3 -5l-13 -9zM280 546l4 6h9v-10zM378 351l2 2l3 7h5l2 -9l-8 -3zM422 393v9h5l4 -3l-2 -1l4 -8zM369 224l2 3l-2 1l2 3l7 -3v-4l-4 -5h-5v5zM323 390l2 5l7 4l5 -5l-10 -4l-2 -4zM339 605h9v-5l-9 -6v11zM332 323h14v-5 h-14v5zM422 420v8h7l2 -3l-5 -8zM216 494l5 5l5 9v-11l-5 -5h-5v2zM413 344v9h7v-6l-5 -5zM367 568v4h4l7 -11h-4zM323 353l3 4l9 -4l-3 -4h-5zM427 344v12l2 3l2 -15h-4zM215 386l8 -3l-8 -9v12zM236 470v5l6 -4l4 2v-7zM325 303l2 2h8v-5h-8zM233 228v5h9v-5h-9zM380 377 l4 3l4 -4l-3 -7zM221 527h-2l-3 2h12l2 -5h-6zM185 219v8l6 -8l-5 -2zM242 515v3h7v-3l-4 -2zM173 273h9v-3h-7zM324 551l3 3l3 -2v-4zM206 548h4v-6h-4v6zM404 552h6v-4h-6v4zM376 490l2 -2h2v4zM224 619l-3 -2h5zM369 473v-2h2zM348 499v-2h2zM334 370l1 -1h-3zM339 593 h-2l-2 1z" />
<glyph unicode="A" horiz-adv-x="500" d="M38 14h-6l-9 9v12l-4 3l4 19l11 24l-2 2l4 9v24l5 9v4l9 30l7 5l-2 16l2 7l-3 7l10 6v17l8 16l4 28l10 7l-6 20l7 9l-2 8l-6 5l8 8v26h7l3 5l-7 6l8 3l3 5l2 -3l3 3l2 16l7 7l2 15l-2 3v7l2 2v10l11 9v7l5 4v24l5 10l-3 7l10 5v14l4 19l8 14v16l6 2v24l-2 2l5 2l2 5l9 8 l-4 8l2 5h9l13 13l-4 2h5l3 -6h13v-5l14 6l-2 5v21l-3 12l3 7v13l11 15l18 9l21 -7l17 -11l10 -14l10 -33l6 -6l-7 -7l4 -3l3 -7l10 -3l-8 -7l4 -3l8 -18l-4 -3l4 -7l4 4l-3 3h5v-9l4 -10l-7 -10l11 -11l-4 -7l3 -7l7 -2v-9l-3 -2v-4l8 4v-8l5 -8l-5 -5v-17l4 -4l2 2h5v-7 l-7 -4v-9l9 -3l8 -9l1 -11l-4 -5v-7l4 -5h8l2 -2l-5 -7v-7l-5 -9l7 -9l5 -24v-23l9 -16v-6l6 -9l-3 -6l5 -14l4 -4v-3h5l-3 -4v-5l5 -2v-23l4 -5l-2 -9l5 -7v-7h2l5 -38l9 -14v-31l5 -10l2 -21l7 -30v-9h-4l5 -9h-4v-4l7 -13l-9 -22h-32l-5 3h-5l-4 4l-7 15l-6 21l-5 5v12 l-12 17v10h-5v10l3 7l-7 12l-13 10l7 11l-8 9h-14v-14l-3 -4l-4 10l7 12l10 9v3h-10v18h-10v-13h-18l-5 -7l-6 6l-10 -7l-1 3l-17 2h-28l-2 -5l-9 -5l-6 -13h-9v23l-4 4l-21 -1v-4l14 -6l-4 -9l-5 5l-10 5l-6 6l-13 -12l-7 4l4 3v3l-8 2v-18h-6v7h-9l-4 -10h-6l-7 5l-4 -5 l-7 -18v-7l2 -2l-4 -5l6 -3l-10 -12l-3 -10l-3 -3v-6l-6 -10v-7l-3 -4v-12l-11 -14l-6 -3l3 -4v-11l-13 -7l-17 -2l-3 -4zM228 375l7 -3h14v27l2 3l-7 9l7 2l2 -2h6v12l-9 7l3 7h3v-3h7l5 3h5l-10 23l-3 -5l-4 -2l-3 7l4 6l-13 -6h-9l-2 -5h11v-5l-5 -2l-9 5l-2 8l-7 -6v-7 h9l-9 -5v-2h5l2 -7l6 -3l4 9l8 -4l-8 -11l-5 3h-5v-10l-5 -9l9 -13l-11 -3v-3h9l3 5h2l3 -10zM239 356v-5h5l3 6l13 4v8h3l7 -7l11 3l8 11l-10 26h-5v-9h-13l4 -7l-2 -5h-3v-4h-4l-5 -8l-4 -1v-5zM291 347l8 -12l3 3v11l-9 3v8l2 3l-6 2l-11 -13l5 -5h8zM268 282l5 -4l5 19 l-7 6l-8 -3h-14v-4h7l8 -6l8 8v-5l-4 -6v-5zM240 135l9 8l2 4h8l4 -4l-14 -7l-2 -4zM188 320l10 3v12h-10v-15zM191 356l2 -5h4l11 17h-8l-2 -5zM214 423l-8 -12l12 7v5l10 4l-11 3v-5zM252 396l5 -5l4 5l-2 11h-3zM170 136l5 7l9 3v-3l-10 -10zM247 318v-4h12v4l-8 5z M249 270l2 -4h9v6l-7 3zM316 147l3 10l7 -8l-7 -6zM222 326l6 -12l5 7l-5 5h-6zM400 324l4 4l2 4l4 -4v-8zM218 355v-6h5l5 4l-2 5zM244 515v-12h3l2 7l-2 3l4 7zM299 275v-7l8 4v6zM196 383l9 -4l7 2v7h-3l-1 -5h-12zM277 374l2 5l-2 4l8 -5l-8 -9v5zM235 483v-7h3l4 4v3 h-7zM220 130l6 6v-9zM295 326v-5l7 9h-3zM205 146h3l1 -5l-4 -5v10zM274 162h5v-3l-5 -4v7zM208 347l1 -3v7l5 5h-6v-9zM187 279l1 -4h5v4h-6zM268 377l1 2l5 -2l-5 -5zM230 413l3 5l2 -2v-5zM221 308v-3l9 7zM277 328l4 -2v6h-4v-4zM239 543h5l-2 5h-3v-5zM263 330v-7l5 5z M253 349v-2h7v2h-7zM309 248h4l-4 6v-6zM279 314l2 -2h2l-2 5zM223 268v-2h5v2h-5zM214 601v-2h3l6 4zM242 428l2 2l3 -7zM239 293l3 -2l2 5zM235 550v-2l7 6zM316 293l3 -2l-3 5v-3zM329 569v-3h3zM256 386l3 -3v3h-3zM249 492v-2h2v2h-2zM307 308l2 -3v3h-2zM374 430v-2h2 zM302 263v-2l2 2h-2z" />
<glyph unicode="B" horiz-adv-x="506" d="M206 5h-26l-9 4l-7 6h-23v-6h-21l-3 -4l-10 4h-17l-14 14l-4 36v26l-3 4v45l-4 9l4 4v17l-8 8l4 3v21l5 11l-3 8l2 27l-2 18l-5 11l7 6v4l-9 9l5 10v14l-3 5l6 10l-8 17l3 4l-5 9l7 6v14l-2 4v21l-5 21l7 6v21l-2 3l2 5l-2 15v21l4 4l-2 3v9l4 5v4l-6 -3v11l3 8l-3 14 l4 11l-4 6l2 12l-2 9l2 4v60l4 12l5 5v4l13 7h12l8 -5l1 -4h9l11 -10l-3 -4l2 -5l5 -4v-5l6 -3l-4 -13l-6 -8l4 -4v-4l-3 -2l8 -17h-8l3 -21l5 3h9l1 -3l-4 -4h-5l-1 -3l4 -6l2 -12l-5 -6v-10l9 -11l-1 -12l-8 7l-1 -16h9l-9 -18l10 -9l16 16l4 -3l1 -5l-6 -5l-9 -2l-3 -3 l5 -1l4 -5h8v-19h-3l-2 10l-5 -5l3 -11h-3l-3 -7l-4 4v14l3 6l-6 5l-2 8h-7v-8l5 -4v-7l-5 -5v-18l14 -7l5 11l6 -5l13 7v-15l-5 -3h12v5l20 6l10 -20l14 3v9l-4 -7l-5 7l-3 22h-7l-7 -6l-3 9l12 5l12 2l3 3l15 -10v-4l-11 -9l11 -5v-10l16 -4l5 -5h5l2 3l-2 4l4 2l8 10h-10 l-5 -7l-9 9h-5l-1 -5l-3 5v9l10 13l6 -6v-12l5 -4l2 13l7 12l-7 12l21 -3l-5 17l-2 -3h-7l-7 7l-5 -2l-6 16v7l-3 2h4l7 -18h10l4 3l6 -6l8 12v7l6 8v6l10 6l3 15l-3 3l6 10l4 -4v-9l14 -5v-4l-4 -12h6v-6l-6 -7l6 -5h7l3 -9h-7l-8 6h-7l-6 -5v-4l8 5l5 -5l-1 -18l-7 -4 l-3 -5l-7 -4v-9l7 3l4 5h7l9 15h14l6 -4h4l2 3h7v-3h-3v-2l5 -3l5 5v9l-10 3l-8 8l-5 -6h-9v7l9 4l16 -1l7 11l-10 10h-6v-6l-4 -2l-3 -5l-9 2l-3 11l-5 -3l5 9v4l7 -4v-13l8 5l-3 3l3 5l1 14h-9l-12 -5v3l5 4l5 9h2l8 -7h8l2 15h10v6h-10l-1 12l-9 3l10 10l-10 10h-10 l-2 10l-7 2l5 5l-16 11h-8l-5 5l-12 -11l-8 8h-9v-7l-5 -4h-4l4 6l-4 5h-8l-2 -5l7 -2l-2 -4h-7l-13 12l-4 -3l-1 -5h-8l-3 7h-4l-10 -14h-10v7h9v2l-9 5l-6 -3l-15 4l-8 -7l-7 6l-6 2l-7 8l-7 3l2 38l12 11h21l6 3l8 -3l4 5h17l5 -6l8 9h8l4 -5l5 2l4 5l14 -2h30l9 2l7 -5 h9l5 3h9l7 -5h5l7 -7h9l7 -7v-7l6 3l17 -17l5 -2l2 -5l11 -3l3 -12l11 -7l3 -10l6 -3l12 -20v-12l3 -6v-15l6 -9l-8 -4l8 -14v-12l-4 -6v-6h4l-2 -15h2v-3l-7 -4l3 -7l11 -6l-2 -15l-7 -7l-4 -9l2 -16l-5 -5l-12 -3v-9h-6v-7l2 -2l-9 -9l-8 -16l3 -5v-12l12 -6l-4 -7l10 -6 l10 4l-3 -5l3 -3v-18l9 -9l2 -12l7 -14v-9l-4 -10v-9l8 -24l-9 -13l3 -7v-18l-5 -2l3 -5l2 -21l2 -2l-2 -2h4l-2 -8v-20h-7v-15l-9 -18l-8 -5l-27 -30l-5 -12l-11 -5l-5 -11l-16 -8l-2 -5l-12 -2l-18 -13h-25l-7 -3l-5 3l-15 -3h-45v3l-13 -4l-17 4l-7 -3zM153 74v-8l9 5 l6 -2l9 5v4l4 3l17 -3l5 5h12l4 -3h29l4 7l12 -8l9 5v-4l6 3l11 -7l10 4l9 -5l6 11l15 -3l3 9l9 -3l22 10l10 18l12 9l7 17v6l5 6v4h-5l-4 9l-9 -3l-3 3l2 5l3 -4l8 6h3l4 8l-7 6h-5l8 16v23l-7 -3v10h6l3 12l-9 11h-5l-2 5h7v7h-3l-5 8l-6 3l-7 12v7l-5 7h-7v7h-11l-3 -3 l-4 5v7h-5v-9l-5 -13l-6 4h-11l-5 3l-10 -5l3 -5l-17 -10l3 7v12l-7 7l-8 3l-10 -10v2h-8l3 2v12h-8l-4 -7l3 -5v-18h-3l-4 7h-8v-10l-4 -4h-6l1 -9l-5 -6l-11 10l7 3v9l5 2v5l17 7l-4 9v7l-9 5l-6 -3l5 -5v-4l-10 -6l-2 6l-3 2v5l-3 4l-6 -7l3 -2v-7l-3 -4v-5h-2l-3 5l-7 5 l-9 -3l-2 2l-12 -16l-2 -23h4l3 9l3 -9l4 5l2 -2v-7h-6l-3 -3h-11l-3 -5l-3 3h-4v-12l10 5v-5l4 -9l11 3l-1 13l4 5l2 -7l7 -2l-30 -30l-3 -7l-1 -17h21v-8l-11 5l-3 -6l3 -4l-6 -5v-5l12 -5v-6h-9l-7 -7l7 -16v-7l-6 -7h12v-10l-2 -2v-9l-4 -9v-7l-3 -3l3 -11l11 2v-4l-5 2 zM239 459l-8 2l-3 3l-9 2l3 7l23 2l4 10h5v-5l4 -7v-7l-6 -2l-3 -12h-6zM191 273l-11 -5v4l5 9l-12 3v7l10 -3l6 -7v-4h5v16h3v-7l4 -9v-12l-4 -2zM224 247h-6v9h6v4l-11 6l9 9h6l5 -5l-5 -6l5 -17l-2 -2zM254 288l-4 4l4 3l-2 3l2 4h16l-2 -9l5 -5v-3l-7 3l-12 -9v9z M279 440l5 -4l3 3v11h6l6 5v9l9 2l-3 3l-10 -4l-6 -11l-10 -5v-9zM147 314l4 -4l6 4h10l4 2l-7 16l-7 -7v-5zM296 242l3 3l4 6h9l5 -4l-8 -9h-10zM140 413l7 -16l6 2l4 10l-2 4h-15zM180 485h-7l-2 6l5 3l11 -3v-4l-4 -5zM309 279l20 4l4 -4l-4 -4l-4 3l-13 -5zM309 315 l4 -6l4 2l2 -2l2 2v7l-8 7zM291 418h12v9h-12v-9zM240 205l12 5h9l-5 -9zM139 387l5 -5l11 6l-4 7zM335 242l3 3l2 10l6 4l3 -3l-10 -16h-4v2zM367 521l3 -10l7 6v4l-7 7zM322 221l4 17l7 -10l-7 -7h-4zM209 181l6 6h4v-12h-6zM141 238l5 -5l7 2l-10 12h-2v-9zM279 251l-1 3 l4 9l5 -7l-4 -11zM263 521l12 8h7l-4 -9zM330 556l3 5l5 2v-13l-3 -3zM335 298h12v-4l-8 -4h-6zM158 521l13 4l-7 -14zM309 479l5 -6l5 5l-7 9zM193 153l4 4h6v-11zM312 293v5l5 4l4 -9l-2 -3zM299 260v7l10 -4v-5zM319 529v-17l2 8l5 4l-3 5h-4zM252 580h5v-9l-5 -3v12z M274 229l4 4h4l-3 -12zM210 198l-2 2v3l10 -3v-4h-8v2zM291 125h-2v6h10l-3 -2l-3 -7zM286 284h5v-5h5l-3 -4h-4zM372 541l5 -6l4 6v4zM203 245l5 6h2l-4 -11h-3v5zM278 320l4 -4l2 7l-2 5l-4 -3v-5zM220 521l7 12v-12h-7zM162 436l5 4l4 -4l-4 -5zM333 575l6 6l3 -6l-4 -3z M146 545h4l5 -4v-3h-5zM370 129h4v-6l-6 -4zM201 533v8h6l-4 -10zM305 500l3 -1h4v6h-4zM282 104h5v-5h-8zM319 194l2 2l5 -2l-7 -7v7zM238 177v8l6 -7l-4 -3zM177 212l3 5l3 -5v-5zM279 185h-1l4 6l2 -9zM372 233v5l9 -3v-2h-9zM381 207h9l-4 -4h-5v4zM219 131l8 3v-7z M308 565v7h4v-7h-4zM254 275h4l3 -5h-7v5zM303 329l-3 -6h9zM359 270l4 7l2 -2v-5h-6zM326 427l-3 -7h3l4 10zM162 399v-4h6v4h-6zM342 182h7l2 -3l-3 -2zM342 196h7l-7 -5v5zM254 226l4 3l3 -5zM252 99v2h6v-5zM349 457l2 -7h2v7h-4zM369 217h3v-7h-3v7zM231 159l2 5l3 -3 v-4zM312 203h5v-3l-5 -2v5zM333 439v-3h5l1 3h-6zM266 173h2l2 -3l-4 -4v7zM183 96l2 5h3l-3 -6zM347 145h4l-2 -5h-2v5zM201 288l5 2v-4h-5v2zM198 175h3v-5h-3v5zM321 207h5l-5 -4v4zM236 281l2 5h2l-2 -7zM240 238l3 2l2 -5zM303 298l2 2l3 -5h-3zM176 330v-5h4zM227 203 l1 2l3 -5h-4v3zM299 92h4l-4 -5v5zM335 168l3 2v-4h-3v2zM266 134h4v-3zM143 145v-2h3v4zM287 164v-3h-5zM203 298l3 -3l-3 -2v5zM187 152l2 -3v-2h-2v5zM164 155h4l-1 -3zM339 219h3v-2h-3v2zM238 318l-5 -4h3zM141 226l2 -2l3 2h-5zM261 138l2 -2h-5zM219 194h3l-3 -3v3z M167 185l1 -3v-3zM326 436v-2l3 2h-3zM233 288h3l-3 -2v2zM317 101h2v-2zM268 140l2 -2h-2v2zM248 466v-2l1 2h-1z" />
<glyph unicode="C" horiz-adv-x="534" d="M175 8l-19 15l-18 17l-12 4v6l-7 3l-20 24l-7 4l-23 25l-13 25v16l3 6l-4 15l3 7l-2 12v27l4 15l-5 17l3 22l-2 9v48l2 4l-4 25l2 6l-5 11l3 14l-2 7v30l-3 14l5 6l-4 28l6 5l-7 12v18l3 5v11h-4l4 7l4 16l-2 6l2 20l16 25l7 5l5 9l18 18l5 11l20 13l14 18l15 7l10 11h12 l5 3h12l6 -4l7 4l17 3l9 -3h12l9 -9h7l11 -15v-4l6 -6l-3 -8l-21 -21l-21 -9l-8 3l-9 -5h-11l-7 -4l-5 -11l-4 3l-16 -12v-4l-12 -12h-5l-11 -11h-10v-9l5 -5l-15 -20v-5l4 -3l-4 -9v-7l4 -5h6v-6l-6 2v-11l-4 -10v-14l4 -9v-23l-4 -4l1 -7l3 -3v-9l6 -5l-4 -18l-3 -3l7 -13 l-6 -5v-6l6 -7l-10 -5v-7l6 -7v-16h-6l9 -13v-12l-8 -3l3 -5v-15h6l-6 -12v-21l6 -7l5 -14l-6 -7v-7l4 -7l-6 -3l-4 -14l6 -10v-19l9 -9l4 -13l17 -10l6 -7l7 -2l-3 -4l12 -8l3 -7l7 -7l11 -2l22 -10l7 3l18 -2l2 -3l7 -2l2 -5l6 -3l4 -6v-14l-3 -4v-12l-9 -3v-8l-14 -7h-21 l-16 4l-5 -4h-18zM338 5l-22 2l-16 16l-6 2v2l6 3l-4 9l14 25l11 5l30 2l19 5l9 4l2 9l9 13l12 6l5 5l2 9l10 13v14l4 5v7l-4 9l4 14v9l3 7l-3 9v12h5v5l7 3l6 10h19l4 -4l8 3l8 -8l10 -18v-12l4 -13v-23l-2 -10l4 -11l-6 -24l-5 -9v-9l-6 -19l-9 -6l-15 -5l-8 -16h-6l-2 -7 l-14 -13l-11 -15h-9l-10 -9l-16 -6h-16l-6 -4zM435 482l-9 6l-7 14l2 37l-5 10v9l-7 6l6 9l-9 5l-4 8l-16 14l-6 2l-5 11l-45 5l-18 9h-8l-4 9l-9 6v10l-2 3l5 2v16l6 3l3 5l13 6h10l4 5l28 2l35 -9l12 -12l9 -4l15 -14l4 -9l8 -3l3 -7l9 -9l7 -13l7 4l12 -18l1 -9l8 -8v-27 l-3 -3v-21l5 -9v-22l-15 -23l-13 -3h-21zM280 39l5 5l2 -8l-2 -1zM126 328v-5h1z" />
<glyph unicode="D" horiz-adv-x="535" d="M301 5h-10l-4 3l-8 -4l-11 3l-10 -4l-3 3h-9l-8 3l-12 -6l-10 6l-8 -3l-25 5l-2 3l-10 1l-6 8l-14 5v7l10 10l-8 3l-5 14h12l6 7h15l4 5l5 2l10 10l8 -8h28v11l7 -2l3 -5l4 7l5 -4l-5 -9l13 5l8 -5h26l-6 4v3l10 -5l2 7l4 -5h5l5 5h19v7l11 16l19 9l1 8l14 13v9l18 6 l10 13v28l8 6v5h-3l-6 9l9 8l-5 11v21l-4 3l8 14l-5 14l3 5l-7 8l8 7l-6 11v19l6 5l-3 20l-4 6l4 6l-3 11l3 18l-5 5l5 3v7l-4 7l4 8v38l-5 4v3h5l3 24l-3 8l-6 3l3 4v21l-4 5l-9 4l-9 11h-6v7l-4 10l-11 -3v10l-3 1l6 7l-15 3l-9 5h-4l-7 11h-17l-10 5h-13l-3 -5l-2 7h-12 l-9 7l-13 -16v9l-12 5l-9 -7l-8 4h-9l-15 6l-8 -5l-13 6h-12l-11 -5l4 8v9l-11 7h-6v2l19 11l-9 4v11l10 4l11 12l11 -3h17l4 5l18 -2l18 2l37 -3l6 3h10l9 -5h13l2 3h24l13 -10l19 -9l14 -14l14 -11l10 -16l11 -4l18 -20l4 -1l10 -15h9v-14l10 -4l6 -5l5 -52l4 -11v-13 l4 -6l-4 -18l5 -11l-8 -11l8 -5v-2h-2l-5 -7v-23l-2 -7v-26l2 -2l-2 -11l5 -22l-3 -36l-4 -10v-6h6v-37h-4l2 -14l-4 -16l2 -5v-16l2 -7l-3 -6l6 -6l-7 -16v-9l-3 -5v-10l-9 -15l-12 -12l-2 3v-7l-13 -14l-21 -16l-9 -10h-8l-4 -4v-5l-14 -18l-17 -7l-7 -11l-15 -9l-12 -3 h-12l-1 -3l-6 -1l-2 -3h-12zM95 11l-19 4l-6 8v9l-5 7v18l-2 8l6 23l-4 4l-2 30l-2 3l6 13v26l-8 8l7 15l-5 7l4 4v12l-3 10l3 4v14l-3 6l3 3l-2 18v46l-2 19l3 7l-4 15l4 14l-3 13l-3 4l7 10v23l-2 4l2 7v30l-2 4l4 5v19l-3 7l6 8l-5 6l-2 15l2 8l2 21v39l4 19l-6 11v13 l9 44l21 3l2 3l8 1l20 -11v-4l12 -15l-3 -15l3 -7l-7 -5v-7l-3 -7l9 -11l8 4l-1 -12h-5l-4 -8l5 -5l-4 -12l4 -5v-12l-3 -4h5v-5l6 -6l-6 -3v-9l-3 -10l6 -11l-3 -4v-17l9 -13h-11v-29l5 -4v-16l-5 -2v-9l5 -14l-5 -7v-14l3 -9l-7 -5v-16l5 -15l-9 -10l6 -6l-7 -11l6 -7v-11 l5 -5h7v-14h-9v-7l6 -3v-8l-10 -11l4 -12v-7l9 -12l-9 2l-3 -2v-23l3 -2v-16l-4 -5l1 -16l8 -3l-5 -2l12 -2l-3 -10l-3 8h-8l-6 -26l13 -30l-5 -7l-4 -2l1 -3h8v-7l-8 -6v-21l-6 -5l-4 -12l-12 -1l-13 -9zM488 452l2 -2h2v2h-4z" />
<glyph unicode="E" horiz-adv-x="506" d="M85 20h-9v9l-4 15l-5 9v25l6 6l-9 16l4 11l-5 11l2 13l-4 5l6 17l-4 10l2 15h2l-2 36h-7v5l6 10l-6 14l3 4v12l3 9l-4 10l4 13h4l-4 15l-6 3l7 7l-2 19l3 7l-8 16v9l3 8l-3 22l5 5l2 44l-2 2l2 2l-2 20l4 19l-2 3v23l8 3l-8 4v23l2 4v28l-2 5l2 2v14l4 3l-4 11l3 6v40 l4 4v12l10 9h13l5 -2h13l8 -7l6 -18l7 -3v-5l-4 3v-4l3 -4l-6 -7l10 -15v-3l-4 3h-5v-3l5 -1l1 -17h5l-9 -21l4 -4h16l-7 -12h-10l-3 -2l3 -7l6 -5l4 -16l-4 -13l4 -5l5 2l7 -7l-2 -3h-7l-3 -4l-1 3h-3l14 -14l-10 -7l-9 -2l3 -10l13 -13l-11 -4v-18l7 -10v-3l5 -5l-3 -4h5 l2 -3l-4 -2l-6 -10l8 -4h14l9 9l17 -4h15l26 4l4 10l9 -12l7 3l5 -5l9 -3l6 6l20 -3h21l20 -3h26l9 -9v-4l10 -13l-4 -18l-12 -16h-15l-27 -6h-24l-4 -3h-14v3l-7 2l-5 -5h-11l-3 3h-11v-5l-28 2l-7 -12l-6 12l2 5l-16 -7l-7 7h-5v-9l-20 7l-3 11l-7 -7h-4v-13h-3l-5 -12 l8 -5v-9l-3 -4v-40l12 -7l-12 -3l3 -9l-3 -1l3 -3l-5 -4l5 -13h6v-4l-6 -7l-3 7l-4 -7l7 -9l-9 -17l8 4l3 -11l-11 -6l10 -4v-7l-10 -11l6 -3l-2 -17l-3 -4v-13l8 -3v-7l-8 -15l3 -8l-3 -7l3 -16l5 -5l2 -18l-2 -3h-8l-18 -18h-21zM238 621l-3 9l-15 2h-14l-9 -9l-7 11h-19 l-11 -3l2 44l13 14l20 3l13 7l23 -4l9 5l11 -4l8 3l23 -4l7 4h7l3 3l8 -6h17l11 5l4 -5h17l13 3l24 -3h30l10 -4l8 2l9 -9h12v-7l5 -7l-3 -16l-5 -4l-3 -11l-10 -4l-58 -6l-4 2l-6 -6l-8 5l-19 -6h-42l-10 3l-12 -4l-42 4v-7l-2 -3zM225 5l-5 3l-7 -3h-12l-9 4l-2 -3h-5 l-5 5l-8 -3l-3 6l-7 6v12l-5 12l3 13l15 4l10 8h8l11 7h6l27 -8l6 3v5h2l3 -7l16 2l62 -2l8 4l13 -4l48 -3l9 4l10 -4h24l12 -2l17 -6l4 -8l4 -24l-17 -11v-6l-29 -4h-75l-10 2l-7 -2h-34l-6 2l-48 -2l-14 -3zM148 378h7l10 14l-4 3l-4 -3h-9v-14zM160 296v4l20 -2l-7 -9z M171 422l7 7l5 -2v-10h-5zM165 286h6l4 -5l-6 -3zM150 48v7h5v-7h-5zM200 299h5l3 -6h-4zM157 541l4 4l4 -5zM139 399h5l-5 4v-4zM139 468l2 -2v2h-2z" />
<glyph unicode="F" horiz-adv-x="481" d="M121 6v5l-3 3l-6 -7l-12 7l-8 11l3 9l-5 5l4 9l-6 11l-3 39l3 3v9l3 7l-6 16l6 6l-6 10v8l-9 9l8 14l-5 16l2 7l-6 3l4 3l2 6l4 2v2l-8 3l6 5l-8 21l4 10l-5 2v12l7 4l-5 19l-4 -5l-9 -2v6l12 4l-3 7l8 7l-4 4l-2 12l-7 11l-4 -2l-2 -5h-3v12h14l4 5v4l-11 2v21h7l2 -2 l2 6h-6v8l-5 1v6l14 5l-3 6l-2 19l-9 -3l-4 -4h-3v4l11 11l3 -6l2 4v12l-7 -3l-5 7l3 3l9 -2l2 21l-2 1v21l-7 8v9h12v9h-7l-5 3l5 4v7l5 5l-3 11l5 46l-3 7v10l3 2v28l4 6l-7 12l21 21h12l12 -7l4 2l7 -4l9 -12l6 5l6 -5h13l9 9l3 9l10 7h20v-7l9 9h17l5 -4l12 5l26 -3l3 5 h2v-5h55l8 -2h21l22 2l9 -3l3 3h44l4 -2h12l9 -6l3 -29h-5v-11l-7 -4l-4 -6l-35 -4l-9 2l-5 -2h-23l-13 3l-5 -3l-3 -5l-6 3l-6 -3h-6l-5 5l-7 -2l-2 -3h-7l-6 -3l-8 3h-13l-9 -4l-8 2h-34l-8 -2h-30l-3 -4l-4 6h-10l-4 -7l-4 5v4l-10 7l-4 8l-7 2v11l-2 2l-4 -4l-5 9l-6 -5 l10 -9l5 -15l-9 -4v-8l-6 -5l3 -5l-3 -14l6 -2l-6 -9l20 -3l4 -7l-9 -9v-6l-8 2l-5 -9l8 -8v-11h5l-5 -18l10 -4v-3h3l-3 -12h9v9l-4 4l10 3l3 -3v-6l-6 -14h-17l-3 -11l21 -5l-14 -15l2 -4l8 -3v-8l-8 -4l-4 -15l-9 -6v-10l7 -10h5l14 -9l7 15h4v-10l5 -5l17 9l4 -9h9l4 5 l7 -2l7 -7h12l9 3h39l9 4l15 -4l24 1l9 -8l19 7l19 -3l16 -14v-12l3 -4l-3 -11l-15 -12h-11l-4 -5h-39l-8 -3v7l-18 -6l-13 2l-5 -4l-27 5l-5 -4l-4 4l-15 -3l-6 -7l-11 8l-4 -8l-22 -3l-6 3v5h-6v-5l-12 -2l-2 2l2 7l-2 4h-12v-15l5 -10v-6l-8 4h-9v-9l4 -11l-6 -5l7 -12h6 l-7 -13l5 -5l-12 -20l4 -4l-5 -15l5 -20l-5 -2l4 -9l-2 -14v-23l3 -3l-7 -14l4 -4l-2 -4l-5 -2l5 -10v-49l-7 -24l-14 -15h-11zM170 419l4 3h4v-2l11 -5l-7 -8zM160 370l11 -3v7l-5 5h-6v-9zM196 485l-4 5h7l5 -5l-3 -5h-5v5zM195 281v3h9l2 -3l-4 -3zM161 516l4 4l5 -10h-4 zM153 311l-2 -2h6v9h-4v-7zM72 362v-3h4v3h-4zM162 430v-5l3 6zM153 263v-5h2zM153 473v-3v3zM153 427v-2l2 2h-2z" />
<glyph unicode="G" d="M190 -11l-15 5l-12 6l-9 14l-14 7l-4 7l-12 11l-7 15l-11 2l-3 9l-17 14l-15 18l-9 15l-5 22l2 4v21l-3 10l3 7l-4 4v5l5 6l-3 3l2 14l3 7l-5 2v21l-4 8l4 8l-2 46l3 40l-3 11v21l-7 18h5v3l-3 2v21l5 14v43l3 7l-3 8v20l-2 4v29l5 24l6 7l3 11l9 8l5 11l29 21l8 17l13 2 l2 5l24 20l9 10h16l4 -5l3 10h43l7 -3l7 3l2 -3l9 -3l3 -6l10 -4l-3 -8l8 -7l-3 -20l-8 -11l-16 -3l-6 -5l-5 2l-5 -2l-6 2l-16 -8l-10 4l-4 -3l-3 -9l-9 -3l-17 -11l-13 -25l3 -7l-4 -4l-6 10l-7 -6v-5l2 -2l-5 -4l-4 -8h-6l6 -11v-14l-5 -14v-23l5 -4l-2 -9l-3 -3v-14 l3 -2v-9l6 -8h7l-12 -19l4 -5l-5 -5l2 -14l3 -2l-5 -3v-6l5 -10l-3 -2v-9l-3 -7l6 -10l-8 -10v-32l7 -6l-8 -11l4 -19l5 -4v-5l-5 -5v-11l-4 -10l1 -16l5 2l4 -3l-9 -3v-19h3v-7h2v-7l4 -7l3 -16l7 -9l2 -9l15 -20l13 -5v-12l6 -7l4 7l9 -8l2 -4l10 -7l15 -4h14l21 -7h7 l7 -6l-3 -7l10 -5l11 6v-2h7l2 -3h5v3l-5 4l3 5v7h18l7 7l19 4h11l7 7v8l9 9l8 -3l4 9l21 21l7 10l-3 10l-10 5l7 6l11 -7l16 16l-3 7l-14 10v8h3l4 -5l3 3v4h-12v2l6 4l8 10l2 7l-4 3v6l-3 3v6l4 8l-5 9h4l6 7l-2 2h-7v7l6 11l-6 3l-9 12h-18v9h-15l-9 3l-9 -4l-16 3l-5 -5 l-9 5h-7l-16 8v6l2 2l-10 10l4 18l12 13l5 -6l17 9h14l7 4l5 -4l18 2l5 3l6 -4l25 4l19 -5l7 2l24 -2l4 -5h11l12 -11l7 -14v-19l-4 -6l4 -3l2 -16l4 -4l-4 -8l4 -14l-6 -4v-9h6l5 -10l-6 -7l1 -27l-2 -6l5 -10l-3 -5l3 -4l-4 -3l6 -2v-12l-6 -4v-58l5 -5l-4 -6l-1 -28 l-6 -11l4 -9l-3 -8v-18l-4 -5l-11 -3l-14 -14l-8 5h-14l-16 17v7l-9 9l-5 -4h-6l-3 9l-3 -5l-11 -4l5 -5l-5 -7h-19l-21 -22l-12 6l-3 -5h-9l-5 3h-12l-16 10l4 7l-9 5v4l-7 11l-6 -3l-7 -14v-9l-10 -7l-2 -9l-11 -3h-12l-5 5l-16 -5zM459 467h-9v2l-12 7l-11 22l6 12l-4 12 l2 7l-4 18v12l-7 7l-8 2v7l-20 24l-3 -4l-7 3l-6 9l-25 8l-5 -3h-7l-4 -3l-8 10l-9 3l-9 -5l-5 9l-7 -3l-2 9l3 12l-12 11l9 3l14 16l11 3v5h7l5 -3l5 3h41l10 2l11 -5l4 -5l11 -2l3 -7l12 -4l9 -9l2 -5l21 -21l9 -4l13 -19l7 -3l3 -16l8 -13v-24l3 -4l-5 -10l3 -13l-2 -6 l5 -21l-18 -26h-19l-2 -3h-5zM387 150l3 5l-5 4l2 3l10 -7l2 -7zM364 106l5 5l-2 5l2 2l2 -2v-14h-7v4zM348 142l7 -4v-2h-7v6zM133 134v-5h3v3zM297 35v-2h2v2h-2z" />
<glyph unicode="H" horiz-adv-x="539" d="M93 4l-11 10h-3l-6 11v28l-2 7v30l4 8l-7 34l-3 53l3 12l-2 18l4 8l-6 13v30l-2 4l2 5v12l3 7l-5 6v8l4 -3l2 4l-6 14v6l5 11l-3 11v17l-4 10l5 22l-7 8l6 5l2 15l-2 4v23l2 6l-4 9l6 24l-2 15l-6 17l6 18l-4 15v19l4 4l-6 9l5 21l-4 16l3 5v28l4 4l14 5h10l11 3l13 -6 l8 -15v-17l5 -11l-3 -2l2 -23l6 -11l-6 -10v-9l5 -6l-2 -6l-3 -3l9 -6l-9 -5l-2 -12l7 -7v-27l3 -9l-3 -3v-6h7v-6l-3 -4v-7l5 -2v-2l-6 -4v-5l6 -3v-5l-6 -7v-6l4 -3v-6l-3 -3l3 -3h16l-2 -9h-5v-9l7 8l10 -8l4 4l39 -1l4 -5l13 5h11v-4l10 6l6 -5h7l7 4l5 -4h11l16 -2l3 5 l-4 3l5 10h8v-9l-3 -7h7l4 9h6v-2l-5 -3l5 -4l4 4h12v8h7v-8l25 -8l3 8l12 -4l1 3l10 1l4 5l-2 7l7 5v7l-5 2v7l7 7l-5 5l5 9v26l-4 18l4 4v26l3 14l-5 2l4 2l-2 7v32l2 5l-3 8l3 15v48l9 12h12l7 7h14l20 -16l6 -19v-21l2 -22l3 -6l-3 -6v-28l5 -20l-4 -11l5 -11l-4 -4 l3 -9v-21l-3 -2l5 -10l2 6v-59l9 -7l-5 -11l6 -3l-3 -10h4l-2 -6l2 -6l-11 -18h-2v-3h11l-4 -5l2 -4l-7 -4v-22l-5 -8l5 -5v-10l3 -6l-12 -10v-6l16 6v-21l-5 -29l4 -8l-4 -18l-6 -13l6 -13v-9l-3 -5l3 -7l-2 -4v-28l-2 -6l2 -17l-2 -5v-60l-5 -18l-16 -16h-27l-17 12l-5 29 l4 3l-5 14v57l3 12l-5 5l3 29v23l3 3l-7 11v17l8 13l-4 7l-11 10l4 16l-2 2l5 2v14l3 14l-6 5v9l-2 2l-3 -4l-10 6v5h6v12l-4 5l2 -8l-3 -6l-9 9h-12l-10 -20l-4 7l-15 9l-2 -3l-16 -6l-2 -6l-13 13l-8 -6h-15l-3 -9h-24v9h-18l-9 4l-16 -7l4 5v6l-8 -8h-18l-3 7l-4 -5l3 -5 v-6h-3l-5 5l-9 4l-12 -12l-7 -2l3 -7l9 -2v-10h-16l-12 -4l-8 -12l9 -11l-3 -3v-10l-2 -8l2 -2v-11l3 -5l4 2l5 -5v-8l-12 -5l-2 -5l6 -12l-7 -8l3 -4l-3 -2l3 -13v-15l-6 -9l6 -18v-23l-5 -11l3 -19l-4 -37l-4 -7l4 -7l-13 -12l-18 -5zM230 303l13 5l4 -4l-12 -6zM273 411 l4 9l7 -16zM184 430h7v-7h-7v7zM398 342h5l4 7l-6 2zM149 430l6 6l3 -4l-2 -4h-7v2zM145 305l4 -9l3 2v7h-7zM205 284v4l9 -6l-2 -3zM182 279v8h4v-8h-4zM196 413v6h4v-6h-4zM414 258l4 -6l1 6h-5zM292 333l-2 -3h5v3h-3zM403 395l-2 -2h5l2 2h-5zM230 393v-3h2v3h-2z M154 296l2 -3h2z" />
<glyph unicode="I" horiz-adv-x="193" d="M102 12l-13 3l-9 45l3 11l-4 12l3 23l-6 18v19l4 3l-7 9l3 17l-2 5v23l2 3l-4 24l5 6l-4 6l3 14h-4l2 5l-2 7v45l3 11l-3 8l4 9l-4 10v18l2 4l-2 22l3 15h-3v13l-3 9l3 11v15l-2 5l2 2l-2 8v48l5 5l-5 13v50l2 3l-2 27l-3 8l3 22l4 9v7l7 7l16 7h17l4 -4h6l3 -12l5 -8 l6 -27l-4 -18l2 -5v-13l5 -17l-5 -9l5 -4l3 -38l-5 -14l7 -23l-3 -10v-28l2 -6l-2 -18l3 -10l-3 -3l6 -17l-6 -5l2 -10l-2 -39l-5 -5v-9l5 -9v-14l-2 -3v-18l-3 -5l9 -10l-7 -11l8 -12l-5 -10v-9l6 -12l-4 -15v-12l-4 -14v-21l4 -4v-49l-2 -7l4 -6v-35l-4 -9l-2 -14l-7 -3 l-5 -10h-11l-10 -3z" />
<glyph unicode="J" horiz-adv-x="467" d="M249 7l-11 3l-12 21l5 12l-6 5l-2 10l-9 3l5 4l3 -4l7 4l6 -6l15 10l3 7h7l2 -4h7l19 9v5h10l3 7l14 9h-12v5l12 8v-4h5v6l4 6h9l12 11l-5 4v5l3 3l2 9l3 2l2 10l-6 12l4 4l5 16l-9 18l4 2v12l-8 7v14l3 5v6l-3 3l10 13l-5 5l4 19l-7 9l3 16v19l6 10l-3 5v24l-3 13l3 17 l-3 14l6 29l-3 8l2 6v58l5 5l-6 23l6 17l-5 23l4 18l-4 5v26l9 23l9 4l3 -3l7 7h11l18 -9l7 -21l-4 -9l4 -9v-35l-3 -9l3 -3l-3 -10l8 -15v-9l-2 -3l2 -11l-5 -9v-26l5 -4l-2 -5v-19l-4 -6l8 -15l-7 -15l5 -9l3 -27l-3 -36l-3 -6l5 -6v-11l-5 -17l5 -7l2 -9l3 -1l-5 -6 l-2 -15h4v-21l5 -23l-7 -7v-23l-4 -15l7 -7l-7 -11v-13l3 -7l-9 -16l3 -3h7l-4 -12l-3 -2v-7l-9 -9v-9l-8 -8l-11 -4l-8 -14l-7 -7l-3 -8l-11 -4v-6h-5l-5 3l-6 -16l-10 -3l-4 -10l-9 3v-7l-13 -13l-15 -3h-37zM168 3l-9 -3l-11 5l-9 -5l-9 3l-22 18l-21 15l-3 9l-18 13 l-2 7l-10 9l-2 7l-14 14v16l-6 12l4 22l-2 5v12l-3 9v36l5 10l7 7v9h9l5 5h16l5 2l16 -5l6 -13l5 -5v-19l3 -4v-11l6 -4v-17h7l-4 -5l1 -7l4 9h6l-2 -9l2 -4l-7 -3l-3 4l-4 -11l5 -5l11 5h9l-6 -16l5 -6l-3 -8l4 -7l14 -6l12 8v-8l-14 -3v-4l18 -17h8l4 5l8 -5l8 3l2 -5 l5 -4l3 -7l9 -5l-3 -5v-16h-6v-9l-8 -7v-4l-13 -10l-9 -5zM172 97l-3 6l8 8v-16h-5v2zM171 123h12v-6l-10 -3zM121 120l5 -4l2 1v10h-7v-7zM414 312v-4h3zM173 114l1 -1h-5z" />
<glyph unicode="K" horiz-adv-x="502" d="M441 -4h-4l-12 2l-7 7l-7 10h-3l-15 26v4l-12 27l-4 4l-5 15l-5 5v9l-2 1v9l-9 4v11l-5 17l-14 9v13l-8 11l-7 4l6 6l-2 7l-7 4l-2 7l-8 2l-6 5l2 2v10l-9 16l-2 -3h-9l-3 3l-5 -5l-2 -7l10 -4v-12l-6 -5h-4l-5 7l3 5l-5 5l-2 -2l4 -15h-9l-6 -13l4 -7v-21l-10 -4l-2 4 l5 2v7l-3 2v7l6 -2v7h-17v14l-12 2v5l3 2l11 -2l-8 10l-6 -6l-6 -2l2 -2l-7 -4v-12l11 -8l-5 -11l-13 5v8l-10 5l4 4l-6 6l3 9h-9l-4 -7h-3v2h-5l7 -15l4 7l7 -10h-11v-7l2 -2l-2 -3l-17 3l-3 -12l-3 -4v-7l9 -10l-2 -9l5 -5l-5 -1l-4 3l-3 -11l4 -22h-4v-9l3 -3v-5l-9 -8 l4 -10l-3 -7l-2 -23l-7 -3v-4l-7 -7v-17l-11 -4l-14 -10l-24 4l-8 8l1 5l-9 9v37l-2 5l3 33l-3 10v20l-4 20l4 23v26l4 7l-6 6l3 7l-5 12l4 11l-2 23l-5 5l-6 2v2h-3v5h7l5 4l2 8l-5 9v21l-4 4l7 14v9h-6l-3 10l4 9l9 3l-8 11l4 7v27l5 19l-5 11v8l-5 4v5l5 4l4 17l4 7l-4 4 v21l5 4v21l-5 23l2 2l5 44l-2 3l5 18l-3 9l3 25l11 19h7l5 3l8 -3h20l9 -9l10 -23h6v-37l2 -5l-2 -4l2 -10l6 -6l-4 -9l11 -24v-6l-8 5l-8 -17l6 -7l4 2l2 7l7 -4v-8h6l6 -11l-3 -6l-8 4l-8 -8v-6h12v-5l-5 -9l-7 -3v-7h4l5 6h7l8 -4v8l4 5l5 -3l4 5h9v9l-2 2l-9 -4l-3 3 l-11 -6v7l3 5l6 -3h12l4 3h8v7l9 11l2 -2l3 3l8 -5l2 -5l-4 -2l-12 3l-4 -7l5 -6h18v10l11 5l3 6l3 -3l4 3l3 9h9l12 13l-3 6l13 6l7 10h5l14 11v8l18 15l18 21l5 3l10 14l27 30l9 4l8 -2l13 6l18 -4l9 -5l-4 -13l3 -3v-9l-17 -16l-2 -9l-7 -9l-4 -2l-5 -7v-8l-16 -13 l-3 -10l-15 -8l-8 -19v-11l-12 -4v-4l4 -6h-5l-3 -5l-5 -2l-4 4l-9 -14l-8 -18l10 -7l-2 -5l-26 -5v-6l6 -9l-3 -2h-11l-5 -10l4 -7l-2 -7l11 -11v-5l-2 -2l4 -10l-5 -6l-8 11h-7l-3 -4l3 -8l9 -4v-13l7 -10l14 -9l-5 -5h-4v-5h9l5 5l2 -2l-5 -9l7 -21l8 -4l8 -15v-13 l-4 -10l11 -6l3 -12l7 -3l-11 -7l7 -8l8 9v-5l-6 -10l4 -4v-4h2v-8h5l6 -7v-25l8 -2l4 -9v-7l3 -2v-13l6 -4l9 -15v-23l9 -4l5 -6l3 -14h3l4 -7l3 -14l11 -11l6 -26v-21h-4l-6 -11l-15 -2zM201 524l-14 7h-2l5 7l-3 7l6 3l6 -12l5 -5l11 -2l9 6l-4 8l5 5l15 4l3 -2l2 4h2v-4 l-10 -10l3 -4h7l5 5l-3 2h7l5 -5l-6 -2l-8 -7l-15 2l-28 -14zM259 222v-5h5v21h-8l-4 10l-5 -5l5 -7zM211 273l15 -5l8 5h4l2 5h-6v4h-9v-9l-8 2l-2 3zM217 163v4l9 4h5l8 5l-13 -17zM187 245l6 -6l6 6v4l-19 -1zM259 268l5 -4h9l3 4l-6 2l-6 -2v2h-5v-2zM226 248v-8h5l4 7 l-10 5zM165 196l9 -9l1 8h-4l-2 4zM196 154l3 6l5 -4v-6zM204 566h13v-3l-4 -2zM226 541l3 -3l7 3l-2 2zM238 255l9 -6h2l-4 6h-7zM195 227l4 -5h2v3l-6 6v-4zM220 261v-9l2 3v9zM236 240l2 -2l2 5h-4v-3zM161 511h4v7zM268 247v-4h7zM249 270v-2h3l3 5zM289 399v-4h2v4h-2z M238 234v-3h2v3h-2zM206 294v-3h2v3h-2zM261 285v-3h3zM208 462v-2h2v2h-2zM166 524v-2l3 2h-3zM213 215l2 -2v2h-2z" />
<glyph unicode="L" horiz-adv-x="484" d="M90 92l-10 7h-5l-8 8l4 6h-12v12l5 7l-2 18l-3 2v7l3 2v30l-3 10l3 16l2 2l-2 39l-4 10l6 20v26l-6 5l7 8l-3 10v16l-3 9l5 9v17l-2 6l2 26l-2 4v33l4 18l-3 4l3 4l-6 14l5 23l-7 14l6 8v110l5 16l13 8h19l5 -4h10l5 -21l6 -7l-4 -10l8 -12v-10l5 -24l2 -47l-5 -6v-7 l4 -11l-2 -6l2 -22l3 -8l-3 -8h-7l4 -22l5 -5l-9 -18l10 -8v-7l-3 -3v-21l5 -4l-5 -5v-16l-11 -5l10 -1v-17l-5 -4v-9h9v-21l-4 -7l6 -5v-7l-6 -8l9 -8v-9l-6 -11l7 -6l-11 -8l3 -10h4l3 3h4v-3l-12 -11v-30l3 -5v-48l-3 -5h3l2 3h4v-6l-11 -5l-11 -19v-10h-34zM128 0h-34 l-23 11l-5 10v27l9 14v5h21l8 11h12v-8l21 8l7 -5l6 10l8 -5l-3 -7l8 -4h12l2 -3l4 8h15l1 9l13 -13l9 7l11 -3l6 3l11 -7l9 8l9 -2l10 -7l13 5l30 -3h36l12 4l20 -7l5 3l14 -3l25 5l12 -9l11 -5l5 -11v-7h-2l3 -5l-3 -15l-7 -3l-3 -6l-8 -3h-8l-1 -2h-20l-6 -2h-39l-21 -3 h-48l-7 3l-8 -3h-32v3l-16 -3l-27 3l-5 -5h-16l-5 2l-18 -5h-10l-2 3l-12 -3z" />
<glyph unicode="M" horiz-adv-x="586" d="M479 5l-11 10v12l-5 9v47l-2 4v37l3 20l-3 3v72l-3 11l6 23l-6 4l5 11v18l-4 4v3h4v6l-9 9l10 13l-8 8v5l7 7l-2 8l2 1l-8 6l12 13l-6 2l-7 8v7l7 3l2 29l-4 2v3l-10 -3l-14 2l3 9l9 -2l3 7h9l2 3l-7 1v5h-16l-9 -9v-27h4l4 3l3 -6l-2 -5l3 -12h-17l5 9l-5 6v11h-3v8 l-12 9l8 5v6l-5 -3l-9 3v-14l9 -9l-4 -7v-14h9l2 -19h-4l-5 8v4h-2l-2 -4l-15 1l-6 8l-5 -14l-4 -3l9 -1l6 6h8v-9h7v-5h-7l-3 -2l5 -8l-2 -8h-3v9h-5l-8 -4l-5 11l-8 -2l3 -17l3 -4l-5 -7h-3l-4 10h-14v-11l-12 -4h-7v-6l-9 -10l-16 -8v5l-16 3l-2 5l-6 -5l-4 7h-5l-6 12 l-5 -3h-11l-3 3l5 9l3 12l-12 1l-10 -6l-8 9v5l4 -3l5 12l-12 14l5 6l-9 13l-2 -3h-8v7l-5 -6l7 -8v-10l-5 -2l-6 12l-7 5h-5v9l10 7l-2 13h-12v-11l-8 7v4h-7l-11 -20h-7l-2 -12l-4 -9v-13h6l3 6h7v-9l-15 -14h-6l-3 -3l3 -1v-3h6v-9l-6 -7v-5l9 -9l-8 -8l5 -6v-3h-2l-4 -6 v-9h-3v-3l4 -2l-5 -10l6 -6v-8l-12 -7l6 -10l1 -8l-5 -7l4 -6l1 -9l-6 -10v-25l-3 -5l5 -4v-54l-4 -6l7 -12l-5 -5v-30l-4 -5l4 -6v-20l-7 -10l-3 -11l-15 -5l-5 2h-19l-11 12v13l-5 9v95l-2 33l2 6l-2 11l3 8l-3 7l4 4v30l-3 12l3 18l-3 10l6 11l-7 8l4 22l-4 25l4 13l-3 8 l3 5v8l3 6l-3 4l-2 15l-4 5l2 4l-4 8l8 15l-4 7l2 8l-2 19h-6l4 12l4 3l-5 23h10v4l-5 5v25l3 14l-3 7v18l5 5v9l-3 3l-3 24l3 15v25l9 18l9 3l6 5h15l9 -5h6l15 -30l5 -16l-2 -5l2 -7l4 -4v-14h15v-3l-3 -2l3 -6l6 6l-1 5l13 6l7 -1l2 -5l19 -19l7 -20l6 -7l3 11h4v-9l5 -4 v-19l15 -11v-10l4 -5l9 3v-3h16l3 -13l4 -2l3 1l-3 16l4 7l4 -5l6 3v-2h7l5 -3l7 13v6l-8 7h10l8 -8l-6 -13l-11 -15l-8 -7h-11v-15h14v-4h-12l-4 -8l-8 6l-5 -10l3 -5l10 -2l12 6l8 8v12l-7 6h12l7 -6l-9 -5l18 -9l2 16l-6 4h-7l9 6l2 -3l7 -3l4 5l-9 12v4h3l5 -5l15 -5 l-6 15l18 2l2 5l-4 3l-5 -3l-4 5l4 2l4 10l5 6h5l18 19l3 9l7 6l14 26h4l2 -5l5 5h3v-3l12 -16l6 5l-5 5l3 2l6 -3l3 5h5l4 5l-3 3l10 20v14l2 2v14l5 2l7 8l5 1l7 8l16 2l4 -10h7l7 -6l-3 -11l5 -13v-18l3 -7v-16l5 -14v-23l-6 -22l7 -8l-3 -14l8 -9l-6 -9v-28l10 -15v-8 l-7 8l-3 -3v-18l-5 -24l9 -2l5 2l4 -5l-13 -9h-3l4 -7v-5l-4 -4v-6l3 -6l-5 -24l2 -31l-4 -4l8 -12v-16l3 -5v-12l-4 -11v-23l-3 -2v-30l4 -19l-6 -2v-23l2 -5v-37l-5 -5l3 -11v-12l2 -4l-2 -16l-3 -7v-35l-12 -20l-20 -6zM175 466l3 -4l8 8l-7 5l-9 12h-4l-5 12v7l-15 -5 v-2h3l6 -17h8l5 -5l-2 -7l4 -1v-3h5zM426 457v-5l17 8l-3 10h-6l-3 14l-12 -11l10 -11zM153 445l8 3v4l-7 9h9v9h-12l-5 3l-2 -7zM262 542v2l-6 -2l-9 2l-6 -2l-5 6l19 5l7 -4l15 -3v-8zM173 355h14l-3 7l-5 -3l4 8l13 -5l1 -7l-4 -6l-2 4l-10 -4l-5 -5zM426 350h-5v3l15 3 v-7l-3 -3zM202 383h7v-12h-7v12zM175 459v-9h9v9h-9zM161 401l6 5l3 -9l-9 -3v7zM171 387l8 4v-11h-3zM412 371l9 3l5 -7h-5zM145 428l-3 -8h7l4 3zM446 405l5 4l3 -3v-5h-5zM341 547l2 2l3 -2v-7h-5v7zM260 510v-5h7v5h-7zM449 459v-7h2l5 7h-7zM297 510l4 -2h5v4h-7z M346 538h4l2 -5h-6v5zM170 328h2l3 -5l-5 -3v8zM141 555l4 -4h1l-1 8zM237 364l2 -5l2 5l-4 5v-5zM394 399l5 -5l-3 7zM451 484l3 -2h2l-2 5zM393 421l3 -11v8zM154 523v-4h2l2 4h-4zM456 583v-4l5 2zM306 459l-2 -5h2v5zM433 496l-2 -3h2v3zM172 461l-2 -2h2v2z" />
<glyph unicode="N" horiz-adv-x="553" d="M87 9l-4 7v2h-4l-7 21v23l2 4l-3 14l5 6l-4 4v16l-3 10l3 14l-3 11l3 18v38l3 1l-3 17l-6 14l3 59l4 18l-4 3l-6 17l7 2l-3 11h-3l8 17l-10 10l5 10v12l-6 12l9 9l-6 33l6 38l-3 2l-2 18l-7 13l8 8l-6 9l5 17l-5 12l5 32l-5 14v23l3 4l-4 11l6 6l3 20l8 12l10 4h18 l18 -15v-10l15 -9l6 -7h6l5 9l10 -2l9 2l24 -25l1 -7l8 -5l2 -16h20v-5l5 -8l-9 -5l4 -8l6 4l8 -3v-3h-4v-17l11 -8l9 -18h8v-5l-3 -3l-2 3h-3v-4l8 -8h4l2 -7l-2 -5l5 3l3 -3l-8 -9h7l5 5l7 -11l-3 -5l5 -19h9l2 9l5 -1v-5l-5 -5l3 -9h4l5 5v5h3l4 -10l-12 -3v-7l-9 -9 l7 -1l13 -10l15 20v8l-5 4l9 3l5 -3l3 5l19 -15l-4 -3h-6l-4 9l-14 -6l6 -6h5l-4 -9h-6l8 -21v-11l5 -16l4 4l3 13l3 -4v-18l4 -6l-8 -5v-7h11l3 8l20 10h9v-16h10l7 7l13 4l-11 9v8l5 9h2v-16h7v25l-7 2l3 4l10 4l-6 4l-4 16l-9 8l10 8l5 7v21l4 18l-7 5l3 32l5 9l-7 19 l5 62l-3 14l3 16l4 9v12l9 9h8l11 2v5h11l9 -9l10 -23v-9l5 -15l-5 -20l3 -11l-3 -3l2 -2v-7l-2 -2v-8l4 -3l4 -14l-8 -11l7 -6v-7l-4 -7l4 -7l-2 -9l-6 3l6 -15v-11l6 -42l-4 -21l-5 -9h8v-51l9 -9v-13l-4 -4l5 -22l3 -5v-9l-4 -9v-12l-6 -10l3 -11l8 -4l-4 -30l-5 -14 l8 -18l5 -4v-17h-13l4 -7l-3 -3l3 -9l-3 -4l-2 -35l4 -6l-7 -12l9 -8l-9 -4l3 -5v-6l-3 -3v-39l-7 -14l3 -10l-12 -3l-9 -5h-6l-4 3l-4 -4l-12 3l-7 8l3 13l-8 8l-8 24l3 33l-11 7l3 6l-2 3h-4v-9h-12l-5 -10h-4l-12 12h-14v12l-14 10l-6 20h-10v11l-4 2l-8 14l-15 11l9 4v9 l-14 22h-4l-8 -7l2 -15h-2l-7 13v5l7 3v9l-8 7l-5 -3v-7l-6 -6l9 -4l-7 -7l-3 -10h-5v6l5 3v6l-5 7h-2v7l9 2l2 8h7v11l-5 5l9 5l-6 6h-5v-5h-4l-4 4l-4 -7l-4 3l-3 8h-4l-4 4l-5 -7v-18h-3l-14 10l12 3l2 10l5 4v12h5l4 -9h17v16h-12l-9 9v7l-4 -4l-7 13l-5 -2l3 25l-7 -13 h-8v9h-4v6h-5l-8 6l-6 -3h-11v2l9 4l8 9l-6 6v12l-19 3l-9 17l-8 8l5 4l3 -3h8v4l-3 10l-6 6l13 5l-9 5l-5 10l-16 -3l-4 2l5 6l13 4v5l-14 10v12l-20 -2l-4 -10h-10v-10l5 -11l-4 -4l5 -15l7 -5l-10 -4l-6 6v-5l3 -4v-21l18 4l4 3h5l4 5l-1 18l-4 3l4 4h6v-24l6 -2l-12 -18 l-20 -2l-9 -5l3 -3v-13l5 -7h4l5 -7l5 -3l-3 -15h-14l-4 4l-2 -7l10 -3v-8h-4l-5 -5l3 -7v-11l5 -2v-5l-9 -8l4 -6l6 -3v-24l-9 -4l-1 -25l6 -11l-4 -13l8 -6l-7 -9l3 -15h-4l8 -12l-8 -9l4 -33l4 -2l-6 -15v-9l-3 -4v-17h-6v-6l5 -4v-14l-5 -7v-8l-5 -13l-14 -9h-16z M413 254l11 -6l3 3l-2 5h-12v12l13 2l-6 11l2 15h-6v-9l-10 -3l-3 -8l-8 -5v-5h6l5 -10zM373 308l6 -6h16v7h-12v5l7 4v8l2 2l-5 11l-12 6l4 -8l-10 -13l5 -6h3v-4zM208 298v11l-11 12v5l-7 3l8 7l3 -6v-7l5 -5h6v8h5l11 -9v-12l-6 -5v5l-7 -7h-7zM222 376v-1l16 6l-5 14 l-18 3v12l3 8h-8l-4 -17l4 -2l7 -9zM152 496v-4l3 2h7v6l5 10l-10 16h-7l2 -2l-2 -7l7 -7zM416 335v-5l9 3v6l-9 10l-10 1l-10 -4l4 -7l9 5l2 -9h5zM284 533l-4 4l-6 -7l-7 7l10 10l5 -2v-4l8 -4l5 -9zM171 346l6 14h5l8 -8l-5 -6h-3v3l-5 -3v-5zM380 359l6 -10l12 9l-5 8z M167 374h1l17 5l7 -3v-5l-11 3l-10 -5l-3 -7zM231 261v9h7l4 4l4 -8l-6 -5h-9zM367 404h4v2h-9v4h12l6 -5l-6 -6h-5zM404 316v-9h5l13 7l-4 2h-14zM138 545l3 -5h9v10h-9zM397 286l-5 -5h8l6 7v5l-5 -2l-3 4l-3 -7zM367 380l-2 3l2 3h7l3 -6l-3 -4h-5zM405 445l11 4v-10h-5z M321 406h9v7h-9v-7zM150 309h12v-3l-9 -5zM146 455h6v-10h-6v10zM521 224h3l3 8l4 -4l-2 -7h-8v3zM422 321l8 -5l2 13zM152 270l12 8v-6l-5 -4zM137 344l1 -3l8 5v3l-9 1v-6zM138 491v-6h9v6h-9zM215 311l-3 -4l7 2l3 7l-3 2l-4 -2v-5zM301 479l5 4l5 -5l-2 -3h-4zM162 328 h6v-7h-6v7zM219 278v6h8l1 -3zM255 231l6 9l2 -9h-8zM397 430l5 2l-2 -10h-3v8zM332 526h7v-5h-7v5zM192 460l5 -5v9h-5v-4zM287 496v7h4v-7l-2 -2zM233 279l7 7v-9zM242 341l3 -4h2l3 8zM404 410h7v-4h-7v4zM198 443l5 -3l3 3l-8 2v-2zM197 404v-5l9 5h-9zM141 520v-3h5 l1 3h-6zM332 383l3 -3v6h-3v-3zM400 328v-7l3 3zM344 369v-4h3zM194 450v-2l7 2h-7zM430 296l1 -3l3 3h-4zM515 254v-3h2v3h-2zM362 328l3 -2l2 2h-5zM404 302v-4h2zM134 630v-2h3zM132 503l2 -3v3h-2zM431 217l3 -2v2h-3zM277 305v-3h2zM127 644l2 -2h3zM171 496l2 -2v2h-2 z" />
<glyph unicode="O" d="M335 -11l-5 3h-33l-9 9l-3 26l3 13l7 9l3 9h11l5 3l23 -4l9 6h6l23 10l4 8l11 5l11 11l7 19l3 -5l9 4v17l7 7l2 12l-6 8l5 11l3 16l-2 1l2 8l5 3l-7 10v68l3 10l-4 5l8 13l-7 33l5 17v16l-4 3l7 15l-5 11l5 4l-6 11v5l-5 2l5 11v30l3 14l-3 3v13l-3 7l3 5v17l-6 6v4h6 l3 3l-7 7l-2 7h-7l-6 20l-4 3l-11 -2v18l-7 3l-6 -3l-6 3l3 2l-9 14h-5l-7 -6l-3 6h-18v4l-19 2l-20 10l-7 14l-3 2v9l-5 8l5 8l24 19l46 2l7 2l16 -2l7 -4h9l9 -5l7 -7l15 -7l34 -37l11 -18l11 -3l3 -7l7 -6v-8l4 -1v-3l3 -2l2 -24l5 -2l-5 -11v-44l4 -17l-4 -7v-13h-2v-30 l-3 -14v-18l-2 -4l2 -17v-42l-5 -12l8 -15v-19l5 -9l-3 -2v-9l-5 -6v-18l-4 -6l3 -8v-52l-7 -13l9 -9l-5 -11v-9l4 -5v-11l-7 -12l-4 -16l-7 -7v-10l-16 -13h-8l-10 -23l-12 -9l-6 -11l-8 -3l-4 -12h-14l-24 -11l-4 -5l-21 2l-5 -2zM198 -13h-13l-10 5h-12l-16 9l-25 21 l-6 10l-12 8l-9 12l-8 6l-4 10l-16 13l-14 24l-5 25l3 5v90l2 4v28l2 11l-2 5v12l-4 6l6 12l-2 7l2 5v14l6 16h-4l-4 -3l2 21l3 8l-4 13l3 16l4 8l-4 3v10l-3 9l6 23l-3 8l6 11l-3 9l-5 4l7 10v6l-4 10l6 23l-7 7v7l3 4v17l4 4v8l23 27l6 12h11l3 11l10 2l3 9l11 8l4 9l10 9 l10 3v2l20 11l14 2l14 -2l25 5l4 -4l17 -3l11 -11l8 -14l13 -3l-6 -2l-5 -20l-7 -3l-3 -17l-34 -1l-2 -5l-14 9h-10v-3l3 -1v-8l-7 3l-5 5h-6l-7 -9l-7 -4l-3 -7l-4 -1v-9l-5 -5l-5 2l-7 -9l-7 -4l-8 -13l8 -1l-5 -5h-6l-4 -5v-19l-3 -6v-16l-3 -7l6 -3l-5 -4l9 -16l-7 -8 v-9l3 -4l-3 -6l3 -6v-16l-4 -8l5 3l4 -4l-6 -14l4 -28l-9 -12l3 -11v-14l-3 -6l3 -3v-39l-4 -7h7l4 -5v-14l2 -4v-14l-3 -6l4 -14l-3 -5v-8l2 -1l-6 -7l4 -19l8 -8l-6 -6l-2 -10l5 -9l-6 -15l6 -6v-4l11 -11l2 -6h6l12 -20l21 -16l22 -5l5 -6l3 4h14l16 -8l8 3l3 -3l-6 -6 l12 -12v-15l3 -7l-10 -10l6 -6l-13 -5l-13 -7l-13 -2zM371 582l7 3v-9z" />
<glyph unicode="P" horiz-adv-x="510" d="M76 12l-2 4l-7 8l3 9l-3 6v26l-2 4v51l3 14l-5 4l2 3v14l-7 2l6 3l4 7l-3 25l-2 2l7 7v26l-6 15l6 3l-3 4v9l-3 8l8 16l-5 36l-3 6l3 9l3 76l2 2l-7 10v11l6 8l-7 8l3 7v16l4 13l-9 12l8 5v7l-9 -2v2l9 3v16l-5 4v12l5 9v26l-3 5l5 10l-6 9l6 17v23l2 5v23l19 16l7 2h25 l20 -18l3 -21l5 -9l-5 -5l3 -5l-6 -26l19 -11l-11 -11h-5v-9l5 -2l3 -26l-6 -15l5 -3l2 -5l4 4l4 -6l-5 -2l-7 -17l9 -9h4l3 5h2l-2 -7l-3 -2v-12l12 -12l-4 -4h-5v-10l2 -2v-5h-9l-5 -4l5 -5h16v-8l-13 -3l-10 -5v-14l2 -14l3 -2l5 -11l-10 -12l5 -5v-4l-3 -3l3 -4l-5 -14 l5 4h5l4 10h5l4 4h8l4 10h6v-3l3 -2v-5l-7 -6h-14l-7 -5l-2 -9h5l9 9l9 -4l4 2l3 -2l5 4h9l3 -3l6 5v9l3 5l9 -5l-5 -4v-7l5 -4l2 -14l16 4l4 3l5 -5h3v16h4v-12l3 -4l8 -6l19 13v-10l5 -5l4 5v-5l8 3l5 6l11 -9h23l12 12h4l18 17v6l3 5v6l7 -4l3 8l10 5l3 8l4 2v15l3 6v21 l-3 7v14l8 9l-5 9l-10 6l3 3h7v19l2 7l-2 7v30l-6 12l-6 -3v7l-4 9l3 4l-8 6v2h2v5h-16v13h-5l-2 5h-4l-5 -8l-7 13v4h-7v-9h-11l-3 2l3 3l-3 10l-11 -4l-15 3l-13 -9v8l-13 -4l-7 3l4 4h-14l-6 6l-6 -4l-27 -2v2h-12v-4l-12 10l-9 -3h-16l-10 5l3 1v3l-13 2l-8 5v2h10 l-2 12l-8 -5l-4 18l2 3h5l2 7h9l7 7l5 2l7 7l26 7l6 -2h34l14 -7l-4 11l2 3l9 -10h10l7 3h9l12 2l4 -5l5 5l2 -2h5l5 4l18 -12h21l3 -2l7 3l22 -10l3 -6l15 -6l3 -13l7 3l5 -10l11 -4l2 -5l9 -6v-6l7 -4l2 -5l10 -9h5l2 -12l7 -16l4 -4l-2 -3l2 -5v-25l9 -17l-9 -6l2 -18 l6 -6l-8 -11l8 -16l-3 -14l2 -4l-2 -16l-5 -5l4 -23l-6 -19l-6 -5l5 -19l-9 -9l-4 -11l-15 -18h-3l-5 -9l-7 -3l-2 -4l-3 3l-9 -8l-4 -13l-24 -12l-2 -7l-9 -2l-5 -11l-29 -7l-13 6l-13 -6h-27l-7 -12h-8l-4 -3v5l-8 9l-15 -7l-10 -2l-5 -5h-9v10h-6l-6 3l-6 -3l7 -10l-2 -2 l-16 -3l-9 14l-5 3v-12l7 -6v-3h-10l-14 -10v8l-10 6l-6 -11h-9l-2 2h-5l10 -12l18 8v-5l-8 -10l-6 5l-18 -4v-7l24 -7v-7l-6 -3l-4 3l-5 -3l5 -14l-12 -8h-4l-4 -8l4 -2l-10 -11v-5h6l-4 -6l3 -6v-15l-10 -19l2 -11l5 2v-17l3 -4v-9l-3 -2v-7l-6 -8l-4 -12l-6 -6v-6l-19 -3 h-18zM151 464v-5l13 1l3 10l-12 13v-14zM215 329l5 -6l7 5l-5 5l-21 -5l4 -3zM175 328l3 -7l14 5l-2 4h-12zM196 173l-4 10h6l9 -15h-6zM196 394l4 4l9 -4l-4 -9zM238 210l5 5h7v-8h-9zM187 478l9 7l4 -3l-4 -6l-1 2l-5 -5h-3v5zM231 198l-6 8h11v-9zM165 360h4l9 3v-5 l-17 -2zM152 611l9 4l4 -4l-3 -3h-7zM171 541v7h4l6 -10zM185 245l5 -5h2v8h-11zM188 187l4 7v4h4v-8zM191 208l8 5v-7l-3 -3zM206 524l5 5l5 -3l-4 -5zM175 168l6 5l4 -2v-4zM411 416h5v-5h-5v5zM250 584l4 4l2 -10zM165 653l-5 -4h5v4zM151 453v-3h4zM195 236v-3h1z" />
<glyph unicode="Q" d="M264 -93l-6 6h-9l-7 9l-5 28v23l-5 5l4 15l-6 10h-6v-3l-5 -5h-4v3l4 2l-10 5h-6l-4 -3l-8 4l-11 -5l-16 4l-14 10h-5l-10 9l-15 8v7l-7 6v7l-8 4l-4 -2v9h-9l-5 9l-7 7l-5 2l-11 14l-4 14l-7 7l2 5l-4 15v19l2 7l-5 14l5 48l-2 3l-3 13v18l5 8l-5 4v5l3 3v30l3 16l-3 14 v13l-3 5v9l7 7l2 11l-2 7v30l-2 23l-4 7l4 16v49l-2 2l2 12l2 52l5 5l5 17l13 9l7 13l14 3l2 7l24 23l10 3v6l15 15l6 -3l3 4l14 7h18l8 3l42 -6l3 -4l7 2l5 -2l14 -29l-5 -5v-5l-17 -13l4 -8h-17l-5 2l-9 -9l-16 -2l-9 5l-5 -5h-9v-7h-3l-2 3l-4 -5l-8 -3l-5 -16h-5 l-17 -11v-6l-7 -10v-8l-5 -1v-33l8 4l1 -6l-4 -12l-5 -7l-1 -44l-7 -12l7 -6v-18l-5 -13l7 -14l-2 -15l2 -3l-5 -9v-13l-3 -15l3 -6v-10l-5 -1v-8l3 -1l5 -29l-5 -11v-14l-3 -5v-21l8 -7l-5 -8l2 -10l-5 -5h9v-4l-4 -5l-2 -21l8 -5l-7 -4l5 -11l8 7l1 -11l-5 3l-4 -3v-21 l12 -3l7 -11l10 -3l6 -13h7v6l6 6l5 -3h7v-7l-9 -7l-3 -12l5 3h6l6 7v-7h-2v-3l5 -4h4v14h2l5 -7h4l3 -3l-4 -7l4 -4h7l11 8l-2 11l-4 6h-9l1 3h14v6l-21 7v5h10l-3 5h8l14 10l-8 11v10l7 3l-2 5l7 7v5l4 7l-7 2l-5 8l12 5l4 -7l22 7v-4h14l9 -5h9l4 5l3 -5l-3 -4l-2 -14 l12 -16h7l7 -5v-4l-25 7l1 -12l3 -7l7 7h5l6 -7h8v-7l-3 -2l-17 8l-5 -9l13 -13l15 -27h10l-2 9l2 2l7 -5h7l12 12l7 4l2 12l4 2l5 12l3 -3v-6l9 9v11h7l5 7v5l-10 2v7l14 4l-5 6l2 20l6 11l-4 11l4 14l-3 3v16l6 19l-5 6l5 5l-4 10l3 8l-4 9l8 9l-3 11v18l-6 6l5 19v81 l-7 3l8 8v12l-4 5v7l5 3l-2 12l1 15l4 3l-5 11v11l-3 5l-2 9v9l3 7l-7 7h-5l-5 5l-10 -1l3 3v6l4 4l-4 4l-23 10l-5 8l-8 5l-3 7l-14 -3l-2 5h-8l-5 -3l-8 7v7l-18 -10l-3 8l-9 10h-9v2h4l7 17l-4 8l8 5l3 9l3 -2l4 4l7 -2l5 4h32l4 -4l12 2l4 4l13 -4l4 -4l13 3l10 -10 l7 -12l5 2l4 -4v-5l20 -17l7 -14l5 3l7 -6l4 -8l9 -5l4 -5v-6l9 -2l4 -21l5 -7v-11l-5 -4l5 -9v-12l-4 -4l8 -11l-7 -14v-24l-3 -16l4 -3l-3 -10l4 -22h-4l-2 -3l2 -2l-2 -39l9 -9l-14 -6v-4l11 -13l-6 -5v-16l-6 -17l7 -10l-8 -10l8 -7l-3 -14v-13l-5 -8l7 -17v-15l-2 -20 l-3 -5l3 -21l3 -4l-3 -3v-14l2 -16h-5l-2 -2l5 -7v-14l-3 -2l-11 -19l-10 -5v-6l-6 -4l-7 -9l-35 -33l-5 -8l-6 -1l-5 -8v-6l-16 -5l-9 -10h-12l-4 5h-14l-8 -4l-15 10l-3 -10l-13 5l-4 -6l4 -4l4 3v-5l-10 -12l-1 3l-8 -7h-3l4 -28l-5 -10v-9l-5 -4l-4 -10zM221 35l3 -2 l2 4l7 -2l3 9l-5 8l-7 -4l-3 6l-6 3v-8l4 -4zM318 55l7 3h3l4 9l-12 17h-4l2 -8l7 -9zM306 12l10 -7h4l-2 10l-4 6h-6zM153 124l6 5l3 -3l-3 -10h-3zM222 111l11 -7h4v7h-15zM182 162l4 6l8 -1l-12 -10v5zM185 127v5l6 -7v-7h-2zM364 115v3h7l2 -4l-2 -3zM199 94l4 3h4v-4 l-4 -3zM350 97l-4 2v3h7v-5h-3zM307 32l4 -4l4 7h-4zM311 95v-5h5v5h-5zM145 568v4h5v-4h-5zM122 500l-5 -4h5l3 3zM304 65v-5h3l1 3zM367 157h1l3 -2l-3 -5zM219 12v-2l2 2h-2z" />
<glyph unicode="R" horiz-adv-x="508" d="M98 1l-11 3l-11 15l-3 69l-2 5v18l-3 8l3 38l-3 8l-4 46l5 10l-5 8l2 18l-7 7l8 30l-5 19v15l6 8v16l-7 10l4 7l-7 15l6 3l2 6l-4 16l-4 7l4 12l-3 2l3 2l2 8l-5 7v13l4 4l3 22l-2 4v14l-5 13l6 14l-3 10v46l3 24l-4 10l3 8l-6 8l6 28l7 16l-4 7l27 14l12 -7l6 4l16 -8 v-11l9 -10l-1 -28l4 -1v-12l-3 -8l3 -6l2 -16l-6 -12l5 -10l4 4h4v-3h-3l-10 -14l4 -13h6l3 6h5l-3 -9h5v-5h-7v-4l13 -5l-17 -10l-7 -21l8 -8v-4l-9 4v-7l5 -5h3l9 -9l4 -14h-18v-13h16l-2 -24h-9l-3 3l-3 -4l6 -8h9v-16l7 -2v-12l-5 -5l5 -1l6 -8l12 12l11 5v-3h3v7h-14 l7 7h10l4 -9l-3 -5v-5l3 3l10 -4l4 6v9l4 5l2 -2v-9h6l1 -3l14 -3l7 8l5 2l4 5h-2v2h5l2 -2h5l-2 -9l-5 -5h21l-3 9h7l9 -13l12 4h16l2 5h-6l-5 4l2 7l8 11l4 -4v-7l4 -11l3 4l4 -2l6 3l8 -8l9 -4v7l3 15l6 7l9 -3l12 13l3 7h-12l-3 2l8 4h9l7 18v15l-3 5l-1 27l-5 10h-7 l-3 4l7 2l13 13l-7 7l3 10v25l-16 5l5 3v9l-5 9l-15 7l-3 7l-13 13l-12 3l-6 -6l13 -3v-7l-14 7l-5 5l-13 5l-15 -3l-2 7l-4 2l-3 -5l-4 5l-10 -2l-2 -5l-11 -5l-3 3l3 2v5h-8l-2 2l-7 -2v-7l9 -2v-3l-9 -3l-6 13l-9 -4l-6 7l-10 -9l-10 10h-5l3 -9h-4l-4 7h-7l-10 -6l-14 4 l6 6v5l-9 3l-2 13l2 2v5l-9 4v7l5 15l20 13h21l17 9l31 -8l9 6h31l4 3l3 -4l11 4l13 -6l8 3h37l6 -7h12l23 -13l7 -10l27 -25h5v-11h11l8 -17l9 -4v-9l5 -5v-16l2 -3v-9h2v-39l5 -5l-10 -10l7 -23l-3 -17l10 -12l-4 -7l2 -5l-5 -2l4 -16l-4 -2v-5l4 -4l-6 -8v-4l-9 -19 l-7 -2v-9l-6 -7l-15 -10l-5 -15l-9 -12l-12 -6l-9 -14l3 -6h-9l2 -4v-14h-5v5l-6 9l-5 -12v-5l-5 -1l-5 4l5 5v9h-5l-4 -5h-5l-2 3h-4l-3 -3h-7l-5 -12l-5 7l-10 -4h-7v2l-5 3l-3 -3v-5l-5 -9h4l1 3h19l10 -20l-3 -4l14 3l2 -7l-4 -9l-3 -2l5 -3v-12l5 -9l6 -2v-7l-6 -3 l7 -7l8 -24v-7h10v-21l10 -4l1 -16l8 -3l-3 -5l3 -6l11 -8l14 -25v-6l7 -5l4 -19l5 -8l-5 -8l5 -5l-8 -20l-15 -4v4h-18l-12 5l-12 13l-2 9l-7 14l-8 5l-8 23l-5 6l4 8h-10l-5 9l-4 3l-5 15l-5 5v7l-27 27l6 3v5l-4 4h-5l-7 12l3 3l-3 6l5 5l-14 7l-5 18v14l-6 5l-5 -7 l-12 -6h-9l2 15h14l3 6l-5 5v18l16 -4v7l-6 5l4 7l-9 1l-3 -10l-18 15l-18 3l-6 -3h-11l-8 -7l8 -8h7l-2 -20l-7 -5l-7 7l5 8l-3 5h-6l-3 -3l-9 -2l-5 7h7l6 12l-5 9l-6 -9l-10 -4l-4 4l-1 -17l-3 -4l3 -3v-11h-15v-9l-5 -9l10 -12l9 8l9 -4l-4 -4l-7 2l-2 -2h2l3 -7h9v-7 h-12v4l-12 3l-2 -2l10 -16l-8 -5v-5l3 -2l-5 -5v-32l6 -5l-11 -15l3 -3l-6 -13l7 -4l-8 -13l6 -7l-1 -34l-3 -5v-12l-4 -3l4 -4h7l-9 -9h2v-3l-8 -4l-7 -13h-11l-1 2l-9 -5zM156 302l10 -7l13 3l-3 7l-10 3l-8 9zM232 260l-11 4l8 8l4 -9h6l5 3l2 -14l-2 -3l-8 6l-4 -7v12z M179 217l5 10v9l4 4l6 -9l-4 -7l7 -9h-13zM179 249v8l9 6l9 -9v-5h-18zM167 416l8 6v10l4 7v-7l7 -12l-5 -4h-6l-5 -3zM299 416v25l9 -4l-4 -17l4 -4h-9zM343 417v5h11v-6h3l2 -3l-6 -10zM245 396l3 3l9 8h5l3 -6l-8 -3l-8 -7zM222 283l10 8l3 -3v-13h-5zM382 531v5h7l-2 11 h9v-6l-7 -10h-7zM285 392h-14v7h17v-9zM276 420h16v-4l-16 -6v10zM214 224v7l6 5l7 -8l-7 -4l-2 -5zM218 213h17v-4l-9 -3h-8v7zM244 192l6 7h-9l9 5l5 -7l-3 -8h-6zM162 481l5 6l3 -2v-14h-3zM364 550l-3 1l3 8l4 -8h5v-4l-5 -5zM235 240v6l9 -5v-5l-3 -2zM163 441l3 7h6 v-5l-5 -2l3 -2h-9zM381 514l6 6l4 -5v-4h-7zM184 542l2 9l9 -8zM142 554l6 7l3 -7l-2 -3h-7v3zM338 390l2 8h5v-10zM306 298v-7l12 5v2h-12zM197 439v2l10 2l2 -2l-3 -6zM378 485l-3 5l7 3v-11h-4v3zM136 524l1 -4h5v9h-5zM175 490h13l-7 -5h-6v5zM156 506h5l-3 -12h-2v12z M244 411h9v-2l-9 -5v7zM188 593l2 3h6v-3l-6 -4zM280 287l5 -5l7 2zM336 508v7h4v-7l-2 -2zM235 388v4h6v-4l-4 -2zM156 330l-7 -7h5l4 7h-2zM216 263l4 -6l-2 -5h-2v11zM250 467l3 2v-9h-3v7zM336 485v6h2l2 -6l-2 -3zM140 425l5 -3v5h-5v-2zM149 279l-3 -4h3l5 7zM190 369 v-4h6zM269 248l2 -3v4zM338 261l-4 -3zM158 662v-2l3 2h-3zM348 243l1 -3l-1 5v-2zM276 409h-2l2 1v-1z" />
<glyph unicode="S" horiz-adv-x="527" d="M155 319l-7 -3l-5 3l-15 3l-11 11l-10 -4l-3 10l-14 20l-12 6v7l-7 7l-5 10h-6l-8 7l3 9l-2 30v35l2 4v30l-2 18l-5 5v3h8l-6 31l3 5v12l4 12l9 9l3 6l23 26v4l20 10l6 13l37 26h18l7 2h30l5 6l11 -3l5 -5l6 7l3 -5l16 -7l2 -8l8 -8l1 -4h8l6 -4l6 10v12l13 3l7 7l7 -3 l21 2h30l28 -7l32 -29v-4l12 -8v-6l6 -3l26 -30l2 -8l5 -6l-3 -5l3 -9v-23l-3 -5l6 -15l-16 -27h-15l-6 -2l-13 2l-13 9v15l-8 2v21l3 7l-16 16l-7 16h-8l-9 12l-6 -5l-3 2v8l-15 7l-10 -6l-7 7l-13 -2v2l-6 -2l-10 2l-9 13l-9 -6l-4 16l-2 -6h-10l-4 -5v-4h-12l-5 -5l-1 -7 l-5 2l-4 -2l-9 7l-8 -3v-7l-16 -5v3h-5l-4 -4v-4l-12 -4l4 8l5 4l-3 4l-11 -16v-13l-4 2h-12l-6 -16l5 -12h11v-9h-7l-8 7h-6v-7h2l-5 -7v-6h-4l-7 -7l5 -8h9l-7 -6l7 -4v-5h-9l2 -8l-2 -2v-10h6v-5l-11 -5l5 -8h6v-2l-12 -3l3 -8l3 4l6 -3v-9l3 -1l-7 -3l7 -12v-6l5 -5h4 v-12h6l4 14l7 -8l-4 -9l19 -7l5 6h7v-12l3 -2l10 9h5l5 -9h7l9 -5h16l-7 -14l3 -2v-12l9 3v-13l-8 -4l-5 -16h-5l-5 9l-5 -14l-27 7l-4 -8h-10l-11 3l-22 -3zM327 -6h-20l-20 20l-4 7h-6l2 9l12 14h2l3 5l11 5h7l13 7l12 -4l12 6h5l4 9l18 9l3 -2l5 9l2 11l18 5l7 25v15 l6 12l-5 5l8 8l-6 14l2 2v7l-5 2l-5 11l5 5h5l6 9l-11 8v7l5 5l-5 6v12l3 7l-12 27h-6l-6 14h-9l-10 7h-13l-7 7h-6l-13 -9l-4 5h-4l-5 4l-21 -2l-4 -5v14l-5 19v9h-3v14l8 4l2 7h4l15 7h22l12 6l10 -7l29 6v-2h5v-3l6 -2l5 -5l16 -2l7 -8l5 -1l-5 -3l11 -6l4 -7l17 -14h8 l2 -9l8 -9l6 -31v-10l6 -6l-8 -12l8 -9l-5 -45l3 -15l-5 -15l3 -10h4l-4 -8l2 -18l-2 -16l-5 -14v-23l-9 -9l-10 -21h-4l-5 6l-4 -8v-7l-18 -14l-7 -14l-18 -9l-11 -11l-18 -3l-4 -4h-18l-12 -3zM215 -11h-12l-14 5l-8 -5l-20 6l-9 8l-17 7l-4 9l-5 2l-18 21l-7 2l-9 7l-2 7 l-5 5v3l-11 7l-5 11l-5 4l-4 9v14l-3 9v16l-3 6l3 11v54l18 15l9 -4l5 6l10 -7l10 -3l12 -9l4 -13l1 -28l5 -5l-6 -2l1 -18l9 -16h6l4 -19l14 -14l9 -18l13 6l12 -12l14 -6h8l8 -3l5 6l12 -7v-5l5 -5h12l4 9l10 -10l-13 -6v-4l8 -5v-9l-5 -5v-11l-10 -5l-6 -6l-7 2l-18 -11z M175 450v5h5l5 10l5 -15h-15zM275 347l2 2h7l3 -10h-6zM264 640l10 -5l3 3l-10 9zM240 564h11l-6 -7h-5v7zM189 500l2 4l4 -4l-6 -5v5zM201 587h5v-5h-5v5z" />
<glyph unicode="T" horiz-adv-x="493" d="M221 13l-11 22v51l-3 4l3 27l-3 9v17l3 7v11l-3 5v16l-3 7l-2 38l2 9l-3 17l6 12v7l-6 6l5 10l-4 7l2 21l4 7l-4 14v28l-4 9l2 2l2 21l-5 8l3 26l6 6l-6 6l-4 -3v8l2 2v32l-5 5l-2 7l5 5v6l-5 9h7v17l4 9l-6 11l6 2v3l-6 5v22l8 8l-4 4l-8 -4l-5 6l18 3l3 9h4l5 -5l13 -2 l2 5l-6 6h-3l-6 5l-5 -5l-3 3h-9l-2 -3l-9 -4l-2 3h-8l-22 11h-9l-10 -5h-19l-4 3h-39l-5 2h-23l-28 9l-2 7l-7 4v12l3 3v14l6 6h9l5 3l34 1l5 3h15l4 -4h6l10 7l16 2l4 -2h15l16 -4l10 4l10 -4l11 9l8 -8l19 9l11 -1l-2 -5l9 2h21v3l-3 1h7v-6h5l2 2h42l4 3h38l21 -7l21 4 l10 -5h5l3 -3l1 6h17l22 -6l5 -6l5 -14l-2 -7v-19l-27 -15l-36 2l-5 -5h-17l-10 -6l-14 11l-13 -6l-17 -4l-4 8l-5 -5l-9 -3l-5 -7l-7 3l-11 -6l2 -11l-9 -6v-12l2 -2l-2 -7l5 -12l6 8l3 -8l-5 -4v-9l-4 -9v-5l4 5l5 -5v-5l3 -2l-3 -11h-5l-2 -9l-6 -11l8 -8v-7l-2 -3v-9 l-4 -7l4 -6v-8l-7 -6l8 -13l-3 -6v-9l-3 -5l3 -5l-8 -26l7 -11l-4 -13l-5 -2v-5l7 -4v-12l5 -14l-5 -4v-33l6 -5l-6 -7v-9l3 -4l2 -17l-2 -13l-3 -5l-2 -27l5 -9v-19l3 -11l-6 -5l-2 -21l-2 5l-5 -5l7 -4v-12l5 -5l-5 -9l2 -12v-25l-7 -5l-2 -21l-5 -4v-7l-4 -4h-5l-2 -3 h-19zM264 598l3 -10h5l-3 7v12h-16v-9h11zM216 595v-2h7l2 2h-9zM276 613v-4h3v4h-3zM249 616l-3 -4l5 1z" />
<glyph unicode="U" horiz-adv-x="538" d="M309 -5l-16 17v2l-14 16l6 3l7 11l-6 2l3 2l2 7l10 3l4 7h15l3 2h9l5 5l12 4l6 5l12 2l7 4l-4 11l9 5v5l-3 3l15 3l6 11v7l12 5v13l-6 8l6 10l1 8l3 4l-3 14l5 7l-5 11l-2 14l5 14l6 6l-4 13l-7 5l2 6l3 -2v7l-3 8l4 4l-4 19l6 6l-6 18v16h5v4l-5 8l6 12l-4 9l3 43l-3 8 l3 13v23l4 4l-6 5l2 67l-3 13l6 6l-5 35l2 34l5 5l-3 8l7 22l7 4h12l11 3l16 -8l3 -12l7 -13v-30l-3 -3l3 -45l4 -5l-7 -12l8 -13l-4 -19h-6l12 -12v-4l-7 -4l4 -10h5v-7h-5l-4 -14v-10l7 -3v-23l-3 -10v-25l-4 -5h4v-39l-2 -14l5 -4v-10l2 -4l-2 -7v-39l-5 -5v-5h2l5 -13 l-5 -9l-3 -26l6 -3l-3 -1v-14l6 -23l-4 -14l5 -19l-18 -45l-19 -22l-7 -13l-8 -3l-11 -8l-6 -17l-9 -3l-3 3l-1 -7l-8 -7l-13 -5l-9 -9l-21 -5h-49zM241 -10l-16 8l-12 -5l-36 8l-6 6l-17 6l-8 8v7l-14 7l-11 16h-5l-29 30l-13 16l-7 16v23l-5 6l5 10l-7 3l3 2l3 36l-4 14 l5 12v8l-4 4v11l-5 5l9 16l-5 10l3 22l-5 5v7h6l-4 11l3 5v12l-2 4l4 13l-5 41l3 6v14l-2 5l4 9v9l-3 4l5 26l-5 12l3 6v33l5 4l-3 5v16l4 10l-4 11v32l4 9l-5 12l6 26l-3 8l5 5h4l5 9l8 -2l6 2l24 -8l-5 -8l9 -11l7 -25v-38l-3 -5l4 -7l-8 -31l5 -14l5 -5v-37l-3 -6v-9 l-5 -6l8 -13l-3 -10l3 -4v-12l-3 -6l4 -10l-1 -31l-10 -4l8 -4l3 -7l3 -25l-6 6l-4 -7l6 -9l5 -2l-4 -16l4 -6l-8 -38l3 -20l1 -30l8 -4v-4l-3 -1l4 -10l-6 -10l5 -9v-6l-5 -5l3 -9l11 -5l-6 -8l3 -3v-7l-3 -7l11 -5l13 -18l4 2l8 -2v-10l6 -4l7 -9l3 6h2v-4l11 -6l7 6v-7 l28 2l-2 -11l11 -5l5 -5l-3 -13l6 -5v-5l4 -2l-2 -11h-5zM239 5l4 -10l5 10h-9zM138 198v-1l3 1h-3z" />
<glyph unicode="V" horiz-adv-x="500" d="M221 0l-19 15v12l-7 8l-5 11v11l-5 6l3 8l-8 8l-3 16l-7 9l4 7l-7 14l-5 28l-5 4l-4 14l-7 14v18l-11 7l1 3h8v2l-5 2l-7 10v4l4 2l-1 10l-12 23l3 9v12h-3l-7 12l5 6l-9 9v9l-7 15v4l-5 5v13h-8l-6 14l3 5l-7 32l-6 8v15l-4 5v10l-5 9l-1 15h-5l3 10l-10 17v13l-5 14 l-3 23l-11 27v10l-2 4v10l-10 29l3 3v7l-7 11v12l10 19l14 5l7 -4l13 4l7 -8l12 -3l9 -17v-10l18 -35l7 -34h5l6 2v-7l7 -6l-11 -6l3 -9l4 -4v-11h18v-8l-14 -7l8 -18h11v-7l-7 -7v-7h11v-38l8 -4l4 6l14 2l3 13l4 3l4 -8l-7 -4v-5l7 -2l-8 -12l-8 3l-1 4l-12 -9v-9l2 4 l7 -4v-9h7l6 -3l17 -2l-9 -9l2 -7l-5 -5l7 -9h3v-7l-7 3l-4 10l-9 -7l8 -8l7 -3v-10l-7 -8l3 -6l9 4l5 -5h6l4 -9l8 -6v-8l-12 -4v-8l-8 9l-6 -9v-9l9 -4h8v-8l4 -9l-3 -1v-5l8 -7l13 -8l-6 -4v-16l2 -2v-6l9 -4l-6 -10l6 -3l-2 -10v-20l5 -6v-6l-3 -3v-4h7v-17l8 -6l1 2 l-5 8l4 9l-6 11v6l12 7l4 10l-16 -2l3 9h3l6 5h7l2 7l7 3v6l-4 5l-9 1l1 3h-6l-6 -3l-5 15l5 5l-11 21l-7 4v6l14 -13l7 6l-7 10l10 20l-3 6l-17 1l10 12l3 -4l3 1v10l-12 2l-9 -2l-12 10l9 9v9l-4 3l8 9l-4 1l-2 3h-5v14l10 5l-3 -10l4 -4h8v-8l3 -7l-6 -6v-21h5l4 12h6v-5 l6 -9l8 -4l-5 -3l1 -3l-6 -2v-12h9l2 14l5 10v9h4l3 -13l11 -6l2 3v7l-4 2l12 4v3l-5 2v13l-16 -4h-12l-2 -6h-9l6 9v9h12l10 -6h4v13l4 5h5l5 -12h10v18h-8l-2 -4l-10 2l-4 8l9 6h5v-5h4l7 12h-1l1 11l3 -4l5 4v6l-5 1v5l-7 -2v-7l-12 -5h-6l21 21l1 -4l9 2v7l8 6v10l-4 7 l4 4v7l-8 2l10 7l4 12h5l3 13l-5 6v4h7l2 -2l3 2v12l4 6l5 21l12 17l-3 8l3 8v8l6 4v9l4 5l3 20l5 9l3 15l13 13l3 8l16 9l19 -4l10 -11v-16l3 -5l-3 -20l-4 -5v-30l-5 -14v-13l-4 -3l3 -12l-6 -6l-4 -15v-13h8l-6 -9l2 -2l-9 -4v-13l-5 -2l2 -10l-2 -4h-5l-4 -7v-18l-9 -2 v-6l5 -2l-8 -11v-10l-5 -5l5 -11l-1 -11l-8 -4l2 -20l-9 -13v-9l-6 -8v-22h-8v-8h3l-3 -4v-7l-7 -7v-9l7 -5l-13 -9l-7 -10v-6l5 -5l-5 -12l-9 -10l4 -8l-3 -10l4 -9l-3 -6v-7l-3 -5v-9l-11 -9l-9 -15l4 -9l4 -2l-8 -13l-3 -17l-14 -14l6 -11h-8l-3 -7l-14 -9h-5v7l-3 2 l-7 -7l-13 5l-3 -3l5 -9l11 -3l-7 -13l-3 2v-28l-10 -13l-12 -5h-25zM278 252v-7h2l6 21h8v12l-6 17l4 3v11l-7 3v6h-5v-9l-9 -4v-7l-7 -3v-7l3 -1l1 -8l-5 -11l6 -6l-5 -5v-9h9zM202 393v5l14 1l-3 10l5 5l-5 9v9l4 -2v-2h10v-5h11v-7l-4 -7l-2 2v8h-6l-4 -10l3 -10l3 -3 l-12 -5v4l-11 -6zM216 351l-3 5h-5l-4 4l-2 8l5 4v5h4l2 -5l11 -5l-7 -10l9 -5l-4 -3zM297 459l11 5h7l8 9l5 -8l-10 -5h-6l-6 -7h-9v6zM237 288l4 10h9v-11h-7l-5 -5zM250 409h17l4 -5l9 5l-4 -7h-18zM207 238l10 2l5 8v4h-11v-7zM208 464l-1 5l13 6v-6h2v-7l-5 2l-9 -2v2z M248 434l18 4l2 -4l12 -2l-2 -2h-16zM255 379v7h5l8 -12l-6 -3zM223 303l6 6l8 -1v-11zM278 389h-5v6l15 -2l1 -4l-8 -4zM268 420v5h17l-6 -8zM181 407l3 -8l9 4l-9 10zM300 428l6 15h4v-6l-4 -5v-4h-6zM259 93l3 -12h5v5l-3 1v6l-2 2zM192 335l3 -6h4v9h-9zM271 288l5 8h4 v-9zM250 460v2h10l-3 -9zM217 224l4 -7l4 5l-3 6zM227 198h10l-3 5h-7v-5zM243 470v3l5 3l2 -9zM157 515l3 3h5v-7zM229 219l5 -2l3 2v5l-8 -2v-3zM196 475l3 4h3v-8h-3zM132 549l7 3v-7h-4zM213 335v-14l4 5zM259 111v-5h5v5h-5zM177 399v-6h4l-3 9zM211 279l2 -1v4h-2v-3z M315 390l3 -1v4zM331 425l-3 -2h3v2z" />
<glyph unicode="W" horiz-adv-x="840" d="M193 3h-6l-5 4l-5 9l-9 9l-7 28l-3 4l-1 8l-3 2v5l-5 11v13l-7 10l-2 23h-3v12h-6v4l6 2l-1 8l-8 4l-1 18l4 9l-4 10l-10 -5l-5 6l10 5v4l-5 5l4 9l-6 7h-9l6 5v9l-9 5v8l3 3l-3 9v13l-5 5l6 5l-6 13l-3 16h-6v5l7 16l-11 26l-3 2v13l-5 10l-2 14l-4 6l-4 15l2 5l-7 16 l4 7l-9 17l-10 30v11l-7 21l5 9l-7 6v12l-6 11v10l-4 12l5 5l-8 17v9l-6 17l4 9v6l9 9h11l3 3h13l14 -14l7 -3v-14l9 -14l-2 -10l11 -12v-9l9 -10l-4 -11l7 -9l7 -19v-16l7 -6l3 -21l5 -17l-4 -7l5 -14l9 -4v-7l5 -7l-2 -4v-12l2 -2l-2 -5l12 -11v-5l-11 -11l14 -14l3 -19 l7 -7v-16l-5 -6l6 -6l6 3l2 -2v9l8 4v-4l3 -4l-6 -3l-9 -14l-3 -16l12 -9v4l-6 8l4 4l14 2l4 4v12h8l4 8l5 -3v-7l-3 -5l-5 2l-2 -11l-7 -2l5 -5l3 -7h20v5l4 2l3 -2l4 2v7l2 -2l6 4v19l-3 4h5l2 -2l5 2v9l-4 4l13 6l4 -5l-4 -5v-11h6v5l8 6l-8 17l-4 4l10 7v-13h6l-3 15 l14 11l-7 7l8 6v18l4 7l-7 2v8l5 4v11l14 4l-2 11l-17 6l24 14v10h-3l-2 6l9 19l9 5l-2 1l-2 10l4 10h-4l13 17l-6 14l9 3l9 16l11 4l17 -4l12 4l-3 3l-2 34l-4 10l4 11v7l5 10l23 7l23 -5l9 -19l5 -4l5 -15l6 -9v-13l10 -4v-13l9 -4l1 -19l5 4l9 -5l-10 -10l8 -11l2 -19 l12 -5l7 4v-5l-7 -4l-2 -9h9v-7l-7 -6v-9l4 -8l5 3l3 8l14 -18l-4 -9h-8v-5l7 -1l9 -12l-5 -6l14 -10l4 -10h12v-4h3l7 7h11v-7l-2 -2l7 -7v-8h-12l-4 -4l2 -7h7v-7l8 -5l10 3l-7 -12l5 5h5l-5 30h5l7 -14l3 6l6 3l5 -4l10 5l10 -10l-7 -2l-6 -8h-5l-10 10l-9 -14l-2 -7 l-7 -7l7 -9l3 3l6 -3v-7l7 -2l-3 -7h-8v12h-4l-7 -16l7 -4l10 6h8l6 -9l-10 3l-8 -11l-14 -9l-7 2v-2l7 -4v-7l12 -2l14 8l-3 3h-5l-6 7l8 5l8 -8h9v15l-2 4l2 2l-7 3v2l5 2v2l-7 4v17l5 12l18 2l-12 -22v-8h9l9 23v5h-3l12 15l-3 10v19l4 9h2v7l-2 2l9 10v9l-7 6v5h11l5 25 l8 8v16l3 4l-3 7l11 25v10l12 49l3 28l8 25l11 7l9 9h20l4 -5l6 -3l3 -13l-3 -3l5 -11l-5 -10l-1 -9l-5 -2h6l4 -3l-5 -6v-25l-5 -8l-9 -31l3 -7l-10 -14v-16l7 -2v-3l-8 -3l-7 -15l8 -8v-7l-8 -4l5 -2v-8l-5 -4l-1 -21l-3 -5l4 -5l-4 -31l-10 -22l5 -6v-14l-4 -2l-3 -8 l4 -10l-3 -5v-7l-4 -12l4 -7l2 -11l-11 -8v-6l-4 -9l10 -10l-6 -7l3 -8l-6 -10h-3l6 -9l-3 -7h-9v-14h5l1 -5h3v-4h-4l-3 3h-5l5 -10l-7 -2l-4 -12l5 -6l-8 -4v-7l8 -10l-3 -5h-7l-4 -9v-10l-6 -6v-10l-8 -6l-3 -8l-9 -6l-3 -10l-16 -4h-9v-10l-7 -39l-15 -15l-28 -4l-24 10 v9l-25 53v11l-5 8v9l-4 4v8l-12 10l4 11l-10 9l-3 13l-5 5v8l12 -5l3 11l-12 7l-10 9l6 9l-10 9l4 8l-6 4h-5l-11 11l10 4l4 17l-6 5l-1 -10l-13 -5l4 7l-3 5l-7 4v8l-5 5h-3l-6 9l4 4l10 -4v-3l10 -7l7 6l-3 13l-7 -5h-5l-4 17l-9 4l-7 6l-5 -8v-7l-9 -2l-5 -14h-4v4h-5 l-3 3l3 2l2 12h3l1 -5h5l-3 4l8 7l2 7h26l2 3l-10 2v5h-9l-6 7v6l-10 3l-6 -7l-3 2v17h7l8 8l7 -13h3l5 9l-3 11h-15l-12 -6l-3 -8l-6 -4l2 -2v-11l-11 -5v-3h8l3 -6l5 2l4 -7h-13v7h-6l-5 -6l-8 8l5 23h-10l-4 5v7l-22 -14l11 -8l9 5l3 -27h-5l-4 9h-10v-21h-3l-4 5l-3 -23 h5l5 9l1 11l5 5l8 -10l-10 -10v-9h-9l-9 -3l2 -3h7v-6l-3 -3l4 -9h-18l4 -12l8 6l2 -8l-4 -4l3 -4l-10 -5l3 -4l-3 -5h-10v-12l-2 -9l-7 -3l-2 -5l2 -1v-5l-4 -5v-5l3 -3l-3 -6l-5 -2v-3h5l4 3l7 -3l-7 -9h-13l-6 -17l6 -6l-5 -10h-9v-6l-3 -16l-4 -5v-18h-7v-7l-4 2l-8 -3 l-11 8l2 2h-11v9l-9 8l-3 -3l2 -2l-2 -14l2 -9h-7l-4 -5l2 -7l7 -7v-32l-18 -18l-16 -4zM611 270l2 -13h2v6l12 3v6l3 9h-8l-4 7l-4 -7l-8 3v-3l3 -2l-7 -3l-5 15l-5 5h-13v9l6 9v14l-3 11l6 5l-16 12l-10 2v-12l-3 -7l3 -4l12 11h3l-4 -28l-6 -7v-13l8 -3l-9 -9l4 -8l4 9 h11l7 -6l5 -11l-2 -4zM217 261v-4h6l5 4h9l4 -3h6v3l-5 4l5 12l-6 -2v9h10l2 -16l3 -5l6 7l-2 21l2 5l-4 2l-21 -2l-5 -5l-9 -4h-16v-6h-11v-6l13 2l14 -2l3 9l4 -5v-4zM382 360l3 -2l9 9l3 -6l3 4h8l2 4h2v-2l5 4v5l3 3h-3l-11 -8l-4 4l9 9l-7 7l8 5l3 10l-4 7l-19 4l-2 -7 l-4 -3l5 -3l9 5l9 -4l-6 -6l-3 -9h-4v-13l-14 -4v-8l3 -3zM371 258l2 8l3 2l2 7l-8 10l10 13h2l-2 -10l2 -7l7 4l9 -9l-4 -4l-4 3h-8v-14l-4 -4zM409 429l6 2l2 9l-2 12l-9 -2v6l-10 -6l7 -7l-7 -9l4 2zM226 189l9 -9l4 12l-2 2v10l-9 4l-4 -7h-7v-7zM555 369v-12l10 5l22 5 l-4 7h-16l-2 -3zM260 397l-7 2v11h16v-20h-4zM207 241v-14l7 4l4 -3l5 3l3 5l-8 6v5zM249 307v-3l23 12l-3 2h-18zM530 421l2 -5h6l4 8l-7 10h-3zM371 374l2 -7l3 2l4 19l-7 7v-16l-4 -3zM227 230l3 -3l7 2l4 13h-9zM237 356h6l8 -10l-4 -2h-10v12zM228 219l5 -5l14 3l2 2 l-17 5zM385 561l5 -5l1 16l-9 3v-5zM412 461l3 -1l2 10l7 3l5 5l-9 -3l-14 -14h6zM202 367v7h12v-7h-12zM441 293l4 5l5 -2v-8h-9v5zM193 422l3 -4l8 -3l-4 -5h-7v12zM420 390l5 -3l8 8v6l-7 -4l3 -2zM212 217l6 -3l5 3l-9 4h-7l-2 -2l2 -2h5zM570 495v8h11v-4zM458 238h8 v-10h-5zM446 341l5 -8l5 6l-2 5h-4zM391 296v4l-1 5l2 3l4 -8v-7l-2 -2zM595 251l7 -9l9 5zM566 470h6l6 -5l-6 -5zM607 420l7 3l4 -7l-5 -3zM339 275l2 -5l7 7l-8 3l-4 -3zM439 387l3 -4h8v3l-5 4zM362 248l16 -6v-2l-5 -2zM228 102l2 -3v5l-7 7l-2 -9h7zM228 416h-7v6h5 l4 -4v-5zM613 369l5 5h5v-5l-6 -3zM400 261h10l-7 -7h-3v7zM511 478l3 -5l7 2v3l-6 2zM429 284h4l9 -3l-1 -2h-12v5zM402 278l4 3l6 -2v-4h-6zM602 232l4 -4h3v8h-3zM588 356l4 -5l3 2v5h-7v-2zM410 314h5v-5h-9zM436 228v5h5l4 -5h-9zM450 351v-2h6v7zM218 351h3v-10h-3v10 zM223 152v-2h5v5h-7zM463 315v-7l8 3zM231 318l6 3v-7zM237 249v-4l4 2v7zM301 434v-3h6l2 3h-8zM565 406l5 -2v6h-3zM555 390v-7h6zM394 427l4 -4l2 4l-6 3v-3zM217 383v5h4v-5h-4zM396 266l3 6l1 -9zM341 302v-6l5 2zM411 423l4 -3v7zM396 355l3 -6v9zM262 409l-2 -5l5 2z M595 349v-8l2 3zM420 420v-2h4v2h-4zM595 326l2 -3v5h-2v-2zM623 247v-2h2v4zM269 307v-5h2zM426 446v-3h3zM576 247l3 -2v2h-3zM475 263l2 -2v2h-2z" />
<glyph unicode="X" horiz-adv-x="499" d="M33 -2l-5 5l-4 2v7l-5 7l7 20v12l9 9l2 9l17 24l3 11l6 2l6 10l5 16v9l7 16l7 3v11l14 16l2 10l4 1l6 8l4 11v11h5l2 10l6 6l-5 4l12 7l-5 5l4 3l-5 3l12 6l6 12l6 5l-3 9h-5l7 10l9 4l7 -7l12 3v4l-4 2l10 5l-6 10l6 6l3 7l-12 2v7l5 2v5l-6 7l-7 -3l-4 5l8 2v16l-9 -6 l-5 4v7l7 8l-19 1v10l9 3l-4 4h-5v14l-9 9l-12 -2l-4 2l-2 4l5 5h7l-3 10l-7 2v9l-9 11l-8 4v10l-4 5l-3 11l-7 11l-4 15l-12 11v7l-6 7l-4 11l-10 10l-4 14l-6 9l-8 22l-5 5l-3 13l-8 8l3 9l-6 5l3 10l10 10l24 5l14 -6l2 -3l4 -1l12 -12l7 -12l14 -11l5 -10v-11l6 -4 l11 -16l4 -13l7 -3l6 -13l9 -3l10 -21l-3 -8h5l6 -5l6 5h3l-5 -9l-6 -4l14 -5l5 2l5 -10l-5 -11v-9h7l8 7h10l-4 -5l10 -7l11 7h9l-2 -13l16 7v6l-7 5l17 6v10l-3 2v5h7l5 7l7 4l-3 5v7h6l12 19l3 13l11 23l6 4l20 41l7 6l4 11l21 22h19l11 5l7 -3l7 -7l9 -4v-13l-7 -11 l3 -2l-3 -9l-7 -7l-5 -22l-4 -4l-2 -7l-5 -5l-7 -13l-3 -12l-6 -5l-2 -9l2 -4l-7 -4v-8l-14 -14l-5 -13l-4 -2l-2 -10l-8 -14l5 -12l-2 -2h-9l-3 -9l-13 -7v-4l6 -2l3 -8l-19 -10l3 -10h-9l-2 -8h6l5 3v-7l-11 -2l-3 -3l-12 -4h-9l-6 -7l-9 5l4 -18l9 3l2 6h5l2 -6l-7 -9 l-2 5l-12 -3l8 -6h6l4 3l11 -6l4 -17l-3 -3h-4v-7l5 -3l-3 -7v-7l10 -2l2 -9h7v-12l-5 -3l7 -3l12 -18l-3 -4l7 -18l6 -3l3 -11l7 -3v-16l11 -8v-5h8l2 -23l11 -9l7 -14v-11l17 -10l2 -14l4 -7v-6l7 -7l10 -17l4 -18l15 -20l3 -15l-3 -3l9 -5l-7 -11l7 -7l-3 -8l-18 -7h-12 l-7 7h-11l-7 6l-5 10l-21 23v5l-16 16l-9 16l-6 20h-4l-4 8l-4 3l-3 10l-11 18l-8 8l-7 16l-6 6h-12v6l3 2l-3 2l3 2l9 -9v9l-7 5l-5 -2l-2 14l-7 11l-12 -2l-4 4l4 3l-14 5l12 5l-3 8h-9l-5 8l-13 -4l-3 4l-1 -8l-13 -13l5 -5h6l4 16h7l6 -7l-4 -8l10 -5v-5l-16 4l-10 -4 h-10v-6l6 -1v-8h4l-10 -1l-4 -3l-5 4v5h-5l-5 -6l5 -5l-1 -3l4 -6v-12h-4l1 9l-2 3l-7 -3l-1 3l-3 -3v-18h-9l-4 -11l-5 -5v-14h-5l-5 -5v-3l-10 -7l-9 -20l-5 -18l-16 -10l4 -5l-14 -20v-14l-12 -8v-7l-8 -3l-10 -12l-27 -6zM206 480l11 -8l2 8h5l-2 12l-13 -4zM189 300 l14 -7v5l-2 2l4 8h-20v-8h4zM233 467l-2 -9h5l9 9l-12 6l3 -4zM253 412l4 -3h6v13h-4zM317 409l-9 4h11l7 -6l-4 -8zM240 439l3 -2l3 9h-6v-7zM218 266l1 -5h5v5l-3 3zM219 520v4v-4zM206 248v-3l3 3h-3zM239 485l-6 -3zM162 308v-3h2zM197 328v-2l2 4zM243 473v-2h2z M213 288v-1h2z" />
<glyph unicode="Y" horiz-adv-x="460" d="M205 9l-4 6l-13 14v24l-3 18v25l4 7l-4 16v17l-2 7v51l-6 5l10 10l-8 18l5 4l-5 23l3 11l-6 9v10l3 4l-7 2l-3 9l-10 10l-1 20l-7 7l4 3l-5 10l-6 6v4l-10 10l-2 10h-4l-5 10v8l5 4l-8 8l-6 15l-6 6l-4 12l4 7l-10 3v12l-3 6v13l-9 5v12l-8 9l-10 31l-3 4l-2 17l-7 13 l-4 16l-10 10v14l-13 18l-10 30l6 10l10 7l16 4l20 -7l13 -9l2 -7l7 -9l6 -21l7 -6l2 -12l7 -7l3 -14l5 -11l9 -10v-19h9l3 3h7l-3 -14l7 -3l-9 -13h16v-13l10 -5l-5 -6v-16h7l5 -14l10 -13h3v-12l7 -6v-9l5 -6h7l-2 -6l-5 -5l5 -12h10l3 -2l7 5v5l7 9l-4 3l16 7l6 11v13 l-2 5l2 9l6 -6l-3 -3l2 -7l6 18l13 14v17l16 13v14l-6 5l11 4l1 12l8 7l9 18l4 14l3 3v4l5 9l1 8l8 18l23 38l33 12l6 -6l11 -4l-4 -17l-5 -2l8 -6l-3 -15l-7 -7v-5l-5 -9v-10l-11 -4l5 -2l2 -5l-6 -5l-8 -25l-5 -6l-2 -8l-5 -4l-2 -18l2 -6l-8 -5l-6 -10l-9 -21l-4 -3v-11 l2 -3l-5 -4h-6v-17l-3 -4v-6l-5 -6l4 -7l-11 -11v-18l-3 3l-8 -8l2 -9h-2v-5l-12 -14l-2 3l-9 -12l4 -5l-6 -7h-12l-2 -2l2 -9h-7l-2 2h-5v-5l-11 -5l4 -4l9 5h5l3 -14l-13 -6l8 -8v-14l5 -5l-6 -11l8 -4l-3 -3v-7l3 -5l3 4l3 -4l-6 -12l5 -4l-3 -9l-5 -5v-6l3 -5v-25l-5 -7 l2 -19l-2 -11l2 -2l-6 -24h4l-2 -21l2 -18l-2 -5v-27l-5 -10l-2 -14l-16 -9h-21zM249 332l9 6l-5 9l-7 -4l-3 3h-4v-9l6 3zM224 431l-6 3v2h6l10 4v-9l-6 -6zM234 480l5 10l4 -10l-3 -2zM215 461h7v-7h-7v7zM221 384l6 -5l3 3l-3 7zM204 434l2 2h7v-6h-4zM201 470l4 4l4 -5z M273 341v-2l5 2h-5zM254 332v-3l3 3h-3zM231 369l3 -2v2h-3zM234 385v-2h2z" />
<glyph unicode="Z" horiz-adv-x="528" d="M194 -8h-13l-8 3l-9 -3h-78l-21 2l-9 4l-5 7l-7 2l-5 21l6 19l6 7l21 9l2 -5h5l4 5h8v4l4 5l5 -2l-3 5l-5 1l-4 10l3 7l-8 3v6l-4 9v12l9 13v8l9 6v15h7l8 4v9l10 17l8 6v9l10 6l12 32l11 3l4 6l-6 5l12 13l5 10l8 7l-4 8h5l7 8v11l9 7l17 21l4 13l11 15l8 24l7 3v12h14 v11l7 7v5l-3 2v7l4 -4l10 25l-7 -7h-4l9 11h6l3 12h9v5l5 9v4h7v12l-5 9l-4 -4h-4l4 6h6l5 -4l12 5l7 11v14l-7 2l4 5l9 -6l5 21l4 6l-2 11l5 2l6 -7h8l7 21h5l14 6l17 -4v-5l5 10h4l17 -19h3l7 -22l-15 -17v-18l-4 -5v-7l-10 -4l2 -7l-9 -10v-9l-6 -6l-5 -15h-7l-4 -9v-7 l-12 -8v-9l-9 -3l-10 -10l-4 -16l-14 -18l-3 -11l-7 -8l-1 -14l-3 -6l-5 2l-3 -4l3 -8l3 -2l-5 -5l-11 3l-8 -10v-11l-6 -7h-4l-3 -18l-7 -7l-3 -12l-4 -5v-7l-12 -8l-6 -10v-7h-5l-2 -2l4 -2l-9 -9l-2 -12l6 -9h-6l-7 4l-3 -2v-5h7v-6l-15 -13l-3 -11l-12 -11l3 -3l7 -1 l-5 -10v-11l-6 -5h-7l4 6v8l-4 3l-9 -10l6 -11l-9 -8l-10 -2l-2 -10l-14 -8v-5l7 -2l-20 -20l5 -5l6 6l7 3l5 -5l9 2l-7 14l7 2l7 -7l21 -5l7 -6l8 3l7 -5l7 4h10l4 3l5 -5h16l8 8l10 -3l8 -8h4l7 5h5l4 4l7 -9h25l12 -4l5 3h48l14 -4l2 5l17 -5l6 4l7 -3h17l13 -14v-9 l-3 -7h7l-4 -12l-7 -6v-4l-11 -7l-23 -3l-6 -3l-12 6l-3 -3l-28 -3l-16 5l-6 -5h-17l-4 -2h-12l-5 2l-4 -2h-38l-9 -4l-12 5l-10 -3h-32l-15 -4l-11 4l-5 -6zM349 607h-5v5l-4 2l-6 -2l-6 10h-12l-4 -5h-28l-11 -5l-5 5h-12l-11 -3l-7 -7h-5l-1 3h-6l-6 7h-9l-4 -6l-13 6 h-16l-8 3l-15 -6l-3 4l-10 4l-32 -4l-6 5l-27 -1l-5 4l-5 -3h-9l-5 5l-5 -3l-10 10l-3 27l5 13l9 7l16 4l48 2l50 5l6 -5l12 5h52l18 6l3 -4h26l14 -3l13 7l7 -4l14 -2l6 -3l3 5l5 2l2 -3l10 3l1 -2l15 -2l7 2l20 -2l14 -4l10 5l37 -4l7 -7l8 -3l4 -29l-6 -7l-2 -9l-19 -12 h-18l-10 -6h-4v5l-3 1l-9 -4h-18l-4 -2v6h-8l-22 -7v-9l-3 -2zM314 552l5 5v-9h5v-7h-10v11zM295 554l7 6l4 -5l-5 -3h-6v2zM295 582l-2 3l2 4l6 -5v-4h-6v2zM233 81v7h4l4 -7h-8zM222 160h7v-7h-5zM223 116l3 7l3 -5v-7zM275 300l-2 -2h4zM469 10l-3 -3l5 3h-2z" />
<glyph unicode="[" horiz-adv-x="253" d="M96 -90h-17l-4 4l-3 10h-7v30l-2 2v39l2 6l-4 11v45l-3 9l7 7l-4 28v159l5 7l-3 2v29l-2 6v49l3 8l-6 23l3 6l-3 11v79l3 4l-7 11v24l4 13l-4 5l2 12v32l-3 11l3 9l-4 15v23l-4 5l8 4l-4 9v35l-3 9l3 14v18l6 39l17 7l47 5l8 -2h36l5 -5l11 3l8 -7l2 -5l7 -7v-8l-15 -5 l-5 5l-9 -15h-13l-9 5h-8l-4 -8l-20 -2l-10 -7l-1 -39l-3 -5l4 -11l-3 -13l5 -27l-4 -23l4 -15l-6 -18l6 -19l-9 -3l5 -9l2 -13l-3 -10l4 -18l-3 -7l2 -9v-56l-5 -6l5 -12l-4 -10l4 -4l-2 -16l5 -13l-3 -36l-3 -7l3 -11l-1 -23l-5 -5v-4h5l5 -9l-4 -20l3 -10l2 -15l-5 -5 l6 -19l-4 -7l4 -22l-4 -11l6 -11l3 -22l-3 -16l-6 -2l7 -34l-4 -15l3 -15v-26l7 -15l-6 -7l3 -8l3 -2v-11l9 -26h11l12 -4h13l8 -4l14 5l16 -9l2 -4l11 -6l-4 -18l-7 3l-3 -6h-8l-8 -8h-16l-5 3h-27l-4 -3h-21z" />
<glyph unicode="\" horiz-adv-x="260" d="M220 -92l-11 14l-3 9l-6 7v12l-4 15l-5 9l5 8l-3 3h-5v18l-16 42l4 13h-4l-6 8l-3 22l3 3l-12 14v13l-8 14l-1 25l-13 30l-4 26l-12 44v7l3 2l-9 14v16l-12 23v14l-4 12l-8 14v12l-13 37v11l-4 7l-8 41l-5 4l-4 17v16l-14 30v14l3 4l-7 14v10l-5 9l-7 26l2 5l-2 17l-7 10 v13l-4 10v16l-4 11l13 12l14 -2l1 2h8l13 -24v-10l8 -8v-21l9 -9l-2 -11l6 -16l3 -3v-12l11 -19l-5 -3v-8l9 -13l6 -21v-9l9 -18v-10l2 -11l4 -8l3 -18l-4 -6l16 -26v-10l2 -4v-14l4 -4l8 -26v-14l5 -5l-4 -7l10 -22v-12l5 -16l5 -6l-5 -10h5v-12l6 -13v-8l16 -43v-14l5 -10 v-14l7 -16l5 -27l1 -18l14 -32l-6 -12l13 -21l5 -21v-12l3 -3l9 -36l-5 -8l7 -13v-21l-2 -4l-3 4h-4v-9h-17z" />
<glyph unicode="]" horiz-adv-x="253" d="M140 -87v2l-6 -2l-9 2l-8 -4h-13l-5 2l-10 -3l-15 7h-12l-5 5l-3 16h7l6 13l7 -6l9 9h16l6 -3l8 3l21 2l6 8l15 33l-5 18v50l4 21l-6 17l5 22l-3 9l-3 43l6 21l-5 4l4 25l3 4l-3 7v10l3 4v60l2 8l-5 22v44l-2 11l2 2v32l3 9l-3 24l-2 51v48l-4 20l4 6l-3 9v23l6 11l-3 8 l3 13l-6 9v21h5v10l-5 4v27l-11 15l-19 4l-22 2h-24l-16 8l-7 11v9l5 7h7l6 4h17l3 -2l6 5h12l5 -3l25 3l11 -3l7 3h25l5 -7l9 -2l5 -9l2 -15l-2 -4l4 -23l-2 -23l3 -16l-6 -10l5 -8v-12l-6 -18l7 -5l-5 -30l7 -13l-7 -30l4 -12v-8l4 -9l-9 -20l7 -6l-4 -11l6 -16l-4 -7 l3 -4l-5 -12l2 -20l-3 -7l4 -7l-5 -5v-23l4 -5v-22l-4 -3v-5l5 -5l-3 -8v-15l-3 -10l3 -14l4 -4l-4 -46l8 -7l-3 -6v-12l-3 -5v-9l4 -7l-7 -17l8 -8l4 -47l-4 -38l-2 -3l2 -9v-15l3 -13l-5 -11v-14l6 -3v-9l-2 -1l-4 -29l6 -27l-2 -28l-9 -9l-2 -11l-7 -5l-19 -2l-17 -7z " />
<glyph unicode="^" horiz-adv-x="347" d="M245 489h-10l-11 11v5l-8 8l-6 13v6l-7 8v11l-12 11v6l-11 8l-5 8l-14 11h-5l-1 -4h-5l-5 -5l-3 -11l-20 -22v-7l-9 -9v-6l-9 -10l-4 -16l-10 -5l-4 -7h-11l-6 -4h-14l-7 7v18l3 3l3 14l6 6l2 9l11 11l8 28l19 33h4l1 7l8 7v11h9v13l8 12l20 17h15l15 -4l3 -7l6 -3l9 -9 l4 -10l8 -9v-11h5v-16h9v-12l4 -16l9 -9l9 -17l5 -20l12 -14v-23l2 -3v-15l-12 -4z" />
<glyph unicode="_" horiz-adv-x="439" d="M189 -69l-19 -3l-14 3h-28l-32 4l-12 -2l-11 2l-9 -4l-10 4l-27 -1l-10 4h-7l-10 9l5 16l5 2h12l5 5h37l11 4l27 -4l5 4l10 -4h18l4 3l3 -3l14 -2l34 2l7 4l10 -4h12l1 -2l10 3l16 -6l9 3h25l6 -5l11 6l8 -4l26 3h73l12 -15l-7 -15l-19 -6l-11 5l-13 -6h-9l-5 3v-7l-27 9 l-5 -2h-30l-6 5l-5 -5l-15 -3l-5 5l-4 -3l-9 2l-6 -4h-20l-4 -2h-14l-7 -3z" />
<glyph unicode="`" horiz-adv-x="337" d="M239 794l-2 -1h-10l-32 6l-11 7h-19l-4 5l-14 4l-9 -3l-16 8l-23 4l-14 8l-11 2h-10l-4 4h-9l-3 12v14l19 10l18 -6h10l9 -4h21l10 -10l3 3l18 -3l10 -7h18l12 -6h11l5 -5l34 -2l20 -12l-1 -20l-5 -9l-14 -5z" />
<glyph unicode="a" horiz-adv-x="500" d="M399 13l-4 16l-9 19v14l-5 4v10l-7 10l-5 18l-4 6v16l-13 6l4 13l-2 2l2 2v5l-5 4l-2 14l-7 3l-3 11l-5 4l-13 -6h-6l-7 -7l-3 7l-9 -11h-2l2 -5l-8 -4l-7 7l-5 -4l-4 7l-14 -9l-5 4l-3 -3h-7l-7 7l-20 4l1 -7h-7l-15 6v-18l-8 -6l-1 9l2 3l-10 5l-4 -11l-9 17l-3 -5 l-9 -4h-12l-9 -5h-5v-4l-9 -14l4 -7l-12 -5l6 -10l-5 -15l-5 -7l-2 -17l-13 -19v-6l3 -3l-10 -10v-18l-12 -6l-4 -8l-25 -7l-16 8l-8 17l3 25l4 4v21l5 21l11 15l-2 20l13 36l5 24l5 4l4 9h-2l2 24l6 19l11 20v9h-5v5l2 2l5 -2v7l-2 2v7l8 3l4 6v23l6 3l7 18l-3 4l3 17 l10 14l-5 13l2 9l10 -2v12l-4 6l5 10l5 2v17l7 10l-3 14l12 12l5 18v20l7 6l3 8l-4 9l3 8l7 8l9 24v9l21 13l8 -8l13 4v-20h7l4 5v12l-4 7h-5v5h5v11l4 8l-4 8v16l4 5l-4 7l6 6l34 6l9 -6l12 -3l14 -27l3 -11l3 -2l2 -13l9 -5v-9l2 -3v-14l5 -4v-12l4 -9l-3 -9l3 -8l3 -2 v-14l5 -5l-5 -4h16l-7 -7v-19l5 -6h7v-9l-5 -11l12 -16l-5 -6l7 -16l6 -7l-4 -4v-7l4 -5h3v-9l5 -5v-7l-3 -5l4 -10l8 -3l-2 -7v-21l5 -6l-3 -7l8 -17l9 4l-7 -14l5 -5l-4 -10l2 -3l8 -2l4 -5l-4 -2l2 -21h10l-3 -14l3 -11v-14l4 -3v-11l-3 -4v-5h5v-2h7v-28l6 -17l3 -38 l3 -7l5 -5v-16l4 -5v-9l7 -10v-6l2 -2v-12l3 -8l-10 -21l-9 -3l-9 -7l-5 4l-16 -4zM262 265l10 -6l6 4l9 -4l11 6h7v7h-29l-3 -4zM223 505h11l4 5l8 3l-3 4h-12l-4 9zM236 459l4 -9h6v18l-6 -5h-4v9h-3l-7 -10zM312 149v12l7 14h9l-4 -7l-5 -2v-8l-4 -4l2 -5l-2 -2zM264 311 v-3h2l4 8l-9 7l-9 3v-8l14 -5zM246 294l6 -4h5l-2 8l-5 4h-12v-7l5 4h3v-5zM248 376l2 -3l7 7l-7 12h-4zM276 253v-5h24v5h-24zM227 549l2 -5h7l10 5l-7 5l-8 -5h-4zM317 218l2 -1l7 4v9h-9v-12zM261 415l4 -3l7 4l6 -4v7l-8 3l-4 -5h-5v-2zM223 360l-3 -10h2l7 11l-7 8h-4z M307 277l3 -3l5 4v5l-5 5zM248 424l2 -8l8 7l-6 6zM298 313v-5l8 3l-3 9zM248 252l4 -4h5v8h-5zM195 149v8h6v-10zM272 388l4 -8l6 2l-4 6h-6zM181 293l2 -3h9v8l-6 -5h-5zM321 214v-9l3 4h4l2 3l-2 2h-7zM250 498h5v9h-5v-9zM206 343v-4h4l4 3l-4 6zM204 369l6 -2l4 12z M304 235h8l-2 12zM227 332v-7l7 4v3h-7zM171 265v-7l5 2v5h-5zM321 196l3 -5h4v5h-7zM238 491l2 -4l3 9h-5v-5zM317 263l2 -5l5 5l-3 2zM285 328l2 -3h4l-2 7zM273 298l-9 -5h9v5zM248 366l4 -4l4 7zM240 355l-2 -3h8v3h-6zM264 450v-5h4v5h-4zM276 283l4 -5v8zM259 470v-2 h5l2 2l-2 2zM229 274l-2 -6h4v6h-2zM176 286v-8h2v10zM273 346v-5h3v5h-3zM229 369l2 -2l3 4h-5v-2zM300 302v-4h3v4h-3zM231 450l-2 -3h7zM195 367l2 -3l2 3l-4 2v-2zM257 401l2 -2l2 4h-4v-2zM264 373l4 -4v4h-4zM213 399v-5l3 5h-3zM213 466v-5l3 5h-3zM195 290v-7l2 7 h-2zM273 440v-4h3zM264 348v-2l6 2h-6zM257 263l-2 -3l4 3h-2zM187 316v-3l3 3h-3zM206 258v-2h2v2h-2zM252 477v-2l3 2h-3zM319 242l2 -3v3h-2zM216 253v-2h1z" />
<glyph unicode="b" horiz-adv-x="506" d="M208 3h-4l-19 2l-16 16l-7 9l3 6l-10 8l-2 -17l-8 3l-2 6l-5 -17h-8l-4 -10l-16 -4l-10 5l-10 -3l-16 17v16l-7 20l5 6v18l-4 6l5 8l-7 18l5 10l-8 9v4l7 10l-5 18l-2 2v7l5 6l-7 7v6l8 2l-8 18l7 8l-6 16l5 6v14l-4 20l2 5v21l4 22l-4 8l5 11l-7 14v17l5 11l-10 10l7 6 v12l-3 10l9 9l-6 6l2 11l-2 10v39l-2 10l6 12l-8 18v52l2 9l-2 26l4 12v27l9 15l10 4h6l6 7l19 -7l15 -10v-4h2v-7l15 -15l3 3v9l10 10v11l6 -1l3 8l30 7l9 -2l8 3l11 -5l4 4h53l4 -4l16 9l13 -5h11l2 -2h21l9 -4h5l9 -9l8 -3l7 -11l13 -8v-7l5 -4h10l6 -12l5 -3l13 -15v-9 l9 -3l3 -23l5 -3l-5 -1v-3l10 -10l-5 -6v-4h2l-3 -14l8 -12l-6 -7v-7l10 -2v-3h-5l3 -4v-11l-9 -8l6 -9l5 -2l-2 -2v-12l-3 -6l5 -15l-14 -9l3 -3l-5 -11l6 -7l-6 -6h-7v-8l2 -1v-5h-10l-4 -3l7 -7l-7 -2l-5 -9h-9l3 -9l5 -4l1 9h8l4 -5v-10l-5 -3l3 -7l9 8v5h2l5 9v-14 l-7 -13l14 -17l7 -17l-3 -9l5 -16v-22l8 -8l-3 -9v-18l2 -5l-5 -9v-19l3 -4l-3 -11l5 -3v-16l-3 -7l4 -24l-8 -10l-2 -16l-11 -6l-8 -12l-7 -4v-2l-9 -7l-6 -9l-33 -34h-5l-6 -8h-6l-4 -9h-23l-21 -2l-4 5h-9v-9h-10l-4 2h-13l-3 -8l-4 9l-4 -8l-6 7h-30l-7 3l-7 -3l-6 -6z M149 50l7 -4l6 12l7 2l9 10l26 5l6 6h9l6 -5h6l7 8l23 -3l5 3h7l2 -8l2 5h23l3 -2l2 5l2 -3l5 3h18l12 -3l5 3l14 21h8l5 4h10v14l5 8l-8 -4l-8 3l15 11h10v12h-8v4h3l7 12l-2 7l1 30l-6 6l5 7v17l-3 4v14h-5l-6 -5v15l6 4h5v7h-7l-2 3l-9 1l1 21h-4l-2 -4h-7l-9 -5l-5 5v7 h4l3 -8l6 9l-9 9l-7 -8l-7 7l3 12l3 2h-19l-6 -3l-10 10h-9v-7l-7 -5l-2 3h-10v-3l8 -7l-10 -6l-3 6h-2l-2 13l-7 -3l2 -3l-4 -9l-7 14h-7v-9l-7 -3l-2 -5l-7 -6v6l4 5v4l7 8l-4 4l-7 3h-37l-12 -12l-2 18l-20 -4v12l-5 6h-7l-6 -20l6 -4v-5l-8 -7l-1 -8l4 3l5 -4v-10h-5v5 l-3 2l-1 -7l-4 -3l5 -11v-5h-6v-13l6 -7l8 -3v-8l-8 -5v-5h3l3 -6l-3 -3v-10h5l-3 -9h-6v-6l4 -9l-3 -15l5 -9l-2 -9v-14l5 2l2 -4l-2 -16h7l2 -5l-2 -2v-6l-7 -3v-24l-5 10h-4v-34l10 -11zM143 394l2 -5h10l14 13l17 2l4 9l11 -11h12v5l9 2v-5h23l2 3l19 -3l4 5v16l6 3 l6 -17l7 -2l5 11v5l3 3l3 -8h9l-4 -4v-7h9l3 2h9l11 6v8l-11 7l-3 7l21 -9v4l10 5l-3 -7l4 -3l6 6l-7 11l6 4v5h4l3 -7l10 2l-5 2v7l6 3l4 7l-8 16v5h7l5 4v18l-2 8l4 9v16l-4 5l4 11h-8l4 7l-6 7l-1 5l-10 9v-9h2v-12l-3 7h-6l3 5v13l-9 9h-12v8h-3l-4 -12l-7 14v5l-9 5 h-12l-4 -5l-7 2h-19l-4 -2l3 -4l-4 -4l-6 10l-10 -5h-13l-4 4l-10 -11v-5h-4l-3 3l3 2l-4 10l-15 3l-10 -6l-4 3h-5v-7h-9v7l-13 14h-10l-5 11l-11 -3l-3 -22l3 -8l-4 -22h9l9 -6v-4h-14l-6 -3l8 -8v-5l8 -4l-4 -3h-9v-4l5 -5v-7l-5 -5l8 -6l-9 -16l10 -3l5 -5l-2 -9l-4 -4 v-17l-3 -4l3 -9h6l-2 -5l10 -10l-4 -5l-6 6l-11 -11l16 -5l-5 -5v-7l7 -7v-9h-8zM174 303l-5 2l-3 4l3 3l9 -7h9l5 7h3l5 6l-4 3l-4 -3v6h7l11 -7l-2 -8h-12v-6h-4l-7 -5h-7zM205 495l-7 -6l-5 10h6v7l-4 9l1 18l6 -2l-4 -18l6 -5v-7h6l8 -8l-5 -5zM217 282v5l-10 6l3 3v5 l7 4l2 -7l6 2l-8 -10l9 4h8v-3h-8l-7 -13zM274 431l-4 8l-5 2l4 9h10l4 -10zM169 520v4l-3 3l3 9l5 2l11 -6l-10 -8l-3 -7zM365 259l3 3l-14 10l13 6l5 -5v-14l-5 -2zM210 450v8l5 6l10 -9l-9 -11zM307 282h-9v6h14l2 -9v-9h-7v12zM158 490l-3 7h5l2 -3l16 3l5 -5l-3 -2 l-9 -2zM155 455l5 9l5 -2l4 2l5 -2l-9 -11zM165 322v7l6 -3h12v-9zM324 279v9l-3 3v4l16 -7l-7 -9h-6zM319 480l-5 5l-7 4l2 5l12 -6h5l-2 -8h-5zM321 240h-7v5l12 7l2 -16zM183 425l-3 -2h-2v5l-4 9l4 6h9v-4l-4 2l-3 -2v-7l7 -7v-5zM245 492l-7 5l5 9h2l4 -9h6v-3l-7 -5z M365 550l2 9h2l3 -5h9l-3 -9l-4 6l-11 -9zM166 157v8l-11 4v2h7l7 -4l6 -14h-4zM252 434v5h5l4 -7l7 -2v-2l-7 -3zM243 262l4 13l5 -7v-9zM309 305h5l3 -2l-5 -9h-7zM211 323l8 3l7 -2l-4 -7h-5zM160 411l9 5l6 2l-1 -7l-14 -4v4zM337 527h-7l3 2h-9v4h15v-9h-2v3zM344 584 l-9 9h13l-1 -13zM281 576l-8 -5v4l16 6v-10zM236 231l-11 12l1 2l10 -3v-11zM291 439l-5 8l4 4l4 -3v-11h-5zM258 199l-9 9l12 3zM150 284l3 5l10 -2l-10 -8zM317 430l9 -10l-9 -3v13zM369 499l-2 4l2 3l8 -7l-5 -5h-3v5zM328 102l-2 4l2 5l5 -2v-7l-7 -5zM195 476l-5 2v2 l6 2l5 -13h-2zM222 511h7l5 -5l-4 -4zM154 426l3 4l8 -7l-5 -3zM317 210v3h11l-2 -5v2l-5 -4zM337 213l3 6l6 -6l-12 -4zM282 508h9v-5h-9v5zM287 467l9 5l2 -5l-4 -3zM187 132h9l3 -2l-4 -5zM312 146l2 2l3 5l2 -6l-2 -6zM169 446l5 4l1 -4l-4 -7zM259 527l2 2l5 -5l-2 -2 h-5v5zM282 305h9l-6 -7zM215 224l4 5l4 -3l-5 -5zM321 467v6h5v-6h-5zM249 557l10 4l-5 -8zM351 192l3 3l2 -6l-5 -4v7zM331 196l6 5v-9zM283 522l4 7l2 -2v-5h-6zM333 183l2 4l4 -2l-2 -6zM274 602l3 -4v-2h-7zM309 195v2l-2 2l2 2l3 -2v-7zM337 264l2 2h5v-5zM326 460h2 v-10l-2 -2v12zM312 81v-6l7 6h-7zM180 114v6l7 -6h-7zM154 90h7l-4 -6zM377 208h7v-4h-3zM157 587v2l8 -2v-3zM162 252v5h4v-5h-4zM166 278h3l2 -3l-2 -5zM169 587l2 2l3 -2v-3h-5v3zM309 520h5v-8zM358 197l7 2v-4h-5zM139 40l2 -3l4 3l-6 3v-3zM294 482h4v-4h-4v4z M307 541l5 1v-4h-3zM266 226l4 3v-7zM306 326h3l-6 -9zM367 236l2 2h3v-4zM190 284v-5h-5zM312 572h2l3 -1l-5 -3v4zM273 298l3 -3l-3 -4v7zM354 257l4 -3l-4 -2v5zM148 409v-2h5v2h-5zM307 441h2l3 -4h-3zM266 541v1h4l-2 -4zM252 458l3 -3h-6zM245 291h4v-3zM279 248v-3 h-6zM358 512l2 3l3 -3h-5zM317 437v-5h-3zM222 167l3 -2l-3 -3v5zM180 511h5l-2 -3zM312 554h2l3 -2h-5v2zM206 187l2 -2l-4 -2zM252 171h3v-4zM225 275v-2l-6 -3zM178 581l5 3l-3 -4zM259 224h5l-5 -2v2zM303 437h2l-2 -5v5zM229 278h2v-5zM166 132h5v-2zM226 448h5l-5 -2 v2zM333 482l2 -2h-5zM256 79l3 -3v3h-3zM455 467l3 -3v3h-3zM196 234h3l-3 -3v3zM238 480l2 -2l-2 -2v4zM185 501l2 -4h-2v4zM365 529h2v-2h-2v2zM259 155h2v-2h-2v2zM245 300l2 -2l-2 -2v4zM195 116h1l3 -2zM337 294h2v-3zM312 467l2 -3h-2v3zM360 561l3 -2h-3v2zM273 497 h2v-3zM294 312l2 -3h-2v3zM277 584l2 -3h-2v3zM305 458v-3h-2zM365 511h2v-3zM208 610v-3h-2zM145 106v-1l5 1h-5zM210 480l3 -2l-5 2h2zM314 217v-2h-2zM309 471v-2h-2zM289 266l2 -2h-2v2zM234 501h2v-2zM208 157l2 -2h-2v2zM277 155l2 -2h-2v2zM333 577l2 -2h-2v2z M319 125h2l-2 -2v2zM141 646l-2 -2h2v2zM333 245h2v-2zM298 125h2l-4 -2zM183 102h2v-2zM298 517v-2h-2zM215 607v-2h-2zM255 162h1v-3zM317 416h-3l3 1v-1zM367 136h2l-2 -1v1zM217 136h2h-2z" />
<glyph unicode="c" horiz-adv-x="534" d="M212 3h-16l-2 2l-5 -2l-21 4l-4 5l-8 4l-27 28l-4 7h-5l-7 5l-3 11h-10l-8 16l-16 11l-5 10l-7 2l-4 21l-7 7l-4 18h8v3l-4 2v5l-5 7l3 16v25l4 6l-2 6v35l-2 4v14l2 4v35l-3 4l5 17l-2 34l4 8h-4v11l-4 7l4 11l-5 10v14l5 16l-5 20v24l5 4l-2 18l2 5l-4 14l4 10l2 36 l5 9l11 5l4 11l10 10l5 9l15 8l5 8l10 6v8l7 4l5 9l11 6l9 9l12 6l3 -3l15 11h18l10 3l46 -8l4 -7l7 -5l2 -6l-5 -3l4 -8l7 -4h11l15 7l-8 8l6 2l12 11l14 5l2 5l5 -6l12 3h32l4 -2l5 2l3 -2v-3l17 -5l17 -18l19 -14l18 -20v-9h16l3 -16l9 -13v-29l2 -2v-30l-6 -13l6 -6 l-2 -17l-13 -20l-15 -4h-19l-9 9l-7 3v10l-6 8v67l-10 9l-2 11h-9l2 6l-14 3l-14 12l-3 7l-6 -2l-5 4h-9l-4 3h-17l-9 9h-14l-11 14v11l-3 2l-2 -6l-2 2h-11l2 -7l4 -2l-4 -7l-5 2l-7 -2l-7 -7v-5l-12 -7l-11 -2l-14 2l-2 5l-7 -7l-2 -9h-3v2h-16l-14 -9l-10 -27h-13l-7 -10 l-2 -7l-7 -7l-4 -11l9 -16l-6 -12l5 -18l-13 -17l12 -6l-7 -7v-26h6v-4l-6 -4l1 -13l-4 -7v-29l3 -6l-7 -18l7 -9v-14l-6 -11l10 -13l-3 -6l-1 -23l8 -4l-4 -7l-12 -12v-18h6l-3 -14l4 -4l-8 -8v-4l5 -6l4 7v-52l6 4l7 -9h-7l3 -9l-3 -3v-4l12 -14h3l6 -7v-7l3 -2l1 -5 l10 -2l2 -7h5l12 -12l13 3l5 -7h12l12 -8l23 4l6 4v-6l-11 -3l11 -2l4 -12v-16l7 -6l-17 -13h6l-7 -9l-18 -7h-24zM348 -2h-16l-3 5l-9 4h-8l-12 8l-3 8l-7 2v8l3 2h-7v12l13 6l8 7v7h16l4 5h8l5 -4l15 10h11l3 8l23 16v4l5 7l9 4l12 17l-3 4l4 13l-4 13l4 9l6 3l-3 9v22 l6 18l22 14l9 -6h7l9 -9l12 -7v-32l2 -3v-9l-3 -8l3 -6v-12l-2 -1v-12l2 -2l-2 -5v-25l-18 -23l-5 -3l-8 -13l-16 -7l-6 -14l-7 -7l-14 -7l-24 -23l-9 -5h-11l-3 4l-13 -9zM297 644v-2h2v2h-2zM297 30v-2v2zM125 277v-2h1z" />
<glyph unicode="d" horiz-adv-x="535" d="M281 6l-7 -3v2h-4l-10 7l-7 -7h-14l-4 4h-19l-5 -5l-25 3l-14 7l-6 7h-4l-6 12h-6l4 23l9 1l-2 5l2 7h18v12h12v-7l14 -4l2 6l25 -2l3 2l14 -2l18 2l2 2l-2 5l4 3l8 -12h5l13 7h5l4 -5h12l14 7h6v9l10 10l5 9h9l9 9l5 9l25 26l2 13l10 -1v10h-7l2 5l-2 19h7v6l-3 3v17 l3 4v20l2 7v21l-2 19l-3 2l7 8l-2 22l-2 5l2 48l4 8l-10 6l10 20l-6 13l-6 5l6 5l3 13l-4 14l7 9l-6 35l4 8l-11 16v10l-9 9l-5 2l-4 9h-5l-12 12l-4 8l-14 7v8l-17 5l-4 7l-5 2l-2 -2v-10l-2 -2l-9 10l8 3l-17 4l-7 -4l-17 6l-3 -3h-9l-6 4l-17 -8h-7l-2 7l-19 -7l-10 10 l-4 -8h-4v5h-9l-6 -3l-8 3l-18 -7l-15 -2v2l-1 -5l-6 -5l3 -9l11 -3l5 -6v-4l-11 2l-6 -6l4 -5l1 -15l5 -5l-2 -4h-4v-21l-3 -5h12l-15 -10l3 -12l11 5l3 -4l-6 -1l-5 -21h3l3 -9h-6v-14l6 -6l-5 -9l-4 3l-2 -3l2 -4l-2 -9v-9l5 -6l-4 -11l4 -6v-7l-3 -3l4 -15l-6 -3l-4 -19 l9 -4v-7l-14 -6l6 -5l-1 -45l-4 -5l4 -13v-14l-4 -3l13 -10v-12l-9 -13l4 -19l-5 -16l11 -9v-3h-6l-9 -17l5 -15l-3 -7v-35h12v-7h-9l1 -18l9 -8v-9h-4l-2 3h-4l9 -12l-8 -2l-1 -10l-15 -13l-9 -5l-2 5l-3 -2h-15l-16 9l-8 23v25l6 8l-3 13v35l4 11h-4v21l-3 5l3 5v9l-5 4 l2 21l3 9v26l-3 11v16l-3 8l3 6v28l-2 4l-2 86h-2v35l3 3l-4 4l6 13l-3 7v60l2 3l-4 13v12l4 5v6l-8 13l6 11l-2 11v30l5 11l-5 10l6 32l5 2l4 5l16 10l5 -3h23l5 -9l14 -9h11l15 6v11l15 3v4l3 3l12 -5l6 2h35l7 -4l19 5l13 -2l4 -5l3 9h14l4 3l7 -6h14l9 -4h21l7 -7h11 l15 -13l6 -13l21 -15v-2l11 -5l5 -12h8l11 -13l3 -8l10 -7v-6l24 -26l5 -18v-46l2 -6l-1 -6v-67l-2 -9l2 -2v-40l6 -5l-6 -9l3 -18l5 -5l2 -16l-7 -7l5 -8l-3 -8v-16l4 -3l-4 -4l3 -5l-3 -8l-2 -30l4 -12l-4 -8l2 -4v-16l-6 -12l6 -13l-5 -7l-8 -6l4 -8l-5 -5l-1 -9l-21 -14 v-16l-12 -2l-17 -17l-9 -4v-7l-9 -2l-4 -5l-6 -3l-13 -16l-2 3l-7 -5l-11 -18l-17 -9h-14l-50 -12h-10zM142 623l7 -7h9l3 16l-4 3l-8 -3h-7l4 -4h8v-5h-12zM412 189l3 -4v4h-3zM166 621v-2h1z" />
<glyph unicode="e" horiz-adv-x="506" d="M91 14h-8l-4 6l-9 5l-3 23l-3 8l3 8v19l3 4l-5 14v16l4 4l-5 15l5 10l-4 15l2 21l6 10l-6 8v3h-4l2 39l-4 6l6 21v23l-9 3l3 3h4l-2 13l4 2l-2 24l-3 8l5 5l3 8l-3 1l-2 17l3 8l-5 16l2 18l-5 4l5 11v21l-6 3l11 11l-7 7v7l4 7v7l4 7l-4 4v81l3 3v18l5 11l-3 34l9 19 l14 12h10l9 -4h11l10 -5l1 -4l13 -17l15 7l6 14l8 5l3 5l18 4h35l3 3l13 -3l35 -3l7 5l4 -5h30l6 -3l5 6h21l11 -6l3 3h23l7 -2h30l9 -4h7l15 -7l6 -19l-3 -3l4 -12l-12 -13l-12 -6h-12l-20 -8h-47l-9 -4v8l-16 -10l-8 7l-25 -2l-11 -5l-2 -7l-5 2l-2 5l-4 -5h-17l-2 -5 l-5 5l-5 -2v4l5 3v2h-16l-7 -5l-13 -2v2h-10l-9 -4v3l-11 6h-10l-3 -3l8 -11l-5 -5l-10 2v5l4 4l-7 16l-10 4l-3 -7l-4 4v3l-7 -5v-12l9 -9l-7 -15l3 -6l-3 -9v-14l5 -4l5 -10l2 3h4l5 -8h-14l-4 -4l7 -9l5 -2v-5l-3 -2v-8l8 -5l7 7l-6 6l-3 9h18l4 -14l-6 -5l8 -7v-3l-16 4 l-10 -3l-1 2l-3 -2h-9l2 -4h7l7 -5l-3 -2l-1 -5l-5 -5v-7l5 -4h6v-9l-11 -2v-17l5 -2l-3 4l3 5h9v-2h9v-3l-8 -4h-7l5 -20l-4 -3l2 -5l3 5l4 -3l6 6l6 -3h6l3 9h5l4 -9h8l4 8l6 -6v-6l8 4l9 -5l25 5l14 -7h21l9 -5l10 4l11 -4h16l18 -6l7 -15v-9l-7 -20l-16 -5h-14l-13 -2 l-28 -8l-19 5h-9l-10 -10l-11 8h-9l-11 -8l-7 8h-10l3 -3l-7 -1l-6 -6l-15 6l-2 6l-12 5l-2 -2l3 -9h-10l-7 9l-5 -3v-11h-2v2l-4 -5v-22l-3 -5v-21l-6 -8l4 -4l11 -2v-5l-9 -11l4 -9v-12h-6v-7l2 -2v-16l4 -8l-7 -7l6 -15l-9 -13l9 -10l-5 -9v-15l-3 -11l5 -4l-2 -3v-18 l-5 -6l2 -6l-1 -42l-12 -14v-4h-5l-5 5l-11 -5zM242 9l-11 -4l-44 1l-4 3h-8l-14 5l4 9l-11 23l8 7v11l12 2l8 6l5 -3h9l8 7h25v-5h16l3 -3l13 3l14 6l10 -6l5 3l6 -3l9 5l12 -3l20 3l25 -6l19 6l21 -5l42 -2l6 -7h6l11 -17v-27l-9 -9l-24 -7h-57l-5 4l-15 -3l-14 3l-11 -3 l-17 3l-22 -5l-8 4l-14 -5l-8 5l-13 -3zM150 287l5 11h2l3 -10l9 -2v-3h-16zM150 459l3 -9h7v9h-10zM154 633l8 -8h6l-8 12zM217 510v2h8l-4 -6zM162 339v-5l4 5h-4zM277 613l2 -1h6zM294 11v-2h2z" />
<glyph unicode="f" horiz-adv-x="481" d="M106 16l-5 2h-15v9l-4 5l-2 16l3 7l-6 5l-3 15l6 13l-3 8v8l-2 2v10l5 6l-3 4v17l-6 14v16l-5 4l5 12v20l-3 5v12l6 13l-6 5l-5 13l5 11v31l-6 8l2 1l-2 17l4 7l-4 11l5 30l-5 19l-4 3l6 11l-5 2v9h5v10l3 7l-8 8l7 21v9l2 3v14l-2 18l3 5l-8 5l5 20l-2 39l2 12l2 44l3 9 v13l5 18l15 8h12l3 -3l16 4l9 -17v-7l5 -5v-9l4 -9v-21l-3 -2v-19l8 -9l1 -7h-4v-11l3 -9l-3 -4l3 -10l-3 -2v-29l4 -4l12 -4v-5l-2 2l-2 -4h-3l-2 4h-3l3 -14h5l9 -5l-2 -6l-12 -5v-4l5 -5v-4l4 -6h17v-11l6 -7v-4l-11 -6l5 -3l-8 -8v-6l3 -9h2l14 11l11 4l3 -2l-4 -2l1 -2 h5v-12h-6v-2h20l4 -4l16 7l11 -9l11 12l11 -10h11l6 -7l12 9l3 -5l4 7h5v-4l5 -6h72l18 -12v-22l3 -9l-12 -10l-3 3l-6 -4l-17 -3l-7 -5l-15 3l-9 -5l-15 8v-3l-5 -5l-4 2h-23l-4 -7h-8v5l-9 -2l-9 2l-23 -2v-11l-9 -3l2 16l-25 -10h-9l-3 -15l-5 5h-4l2 15h8l1 -2l8 2 l-19 8l-7 -3h-13l-5 -5h-7v5l-5 -2l12 -28v-5h-7l-3 4l-5 -9l-1 -10h4v-38l-3 -3l3 -3l-7 -7v-19l4 -9v-7l-6 -4v-9l9 -13l-12 -9l4 -20l-5 -3l6 -11l-3 -7l4 -3l-6 -17l7 -7l-4 -8v-27l-6 -19l-16 -11zM223 609l-3 6h-18l-6 5l-8 2l-4 -2l-4 8l-8 -13l-9 7v9l-8 -5l-4 12 l11 6l-6 6l5 4l2 6l3 2l-3 7l7 6l3 7l11 5h12l4 -3l3 8h4l4 -8l24 9l11 -7l13 7l8 -4h41l6 -3l14 3h12l12 3h26l6 -3h9l3 -2l7 2l6 -2h33l11 -12l5 -2l4 -19l-4 -11v-7h-11l-8 -6h-11l-14 -5h-15l-10 5l-3 -8l-30 -2l-15 2l-7 -3l-16 4l-8 -8h-11l-12 4l-8 -4l-3 5h-7l-4 -5 h-21v-4l-5 -5zM230 436l-8 -3l-6 14l8 4l7 -8l4 7h2l2 -14l-4 -5zM217 402l8 10h7v-9h-7l2 -4l-3 -7zM193 451h-5v8l5 -2l3 4h4l5 -4l-5 -10zM170 466l5 4v10h4l5 -5l-5 -3v-2h5v-2l-14 -7v5zM203 476l4 8v12h4v-19l-2 -5zM220 472l7 7l4 -5l-6 -6h-5v4zM149 540h2v-3h5v-5 h-10zM166 311h6l3 -3l-3 -4h-6v7zM176 293h3l5 -5v-5l-3 -2zM181 507l3 3l2 -3v-7h-7zM146 562l5 5h5l-2 -6zM166 528h4v-9h-4v9zM149 654h5v-4h-5v4zM146 427v-3h5l-2 5zM196 493h1l5 -4h-6v4zM154 358v-3h2v3h-2zM186 392v-3l2 3h-2zM225 613v-2l2 4z" />
<glyph unicode="g" d="M216 -6l-4 4l-7 -2l-7 2h-28l-18 18l-5 8l-13 7v11h-9l-10 9l-10 15l-24 17l-15 22l-9 9v4l-4 5v51l-5 9l9 14l-6 52l4 10l-4 19l2 1v9l4 12l-5 18l3 12l7 8l-9 9l2 4v18l-4 5l4 5v46l5 5l-3 4l-2 39l2 5v16l3 11l-7 14l4 26v14l5 16l6 3l10 20l10 4l7 14l17 8l5 8v5l9 5 l12 11l2 8l10 1l3 7l22 16h14l7 3l18 2l9 -6l7 4h26l7 -7l6 -2l12 -17l-4 -30h-8l-4 -4v-5l4 -2l-2 -2l-9 3l-9 -8l-25 -2h-24l-10 -19h-11l-23 -32v-10h-6l-6 4l3 -8l-7 -2v-7l-5 -2l-1 -9l-5 -6h-3l-1 -6l8 -8l-7 -6l-1 -7h-3v-3l4 -1l3 -33l5 -9v-7l-5 -7v-6l5 -6v-13 l-8 -10v-11l5 2l3 -7l-3 -4v-19l-5 -9v-13l5 -20h-5l5 -6v-14l-5 -4v-36l8 -6v-14h-9l1 -28l6 -5l-3 -6v-12l-4 -9v-23h4v-7l5 -4h4v-19h9v10h8v-5l-7 -6l7 -6v-12h9v-6h6l6 -9l15 -7v-9l28 -8h16l11 -4l4 7h4l2 -4h2l2 4h3v-9l11 -6v-6l-10 -4l3 -8l10 -2l-8 -14v-13 l-18 -5l-5 -5l-13 -4h-17zM318 1l-17 8l-4 16l-4 -1v11l-6 9l12 7v10h14l24 11l1 4l5 -4l12 3v9l30 27l12 5l11 10l-7 4v7l19 11l-2 7l-3 2l10 19l-7 21l7 7l-4 7l4 12l-3 8l-4 -4l-5 3l9 13l2 11l4 3v4l-4 3v9l-2 2v7l-8 14h-13l-4 -2l-3 2v4h-9l-6 3l-6 -3h-9l-4 4l-3 -4 l-25 -2l-14 14l-11 3l-8 23l13 20l50 2l13 4l10 -4h37l16 3l14 -3h14l11 -4l14 -9l9 -16v-10l5 -3v-4h-7v-8l8 -4l-4 -18l3 -2v-4h-3l-2 -3l5 -7v-16h4l-4 -9v-33l4 -11l-2 -12l-5 -11l3 -7v-19l6 -14l-11 -1v-19l-2 -7h2v-55l-2 -3l-2 -31l-13 -18l-25 -7l-5 4l-15 4 l-16 12v10l-7 8l-5 -5h-7l-5 -4h-4l-6 6l-10 -15l-21 -14h-9l-9 -6l-7 3l-9 -5zM447 473h-7l-4 7l-3 28l-6 13l1 8h-2l2 16l3 2l-9 14l-4 11l-8 3l-13 14l-9 15l-4 -5l-4 3h-7l-5 5h-6l-16 7h-14v-4h-3l-27 22h-7v14l-5 9h-4l-2 3l23 16l2 7l19 6l6 6l14 -5h14l14 -3h25 l2 -7l24 -6v-5l4 -9l11 -7l3 4l4 -4l7 -16l10 -7l5 -12h10l3 -14l14 -18l4 -9v-16l3 -5l-3 -9l6 -23l-8 -11v-25l-11 -4l-3 -8l-16 -5h-13zM403 35l2 -2l7 2v6z" />
<glyph unicode="h" horiz-adv-x="539" d="M96 9l-13 14l-5 9l4 9l-4 12v16l4 3l-4 6l-2 18l2 30l3 10v23l-5 -2v39l4 3l-6 6v25l4 5l-4 9v16l-3 3l3 11l-2 30l-6 14l6 5h-7l2 14l-2 5l2 11l-2 2l7 14l-4 6l4 4v15l-6 5l4 12l-3 11l-9 4l9 4v48l-2 2l2 4v16l2 3l-2 7v25l-5 10l3 11v18l2 3v25l-2 8v18l-2 6l2 11 l7 4l-4 15l4 8l9 4l2 5h21l9 -5h10l6 -14v-22l9 4v-51l3 -4l-4 -10l6 2l-2 -25l-4 -6l6 -12v-5l-2 -2l2 -21l6 -6l-6 -5v-17l-3 -8l12 -18l-9 -9l3 -7l6 4l3 -4l-9 -9v-5l12 -6l-5 -10l11 10l12 4v-6l-11 -6l6 -6h6l15 -5h21l3 6l3 -8l5 2l9 18l7 -4v-6l14 -5h12l7 -4l8 5 l16 -6l7 11h5v-9h35v8l11 -4l5 8l3 -3v-6l9 -3h11l3 -2l-6 -6l10 -5l3 2l-3 9l5 5h5l-2 -3l2 -20l-5 -5v-6l9 5v4l7 6l5 19l4 5v31l-7 8l7 7l-2 20l-7 7l9 9v3h-3l4 8l-3 3h-5v4l7 3v17l3 2v7l-5 6l5 19v11l-5 6l2 24l3 6l-3 6l3 3v43l6 18l12 5h26l6 -6l10 -21l2 -24 l-2 -22l-2 -2l2 -15l2 -2v-19l5 -18v-18l-5 -3l9 -11v-7l4 -4l-7 -6l3 -8v-9l3 -3v-7l-3 -5v-15l-4 -10l5 -18l-3 -5v-9h5l2 -9l-7 -8l2 -9l-3 -3l5 -11l-6 -9v-7h7v-16l4 -9l-4 -5h-5v-23l7 -21v-9l4 -5l5 -2v-3l-8 -2l-3 -9l2 -25l-2 -23l2 -7l-2 -9l-6 -7l10 -10l-2 -11 l-5 -9v-5l3 -3l6 -17l-4 -8l2 -5l-4 -9l2 -21l-5 -10l3 -10l-3 -5v-19l-2 -4v-15l-15 -5l-8 -7h-16l-10 4l-9 18l-2 19l-4 12l4 9h5l-5 7l-2 41l3 11l-5 42l2 2l-3 13l6 12l-5 5v5l-6 5l6 16l-3 19l-2 2v12l-3 1v8l5 4l-2 7l-5 5v5l-3 5l5 9l-4 4v13h-6l-3 8l4 9l7 3l3 8 l-8 7h-11v-11l-2 -3l-2 3l-19 -9l-7 -7l-12 2l-2 -6l-5 4h-39l-4 -4l-3 5l-11 -9l-20 -3l-8 3l-5 5h-20l-8 -10l-7 -4h-5l5 12h-9l-4 -3l-4 4l-13 -10l-15 11l-12 -5l-9 -13l4 -12h-19l3 -17l-7 -8l7 -2v-5h-7v-9l12 2l4 -4l-9 -3l3 -2h15l-6 -7l-19 2l4 -9v-12l-4 -4v-12h7 v-3l-11 -7l4 -4l4 -27l3 -7h-7l4 -34l-6 -12l5 -39l-3 -19v-23l-6 -19l-5 -6h-7l-2 -5l-3 2l-10 -5zM188 308l6 6h9l5 -5h-14l4 -5v-4zM339 419v8h8v-12zM402 452v12l2 2l3 -2l-4 -6l6 -4v-2h-7zM418 334l-2 -5l8 -4l-4 9h-2zM185 320h4v-6l-4 -3v9zM240 320h12l-12 -5v5z M228 298h5v-5h-5v5z" />
<glyph unicode="i" horiz-adv-x="193" d="M81 16l-3 7v4l-9 4l3 58l3 8l-3 4l2 5l-3 9l3 2v26l-2 6v23l3 8l-5 8l8 12l-6 7v16l-5 4l5 8l-3 6v39l3 14v24l3 24l-5 9l6 24l-4 14l7 21l-8 14l5 10l-4 9l5 20l-3 13l-4 48l6 18l2 81l5 11l-3 7l3 24l7 4l11 12l9 1l6 -2l15 3l14 -16v-22l7 -11v-11l-4 -7l7 -19l-3 -13 l-3 -3l6 -10l-3 -20l-3 -4l3 -16v-44l4 -7l-7 -9v-34l-2 -5v-48l4 -28l-4 -7l2 -9l-2 -4v-24l-4 -9v-23l3 -13l-3 -3l3 -6l-4 -9l4 -7l-3 -10v-12l3 -5l-6 -10l3 -7l-4 -8l7 -11l-3 -13l3 -11l-8 -8l2 -4v-17l5 -11l-9 -26v-27l2 -5v-18l-12 -25l-26 -7zM143 366v-3l2 3h-2z " />
<glyph unicode="j" horiz-adv-x="467" d="M234 29l-7 3v4l5 2l2 6l-5 4l3 9l14 14h4l2 5h4l15 9h9l5 4v7l5 7l7 -2l6 2l7 7v5l-2 2l2 16h5v-7h6l10 10l-7 11l16 5l5 14v7l4 4l-7 2v17l-2 2l3 9l-3 8l2 8l-7 8l5 10l-4 12l2 5l-2 2v17l-5 4v5l2 2l6 -2l-3 6l5 6l-5 10l2 21l-2 14l-4 11l7 25l-3 8v13l-10 3l3 5 l-3 15l5 3l2 -9l3 3l-3 15v28l-2 12l2 6l-3 11l3 3v16h3v8l-6 10l7 11l-4 15v12l3 3l-4 11l4 31l-5 5l8 18l-3 15l2 9l3 3l4 16l6 6l16 6l25 -7l9 -21v-10l6 -7v-18l-3 -5l4 -9l-5 -10l8 -8l-4 -7l3 -7l1 -28l5 -13v-12l3 -8l-10 -4l2 -14l5 -4v-9l5 -8l-7 -11h5v-20l-3 -5 l-2 -16l5 -5l-5 -12l2 -2v-7l5 -3v-9h-7v-22l3 -10l-3 -9h5l6 -7h-6l-8 -14l16 -10l-4 -3l-4 4l-4 -6l4 -3v-10l2 -2v-7h-7v-9l8 -16l-6 -11l-3 -26l3 -9v-9l6 -6l-6 -4h-5v-2l6 -3l-8 -33l5 -3v-16l-7 -21l-23 -26v-10l-18 -12l-5 -11l-19 -10h-4l-26 -30l-6 2l-7 -12 l-44 -6zM156 9l-21 5h-9l-8 6l-2 6l-8 3l-17 15l-4 1l-8 8l-7 3l-4 8l-14 14l-7 3l-2 8l-11 26l-3 22v90l18 20l13 2l8 -2l8 -8l1 3h5l4 -5l3 -14l7 -6v-20l8 -30h-6l-4 -4l12 -14l1 -21l24 -20l2 -5l13 -14h7l3 -6l12 -7l18 -4l14 -17v-11l-3 -3l4 -10l-8 -16l-13 -9h-22z M321 170h7l-4 -7h-4zM260 15v-1h4z" />
<glyph unicode="k" horiz-adv-x="502" d="M102 3l-10 6l-11 17v36l2 3v9l-6 5l6 7l-9 22l2 21l-2 17v41l-2 4l3 9l-5 8l4 4v5l2 2l-10 10l3 11l5 5v18h-7v4l7 3v18l-2 2v8l-5 -2l4 13l-4 11l-9 7l5 3h6v7l3 4l-9 3l4 5l2 6l5 5l-2 19l-3 4v23l-3 9l3 10v18l-9 7l9 2l3 8l-8 11l6 12l-4 8l6 17v6h-4l4 7l-3 10l-4 4 l7 15l-3 12l6 11l-9 11l7 25l-4 10v18l5 5l-4 11l4 7h-2l6 9v9l14 5l7 5h8l1 -3l16 -5l3 -8l7 -8v-5l9 -14v-38l4 -5l-6 -9l5 -10l6 -4l7 -9h-5l-5 9l-4 -6l2 -17l3 -7l2 -16l-6 -4v-5h4l2 -3l-9 -2v-5l12 5l7 -19h-7v-13l12 -3v-23h6l3 8l-3 6l4 7h10l10 5l1 4l4 3l-4 6 l3 8h8l3 -9h8l6 9l-9 16l5 13l5 -4l3 -12h6v12l4 2l2 -9l-2 -12l-6 -5l5 -5l6 10l5 -5l4 3l3 12l9 9l11 2l14 19v4l9 12l-4 4l16 7l4 8l8 3l5 10l6 2v11l11 6l12 13l4 9l33 35l2 5l16 11h21l14 -4l11 -14l-11 -16v-5l-8 -4l-13 -26l-18 -18v-5l-7 -3l-7 -20l-14 -10l-14 -31 l-7 -7l-2 -5l-8 -2l-4 -5l3 -19h-3v3l-9 2l-5 -2l-2 -19l-7 -6l-2 -5l-5 -4l-2 -8l-9 -9v-9l6 -7l5 -11h-14v7l-6 4l-5 -2l2 -3v-9l-7 -7l-13 -3l11 -7v-6l5 -4l4 2l-2 7h11v-7l14 -8l3 -9v-8l13 -3l4 -17l8 -3l3 -20l6 -6l-3 -7v-9l12 -11v-10l5 -2l7 -26l12 -8v-8l7 -21h7 l3 -14l10 -16v-4l16 -24l2 -13l11 -16l3 -12l5 -5v-15l5 -7v-5l9 -3v-13l7 -7l4 -10v-13l5 -7h-2l2 -5v-13l-11 -3l-13 -10l-16 3l-9 9l-4 -2l-5 2l-22 37v5l-11 15l-9 21l-1 12l-9 8l-4 15l-13 10l-9 23l-7 9l-2 9l-9 12l-7 4v9l-5 10v7l-7 7l-2 -5l-3 2l3 8l-3 15l-9 -9 l-2 -16l-5 12l-6 5l11 15v8l-14 18l-5 -5h-8l4 7l7 4v10h-5v-4h-15l-4 -8l-4 5l7 14h-3v2h8l4 7h3v4l-5 -2v8l-3 2l-11 -8l-9 -15h-10l-3 3l-8 -3v-5l-6 3l-7 -7l4 -8v-20h-5l-5 7l-1 11l-5 -2l-7 2l-3 7l-20 -15l-4 -8l-10 6l4 -8l7 -2l3 4l3 -3l-4 -8l10 -12h9l-7 -7v-4 h-10l-9 -14l13 -10v-15l-9 11l-3 -8l2 -23h3l8 -10l-3 -4l-9 9l-6 -8l8 -8l-4 -4l3 -11l7 -9l-5 -6l-2 -31l3 -6l-9 -15l4 -7l-3 -7v-16l-2 -2v-21h-3l-9 -17l-12 -4zM206 311v-4h2l4 7l8 5l8 -7l6 10l6 4l6 11l-8 4l-2 -4l-9 2l4 7l-5 10l-5 -7l-13 -10l7 -7v-6h-7v-10 l-5 -2zM185 448v-5l7 2l5 7v8l-10 9l-10 -3v-12zM198 247l4 9h10v2l-9 5h7l5 5l4 -5l9 -5l-7 -11l-6 2h-7l-6 -6zM210 476l9 -3l12 11l3 9l-9 -4l-13 5l-2 -4v-14zM162 436l14 -6h6v6h-9l-2 12h-4l-5 -5v-7zM155 300l9 -4v4l-7 6l7 3v7h-7l-8 -8zM176 307l6 -7l3 2v7l8 4 l4 -8l1 14l-11 -3zM199 544l4 7l14 -13v-3h-9zM182 251h-5l-2 11l4 5l3 -9h11l-7 -10zM167 494v6l6 5h4l7 -5l-11 -4l4 -6zM242 358v-8h5l4 5l4 14h-6v-9zM311 404l12 11v-5l-2 -1l3 -4l-3 -4h-10v3zM168 561h-1v4h15v-6zM267 251l3 3l2 4h5l-2 -11zM242 258l5 5h7v-7z M212 281v12l5 -3l2 -6l-4 -5zM185 272l4 7l6 -6l-6 -5zM201 526v5h5l4 -10h-4zM187 508l-2 7l9 -3l-2 -7zM267 268h8v-7h-5zM228 272v5l12 -2l-2 -3h-10zM270 395v-5h5l2 7zM233 198h5l2 -1l-7 -6v7zM182 330v-2h5v4zM167 418l1 -3h3v3h-4zM147 470l3 -1v4h-3v-3zM198 484 v-6h3zM164 247l3 -5v5h-3zM197 300l-3 -4h3v4zM198 330v-2h5zM221 330l3 -2h-5zM168 298l3 -2l2 2h-5zM192 470l2 -1h4zM293 251l3 -2v2h-3zM263 401l3 -2v2h-3z" />
<glyph unicode="l" horiz-adv-x="484" d="M103 96h-11l-7 5l-4 -5l-13 13l3 2l-5 25l-4 9l4 3v8l-2 1l2 9l-2 8v27l2 4l-8 11l4 6l3 28l-3 7v19l-3 4l3 2v9l3 4l-3 3v67l2 21l-2 3v25l4 6l-4 9l4 26v40l2 5l-2 1l2 79l3 10v24l3 7l-6 10v19l6 14l6 4l10 14h13l12 -5l18 -18v-5l3 -2l1 -14l-2 -11l5 -10l-7 -7l3 -9 l5 -6l-4 -5l-1 -10l4 -9v-30l3 -20l-6 -6l5 -2l4 -12l-4 -4v-9l3 -3l-3 -2v-21l4 -3l-6 -6l-3 -18l5 -10l-3 -5l5 -30h-4l2 -13l-6 -7l4 -10v-39l3 -4l-3 -26l-4 -12l10 -22l-12 -13l8 -13l-2 -30l11 -10l-11 -5l-6 -12h6v-9l-7 -17l3 -4h4v-4l6 4l-1 -21h-9l1 -14l-4 -4v-9 h-5l-2 4l2 5l-9 -3l-4 -5h-3l-6 -5zM288 -2h-17l-3 -3l-3 3l-18 -2h-33l-7 2l-10 -3l-18 3h-16v5l-7 -2l-7 3l-7 -3h-14l-11 -3l-2 7h-3l-3 -9l-27 14l-7 6l-4 10l-5 4l7 10l-2 6l9 8l3 8l18 9l15 -6l17 5v6l12 -1l-3 -5l16 -3l3 5h5l4 3l6 -3h20l9 9v-7l16 -4h36l7 3l9 -7 l8 5l18 -5l5 4h9l5 -3h73l12 -5l10 4l11 -5h16l9 -10l12 -8l-4 -30l-6 -6l-13 -6h-23l-9 -3l-17 -2l-7 5l-4 -3l-21 -2l-5 2h-46l-8 -5zM115 84v9h4v-9h-4z" />
<glyph unicode="m" horiz-adv-x="586" d="M497 -2l-5 5l-9 2l-10 20l4 10l-3 9v21l-5 17l5 8v9l-3 3l3 6l-3 5v21l6 -2l-4 11l4 4l-6 15v5l3 1v10l-5 15l3 13l-5 2l4 2l3 12l-5 14l4 3l-8 9l7 7l-3 12l-9 3l2 5v12h-9l-5 5l-7 -4l-4 11l11 6l3 -5l7 5v4l13 12l-8 3l-3 -3l5 -3l-9 -1v4h-9l-4 -5l-19 3l-6 -5l-3 -6 h-4l-3 6l-3 -5l-5 -1l4 -8h-11v8l-5 4h-4l-3 -3l7 -6l-4 -3h-5l-7 -9l-12 3l3 6l7 3l5 5h-8l-9 -3h-22v13l-5 -4h-5l-5 -11h-6l-12 -6l-3 13l-9 7l-25 9l-3 9l-9 -2l5 11h-3l-9 10l-1 -3h-8v4l-9 4l-9 -5l-3 -5h-6v10l5 4l-3 18l-7 4v9l-10 -5l-6 6h-7v-9l-5 -5l-3 3l-6 -3 v-12h2v3l5 6l7 -13l4 -16l5 -2v-5l4 5l12 -18v-8h-3l-9 16l-9 2l-4 10l-17 10l-15 -8v-2l6 -2v-3h3l2 -5l3 -1v-12l3 -10l-11 -11h-9l7 -19l-19 -46v-12l5 -6l-2 -33v-32l2 -7l-11 -4l6 -3l1 -15l-5 -5v-3h9l-5 -12h3l-3 -4l-1 -35l-5 -8l5 -9l-8 -22l-5 -3l3 -11l-4 -4 l-16 -7h-12l-14 4l-9 19v39l3 21l-6 20l5 5l-3 36l5 22l-2 5v22l-7 7l5 12v19l3 12l-6 10l6 3l-3 9l4 46l-2 13h-5v13l5 27v12l-9 9l4 5l-2 12v17l-7 10l7 7l5 12v11l-3 3l3 7v18l-4 10l8 13l-4 7h-3v7l5 5v7l-5 4v3h4l8 18l-5 11l3 53l-4 15l6 7v11l13 23h8l5 6l20 -3 l19 -17v-7l4 -11l-3 -5l8 -5l9 -11l-5 -2l-4 -7l2 -5h16l19 6v-13l6 -2l3 4l9 -4l3 -5l-6 -5l6 -6h9l2 -5l11 -2l-4 -7l-6 -3l28 -28l5 3v-2l5 -2l5 2v4l-5 3v9l6 -5l13 -5l-4 -9l-8 -4v-7l-5 -8l3 -4h12l10 -19l5 8h8l9 -9l2 -7l7 4l4 -3l11 9l-6 8l8 5l11 -6v-11l10 3l4 5 l-6 3l12 10l-1 5l-8 2v10h8v-5l4 3h5l12 15v7l17 10l5 11v9l5 5h5l24 20l6 -7l-3 -5l7 -12l12 9l5 -9l4 9l5 4v12l10 28l-3 4v7l4 5l2 9l9 9l22 3l16 -10l19 -26l-6 -15h7l-4 -37l-4 -6l6 -5l-8 -13l3 -9h5v-7l-5 -2l5 -2v-11l3 -5v-23l-4 -8l4 -11l-3 -9l3 -25l-5 -8v-11 l-5 -5v-4l10 -3l1 -18l-5 -12l5 -7l-1 -6l-11 -3l3 -9l8 -4l1 -9l-6 -3v-5l-3 -4v-17l-8 -2l8 -7v-9h-5l3 -7v-7l2 -2l-2 -9l3 -12l-3 -9l3 -11l-3 -3l-2 -14l-5 -5l5 -16v-19l-7 -6l8 -17l-6 -11v-7l-5 -10l3 -4l2 -11l-5 -9l3 -8l-2 -7v-25l-5 -32l3 -7v-26l-6 -9l-3 -11 h-17l-7 -3zM367 318l8 -5l4 20h8v-3l-8 -6v-9l26 3l-7 11l-10 4l14 6l-4 4l-10 -4h-8l-4 -12zM319 534v25h5v-3l7 -4l3 4l6 -6l-3 -5l-4 -2l-2 -4l-3 2v-7l-4 -5zM409 333l13 -13l8 9h11v6l-11 4v5l-3 4l-4 -13h-14v-2zM148 324l-4 -12l16 5v12l3 6l-6 3l-6 -4zM166 389v-5 l8 3l-3 11h-6l-8 4v-9l5 -4h4zM428 381l10 -11l9 4l-3 3l3 4h-12v3h-7v-3zM278 546l4 4l3 4l6 -6l-6 -9v-5h-3zM190 366l6 5l-5 5l17 -4l-4 -9zM411 356l-2 -7h9v10l5 1v3l-5 2v7l-4 -13zM370 351v-13h5v4h5l-3 12l-5 2zM453 386l5 -5l5 8l-4 10l-6 -6v-7zM418 284v10l5 -6 h7l2 -4l-9 -5zM217 384l7 -6l2 3l-1 12h-4zM166 424v-8h5v7l7 2v6zM428 244v5l9 -1l2 -5l-2 -5zM282 497v-3h5l4 5l5 2v7zM186 333h4v-7h-15zM289 480l10 -2l-5 10l-7 -5v-3h2zM291 524v5h10v-7zM255 310v7l9 -3v-6zM419 306l4 3l11 -3l-4 -3h-7zM152 419l3 -8l7 5v3h-10z M187 434l-4 -4h13l3 4h-12zM303 541h7v-7h-7v7zM405 298l7 5l5 -7h-12v2zM196 399l5 -4l3 3l-3 6h-5v-5zM381 279v6l10 -3v-3h-10zM174 335l5 6l6 -6l-7 -2zM394 262l6 6l3 -3l-4 -7zM430 393v-4l11 9h-4zM225 368l3 -4l10 8zM358 342v-7l8 3v3zM391 373l9 -4v5l-4 3z M426 264l2 -3l7 -3l-9 -4v10zM243 582l8 -5l-8 -4v9zM324 483v-4h9v4h-9zM444 354l4 -5v10h-4v-5zM470 591l-3 -9h4v5l3 4h-4zM432 351v-2h5v7zM458 575h4v3l-4 4v-7zM443 450l5 -6l-1 9zM70 437l-3 -7l5 2zM354 318l-3 -4h3l3 4h-3zM175 612v-4h3v4h-3zM458 414l-2 -5l4 2 v3h-2zM277 511l-4 -10l4 5v5zM426 377v-5l4 2zM354 329l3 -5l1 5h-4zM432 449l3 -3l2 4zM458 591v-4h4zM421 589l-3 -2h5v2h-2zM268 511l3 -2v4zM460 354v-3h2v3h-2zM460 363l2 -3v5zM462 420v-1l5 1h-5zM181 411l2 -2v2h-2z" />
<glyph unicode="n" horiz-adv-x="553" d="M446 16l-11 14l-5 21l-4 35l-14 13h-9v-4l-12 1l-2 8l-7 7l-18 5l-3 6l3 5l-12 4v12l-9 14l-9 3l8 7l-4 10l-16 -9v3l7 9l-4 5l-7 2v11h-12l-5 -4v-5h-4l-5 7v5l3 5l-4 7l4 4l-7 4h-12v7l4 -3l6 11l-10 4v5l7 6v7h-5l4 11l-6 3v14h-12l3 10l2 -3l5 3v2l-5 2v2h-12v6l8 3 v8l-19 7h-23v6l4 -2l3 5h7l-2 9l-8 -5h-4v10l3 4l-3 2l-2 10l-3 4l3 2l-3 8l-7 4l-9 -3v5l7 7v18h-7l-4 -7l-7 4l6 11h14v12l-6 10h-3v-6l-11 9l9 2l-9 12v5l-14 -3l-16 7h10l4 8l-9 5v6l10 3v8l-6 7l-3 10l-7 -3l-18 2l-2 -7l4 -7l-7 2l12 -15h-18v-6l6 -4l-4 -14l5 -11 l13 13l3 -11l-6 -5l3 -13l3 -4l-5 -5v-16l-8 -5l10 -7h10l8 -6l6 13l9 -9v-5l-8 -2l-5 -6l-8 8h-21v-5l3 -2l5 6l8 -9v-4l-9 -5h-13v-9l-5 -2l2 -2l9 9l3 -2h16l2 -3l-8 -3l3 -4h12v-9l-9 3h-10l-3 10l-6 -6l-3 -14l-8 -4v-9l5 2l1 4h9l8 3v-5l-17 -4l-2 -17h2l3 5l2 -9 l3 -5l-10 -13l3 -8l-7 -3l5 -11l-5 -18h6v-11l-4 -3v-5h9v-11h-5l-4 -5l4 -6l3 -24l2 -2l-6 -3l-5 -9l2 -76l3 -3l-3 -8v-12l-6 -5l6 -10l-5 -8l-2 -16l-14 -16h-16l-23 10v8l-5 14v11l-3 9l3 12l-2 38l-4 9l3 12l-7 21l4 3v35l4 10l-3 21l6 7l-5 11v32l2 9l-4 10l4 11l-4 7 l2 18l4 8l-4 9v20l4 23l3 5h-5v18l2 3v12l5 6h-7v25l5 5v4l-7 8v12l-3 1l5 35v14l-7 7v7h3v11l-4 6l6 15l2 88l16 14h22l21 -14l3 -12l8 -13v-12h4l2 -7l6 -3l-12 -13l4 -12l9 12v9l4 4l3 10l-5 -3v8l25 12v-8h5l7 -14l5 -4v-5l9 -9l12 -6v-10l7 -7v-10l14 -18l4 -12v-9h14 v-7l-7 -6l5 -8l5 -1l15 -17l12 -9v-14l5 -5l2 -14l9 5h14v-11l5 -5l15 -8l7 -15l14 4l12 -8v-8h-7l-2 5h-9l2 -19l-2 -4l4 -2l-2 -3l-14 -8v-4l12 -1v-5h13v-3h-2v-8l11 -5l9 -9l8 9h4l3 7h-3v7l14 -3h12l-5 5v5h-5l-4 6l2 5h5l3 -3l5 3l-13 7h14l5 -9l2 2v7l3 6l-14 6l4 9 h6l4 7v9l-6 6l-6 -6v-9h-2l-3 11l5 4v10h7v5l-7 2v4l9 3v6l9 7l-5 9l4 7l-8 10l-5 14l9 3v15l-3 5l4 8l-5 11l4 13v79l5 9v12l16 16h19l5 -3h9l11 -9l8 -14l-4 -10l8 -8v-30l-4 -17l4 -11v-16l-5 -2l3 -3l5 -14l1 -25l-2 -5l4 -20l-4 -8l7 -23l-6 -1l4 -19h-7v-11l4 -9h9 v-10h-9l3 -10l8 -3l-3 -15l-6 -8l3 -4l-6 -18l1 -16h-4v-7l11 -10l-8 -6v-9h4l6 -6l-6 -18l-4 -4v-11h10v6l8 3l3 -4l-12 -12h-8l3 -5v-9l11 -12l-2 -16l-3 10h-6l-6 -7l6 -5l6 -28l-10 -13l4 -7v-12l-3 -5l8 -2v-2l-8 -5l-1 -7l-4 -4l4 -4l-5 -9v-9l-3 -1v-5l3 -3v-16 l-5 -5l2 -1l3 -10l-3 -7l3 -3l-5 -9v-22l-10 -10v-11h-10l-5 -5h-12zM370 365v6l6 3v6l6 8v11l5 2l15 -5l-8 -6l-3 -14l-14 -17zM338 460h-5l-4 -8l-2 3v15l4 10l15 -7v-5l6 -11l-9 -9h-5v12zM241 256l5 7l5 3v10l14 -6l2 -12l-2 -4l-5 2l-9 -5zM325 409v-3h6l5 4l4 12l-6 3 h-18v-7l4 -8zM248 284l-4 16l-10 10l5 6h15l-3 -14v-21zM145 523l13 -4l-2 21h-16v-5l5 -4v-8zM391 420h-10l-7 10l6 6l2 -6h5l3 5l4 -4v-4l5 -7v-5h-3zM191 344h-6l11 14l1 -9h10v-8l-16 -6v9zM291 481l8 18l8 -3l-3 -9l-3 -2v-10l-2 -2zM348 496l-2 -2l-8 -3v5h5l8 11 l8 -13l5 -3l-12 -4zM175 425l-3 2v3l12 4l2 5l2 -8l-2 -6l-9 -6zM161 413l6 5l8 -3l6 3v-9h-15l-4 -2zM366 392h-2l-3 3l3 4l-3 5v6h5l4 -9v-11zM200 286v12h7l-2 -5l9 -3v-2l-11 -5zM368 443l2 5v4l8 5v-17h-8zM306 431l2 -1l14 9v4l-6 -3h-10v-9zM140 554l-7 -10h7l2 3 l9 3l-2 4h-9zM318 520l2 4l13 6l-6 -14zM228 363l11 -5v11l-7 2zM135 587l3 -6l11 3l-4 8zM217 395l4 -11l8 5l-6 6h-6zM170 256l6 6l3 -6l-9 -9v9zM355 485h4l2 -5h5l-5 -5h-6v10zM417 104l3 -7l6 7l-7 7zM184 290h7v-9h-7v9zM296 202l3 -4h5v12zM222 378l4 -7h4v8l-4 1z M205 365h4l5 2v-7h-9v5zM185 379l9 4l4 -9zM128 380v-6h8v6h-8zM304 448l2 -3v7l-3 4l-5 -6zM248 561l5 4h3l-3 -9zM198 243l4 4h3v-7zM343 436v3h12l-9 -5zM129 505l-3 -6h5l5 4zM381 453l4 4h2v-9zM394 349h5v6h-5v-6zM380 478l5 4v-7l-5 -2v5zM239 281l2 5h3v-7zM272 525 l6 4v-8zM131 517l2 -2h4v6zM251 258l5 -2v4l-3 3zM136 443v-3h4v5zM510 129h4v-4h-4v4zM239 335l2 -3l3 3l-3 2zM396 323v-5l3 2v3h-3zM133 390l-2 -2h5v2h-3zM126 404v-3h5zM299 443v-3h2v3h-2zM403 350l2 -1l3 4zM271 490v-3h3zM137 413l3 -3v3h-3zM415 358l-3 -3h3v3z M507 425v-3h3zM137 561v-2l3 2h-3zM140 427l-3 -2h3v2zM237 379l-2 -3h2v3zM334 470l-3 -1h5zM308 212v-2l2 2h-2zM292 258l-2 -2h2v2zM417 346l2 -2v2h-2zM338 466v-2h2zM151 380v-1h3zM162 407l1 -1h-2z" />
<glyph unicode="o" d="M318 8l-3 -3h-7l-19 9v8l-7 -4l-2 15l-2 6l7 7v13l12 8l20 2l-6 3l-7 -4l4 10h9l9 9l3 -12l31 5l4 10h4l11 12l17 10l20 30v20l8 8l-5 6v6l4 5v10l-2 4v21l-9 5l7 6v7l-3 7l3 2v8l6 11l-9 22l7 8v19l-4 1v8l4 4v19l-2 4l2 5l-3 9h6v44l3 22l-3 8v9l-3 7l7 7v12l-7 35 l4 12l-5 32l-6 6l-5 19h-11v11l-12 3l-7 7v6h-11l-11 11l-8 -4l-6 8l-33 1l-14 8l-1 6l-10 -3v8l-5 5v6h7l-2 5l7 16l7 3l9 9h21l3 -4l17 6h34l26 -16v-6l12 -4l18 -25h10l7 -6l2 -8l16 -16l14 -20l10 -10v-18l-3 -5l3 -23l-3 -4l4 -12v-35l-2 -6l2 -3v-11l3 -3l-3 -14 l-4 -6l5 -11l-2 -4l4 -10l-4 -15l1 -23l7 -5l-7 -18l-1 -23l2 -6l-2 -14l-4 -7l5 -5v-12h-10l4 -14h6l-5 -15l4 -7l-3 -3v-7l4 -5v-21l-7 -7l6 -16v-18l-3 -4l-2 -12l-5 -3l7 -14h-2v-6l-4 -7h4v-3l-11 -10l4 -8l-14 -14l-4 -7l-12 -11l-4 -7h-5l-5 -5v-3l-14 -15l-10 -7 l-7 -11l-19 -11l-3 3l-10 -4l-9 -9h-14l-2 2l-20 -5h-9zM162 9l-6 7l-5 2l-11 11l-10 4l-4 6l-5 3l-3 6l-12 5v8l-6 4l-4 7l-23 19l-17 22v12l-7 10l5 8l-6 22l4 6v35l2 6v21l-2 7l2 12v36l4 40l-4 17l4 59l-2 7v16l5 19l-3 6l-2 42l5 5l-3 4l-2 19l-2 2l2 9v35l2 7l-3 3 l22 34h5l15 20l15 8l10 18l20 14l21 12l23 7h31l14 -3h15l15 -6l3 -10l7 -7v-7h3l-3 -21l-4 -5h-8l-9 -9h-13l-7 -5l-18 4l-8 -3l-3 -5l-4 3l-5 -3h-5l-13 -16h-5l-8 -5l4 -6l-5 -6h-4l-5 -4l-4 -9h-7l-4 -13l-9 -8v-11l5 -5l-6 -7v-4h4l2 -3l-5 -2v-4l5 -9l-6 -5l-3 -32 l10 -5l-3 -3v-16l-9 -14l8 -7l-8 -9l4 -15l-6 -11l4 -4h3v-21l-4 -3l4 -6l-3 -4v-8l-7 -7l5 -9v-6l-6 -7l6 -5v-14l-3 -11l3 -5v-33l-6 -5l3 -4v-11l3 -5v-7l5 -3v-6l4 -4v-5l-7 -5v-10l3 -6l-5 -9v-15l5 -4l5 -11l13 -10v-5l12 -13h9l8 -16l13 -2l9 -12h6l3 4h9l4 -4l9 2 l12 -6l9 5l5 -8v-7l12 -12v-9l-9 -6l-6 -18l-6 -6h-6l-10 -4l-20 4l-20 -4z" />
<glyph unicode="p" horiz-adv-x="510" d="M79 10l-11 10l-4 25l5 11l-3 6l-3 35l5 11l-2 7v25l-2 5l4 8l-4 17l-2 23l2 7v53l-6 22l4 6l5 17l-4 20l-4 4l5 7v10l-4 6l8 13l-3 7l5 13l-5 11l6 3v46l-3 4v19l4 10l-4 4v25l5 7v7h-7l3 15l-4 8l3 10l7 5l-9 34l6 5l-4 13l3 8v24l4 15v15l5 3l5 16l1 -3l8 8h12l1 2 l14 2l16 -16l10 -15l9 4l5 -5l-3 -5l-11 3l-5 -5l4 -7v-62l-6 -5l2 -7l4 3h5l-2 -26l-7 -14l4 -5l-4 -10l3 -11l-3 -9l13 -17l-10 -8l4 -7l7 3l2 -3l-2 -2v-6l-7 4l-3 -3v-9l5 -12l5 -2l-2 -2h-9l-3 -7l4 -4l5 -26h8l4 -9l4 5l9 4v-7l5 -2l6 -9l-5 -20l4 -4l-6 -2l-4 2h-13 l-5 -4l-4 3l-5 -6v-4l5 -5h4l6 9l6 3l5 -5v-7l6 7h3v-7l-5 -4h-11l-3 -11h5l9 4h5v5l7 6h6l13 -14l5 3l-8 17l2 6h5l7 -5l2 -11l-4 -8l13 7l8 -13l4 7l2 -3h7v16l8 4l4 -3l-6 -6l7 -13l14 10h7l-4 -8l27 -1l8 6l7 -6h21l6 4l-2 2l2 3h12v4l-5 5v4h5l6 -7l8 -2l2 12l14 5v11 l-3 2v7h17l9 10v15l8 11l-6 8v9l6 6l-8 15v5h4v30l-4 4v11l-7 4l14 13v21l-5 4l-3 13l-9 4l3 8l-2 5l-12 5h-5v12l-6 6l-11 4l-5 5l-21 12h-10l-3 4l-10 -6h-17l-9 9h-7l-7 -7l-11 3h-28l-5 4l-11 -3l-19 -1l-4 -3v3h-5l-2 4h-14l-7 7h-12v23l-4 18l15 16l31 7h30l5 -4h13 l5 2h16l5 -2h23l10 2l18 -2l4 2l10 -8l7 4l18 2l18 -11h8l13 -10v-5l14 -6l9 -9l10 -19l11 -4l3 -7l11 -3l3 -13l17 -17v-11l8 -4v-3h-5l-3 -14l10 -10l-5 -11l-2 -16l2 -5v-12l5 -4l-3 -15l3 -7l-5 -12l3 -5l-3 -11l3 -6v-9l2 -3l-2 -13l-3 -2v-5l3 -2v-11l-4 -4l7 -7 l-6 -7l3 -7l-9 -13l-8 -7l-6 -11v-4l-6 -4l-10 -16l-8 -4l-2 -5l-25 -18l-9 -2l-6 -14h-15l-3 -14h-9l-7 -7h-5l-4 3l-9 -5h-30l-7 -3h-10l-16 -6l-4 5l-12 1l-2 3h-14l-15 7l-10 -10l2 -6h-16l-7 14h-7l-2 -3h-19l-3 5l-4 -10l-5 -1l-2 8l-11 5l-7 -2l-2 5l-6 -6l3 -4 l10 -3v-15l-10 -7l8 -10l-3 -12l-11 3l-3 -2l4 -9h12v-5l-10 3l-11 -21v-12l7 -3l-8 -7l6 -6l-5 -9v-7l-4 -5v-4l3 -3v-6l-5 -5l5 -14l1 -28l-9 -9v-34l-13 -14l-9 3l-17 -6zM171 406l-6 15l12 6l5 -9l-11 -6l4 -6h-4zM146 382l5 -6h5l3 13l-9 3l-6 -6zM163 369v-5l11 5 l5 -5v7l-5 6zM257 367l3 2v4l-3 3l5 3l4 -10l-4 -7zM198 369l-2 9l-3 4l9 -2l-2 -4l2 -7h-4zM147 327l4 -5l5 8l-5 4zM155 435l3 3h5v-9zM179 226v1l7 6l2 -3l-2 -7zM150 249l4 -7l5 3zM227 248v-4l5 3zM175 388l1 -3h3zM142 422v-2h3z" />
<glyph unicode="q" d="M273 -85l-7 4l-5 8v9l-7 28l3 14h-5l-9 6v14l4 7l-9 10l9 -3l5 12l-2 4l-13 -2l-10 7v-18l-7 -2v-3l-7 -9l-9 -7l-5 2h-13v9h-21l-14 8l-15 15l-11 7l-4 8h-7l-2 9l-6 2l-1 4l-14 5v12h-5l-14 11l3 7l-23 19l6 2l-2 23l-6 13l6 3v10l5 11l-12 3l3 14l-4 8h4l4 5l-2 34h4 l-4 16l7 18l-8 5l3 11v30l-2 13l2 7v28l-6 25l4 35l-4 23l5 27l-7 6l4 10v21l3 7l-4 11l4 19l-3 10v13l26 42h9l6 12l19 18l3 7l11 5l10 11l8 4l8 10l24 5l5 -3l5 3l1 5l10 -5h32l21 -7v-16l9 -2v-10l-5 -13l12 -7l-5 -3h-6l-12 -5l-17 -3l-6 6h-4l-15 -10h-9l-21 -20h-5v-5 l-9 -5l-1 -9l-5 -5h-5l-2 3l-14 -21l-3 -16l7 -3l-4 -4l-5 -13l5 -15l6 -6l-9 -17v-37l-2 -12l4 -18l-8 -36l2 -10l4 -5v-14l-7 -12l6 -6l1 -39l5 -16l4 -5l-5 -9l5 -3l10 5l-2 -15l-8 4l-4 5l-5 -5l9 -19v-18l-2 -4l6 -6l-5 -16l1 -4h12v4l-3 4l13 5l5 -5l-3 -7h-3l-6 -13 h-7v-5h-8l-4 -4l6 -3l6 -14l-3 -5l3 -4l4 -18l5 -5l3 2l1 5l10 -6l-2 -14l4 4l9 3l8 -3v-2h-7l-8 -19h5v5l2 2l3 -2v-5l11 -2v-11l3 -3l8 8l-4 4v9h9l3 -14l-4 -4l4 -7l6 9h7l3 -14h3l4 16l3 2l3 -7l10 -6l2 2v14l4 3l-4 6h-2v-5l-4 -2l-7 6l8 6v20l3 5v16h-7l3 7v12l6 1v10 l14 10l10 4h9l9 6h8l-4 -6l12 -12l5 -18l15 -4l3 -3l-21 -2v-12l9 -2l-4 -32h2v-8l-2 -11l-2 -2l6 -3l10 25l17 -17l-6 -5l-11 -4v-8l-5 -9h-7v-7h5l9 5l-2 4h7v7l4 7l5 -4h9l2 2l-7 7v11l3 5l2 -3l7 5v-7l-9 -7l6 -3l9 16l15 4v11l-3 9h10l2 -2l-4 -2v-7h7l3 -9l8 7l-6 8 l6 15l3 -10h11v7l2 3l-2 4l5 12v11l4 4h-4v6l4 2v9l-11 3v6h13v37l-5 8l7 8l-4 12v53l2 2v9l-9 10l4 3l3 25l-5 12l5 10v33l2 12l-4 2l5 2l-3 23v26l-2 11l3 4l-6 26l5 5v11l-4 5v5l-4 3l4 8l-3 7l-7 5v12l-10 6l-8 -5l2 8l-7 11v8l-7 -3v5l-5 4l-9 2l-8 9l-8 -5l-2 5l-13 5 l-8 -2l-25 2l-12 24l-7 -4v10l9 21l26 9l7 7l44 -2l2 2h16l9 -7h6l6 -10l15 -7l6 -11v-5l14 -11l9 -2l4 -7l14 -14l3 -7l13 -14l8 -16v-18l4 -5v-44l2 -4v-10l-5 -5v-13l4 -8l-4 -11h3l2 -4l-3 -8l3 -6l-6 -12l1 -7l5 -4v-26l4 -14l-4 -7l-2 -9v-30l2 -4l-4 -13l4 -22l-2 -2 l5 -30l-5 -3l-3 -6l3 -15l2 -1v-12l-2 -5v-21l6 -6v-12l-4 -4l3 -6l-3 -11v-12l3 -1v-5l-8 -7v-21l-4 -9h-2l-3 -9l-6 -8l-7 -2l-8 -11l-4 -12l-4 4l-9 -4l-4 -16l-13 -2l-8 -17l-21 -13l-3 -5h-5l-6 -10l-4 4l-15 -6l-15 4l-11 11h-8l-4 12l-9 8l-2 5l-2 -3v-7l2 -2v-5 l9 -14l-6 -5l-5 8h-5l-5 -13l5 -5h5v-7l-3 -2l-2 -8h-2l-2 5h-3v-12l7 -9l-2 -14l6 -5l-13 -5l5 -3l-9 -7l-4 -10h-20l-3 -6zM234 43l4 -5h9v20h-6l2 8h-6v-10l-5 -8l-7 -3zM207 105l-6 9l-4 4l9 7l7 -4l-5 -5l6 -11h-7zM372 82l3 -3h4l6 6l-4 6h-4v-7zM226 155l4 4l4 -3v-5 l-3 -3zM216 100l4 5l4 -4l-6 -5zM362 74l8 -4l2 5h-4v2zM123 227l3 -10l1 12zM342 35v-2h3v2h-3zM336 79v-2l2 2h-2z" />
<glyph unicode="r" horiz-adv-x="508" d="M102 14h-17l-13 24l-2 47l-3 9v21l3 10l-3 24l4 7l-6 19v12l6 10l-7 13l6 25v12l4 4l-7 14v13l-2 5v30l6 12l-13 9l7 5l-2 2l2 5v24l-4 5l6 10l-4 4l7 7v7l5 6l-3 3h-5l3 12v35l-5 4l3 7l-4 11l6 5l2 9l-4 16l6 23v19l-2 5v12l-5 24l5 5v30l2 4v29l21 20h14l16 -4l10 -9 l5 -20l4 3l1 10l5 -3l5 -10l5 3v10l25 25l5 -5l14 5h11l10 5l15 -3h19l7 -5l3 7l8 -4l7 2l3 4l9 -6h32l9 -4l14 6l21 -2l11 -3v-8l21 -6l3 -7l13 -13l3 -7l5 -2l10 -12l13 -7l5 -13l11 -7l6 -14v-21h9v-7l-4 -5v-11l-6 -6l9 -8l-3 -19l3 -10l-5 -11v-13l4 -5v-12l-5 -10 l6 -12l-3 -8v-9l-2 -11l3 -3l-14 -26l-10 -11l-11 -4l-3 -14v-13l-5 8l-11 -6h4l4 -3l-10 -11l-8 -4l-9 -14l-11 -5h-9v-9l-5 -5h-3v9l-18 -4l-2 -3h-10v-9h-5l4 -6l-3 -3l3 -9h9l4 -3h13l-4 -18l7 -6l-4 -3h-5l-2 -3h-5l-4 3v-11l16 -10l6 3l10 -12h-2v-8l-5 -3l12 -15v-12 l-3 -1l3 -3v-11l9 -3l5 -18v-14l6 -21l5 -4v-7l5 -5l5 -14v-9l6 -7v-12l4 -10l-13 -5v-8l-12 -4h-14l-1 3h-8l-21 24v7l-8 4l-5 15l-5 4l-18 38l-5 3l-3 16l-12 15h-12l-4 13l4 10l-7 3l-5 -3v12l-5 4l-2 5h-26l-7 7l4 3l12 -7l4 22l6 -2l4 5l-9 2l-4 4h-5l-9 5l2 4l-2 8h-5 v7l3 8l-3 3l14 28l-18 14l-3 -3v-6l-6 -17h4l3 7l4 -5v-11l-9 -9l2 -3l-20 -2l-5 5v11h2v3h-7l-7 6l-6 -6l-12 2l4 2v9l5 5h-12l-5 5h-10l10 -11l3 -14l-10 5l-3 -10l4 4l3 -3l-15 -15l9 -12l-5 -10l5 -5v-8h-7l-4 12h-5v-12l5 -4v-21h-7l-3 -2l3 -5h7v-14l-7 -5v-11l7 -14 h7v-8l-7 -10h-7v-23l3 -4l-6 -10l-1 -7h-3v-30l-2 -8l-14 -18l-20 -5zM153 357l2 -7l16 13v6h9l4 -3l6 12l23 -2l-3 4l5 9h2l-2 -16l2 -4h5v7h13l3 6l-12 4l-4 -4l-3 6l7 3l3 5l7 -5l-2 -5l15 3l-6 -7v-9l17 -4l6 7h4l3 -7l9 4l5 5h4l3 4l14 -3l9 8l-3 4l3 12l7 7l-3 -28 l6 -13h12l12 11h15l3 7l9 9h5l7 12l8 7l1 39l3 5l-3 6v12l5 4v9l-9 20l-7 6v7h5l11 14v7l-2 2l-3 16l-4 8l-12 1l-6 12v9l-5 -2h-12l-2 12l-4 4l-17 3l-4 4h-9l-10 -11v4l-11 6v-10h-5l-2 -3h-7v7l-5 5h-14l-4 -5l-10 7h-20l-5 -4l-16 2l-5 4v-6l-5 -7l-18 13h-7l-2 5l-7 -7 l-5 5l-2 8l-7 3l-2 3h-5l-6 -16l6 -10l-5 -5l3 -12l-5 -12l12 -10l-3 -11l-16 -7h9l8 -4v-8h-9v-8l6 -4v-4h-9v-5l14 -6h10l1 -3l-5 -6l-8 4l-10 -25l10 -3v-2l-12 -6l3 -6v-16l7 -17l-6 -15l-1 -9h9l8 7l5 -5h5l16 12l4 -8h5v-2l-6 -2v2h-10l-5 -4v-6l5 -1l10 4l14 -3l3 -6 l-45 -5v-4l4 -5l-1 -7h-8l-2 -14zM199 437l-7 -4l4 17l12 -12v-14l-4 -4h-5v17zM187 202l-5 9l5 6h3v-5l11 4v-4l-8 -15h-8zM145 387v-17h3l2 10l5 5l4 12l-16 -7zM218 261l8 -8h8v9l-8 7zM166 450l-2 8l11 -4l8 -7l-5 -5h-4zM177 186l9 9l6 -8l-5 -5l-7 -3zM348 247l9 -5 l6 6v8h-3l-4 -5h-8v-4zM289 540l5 4h6l3 3l9 -3v-4h-12l-4 -3zM294 418l10 10l5 -11l-8 -3zM208 408v4l9 8v-15zM228 211l3 3h7l2 -5l-6 -7zM256 256l3 -3l5 16h-8v-13zM213 277l4 -3l5 7v5h-7zM247 426l5 3l11 2l-6 -10zM358 281l3 8l7 -7l-4 -7zM191 183l15 4v-3l-11 -6z M204 230v5h9l4 -3l-10 -5zM201 292h9v8l-9 -3v-5zM252 447l7 7l5 -4l-8 -3v-5l-2 -2zM377 242l6 3l3 -6l-5 -7zM339 435l3 3l5 -5v-4h-8v6zM235 414l5 6l5 -5l-5 -3l-2 -4zM386 424l5 6l7 -6l-7 -4zM291 558l3 4v12l4 -14l-4 -7zM367 403v-3l4 -6h-13zM326 391h9v-4h-5 l-2 -5h-2v9zM307 463l2 2l3 5l2 -10l-7 -2v5zM175 237h5l3 -5l-8 -2v7zM317 429l7 -3v-5h-7v8zM264 468l8 5l4 -4l-10 -4zM356 498h11l-4 -5h-7v5zM206 560l-2 2l4 2v-15h-4zM234 555h-5l5 5l6 -2v-5zM150 271l3 -2l2 7l-5 2l-3 -7h3zM273 389l6 2l8 -2v-2h-12zM201 620v-5 h7v5h-7zM369 207v-7h5v7h-5zM162 477v4l7 -1l-4 -7zM229 447l5 3l2 -8zM154 311l3 -10l3 3v4zM312 454l5 5h1l-1 -8h-5v3zM226 438v-8h-7zM196 541l3 3l2 -7h-5v4zM196 477v4h5v-4h-5zM178 299v-4h7v2zM175 511l5 3l3 -4zM284 450h5l2 -3h-7v3zM266 426l2 3v-8l-2 -1v6z M353 537h5l2 -3h-4zM180 576l5 3l-2 -5zM148 643h5l-5 5v-5zM166 433l5 -3l-5 -1v4zM180 500h5l2 -2h-7v2zM175 581l3 2h2l-2 -4zM249 530h3l-3 -5v5zM342 385h5l-5 -3v3zM298 519h2v-5h-2v5zM399 521l-4 -5h4v5zM287 429v1h4v-4zM157 571h5v-4zM317 585v5l4 -5h-4zM307 599 l2 3l-2 -8v5zM266 283l2 -2l2 2l-2 3zM374 481l3 -6h-3v6zM282 594v3h2v-5zM178 385l-4 -5h-3zM171 602l3 -3h-5zM231 477v3l3 -5zM374 424l3 2v-5zM234 505v2h2v-5zM217 511h8v-1zM344 408h4l-4 -2v2zM335 265l2 -3h2zM145 505l-4 -7l4 4v3zM275 581l2 4v-6zM259 477l2 -2 h-5zM363 430h4l2 -1zM369 412l3 -2h-5zM270 519l3 -3h-3v3zM330 281v-3h3zM217 438h2l-2 -3v3zM324 553v-2h-3zM386 558l2 -3h-2v3zM259 247v-3l2 3h-2zM287 410h2v-2zM378 197l-1 -1l4 1h-3z" />
<glyph unicode="s" horiz-adv-x="527" d="M200 0h-23l-3 -4l-22 17l-16 5l-19 19l-11 14v3l-14 9v9h-8l-13 16l-3 11l-7 4l-4 17v16l-2 5l3 9l-3 17v18l2 4l2 24l3 2l2 7l7 5l16 1l5 3l2 -4l7 4h5v-4l4 -5h5v-3l9 -2l4 -16v-9l3 -9v-9l3 -7l-4 -11l6 -15v-7l6 -16h3l2 5h5v-3l-5 -4v-5l13 -16h12l5 -15l7 -4l4 2 h17l7 -6l25 3l2 -6l12 -6h5l2 -5l7 -7l3 -12h8l3 9l10 10l2 6l18 5h30l7 5l13 2l8 7l2 7l21 14v4l4 6h6l4 6v16l5 2l1 19l5 17l-5 20l3 23l-6 12l6 19v13l-9 -7v7l5 5l-5 4v18l-5 8l-5 2l-2 -4l-12 -7l3 11l7 3v6l-11 5l-15 3l-5 5l-6 -6l-11 11l-5 -14l-3 6l-9 1v-6h-6 l-3 9h-30v9l-11 9l-3 -6h-19l-9 -10l-21 -6h-62v-5l4 -8l-16 13l-8 -3l-4 3v5l-6 4h-7l-17 18l-9 5l-11 10l-4 9l-17 16v5l-4 4v9l-5 5l-4 30v21l-5 8l5 21l-4 50l4 45l9 9l2 8l9 11l4 10l8 2l30 35l16 8l17 12h6l4 9l40 3l5 -5h28l13 -7l16 -16h9v-5l-14 -4l3 -2v-15l2 -4 l-4 -9l-5 -2l-4 2l-11 -7h-19v-5l-5 -5h-7v3l3 2l-8 2l-4 -4h-8l-9 -5h-11l-5 -9l-11 -12v-4l-7 -14l-17 -14v-35l-5 -8l5 -6v-4l8 -9l7 4h6v-13l-22 8v-8l4 -8h6l16 -20l-16 -10v-4l12 -14v-7l8 -5l1 -4l8 -8l25 -1l13 -3l5 3l5 -3l21 -2l7 2l9 -5l2 -6l7 6l3 -1v-5l-5 -5 l11 -14v-6l12 13v7h-7v5l5 5l2 -3l12 3l10 14l5 -10l38 2l7 7l9 -9h32l4 -7l11 -2l11 -7l4 -5h5l5 -10l20 -18h3l9 -9l-2 -5l11 -5l5 -20v-18l7 -8l2 -31l-6 -7l4 -3v-41l4 -4l-11 -10v-7l4 -2l-2 -3l2 -3l-3 -48h3l-10 -24l-15 -15v-11l-9 -3l-10 -16l-4 -3v-6l-7 -7 l-10 -4l-20 -23l-37 -5l-6 -4l-17 4v2l-5 -2l-9 4h-12l-4 2l-4 -4l-16 9l-8 7l5 9l-4 4l-8 -6l-2 2h-11l-4 -13l-13 -12l-16 -5h-7l-5 -5zM427 501l-7 -1l-12 14l-7 4v13l-5 6l10 11l-15 18l-6 3l-2 4v11l-16 3v4l-8 8h-3l-5 9h-17l-6 2h-17l-13 7h-5l-14 14l-5 2l3 11l-5 6 h-3l5 6l3 9h-8v5h8l4 7l17 7h22l8 2h25l6 -3l8 4l23 -17h4l16 -16h5l7 -7h3l15 -19l12 -8l12 -17v-12l5 -4v-9l4 -3v-55l-21 -23h-12zM269 344l3 -5l4 9l-7 6h-4l-2 -5zM311 474h5v-7h-5v7zM291 300h7v-4l-3 -2zM263 312l5 -5l-5 -4v9zM281 665l2 -2l3 2v3h-5v-3zM466 560 v-3h3zM277 654v-2h2v2h-2z" />
<glyph unicode="t" horiz-adv-x="493" d="M215 17l-5 18v73l-3 5l-2 19l2 4v44l-2 9l4 13l-8 12l6 13l-3 5l8 12l-2 3h-5v16l6 5l-6 11v12l2 5v13l3 5l-6 10l4 14l-5 9l8 12l-6 15l2 5l-2 28l-3 6v28l6 10l-6 10l-2 41l2 10l1 25l-8 8h-6l9 5h4v9l-4 -2l-4 9l7 13l-6 6l8 5l-5 11l-3 1v8h6l1 -3h8l1 3l11 3l-6 4 l-24 -3l-3 -7l-9 7l-29 8l-4 -3l-2 3l-3 -3h-7l-5 3h-18l-4 -3h-12l-9 4h-30l-29 9l-15 14v26l9 3v8h24l2 3l13 5h29l18 -3l2 3h19l10 -3l33 3l14 -3l3 3h12l13 -7l17 9l1 -7h8l22 7h23v4h3l4 -4h8l2 3l9 -4l14 5l2 -2h28l5 -2l20 -2l10 -4l6 4h12l5 -3h9l4 3l5 -3h7l18 -5 v-7h14v-20l-2 -7l4 -7l-12 -6l-5 -11l-6 7l-4 -9l-10 3l-4 -3l-16 -1l-2 -3h-23l-7 -3h-23l-9 -4l-7 6l-22 -5l-9 6l-18 -3l-4 -6l-6 -3l6 -2l-6 -4h-4l-9 -5v-3h11v-4l15 -4l-6 -10v-9l3 -3l-4 -2l-8 -11l2 -5v-18h7v-10h-11v-6l-2 -8h3l3 -6l10 -7v-10h-6l-5 10h-3l3 -11 l-3 -3v-5l3 -3l-5 -7v-9l4 -4v-7l-5 -11l5 -8v-18l-9 -18v-19l2 -2v-12l-4 -14l2 -21l5 -1v-10l-9 -9l4 -10l-2 -1l7 -30l-7 -10l4 -5l-2 -11l3 -19l-6 -14l5 -11v-7l-5 -5l3 -5l-2 -23l2 -6l-2 -7l-2 -44l-3 -7l3 -7v-16l-3 -4v-14l-2 -3l2 -2v-15l-7 -12l-9 -5h-23z M279 577l12 -3v7h-6v3l-9 -4zM222 603l3 -2h6l4 6l5 3v3zM265 610h18l-4 4h-14v-4zM249 607l9 -3v3l-5 5l-9 -5h5z" />
<glyph unicode="u" horiz-adv-x="538" d="M225 1h-21l-4 4l-38 11l-18 19l-12 6v4l-14 16l-11 5l-3 10l-29 25l-5 56l3 12l-3 12v14l-8 7l3 6l6 3l-4 6v20l4 7l-6 6v14l-5 5l3 7l2 25l-2 5v15l-5 3l5 5v7l-5 4l3 2l2 17l-3 14l3 23l2 51l-2 10l4 13l-4 13v12l2 2l2 51l3 13l-3 8v21l3 12l-4 6l4 12l-3 4l5 12v23 l12 13h16l17 -5l12 -23l-4 -17l6 -8l-4 -4v-21h3l6 -25v-21l-2 -7l7 -16v-16l3 -5v-12l-8 -13v-7l6 -14l-4 -30l6 -11l-3 -10v-32l3 -3l-3 -2l-2 -9l2 -4v-12l4 -9v-9l3 -6v-15l-4 -8l-3 -2l4 -14l3 -2l-4 -2v-10l-3 -1l3 -3h4v-7l-4 -9v-10l-8 -9h7l2 8l6 -6v-6h-6l-4 -6 l7 -3v-8l-3 -4v-9l3 -3v-5l7 -6l-8 -8l6 -6v-16l-3 -13l6 -10l10 -5l5 -12l7 -6l4 -8h5l7 -8l7 -4v-10l3 5l7 -4h14l9 5l4 -9l16 -4l10 -10l10 -6l7 -21h-8v-7l4 -5l-1 -4h-3l-5 9v-12l-12 -7l-4 -7h-16zM347 3h-2l-8 4l-20 3h-11l-8 6v8l-11 11v13l10 5v13l9 -3l1 6l17 6 l7 -3h23l12 12l-3 2l6 3l8 13l7 3l14 18l2 -2l7 6l5 9l-4 9l8 7l5 28l-9 6h9l-3 13v32l6 21l-7 7l2 21l-7 15l8 7l-4 31l2 3l-1 18l6 7l-5 2l-1 24l-3 11v25l3 5v16h-8l5 5l3 13l-4 9l5 23l-4 10v26l3 2l-3 7v21l-2 2l2 11v19l-5 14l3 6v10l2 2l-2 9l2 3l-2 9v7l2 2l5 23 l11 5l12 2l9 4l12 -5l6 -12l5 -5v-4l3 -3l-5 -4l9 -17v-18l-2 -8l4 -20v-14l3 -5v-60l-5 -11l5 -14l7 -4l-7 -19l4 -5v-13l-4 -10v-16l-5 -2l9 -26l-2 -4l4 -35l-5 -5l4 -5l-3 -13v-34l-2 -3l2 -3l-6 -5l4 -13h4v-5l5 -9l-3 -4h3v-3l-5 -4v-10l5 -4l-7 -3l4 -36l5 -3l-5 -2 l4 -3l-6 -16v-39l-2 -16l-5 -11l-6 -5l-3 -7l-5 -5l-12 -18l-10 -4l-4 -11l-13 -13l2 -5h-4l-40 -27l-13 -3h-14l-7 -6zM361 93v9l6 -9l-4 -2zM141 321v-2h3v2h-3z" />
<glyph unicode="v" horiz-adv-x="500" d="M195 0l-8 7l-7 4l-9 14l-6 26l-8 11v12l-4 7l-3 15l-4 6l2 4l-2 2l-2 12l-3 5l-4 12l-2 30l-9 7l-4 13l4 7l-5 12l-6 2l5 17l-8 4l-3 7l-5 4l8 5l-6 11l4 9l-8 12v9l-5 7l-6 -4v22h6l-2 14l-7 10v15l-7 19l-8 4l3 7v8h5l-6 9v4l-5 5l5 3v9l-5 2l-3 20l-5 17h-4v18l-7 14 l3 11l-9 18l-10 38v16l-4 7v7l-9 30v36l-3 3v5l17 13h9l2 -2l19 -4l2 -11l9 -8l11 -36l5 -8l4 -25l5 -9v-12l4 -9v-11l10 -10v-5l4 -7l3 -23l4 -4v-14l5 -12l4 -4v-20l-3 -9l8 -8l12 -2l-9 -10l12 -11v-18l9 -2v-5l10 -11l-5 -4l7 -7l-3 -11h3l-6 -12l3 -12l9 -5l7 13l5 3 v-8l5 -11l-13 -3l3 -8l5 -3v-5l-8 -6v-9h14l3 -12l-4 -3l8 -9l9 9h8v-4h6l-4 12h9l9 -10l-3 -3l6 -6v-7h13v30l-2 16l9 5v18h11v7l-14 5l-8 14h4l7 -8h11l5 6v6l10 9v9h-16v5l13 3l4 19l8 -4l4 12l-9 3l-4 4l9 5h9v16l-4 2l1 10h5l8 7l-3 9l7 10l2 24l7 11v10l12 18l7 26v13 l6 8v11l8 19v7l6 9v16l7 16l5 4l3 10l6 7l12 3l2 4h14l14 -4l9 -10v-14l3 -7l-12 -41l-5 -8v-10l-7 -10v-16l-9 -18l3 -14l-15 -14v-5l3 -2l-4 -3l5 -9l-9 -16v-9l-4 -5v-9l-5 -12l-7 -31l-6 -10v-11l-5 -5l-3 -9l-2 -14l9 -6l-11 -10l6 -6l-11 -9v-19l-6 -10v-10l5 -4 l-12 -14v-18l-12 -12l4 -9v-9l-4 -12l-5 -5l-3 -17l-7 -6l4 -4h4l2 -7l-9 -3v-6l6 -10l-13 -7l3 -9v-12h-9l2 -16l-12 -6l2 -5l8 -4l-3 -5v-7h-7l-5 3l-4 -8h-5l-5 -9l-9 -4l-2 -8h-4l-9 9l-6 -10v-19l5 -9l-12 5l3 -15l-2 -4h-5l-2 -8l-9 -6h-32zM210 200l7 -4l11 2l3 8 l13 12l-10 10h-5v2l-7 -6v-14h7v-4h-16zM234 290h-9l-8 -4l-2 2v7l5 5l2 7h3l2 -9h21v-10l-10 -4zM236 329v6h-14v2l-9 -8l2 6l-2 4h-5v7h9l10 -5h13v8h5v-8l-5 -4l-2 -9zM222 318l-7 2l-2 5h7l10 -10l-8 -4v7zM210 228h7l4 4l-11 7v-11zM235 233h8v9h-5zM221 376h4v-5 l-5 -7h-3zM181 374l-3 9l8 -4v-5h-5zM210 265v12l5 -9v-5zM248 226v-5l4 5l5 2l-4 4zM200 303l4 4l4 -5l-3 -4zM225 180l4 -4l7 6h-5zM227 240l-2 -4h4v4h-2zM197 238l4 -5v5h-4zM187 270v-2h3v2h-3zM217 242v-2l3 2h-3z" />
<glyph unicode="w" horiz-adv-x="840" d="M575 9l-3 -2l-14 5l-13 13v14l-10 10l-4 29l-4 5v15l-5 8l-1 20l-12 22v6l-3 4l-2 8l-4 2v26l-5 4v5l-4 3l-3 15l-5 -3l-3 22l3 7l-8 15l-15 7l10 20l-8 19l-9 5v3h-12v4l5 4l-11 4l-3 -5l-4 2v-6l-10 4l9 15l-16 -4l-2 -5h-7l3 5l-3 5l5 2l2 -4l5 2l5 7h7l4 4v7l10 2 l-14 12l-12 5l-5 -3l-4 -9v-5l9 8h5v-8l-8 -4l-18 3l-3 4l-2 -3l4 -9h-6l-4 9l-3 -8l-13 -6v5l6 8v9h12l6 6v12h-9l-4 -5l-9 -4l-5 -12l-7 -9v-16h-9v-5l7 -11l-5 -3v-7l-7 -6h-4v-7l9 -4v-6l-15 -14l4 -8l9 9l9 21l13 -10l-7 -2l3 -3l-7 -2l-2 -16l5 -5h7l7 5l10 -6l-6 -6 l-2 3l-9 2v-7h-8l-12 20l-15 -7l-5 -11l-9 -9l2 -11l12 5h8l-3 -8l-10 -4h-11l-5 -3l7 -16l-2 -2v-11h4l-2 -6l2 -1l-2 -3l-7 3v8l-7 -4l3 -3l-3 -4h-5v-11l-4 -5l2 -2l-8 -4l3 -10l7 -7l-13 -2v-5l4 -4l-9 -3l-9 -12v-6l-7 -4v-13l-3 -4v-6l-11 -8h-12l-4 -4l-3 2v16l-4 10 l-13 9l-3 -3v-10l-4 -11l9 -21l-3 -2v-5l5 -4l-2 -19l-5 -4l-4 -17l-18 -5l-25 4l-16 15v12l-7 17v16l-5 5l-4 10v19l-5 5v26l-9 5l5 13l-5 4v18l-4 5v7l-8 8l4 10l-5 19l-5 5v30l-9 20l-5 5l5 10l-7 15h-4l9 14l-7 3l-6 32v14h-9l-1 46l-5 7l2 14l-9 12v17l-5 12l-3 16 l3 21l-12 23v28l-6 14v9l3 6l-10 29v16l-5 11l3 7v19l10 8l3 -4l12 6l16 -3l9 -6l16 -32l5 -18v-9l3 -4l1 -29l8 -13l1 -17l5 -9v-4l5 -2v-16l2 -3v-16l13 -8l-5 -6l1 -7l3 -2v-10l6 -4v-3l-4 -2v-7l16 -13l-4 -5v-5l2 -2v-11l3 -7l-3 -7l6 -4l-4 -6l3 -5l-3 -4v-11l12 2v-7 l5 -5v-6l-9 -3l1 -5l5 3h7l2 2h6l4 -7l20 -5l-4 -4v-5l-11 3l-8 7h-8l12 -18l-15 -7l2 -3l-5 -3l3 -9h4l7 -14l3 3h6l3 -3l5 5l2 9h-5v7l-5 5v4l8 8l6 -8v-13l7 4h14v-4l-15 -8v-10l6 4l5 -11l11 11l2 5h5l3 -7l9 5l-2 15l-5 9l-10 5h-9v5l3 4l-3 3l5 7l-5 5l8 4l6 -3l5 -8 l-4 -7l-6 -3v-2l10 -5h5l-3 9l12 10l11 3l-9 8v3l11 -4v6l-15 15l8 5l-4 8l-17 -9l-4 -8l-7 8v7l14 7l7 -3l8 8l3 -4h5l2 3h5l3 -3l-6 -8l3 -3h5l5 16l-6 6l13 18l-6 7l3 9l7 2l2 4h-5v16h-4l-2 -4h-7l-5 4l12 3l4 9l9 9h5l-5 -7l5 -2v5l5 6l-7 7v8l5 4l-4 14l15 6v10l11 28 v7l8 6l2 9l9 8l9 4l5 11l8 -14l8 -4h7v-11l5 -5l1 -4l6 14v6l4 5l-7 5v5l-9 8l6 32l-4 10v10l7 13h12l5 7l13 -7h12l9 -9v-7l12 -8l11 -29v-10l4 -4v-5l4 -2l-8 -4l9 -3v-12l6 -5l6 -22l9 -4l-2 -17l9 -6v-3l-5 -3l2 -15h5l4 -3v-4l-4 -2l-2 -10l6 -2l-1 -11l16 -7l6 -8 l-4 -9h-6v-4l4 -5v-4l5 -3v-5l3 -3l-5 -10h-3v-12h5l4 5l2 -2v-5l3 -3l2 5h11v-7l-9 -9v-22l-7 3l-5 -2l3 -5l7 -2l-2 -4l6 2h15l4 -5l-13 -13l4 -3v-9l-4 -3l-4 -13h13l-5 6l6 3l10 -4l2 -5l18 -14v-11h14v-8h7l3 12h2l5 -19h9l-5 15l8 5l-10 8l5 7h11l2 2l-10 4l5 9l-4 16 l-11 -6l-5 5v11l-3 7l10 3l5 -5h4l7 7v18l12 -3v3l-5 5l5 5l4 -2l3 2v16l2 8l7 10l2 17v18h7v14l16 32v5l2 2v10l-3 8l8 12l-2 5l7 6v17l7 9l4 30l3 4l4 26l10 12l3 10l8 3l5 5h23l15 -7l6 -11l2 -28l-5 -2l4 -13l-6 -17v-11l-10 -3l4 -13l-6 -20v-9l-3 -8l4 -7l-5 -6 l-4 -11h-5v-16l-5 -14l-4 -3l6 -16l-8 -12l4 -4l-7 -16l-5 -4l4 -7l-4 -12v-8l-10 -5v-7h3v-15l-4 -9v-5l-3 -4l-5 -14v-8l-6 -10l2 -15l-5 -6l-2 -9h-4v-3l4 -4h5l2 -5l-9 -4l-2 -5l-7 -7v-7l-11 -20l8 -8l-10 -11l3 -7l3 5l9 -4l-2 -6l-8 -2l-4 -7v-11l-5 -5l-6 -20l9 -5 h-9l-8 -3l3 -2l2 -16l-2 -5l-7 4v-19l-9 -5v-5l2 -2l-11 -17h-3l3 -11l-4 -4l-4 4l-11 -4l-6 4l4 7l-9 18h-6l-13 -21l-5 -2v-13l9 -3l-4 -5l5 -13l-3 -17l2 -2l-6 -7l-4 -9h-20zM590 244l4 -5h16l2 3l14 6v8l-4 -3h-5v3l5 4l2 16l-9 2l-3 8h-18l-13 3l-3 6l-9 -9v-18 l-12 -8l4 -4l8 2l4 5h12l5 -5v-5l8 10h10v-7l-3 -3l3 -2zM181 241l6 -3h5l-7 11l2 7h5l9 -12l7 3v6l-11 3l3 6l13 6l-4 -9l8 5v7l11 4l6 -6l-4 -11h4l7 10l2 9l-2 6l-14 -2l-7 7l-9 -2l-3 4v5h-4l-5 -9l-2 2l-7 -2l7 -5v-3l-11 -4v-16h-8l5 -5zM398 394v-18l7 7l9 3v-3l17 3 l-3 8l-5 -2l-4 3l-3 -3h-11v11h6l5 10l10 2v18h-12v7l-7 3l7 11v16h-5l2 -16l-4 -4h-7l-5 -10l7 -4l9 -12l-2 -6l-7 -4v-4l-7 -7zM558 354l6 4l14 8v-8h4v9l8 6v7l12 -2l3 -7l5 -4h-18l-2 -21h-17l-2 -5zM448 274l-4 7l-8 8l-4 -6l-13 -2l-3 2h-9v3l9 7h7l7 5h16l7 4l3 -6 l-3 -6l3 -2l-6 -5v-9h-2zM566 373v12h-9l-3 -8l-9 12l12 4v4l-9 2l12 2l9 21h4l4 -13l-11 -3v-5l5 -2l-2 -5l4 -11l5 -5v-5h-12zM400 299v13l-11 6v5l7 2l11 -6v-8h12l13 6v-6l-13 -12h-8v8h-6l3 -4l-6 -5zM192 203l3 -7l9 4l3 -3l10 10l8 2l-8 5l3 4h9l2 10l-15 -2v-8 l-17 -15l-2 11h-5v-11zM185 375l10 10l2 16h7v-4l-4 -4l8 -8l8 -2l-5 -3v-7h-16l-4 -2zM592 121l4 -4l12 3v6h-3v10l-7 8l3 3l3 11h-3l-10 -13h-6v-6l14 -4v-9zM557 307v-8h14l7 8h4v3l-7 3l-2 5h-7zM356 309v4l3 3l1 7l10 -4v-6l5 10h2l2 -5l-2 -9l-8 -3zM588 338l3 8h8 v-12h4l2 7h5l3 -8l-10 -4h-12zM386 332l-9 2l-6 6l4 3l14 3l1 -3l8 -2l-5 -4v-9h-4zM560 429l-5 2l11 23l5 -4h4v-4l-6 -3v-10l-8 -6zM595 217l6 -10h7l3 6l-4 12l-8 4zM596 98l3 -4l8 12h5l3 11h-5l-7 -4l-2 -5l-5 2l-4 -7zM613 399h7l11 4v-11h-32zM453 256l-12 2v7h8 l4 -5h9v-7l-4 -5zM587 413v11h7l4 4l3 -4h4v-4h-9l-5 -10zM201 168l3 -7l4 3l-1 18h-6l-4 -5l4 -4v-5zM360 392l6 -3h9l4 14h-7v-9l-3 4zM587 184h12l6 7l-9 -3l6 10h-6l-2 -2l2 -2l-2 -3h-7v-7zM349 218l-2 12l-5 3l3 8l6 -6v-7l3 -2v-8h-5zM386 394v-2h4l-1 18l-4 4l-4 -6 zM618 330l4 4l4 7h3l2 -7l-5 -5l-4 -9zM197 275l8 7l3 -4l8 -1l-8 -8zM440 236l4 8l5 -2v-9l-5 -10zM250 329v-1l9 9v9h-4l-7 -14zM201 427l6 2l6 -14l-5 -2zM513 523v5l-4 3l9 4l3 -15zM393 472l7 -2l5 5l2 7l-9 -4zM207 359h9v-9h-9v9zM219 244h8l3 10l-5 -3v2h-3z M177 289l9 -3v12h-3zM471 235l-6 9l-3 3h5l7 -3v-6zM176 317l4 9l3 -3v-10h-5zM534 453v6h5l5 -6l-3 -3zM345 258v-10h-12zM581 233l4 -3l6 6l-4 3h-5zM536 523l3 3h9v-7zM541 431l4 5l6 -7l-10 -2v4zM645 358l2 -3l3 3v9h-5v-9zM608 233v-3h4l5 5l-4 4zM208 242l-1 -3h6 l3 9h-3zM634 414l4 4l6 -4l-5 -5zM384 450l6 -5h3l-10 10l-4 -3zM594 281h9l-9 -7v7zM396 422l6 -2v7h-6v-5zM393 570l-3 -8h6v8h-3zM552 512l5 5l4 -5l-9 -3v3zM188 363l4 4l3 -3v-5h-3zM379 248l2 5l7 -3l-4 -3h-7zM333 187l3 1l6 -4v-2h-6zM434 411l-4 -9l9 5zM243 422 l3 2h5l-3 -6zM578 200l4 -2l3 2v3h-7v-3zM513 468l4 -3l4 3l-8 2v-2zM581 156l9 -4l-5 6zM211 410h6l-1 -4h-5v4zM535 490l4 3h2v-6zM257 454v5h4v-5h-4zM379 429l2 -2h5v2l-5 2zM201 233v-3h6v3h-6zM162 337v-3h5v3h-5zM204 122l4 -3v5h-4v-2zM518 433v-9l3 3zM423 403v-4 h3zM541 350l-2 -2h4v2h-2zM596 168v-2l3 4zM578 248v-4l3 3zM569 355v-5h2zM612 272l3 2l-3 -5v3zM572 7l3 -1h-9zM453 337l3 -3v3h-3zM566 290v-2l3 5zM587 228l3 -2v2h-3zM252 325v-2h3zM458 325v-2l2 5zM449 353v-3h1zM551 308v-1l1 6z" />
<glyph unicode="x" horiz-adv-x="499" d="M23 5v10l-4 14l4 8l4 3v9l6 6l3 11l5 4l18 35l5 4l3 15l6 3l5 20l4 3l5 9l5 3l5 29l10 10l10 16v7l8 3l-3 7l2 4h3l4 5v11l6 7h3l6 18h8v9l-4 8h4l3 -3l1 10l5 -5v10l7 6h5l2 -6h7v6h13l8 15h-9v9l-5 -5l-3 2v7l12 -3v8l-13 6v19l-16 16l-3 13l-10 15v10l-6 -4l-3 3v16 h-9v14l-3 5l3 2l-3 9h-8l-7 11l-5 20l-14 20v9l-5 5l-1 5l-9 13l-7 17l-8 9v4l-9 18l-2 12l-12 17v4l-9 16v14l-3 6l4 7l12 6l27 -3l31 -25v-8l15 -12l4 -22l14 -12l2 -4l-3 -3l8 -15h5v4l9 -9v-18h10l4 -9l-3 -4l2 -6l5 -2l-3 -6l21 -22l-2 -2v-7l7 -7l3 -10h11l7 21v14h7 l4 -5l-9 -9v-18h-7v-25l20 2l3 7l5 4l3 7l6 -7l2 5l-3 8l6 6l-5 5h-7l-4 9l2 2h9v3l6 5l5 -5l3 4l9 5h5l4 4v9l12 21l5 5v10l9 6l11 18l5 3v5l14 27l4 4v8l8 9l1 4l9 9v5l15 14l20 2l6 3l13 -4l12 -15l-3 -9v-17l-11 -6l-2 -21l-9 -3l-6 -18l-5 -2v-7l-10 -12v-6l-8 -9v-7 l-4 -5v-12l-14 -4l4 -14h-8l-7 -6l7 -3v-7l-5 -12l-3 5l-4 -2v-13l-12 -6l-2 -11v-11l-13 -4l6 -8v-12h-9l-5 9l-3 -19l3 -8l-4 -5l-5 7v7l-11 -11l-5 6l-12 -4l4 -5l-9 -7l8 -8l-5 -6v-4l6 -7l7 -27l10 -10v-4l9 1l4 -4v-14l5 -9l10 -5l3 -10l-6 -6v-9l5 -5h7l4 3l2 -3 l-1 -14l-7 -3l6 -5l12 6v-3l-7 -9l2 -6l7 -7v-10l9 -11l3 -9l-4 -3l13 -16l7 -4v-17l8 -8l3 -10l3 -3l7 -25h7l23 -41l2 -10l5 -6l2 -12h4v-35l-4 -4l-20 -6l-5 4l-15 2l-36 39l3 3l-3 6l-9 7l-12 17l-7 20l-17 21l-6 2l-4 9v8l-6 14l-8 -4l-6 18l-9 -4v-24h6l2 11l2 -10 l6 -2l-6 -7h-10l-4 5l-2 -5v21l-5 2l7 5l-4 9l7 10v15h-8v-9l4 -9h-13v7l-9 -2l13 -13l-8 -5v-5l11 -11l-4 -3l2 -4l-2 -10h-9v21l-3 2v19l-2 11h-10l-17 18l-6 -7v-13l-5 -11l-11 5v-3l-6 -8l-5 3l-3 8l8 4h11l4 9v14h10v7l3 3l-6 6l10 6l9 -4l2 -5l6 -3l4 8l8 -3l5 5h-4 l-5 7h-10l-5 16l-12 -4v-9l-10 -12l-6 -3l-10 -15l-4 -3l6 -7l-4 -4h-11l-8 -5l4 -7l-4 -6l-7 4l-3 -3l3 -7h15v-9l-6 3h-11v-12l-2 -2l-9 8l-5 -11l3 -4v-7l-8 2l-7 -2l-5 -26l-10 -11l-3 -12l-7 -4l-2 -5l-5 -4v-9l-18 -21v-3l-15 -23l-13 -4l-26 -5zM198 300l4 -12h14 l-2 12l-5 5h-7l-2 3h-8l-4 -8h10zM223 136l-5 5h-7v7h17l15 -6l-14 -8zM232 102v16h-6l7 8l4 -3h4v-5h-4v-13l-2 -5zM258 402v-3h9l4 5l-5 9zM258 189l4 -4l7 7v5h-11v-8zM310 363l-1 5l4 4l2 -7l4 -4l-9 -8v10zM241 196l3 -9l5 6l-8 8h-3l-3 -9zM168 335l4 3l3 4h3l-4 -16z M226 254l13 -3v6h-13v-3zM292 364v5h9l-2 -9zM179 141l2 5h8l-5 -11zM237 476l2 4h7v-8zM157 390l1 5l10 -6l-7 -3zM271 122l12 -6h-12v6zM223 264v-3h3v3h-3zM267 499l2 -2v6zM228 206l-2 -2h4z" />
<glyph unicode="y" horiz-adv-x="460" d="M208 5l-4 4l-14 9l-3 30l5 8l-6 20l2 12l-7 18l5 35l-6 22l4 13l-7 12l4 6l-5 20l6 10l-5 8l6 6l-6 19l4 6l-3 7v7h-5l-5 9l4 3l-7 13v9l-8 7l-11 37l-6 -3l-9 9l5 4v4l-4 5l-4 -13l-3 4l2 14h9l-4 6l-9 6v13l-7 16l-10 11l-1 12l-5 5v12l-7 6l-10 37l-5 6l-6 17l-6 9 l6 3l-2 4l-7 4l-5 13v6l-12 19l3 7l-7 16l-17 21l-6 23v27l9 10h28v-7l5 2l6 -5l11 -16l13 -6v-11l15 -10l5 -14v-9l7 -12l5 -4l3 -20l15 -17v-12l5 -7v-14h17l-6 -14l-4 5l-4 -4l7 -5l4 -9l5 -5v-10h9l2 -19l11 -16l12 -4v-9l-3 -10l17 -6l5 6l5 -5l-3 -11l5 -6l-5 -3 l-10 4v4l-6 -3v-6l6 -3h7v-9l3 -5l2 9l9 18v12h14l5 23l7 7l-6 6l4 3l2 9l11 6l3 14l11 6l3 14l4 4v5l-2 2l11 19l-4 4l11 10l10 25l6 7v12l18 39l8 11l4 10l8 6l-3 5l17 15l16 6l4 -5h6l5 -4v-33l-9 -16l-5 -4v-16l-9 -33l-6 -11l-16 -42l-10 -18v-9l-5 -6l-5 -15l-9 -9 v-33l-11 -2v-12l-4 -18h-7l-5 -5v-16l-5 -4l-9 -19v-11l-3 3l-9 -12l-15 -4l-5 -11h-7l-2 3l-10 -5v-7l8 -7l4 -16l5 -5l-3 -8l7 -14l-2 -12v-14l-6 -11l6 -5l-7 -7v-5l5 -5v-27l-3 -13l5 -6v-13l-10 -23h10v-8h-2v-18l-5 -3l2 -6l-3 -19l6 -11l-5 -14v-29l-24 -12h-18z M231 340v-5l17 2l3 7l-11 2zM189 458l3 6h8l-4 -13zM236 462v4h7v-6zM190 436v-2h5v2h-5z" />
<glyph unicode="z" horiz-adv-x="528" d="M166 4l-10 -3h-23l-4 -5l-15 2l-6 -3l-7 3v3l-5 -3l-18 5h-16l-3 7h-11l-7 6l-6 19l6 19l11 16h5l2 -3l6 7l10 2l4 -2l18 6l4 4l-3 7l-12 -3l-6 17l-7 1v12l13 26h7l3 13l-3 8l6 4h5l13 21l6 14l6 4l14 19l1 7l35 44v4l7 3l2 9l3 2l3 12l11 4l9 21l14 14v7l14 14v9l9 9 v10h7l23 30l4 14l5 6l3 -5l2 15l11 15l2 9l3 3v5l-3 2v5h3l4 5v9h17v7l-3 2l4 7h7l4 11l11 12v9l-11 -4v4l22 9l10 9v7h-5v4l14 8l20 7l3 10h-21l-4 -6h-5l-2 -2h-5v9h3v3l-10 2l-7 -5l-4 -13l-9 4v2l9 6l-15 1v-9h-13v12l-5 2l-6 -2l-7 -12l-3 12l-2 -3h-7l-9 5l-8 -5v8h-6 l-5 -3h-7l-6 -2l-7 6l-19 -9l-12 5l-4 5h-24l-5 3l-12 -8l-13 6l-6 -3l-14 2h-37l-39 12l-8 12v15l5 7v13l19 3l9 5h12l5 -3l7 3l12 -5l3 2h7l10 5h10l16 -8l5 6h29v-3h6l5 3l7 -5l11 4l17 -5l19 9l10 -6h7l5 5l14 -5l2 3h12l6 -3l14 5h10l7 -5h9l7 4l18 -4h14l10 -4l39 3 l21 -5l6 -8l12 -2v-11l2 -3v-24l-20 -12l-10 -9l-16 -7l-21 5l-7 -4l-2 -11l9 2l2 -2l8 6l7 -4v-5l6 -9l3 -11l6 -7v-3h-6l-5 -13v-14l-11 -12l-9 -2l-8 -20l-9 -14l-21 -21v-12l-8 -17l-10 -4l3 -2l-3 -2l-5 2v-11l-13 -14l-3 -12l-23 -25v-16l-12 -3l-9 -9l5 -2l-6 -17 l-15 -8v-15l-6 -4l-6 4h-4l3 -7l-12 -25l-10 -7l-1 -4h-3l-7 -14v-8l9 -5l-9 -3l-11 4l-4 -3l7 -8l-8 -7l-4 -33h-6l-2 -2l6 -6l-7 -6l-11 8l-6 -3l-3 -7v-14l3 -2v-5l-4 -5l-15 -1l-3 -11l-6 -6l5 -11l-12 -5l-5 -9l-15 -5l-3 -7l13 -9h8l2 9l2 -9l3 -2l2 5h9l13 -5l22 2 l4 4l6 -4v-2h18l4 5l20 1l5 -13l5 3l12 1l6 -2l8 7h12l1 4h3l3 -13h8l7 3l8 -3h9l13 -5h37l10 -4l9 4l28 -2l6 -6l3 5l9 -4l11 -14v-11l-6 -19h-5l-23 -11l-35 2l-12 3l-9 -5l-24 -4l-11 7l-11 -5l-37 2l-4 5l-4 -7h-10l-4 2h-12l-3 2l-6 -2h-26v3l-34 -5l-5 2h-12l-9 -3z M186 123v5l9 7v-5l3 -3v-10zM177 95v5h8l3 -7l3 -2v-3h-5zM272 591l9 12l12 -4v-3h-12l-5 -5h-4zM204 139l8 7h2v-5l-5 -9v3zM224 78l9 8v-7l-5 -4zM203 156v1l4 3l4 -3l-4 -4zM302 66l2 -3h4v3l-3 2zM129 86v-5l4 3zM119 3v-2h3v2h-3zM475 28v-2l2 2h-2zM487 650v-3l1 3h-1 z" />
<glyph unicode="{" horiz-adv-x="366" d="M206 -86l-3 4l-7 2l-3 4l-9 5l-25 25l-4 8l-15 12l-9 21l-2 20v57l-3 8l5 20v18l4 4l-4 13v13l-4 7l6 11l-7 26v14l5 2v25l-6 13l-4 20l-13 19l-3 11l-6 4l-13 22l-16 5l-15 14l-2 8h-5v7l12 6l4 5l19 9l13 14l14 20v10l9 10v9l10 18v7l-5 -3l7 19l-6 7v51l4 6l-3 7v51 l-3 10l3 10v81l14 14v9l12 12l4 9l21 14l7 2v8l19 6l6 7h12l5 2h25l5 -2h27l15 -8l3 -6v-11l-4 -12l-11 -3h-12l-25 -5l-8 4l-23 -8l-3 -7l-27 -15l-4 -31l-6 -23l9 -13l-4 -14l4 -9l-5 -5l3 -14l-3 -2l4 -2v-26l-4 -4l-3 -17l3 -6v-16l5 -6l-3 -13v-12l-5 -10l6 -11l-3 -39 l-7 -4l-14 -30l-3 -12l-6 -6l-14 -28v-9h-7v-5h3l6 -7l5 -11l2 -17l7 -6l2 -5l8 -7v-5l-5 -7l11 -11l7 -21v-27l-4 -5l4 -19v-34l-5 -21l5 -8v-60l-2 -12l5 -6l-3 -6v-14l2 -4l3 -30l7 -21h6l6 -14h8l9 -9l19 -6h14l5 -6l15 3l16 -2l7 -6l5 -17l-12 -5l-2 -6l-20 -3h-44z " />
<glyph unicode="|" horiz-adv-x="138" d="M58 -92l-6 7v19l2 4l-5 6v33l3 6l-4 11l4 15v39l2 8l-2 10l-4 4l4 10l-3 5v27l3 4v33l2 7l-5 4v44l6 16l-3 7v9l2 2l2 13l-4 15l4 11l-2 2l2 39l-4 8l2 15l-2 12l5 17l-3 10l2 19l-4 8l4 8l2 14l-3 16l3 7l-2 13l2 16l-6 7l7 12l-4 16l3 15l-3 10l5 10l-6 23l4 17v35 l-3 11l7 12l-4 23l3 2v7l7 13l20 -1l-3 -8h12l-2 -13l6 -6l-4 -20h5l-3 -4l3 -7l-5 -13v-12l5 -26l-3 -2l6 -7l-3 -11l-8 -8l8 -5v-5l-5 -9l4 -7l-4 -28l5 -18v-46l-3 -5v-39l5 -9l-5 -2l5 -4v-8l-5 -4l4 -17l-4 -6l3 -3v-15l-3 -8v-20l3 -5v-25l-3 -7v-9l-4 -25l2 -32l5 -9 v-9l-7 -8v-15l2 -3l-2 -12l2 -18l7 -26l-5 -31v-16h-4l2 -7v-35l-4 -9v-32l2 -4v-30l-5 -16l-8 -11h-10z" />
<glyph unicode="}" horiz-adv-x="366" d="M87 -86h-16l-7 4l-2 6l-5 -1l-4 6v7l7 7h4l11 11h17l3 3l31 5l17 6l18 21l7 4v8l6 5l-6 6v19l6 14l-5 8l5 43l-5 13l7 11l-7 13l7 10l-7 14l6 30v19l-2 2l2 6l-3 13l6 37l10 5v9l5 9l-2 1v9l7 10l5 2v8l9 12v29l-7 21h-2l-7 13v5l-14 18v10l-7 14v9l-5 6v16l3 9l-3 17v16 l4 4l-6 5l2 23v37l3 27l-6 21l3 17l-3 30l-6 25l-5 2l-9 10l-7 4l-9 14l-21 4h-18l-9 3h-14l-21 10v15l9 9l17 2l4 3h23v-3l22 4l29 -8l12 -7l4 -9l16 -16h5l16 -21l6 -4l5 -14l7 -39l-2 -33l3 -7l-3 -20l-5 -5l2 -4v-12l4 -6l-6 -9l5 -11v-39l-3 -2l3 -4v-30l5 -5l1 -40 l16 -27h3l2 -5l4 -3l4 -13l27 -16l3 -7l6 -2l11 -21l-13 -9v-7h-20l-26 -32l-4 -14l-10 -6v-5l5 -3l-2 -6l-10 -8l6 -11l-6 -11v-14l7 -4v-5l-7 -6v-4l4 -2l-1 -18l-3 -7l3 -14v-18l-3 -10l4 -16v-9l3 -4v-6h-7v-2l7 -3v-57l-3 -2v-16l-4 -11l3 -7l-10 -10v-5l-9 -4l-2 -7 l-5 -4l-4 -8l-17 -16l-11 -4l-5 -10l-4 3l-11 -11l-17 -5h-16l-7 3l-7 -3z" />
<glyph unicode="~" horiz-adv-x="379" d="M238 305l-2 -3h-15l-3 6h-8l-3 3l-6 -3l-23 6l-19 8l-7 7l-9 -6l-12 6l-68 -2l-10 5l-5 7v11l12 12v5l14 11h22l17 4h30l18 -6l4 -5l24 -2l44 -14l7 -7h46l21 5l9 -3l4 -7v-6h-4v-5l4 -4l-4 -8l-7 -2l-3 -8l-31 -11h-17z" />
<glyph unicode="&#xa2;" horiz-adv-x="483" d="M220 25l2 2l-2 8l-3 1l-4 20l-26 14l-5 -4l-17 3l-4 4l-4 -7l-1 3h-12l-9 9l-22 15l-12 15l-8 4l-23 26l-14 29v18l2 4l-2 9v51l5 5h-3l-2 3l4 3l-6 3l4 3l-2 13h-2l2 35l-5 3l7 11l3 11l14 14l16 5l15 -12v-22l8 -3l2 -16l-2 -14l4 -7l-2 -36l5 -10l-7 -17v-11l5 -10 l-3 -14l5 -9l11 -2l-2 -14h6l8 -11l-8 -7h21l8 -14l4 5l9 4l14 -7h15l12 -4l3 11l5 5l2 -12h12l6 -3l17 6h12l6 -3l5 5h4l6 5h9l2 -3l-5 -2l3 -5l6 4l25 6l3 6h9v8l12 7v11h5v-6l2 1l4 12l9 8l-7 23l3 4l2 32l5 7l2 14l12 7h21l11 -7l9 -17l2 -20l6 -11l-7 -10l4 -7l-4 -15 l4 -3l2 -12l-5 -21l-13 -14l-7 -4v-8l-16 -13l-3 -9l-9 -12h-10l-9 -17l-21 -8l-17 5l-3 -6h-16l-7 -6h-20l-5 -12l-7 -2l-6 -16h-8l3 -11l-15 -10l-4 4l-2 -7l-3 3h-6zM91 386h-12l-14 6l-7 9l-9 21l3 5v85l-4 32l8 10v9l6 15l13 6l9 14l8 4l4 8l6 4l8 10l11 4l9 9h12l6 3 l21 4h23l9 5l3 -3l3 3h4l3 6l6 3v7l6 15l5 6h26l11 -12l3 -7l5 -5v-3l13 -10l8 -3l4 3l14 -5h18l18 -7l15 -2l9 2l4 -5v-6l20 -26l6 2l14 -11l16 -25l9 -35l-3 -5l-2 -15l4 -16l-8 -8l-8 -16l-13 -2l-15 -5l-14 9l-6 12l-4 23l-4 7l6 11v7l-26 13l-4 8l-7 2l-9 9l-14 3 l-28 -2l-3 -7h-8l-2 7l-14 6l-16 -4l-5 4l-4 -9h-3v3h-17l-8 5l-8 -8h-4l-2 8l-8 -5l-22 -10l-3 9l-14 -6h-6l-3 -3l7 -6v-5l5 -4l-7 -4l-5 8h-7v-3l4 -4l-4 -5v-7h-5l-4 -6h-4l-3 -9l9 -7l-4 -8v-9l3 -6l-7 -6l6 -11v-25l-5 -5v-18l-8 -19l-14 -8v-6h-3zM280 568v-2h2v2h-2 z" />
<glyph unicode="&#xa3;" horiz-adv-x="563" d="M210 619v-12l8 9l-2 -11l-8 -3l4 -4l-2 -5h-10l-10 -10l4 -11l-3 -1l7 -12l-2 -2l-6 8l-4 -5l7 -4l-8 -8l11 -27l-2 -3h-5l-5 -23l13 -4l-7 -8l4 -15l-7 -14l4 -4v-13h16l6 -6l6 3l8 -5l-3 -4v-14h-11l-7 21l-8 -3l-7 3l-5 -8l6 -15l10 -6l-6 -5v-10l2 -2l9 4l14 -4 l-6 -3l9 -4v-2l-8 -4l3 -4l7 -1l3 -4l7 5l-5 4l5 8l6 -2h9l7 -7l8 -4l18 1l5 -5l11 7l9 -6l3 3l13 -3l5 -5l7 4l7 -4l18 9l14 -11l12 -2l9 -9v-25l-14 -10h-16l-26 -4l-2 -3h-16l-3 3h-9l-6 -8h-5l-3 3l-2 -3h-7l-9 -4l-3 -4l-4 4l5 7h-37l-3 -3l5 -7l-12 -2l-14 7h-4l4 -16 h-4l-6 5v11h-6l-3 -6l-17 -9v-5l9 -10l-3 -12l5 -7l3 -11l-3 -5l3 -2h8l4 9h6v-7h-5l-1 -2l5 -12l-15 -2l-3 -10l3 -6h10l5 -3l-15 -8l2 -5v-13l9 -4l-1 -9h8l-6 -14l6 -6l-8 -3l2 -6l-3 -4l3 -10l-5 -5v-10l7 -4h9l5 5v-12l-9 -3v-9h10l11 8l6 -4l3 6l1 -10h12l5 5h3l1 7 l10 3v9h11v-5l-12 -6l8 -5v-10h18l5 -5l12 8l-3 7h7v-10l8 3l4 7l9 -5h6l28 -9l5 4l25 -2l5 4h16l2 3l7 2l10 10v13l3 7l-3 10l1 11l-3 8l9 17l17 18l21 -8l9 -18l3 -17l4 -5l-1 -21l3 -6l-3 -16v-31l2 -10l-5 -10v-11l-16 -12h-10l-4 -5l-13 3l-31 -5l-2 2l-7 -4h-35l-4 -8 l-5 3l2 2l-9 7l-11 -13l-7 4h-7l-2 2l-5 -2l-4 2l-20 -5l-6 5h-4l-11 -10l-11 8l-11 -3h-21l-5 -2l-9 2l-1 3h-10l-12 -4l-5 4l-66 -4l-5 4l-19 -6l-27 8h-14l-21 11l-6 26l6 9h4l5 14l26 7l4 -2l16 11l-4 7l3 3h4v9l-4 8l7 7l-5 6v11l-8 7l3 2h7v21h-10l10 17l-9 23l5 4h4 v18l7 13l-6 11l4 7l-5 10l5 8l-5 -2l-6 15l-4 3h15l5 3v-8l10 -8l8 8v3h-3l-6 6v9l-12 3l-5 -7l-4 -2l-3 5l-20 4l-3 3l-17 2l-22 17v20l24 16l7 -8l8 15v4h5v8h7v-5h6v20l6 6l-6 1l6 5l-7 4v13l11 8v17l4 11l-8 3v7l-6 2l6 4l2 12v18l2 6l-2 14l2 12l-6 23l4 3v7l5 12 l-3 27l14 16l5 14l30 30l15 11l5 9l7 4h25l9 3l37 -4l10 -11l11 -15l-11 -11l3 -4l-9 -9h-6v2l-14 -10v-4l-20 -2l-7 -7h-9zM425 469l-7 11l-10 3v14l-2 2v34l-2 5v16l-3 9v12l3 3l-3 11l-6 4l-23 33h-18l-6 11h-4l-7 -6h-7l-10 9l-3 6l-8 4v3l-6 7l4 15l9 7l6 9l28 4l7 -4 l26 2l25 -14l28 -27l2 -10l13 -6l8 -13v-8l7 -10l3 -18l-3 -12v-12l-2 -2v-16l5 -5l-3 -9l-4 -3l6 -6l-5 -8l4 -11l-4 -22l-19 -12h-19zM246 118l5 5l-13 13l8 3l5 -5l5 4l2 -4h5l-5 -7l2 -2v-5l-11 -4zM210 176v2l-3 2v5l9 2l6 -5l-3 -9l-4 -2zM232 151l-6 6l-5 2v9l5 -4 h10l2 -6zM307 86h-6l-4 9h8l6 -9v-8zM237 402v7l3 2l9 -7v-2h-12zM215 268l4 10l7 -5l-2 -5l-5 -2zM240 522l5 11l4 -11h-9zM240 106v7l2 3l3 -8zM237 288l9 -2l-6 -8zM221 132v4h5l2 -9zM215 536h11l-2 -5h-3zM145 296v-8l5 5v3h-5zM238 170l7 3v-6zM233 386v6l4 -2v-4h-4z M175 273v-7l2 4zM218 616l1 3h2z" />
<glyph unicode="&#xa5;" horiz-adv-x="582" d="M253 3l-18 4v9l-11 18l4 3h-7v5l9 4l-2 26l-7 3l4 3l-11 4l7 12l-3 6l-20 2l-6 -6l-8 9l-5 1l-11 8l-16 -11l-5 11l-9 -5l-21 5l-6 -4l-5 6l-14 4h-16l-10 10l-9 3v19l16 8l6 6l4 -4v-5l11 10h25v10l17 3l1 -2l-9 -9h9l3 7l7 -5h20l3 9l5 5h9v-5h3l5 6l-10 13v7h15l3 -9 l10 10l-26 4v6l11 3l-10 13l3 7h-22l-5 -2l-11 11l-13 3l-6 -4l4 -8h-8l-4 15l-18 -6l-8 3l-9 -4l4 6l-5 -2l-4 2l-5 12h-7l-5 -5l-5 13l3 5v12h9l12 12l9 -3l12 3h11v-3h5l9 5h26l-3 3v9h23l-5 12v9h3l9 9h4v4h-9v5h12l7 7l-5 14l12 2l7 5l-10 6l-4 8v9l-6 6l-10 -4l-5 4 l5 3l-3 3v4l5 5l-9 9v6l-8 5l10 9l-16 7l-12 24l-7 6v7l-2 2l-7 -3l-6 27l-10 6v8l-6 17l-8 8l-11 23l-7 7v5l-12 21l-7 6v4l-5 6l-13 29l8 20l6 4h6l5 4h24l6 -9h4l8 -4l4 -10l13 -8l20 -27l12 -26l13 -9v-11l11 -10l3 -12l7 -3l2 -5h5l4 -4l-2 -3l2 -8l9 -4l-4 -4l18 -11 v-5l-4 -2v-8l9 -4l-5 -9l15 -2l4 -5v-9l7 -3v-9l4 -9l7 -4h5l3 9h13v9h-7l-6 6l12 3l-3 7l-9 8l12 9l8 -3l-6 -8l5 -5l-6 -10l2 -3l17 -2v6l-9 4l6 6l10 3l4 4h7v7l14 12v2h-2v6l7 3v5l2 2l2 -5l3 4l-7 8v3h6l8 -5l5 5l-4 7l12 20l18 18h3l5 12l22 35l5 2l4 11h5l3 9l27 20 l7 -3l10 3l11 -3l5 -5l3 -20l-12 -12v-11l-8 -8v-6l-9 -10l-4 -9l-3 -2v-5l-2 -2v-7h-9v-10l-7 -13h-7l3 -8l-10 -10v-5l-4 -3l4 -4l-9 -7h-9l7 -15l-14 -6l-2 -4h-3v-3l4 -4l-4 -10l-3 5v-9l-10 -6l-8 -17l-9 -10l3 -2l-7 -7l-5 -11l-6 -3l-8 -13v-12l-6 -8l15 -8l-3 -10 l4 -10l-3 -3l-2 4l-7 -6l-3 3l-5 -8l10 -7h7l2 9l11 -7l-4 -9h-5l7 -6l2 4h10l-4 11l2 5l-7 3l11 10l5 -18h7l2 -2l-6 -12l-12 -4l4 -2l14 3v-9l-5 -4v-6h21l4 3l4 -3l-3 -5l22 -5l10 6l4 -8l18 -7h9l6 -10v-21l-11 -6l-7 -7h-17l-9 -9l-13 4v5h-8l-7 -16l-8 -2l-7 -8l-5 3 l-3 -3l4 -5l-4 -4h-4l4 -11l-4 -2h-17l4 -12l17 2l5 10h10l5 -6l-8 -11h-7v-6l-5 -3l8 -4h13v9l-4 2v2l5 3l7 -9v-7l9 -7l4 5h14l12 -5l2 -3h7l9 -9l4 -9l-2 -17l-11 -11l-12 -5l-2 5l-7 -5h-17l-19 -5l-10 6l-19 -7h-12l-8 4l-3 -8h7l3 -6l-10 -2l-9 2l-9 10h-7l-4 3 l-14 -9l11 -6l-9 -12l-7 -13l-5 -22l-5 -4v-16h-4l-2 -9l-9 -8l-30 -6zM207 342l7 -9h4l3 7l-10 6l5 8l-4 5l-5 -5h-7l7 3v3l-11 -3v-10l-3 -5l5 -4zM149 210v16l8 3l6 -4l3 2h10l-4 -11l-10 4l-8 -7l3 -6zM352 183v-8l9 3h8v7l-10 3zM196 174l2 -3l2 5l7 7v4l-5 5h-4z M395 353l-5 15h5l5 -9h3v-10zM366 389v9l6 2l6 -5v-6h-12zM369 215l4 -5h7l5 3l-13 6zM166 374v9h9v-9h-9zM167 363h8v-7h-12zM405 239l-11 -10h9l5 5zM336 204v-12h5l2 3l-4 9h-3zM167 207l5 6l3 -7l-3 -2l-2 -7zM152 329v6h3l6 -11h-4zM329 354h10l-8 6v8h-2v-14zM420 195 l-3 2h6l3 -8l-6 -2v8zM193 317l3 -3l4 3l7 1v4zM137 238l9 4l3 -4l-8 -2zM336 342v-4l10 1l-3 3h-7zM350 330v-4h7v4h-7zM370 374h8v-5zM364 321l-5 -4h7zM343 368l3 -5l2 2l-2 3h-3zM339 213l2 -3l2 3l-4 2v-2zM355 308v-3l4 3h-4zM387 178l3 -4v4h-3zM271 446l-2 -3h2v3z M387 225l-2 -3h2v3zM177 314l-2 -2h2v2zM352 365l-2 -2h2v2zM184 318v-1h3z" />
<glyph unicode="&#xa9;" horiz-adv-x="634" d="M274 147h-9l-20 7l-10 7l-7 -3l6 10l-13 9l-13 3l-5 22l-12 4v20l-7 2l4 20l-4 8v9l3 3v6l-3 3v16l-9 9l2 5l10 2v9l-6 5l12 6l-6 12l-5 5v21l-3 2l5 4l3 19l1 35h-4v18l3 5l-5 15l11 5v6l15 20l6 12l7 6l-3 5v12l16 -4l13 13h4l5 -5l4 7v5l2 2l7 -5l8 -2l22 -14v-23h-7 l-2 7l-4 -12l-7 -7l-10 3l-4 -7v-6l-7 -3l-7 6l-3 -11l5 -8l-11 -7l-5 -12l-3 -39l10 -24l-7 -5h-7l8 -16l-4 -8l3 -10l5 -5l-6 -12h-4v-4l3 -2l-4 -8l6 -6l-6 -23h6l-5 -18l12 -7v-3l-9 -10l7 -27h5l2 -11l20 -10l10 -9h20l6 -29l-13 -13l-15 -4zM549 380l-8 3l-6 9l-6 3 l8 8l4 15l-6 4l-3 11l3 5v30l-3 19v21l-4 4l3 29l-3 6h4l-1 21l-30 29l-5 10l-3 2l-5 12h-13l-14 13l-19 -2v3l-14 5l-7 -6l-11 5l-4 -2l-3 2h-23l-21 7l-8 -4l-12 13v12l5 10l8 5l16 3l11 -3l8 5h25l8 -2l9 2h30l13 -6h12l9 -9v-8l7 4l26 -31l14 -12l1 -4h5l7 -8v-11l9 -2 l17 -19l3 -29l-9 -21l6 -14l-3 -9h-3l9 -19l-6 -23l3 -5l-4 -7l4 -6l-9 -15l6 -2v-21l-6 -11v-11l-3 -5v-5l-8 -3zM213 1l-19 6l-7 -3l-15 2l-20 7l-21 15v9l-16 11v3l-21 13l-5 10l-18 13l-16 33l4 16l-4 9v21l-2 11l-5 13l7 10v12l-5 9l3 7l2 65l2 15l5 12l13 16l5 -7 l12 -2v-9l-6 -10l11 -10v-10h4l-3 -11v-12l-4 -7l7 -7v-12l-3 -7l4 -17l-9 -14l8 -10l-3 -7l-1 -11l3 -4l-3 -15l2 -10l-2 -15h6l7 -16l7 -7h5l-4 -7l9 -9l13 -3v-13l9 -5l17 -5l9 -14l9 -6h4l3 4l7 3l16 -3l4 -3h19l5 -4l6 4l23 4l21 -13l3 -4l-3 -3l3 -6v-11l-7 -3l-11 2 l-5 -5l-14 -2l-5 2zM429 1l-12 5h-14l-12 3l-6 -3l-19 -2l-7 10h-8l-13 9l3 12h7l4 4l15 7l15 -3l3 5l6 2l29 -2l15 -5l5 2h13l4 10l6 2l9 12l9 2l4 -4l4 4l2 7l7 7l16 28h5l16 16l2 9l-5 5v9l3 5v9l-5 8l2 8v46l9 3l-11 14l2 9h3l2 4l-3 9l6 5l-3 2l-4 13l7 15l4 21h7l8 7 l3 -2l5 -10l5 -5l4 -15l3 -22l-8 -5l8 -3l-5 -17l2 -9l3 -3v-43l-6 -13l3 -10l3 -3v-18l-5 -8l5 -8v-10h-3v-20l-11 -12l-9 -19l-7 -4h-8l-4 -5l-5 -2l-1 -7h-5v-7l-10 -11h-9v-7l-11 -9l-11 -3l-5 -11h-5l-3 -3l-16 -4l-10 5zM66 369v7l-11 12l-2 11l4 4v12l-4 30l2 25l2 3 l-2 7v60l-2 13l6 15v15l9 9l13 21h7l18 21l9 14l7 4l22 23l22 7l34 3h77l18 -12l5 -10l-3 -6h2v-3l-13 -3v-9l-7 -8h-7l-3 3h-30l-4 -3h-14l-4 5l-21 -2l-8 -3l4 -8l-15 7l-10 -3l-6 -5l-14 -4v-5l-23 -21l-14 -9l-9 -9h-4l5 -9l-9 -32l5 -4l-4 -1l3 -10l-3 -11v-12l4 -5v-6 h-4v-5l-2 -2l3 -10l-6 -11l3 -14l7 -12l-2 -6l-5 -5v-7l8 -3l-6 -18l-5 -5l-3 -8l-13 -10h4v-6zM409 414l-3 8l-7 10v20l-9 16v7l-10 3l-13 11h-6l-6 7l-14 6l-10 10l-2 7l-5 6l6 6l11 4l2 3h12l9 4h5v5h7l4 -3l12 -3l11 -15h5l18 -18h14v-8l7 -13v-9l-3 -7l3 -17l4 -4 l-1 -10l-3 -2l4 -4l-7 -13l3 -11l-14 -2h-13zM373 140l-2 7l-14 2l-22 12l4 24l11 3l4 -2l17 17h7l2 6l10 9l1 8l9 2l6 43l-3 6h9v11l17 3l4 -3l9 -14v-9l5 -14l-2 -9l-3 -3h8l-5 -9v-23l-9 -6l-5 -8l-9 -5l-7 -15l-9 -3l-3 3l-2 -12l-11 -12h-10v-13zM385 157v-3h2v3h-2z M226 526l-3 -3h3v3z" />
<glyph unicode="&#xab;" horiz-adv-x="318" d="M111 248h-11l-5 4l2 2l-2 3h-4l-15 15l-11 15l-3 1l-1 5l-12 12v4l-22 19l-13 37l3 17l8 5l5 14l10 8l1 7l29 32l1 7l12 16l26 14l12 2l13 -2l9 -15v-13l-4 -5h-3l-5 -6l-1 -16l-8 -10l-5 -11l-18 -9l-8 -17l-10 -12l2 -25l20 -14h3v-11l10 -13l11 -6l4 -9v-5l10 -9v-27 h-7l-11 -7h-10zM231 261l-5 2l-16 12l-16 18v8l-12 7l-11 18l-7 6l-6 12h-5l-2 9l-8 9v3l-8 5l6 7l6 -4l10 15l3 9l9 9l3 12l10 2l5 10l5 4l2 5l9 1v10l24 18l4 8l7 2l8 8l13 -4h11l3 -9v-13l-12 -17l-2 -12h-7v-13l-12 -12l-3 -7l-11 -3v-10l-9 -15l-4 -2l4 -11l11 -11 l3 -17l9 -6l28 -37l5 -19l1 -13l-24 -7z" />
<glyph unicode="&#xad;" horiz-adv-x="248" d="M116 328l-4 -8l-12 5h-44l-5 3h-20l-13 9l-4 6v16l17 12h25l6 -2l8 4h43l5 -2l10 3l7 -4l16 6h13l10 -4l11 4h21l14 -7l8 -16l-8 -16v-4l-18 -12l-16 7l-5 -5h-9l-9 -3l-12 4l-8 -4h-13z" />
<glyph unicode="&#xae;" horiz-adv-x="572" d="M359 136l-13 10l-9 -5l-21 5l-11 11v7l-3 7l7 3v3l7 8l11 2l12 -2l2 4l7 5v13h5v-9l9 -7h14l2 -2l20 6l11 11l7 -3v4l4 5v12h9l11 7l3 7h5l-3 7l-5 4l3 2h16v5l-2 2l4 17l7 -4l-4 -8v-5l9 4l-3 10l5 5l-5 21h-4v8l7 3l-3 7l-4 -2v6l7 8v4l-8 8l11 8l-4 8h-8l-8 -8l5 -7 h-9v-11l-7 2l10 18v10l-6 10l3 4l5 -9l10 -6l9 9l-7 3l-3 -4l-4 12l-11 3l-6 -6l-5 -14l-4 -2l4 -10l-10 9l-3 -3l2 -3v-7l-11 -6l5 15l-3 5l-12 -4l-2 -6l2 -1v-10l-11 9l-2 21l-7 -4h-12v-5h10l4 -14l5 -2l3 -6l-6 -6h7v-4l-11 -12l-8 -2l6 -7l2 -7l15 -3l-4 -4l-2 -7h-11 v-14l2 -2l2 5h5v-7l-7 -6l-5 6l-10 -10l7 -8l-4 -9l-7 6l-3 6l-6 -8l-7 6v10h-5l-2 -7h-5l-4 4l2 5l-7 5l3 2h-8v7l-8 -3l-3 3l2 11l-2 5h-5v7l-4 7h2v4h-7l-9 -11l-5 5h-9v4l9 3v6l5 8v8l-12 3v12l3 1l-4 8h-13v-9l-9 -5v-14l8 -7l-6 -3v-6l6 -11l-6 -4l-4 -28l-13 -6l-7 3 l-20 -5l-10 7h-8v16h-12v4l14 19h-6v7h-6l6 12v13l-8 8v4l5 -3h5l-2 15l-5 6l-4 -2l3 7h8l2 23h-6l-3 10h-7l-2 4l-5 -11l-10 8v3h8l2 3h11l3 -3l2 9l6 7l-3 11l-5 6h7v20l-8 10l8 4l8 10l-16 11l3 10l7 1l2 14l-4 17l4 4l-4 4l-2 10l-3 2v5h11l4 13l9 -4l21 5l9 -7l19 -6 l11 11l4 -3l-9 -6v-10h7l2 4l5 3v16l-3 2l-4 9h4l12 -6l3 -5l13 2l2 9h3v-2l9 -4v-3h12l6 3h12l-3 18h7l4 -6h6l4 -17l-6 5l-3 -3v-6l5 -5h7l4 5l9 2l-16 20l21 -7l-4 -6l4 2l3 -7l17 7l5 25l5 -9v-12l13 13l-6 14l-21 3l-3 11l-5 -4l5 -5l-7 -7l8 -8h-11v11l2 2v7l-14 14 h-14l-11 -3l-10 4l-17 -6l-11 10h-13v7h4l3 -3l3 4l-6 6v12l18 11h33l14 -3l4 3l6 -3h24l6 3l21 -12l3 -9l12 -5l3 -9h9l11 -8l4 -9l14 -9l19 -23v-9l3 -7l6 3l3 -7l2 -28l3 -6l-3 -8l3 -4l-3 -3l-2 -9h9v-6l-3 -5l3 -4v-24l-5 -8l2 -6l-2 -3l4 -5l-3 -8v-11l-11 -19l-19 -2 l-7 -15l-7 4v14l-7 11h-3v-5h-2l-8 13l-5 -14l4 -6h-5l-4 -9h-7l-7 6l-6 -15l3 -3l-2 -2v-5h-3l-5 10l-5 -4l8 -8h-13v16l2 7l-4 -4h-6l-2 -7l4 -9l-4 -3l-3 -7l-8 -2l-6 -6l8 -6v-5l5 -4l4 9h2v3h-6v4l5 6l15 -7l7 8l17 5l2 4h9l6 7l-6 3v4l5 3l6 12l3 -3v-9l6 -7l-6 -3 l-12 -14l5 -2l-5 -7l13 -7l9 13l-5 6l3 6h19l10 9l3 -2l-5 -11l-5 -2h12l6 -7v-14l8 -3l6 -9l-5 -4v-23l-2 -9l6 -7l-4 -3v-11l-4 -6l5 -23l-7 -15v-16l-16 -17l-8 -2l-4 -7l-5 -2l-9 -14l-7 -4l-5 -8l-1 -9h-4l-10 -6l-12 -15l-30 -15h-12l-5 2l-11 -8l-12 4zM57 440l-4 12 l2 28v23l-7 11l3 7v29l2 4v11l-3 6l12 27l9 14h4l8 7l2 8l16 8v5l7 9l9 6l13 17l11 2l11 6l9 -5l4 10h6l6 3h9l5 3l29 2l7 -6l21 4l19 -21v-5l-11 -14h-2l-3 -5h-5l-4 -4l-9 2h-26l-8 -9l-4 9h-10v-4h-11l-18 -12h-6l-3 -5l-9 -7l-13 -5l9 -9l-12 -1l-5 -10l-6 -2l-3 6 l-3 -2v-16h8v-2l-8 -3l-12 -10l7 -15l-5 -9v-12l-6 -20h10v-10l-7 -2v-12l4 -4h-6v-2l8 -4l-3 -3l2 -7l-10 -10v-9l-22 -11zM181 147l-26 3l-5 7l-7 3l-9 14l-15 4l-5 12l-14 7l-4 6l-6 4l-13 20l-12 5l-12 24v7l4 3l-6 2l-3 13l3 37l-3 8l5 4v37l-4 3l8 9l5 11v5l19 -3 l9 -6l4 -14l2 -26l3 -7v-16l-3 -5v-13h-4v-5h4v-12l4 -6l-7 -6l3 -4l9 -4l3 -7l5 -5l-2 -7l11 -2l4 -5v-6l9 -15l15 -6l5 -9l13 -8l7 -7h11l11 -4l9 5l7 -6l13 3h14l-3 -4h9l12 -12l5 3l4 -10l-4 -9h-3l-5 -10l-15 -1l-4 -3l-4 3l-8 -3h-35zM270 469h14l4 4l14 6v-3l-5 -6 h14l4 12l17 -2l5 2l-2 3l4 9l-19 -9l-4 5l-7 2l17 7l1 -3l5 3v10l-14 3l-4 3h-9l2 -15l2 -1l-2 -3v-11h-7l2 14l-8 2l8 19l-3 9h-9v-5h-2l-2 9l-15 -2l-6 13l-5 -3v-17l-7 -8l6 -26l11 -14v-7zM440 524l3 -3l5 8v6h9l9 6l3 6l4 -2l3 6l-7 3l-3 7l6 11h-3l-11 -8l-3 28 l-11 -5l-8 14l-7 -4v-19l11 -3l4 -4l-6 -6h-13v7h-4l6 11l-7 10h-2v-7l-5 -2l-15 -14l-3 7l-15 -2l6 -7v-5h22l4 10l9 -9l-3 -3l2 -2h7l2 -5l5 2l5 -3l-5 -8l4 -3v-9l-16 -2v-2h7v-5h11zM452 455l7 -5l7 2v12l-2 5l6 1l5 5l-9 3v2l7 5v5l-8 8l10 10l-6 7l4 5v9l-4 2l-8 -3 v-9l-16 -11l-7 7l-2 -4l2 -5l-7 -7v4l-13 14h-9l5 -8l6 -3l2 -7l12 -5h8l6 12h11v-7l-4 -5l4 -14l-2 -7l2 -3l-7 -9v-6zM281 365l5 -9l5 13h11v-7l9 3v17l-8 4l-6 -3l-9 3l-2 -3l4 -3v-9h-6l-5 5h-9v-9h11v-2zM272 482l-2 3l-3 6l10 8h11l5 -5v-9l-5 -5h-4l-5 -4h-4z M390 247l7 7l12 20l10 -5l-6 -6l-9 -2l4 -14l-8 -8zM418 452v-2h9v10h11l-2 9l7 7v6h-5v-8l-9 -4v-9l-9 -1l2 -3zM257 511l5 8l21 6l-4 -4l-3 -10l-10 -3zM297 446l3 -3l2 3v11l-12 3l-2 4h-2l-2 -4l6 -10zM378 388l2 -8l6 6l-3 4l3 16l-8 -3l-2 -11zM431 269l9 9l6 -11 l-3 -6h-5l2 5l-9 -5v8zM413 326l7 2l5 4h4v-4h9l2 -2l-13 -6zM418 425h13v9l-4 5h-5v-5h-2zM168 485l9 2l3 7l5 2l2 -9l-12 -5h-10zM450 279l-2 11l-3 3l3 3h4v-8l9 -9h-11zM350 376v-14h8l-2 14h-6zM320 461l7 -4l4 3l-4 9l-9 -3zM416 309h5l10 -7v-2h-13zM323 261v2l-7 -4 v9l11 -2l3 -5l-4 -5zM434 439l2 -3l7 4v8h-9v-9zM406 443v-3h10v8h-12v-5h2zM367 612v7l3 -4l10 6v-9h-13zM270 450h7v10h-7v-10zM367 365h4l-2 6l5 9l-7 3v-18zM444 308l4 5l7 -11l-3 -2zM323 611l8 -4l-4 -14zM413 289v7h5l6 -10zM258 547h9v7h-9v-7zM419 486l8 -4h4l-3 8 h-6zM249 376l9 -5h5v3h-3l-4 5zM397 311l4 5l5 -2v-5h-9v2zM374 631v6h6v-9zM263 584v9h4l-1 -12zM267 399l-1 -2h4l5 4l-5 3zM374 346l2 -2l6 3l-5 5zM399 605l2 2l5 -2l-2 -4h-5v4zM293 344l4 -4l3 4l-7 4v-4zM388 397v-5h7l-3 5h-4zM443 551h5v-4l-5 -2v6zM215 593h4v-4 h-7zM448 482v-6l7 4zM413 545v-3l3 5h-8l-2 -2h7zM420 541v-6l5 3zM401 551l-2 -4h5v3zM263 476v-3h3v3h-3zM406 541l-2 -3h4v3h-2zM397 249v-2l7 4zM448 431v-4l4 4h-4zM440 605l3 -3h2l-2 3h-3zM346 386v-3h2v3h-2zM425 478l-3 -2h5zM263 469l-3 -3h3v3zM404 470v-4l2 3z M337 503v-3h2zM401 526v-2h3zM517 541l2 -3v3h-2zM450 494l-2 -3h2v3zM390 422l2 -2v2h-2zM266 526l1 3l-1 -5v2z" />
<glyph unicode="&#xb0;" horiz-adv-x="318" d="M106 500l-7 -3l-11 11l-12 8v7l-17 12l-8 25l4 7l-3 10v11l-4 6l6 8l-3 9l3 23l7 7v12l11 7l16 15h5l3 7l6 3h33l11 -17l-6 -12l-10 -5l-7 -8l-9 -4l-8 -7l-1 -5h-11l-3 -9h11l-9 -9v-18l3 -10l1 -30l14 -7l12 -11l7 -2l2 -5l11 -5l-7 -20l-16 -2l-4 -5zM193 495l-4 15 l4 18l29 16l6 26l7 2l-4 5l3 8l-4 6l3 6v16l-5 3l-4 14l-5 6v3l-15 6l-4 10h-7l-4 7v9l5 7l10 3l23 1l9 -4l13 -12l8 -11v-3l9 -4v-9l5 -6l-4 -3v-5l5 -4v-33l-5 -6l5 -8v-21l-6 -6v-9l-5 -5l-5 -11l-29 -23l-17 -3l-5 -6z" />
<glyph unicode="&#xbb;" horiz-adv-x="318" d="M14 254v7l3 5l4 16l5 6l3 9l11 5l18 28l8 4l8 24v9h-3l-4 7v18l-2 3l-6 -4l-10 16l-14 13l-7 14l-7 7v14h-4l-3 14l9 9h12v-7h5v9l34 -27l7 -14l7 -8l21 -11v-4l-4 -4l15 -9l10 -20l1 -6h15l-3 -8v-9l-6 -3l-6 -13h-4l-2 -12l-4 -2l-5 -12l-7 -6l-8 -12l-15 -7l-3 -14 l-12 -11v-5l-13 -11l-14 -7h-21zM162 252h-10l-1 6l-7 7l14 6l-3 7l7 18l9 4l16 13l7 22l5 4l2 5l10 9v26l-6 9h-7l-8 16l-12 12l-5 11l-18 19l-4 14v16h4l5 -5l2 9h10l24 -10v-6l18 -13l3 -12h4l14 -12l8 -14l16 -16l6 -14l5 -4v-28l-7 -7l-2 -5l-7 -4v-8l-16 -11l-3 -14 l-13 -11l-27 -34l-10 -5l-18 -3z" />
<glyph unicode="&#xd3;" d="M213 9l-5 2l-18 -4l-7 4l-27 6l-40 36l-7 4l-3 5l-1 8l-17 13l-2 4l-4 -2l-3 2v7l-9 10v7l-14 9v20l-6 4l4 19v28l-2 5v13l-3 3l6 5l-3 11v10l-4 5l4 8v23l2 7l-6 9l8 17l-2 16v14l-2 2l4 7v9l-4 21l6 23l-4 2v30l2 5v57l5 14l-3 7v18l-2 5l2 12v37l9 9l9 14v9l12 7 l13 18l9 3l6 11l14 15l5 1l4 8h2l8 12l8 3l3 6h11l12 4l6 -3l24 4l7 -4l8 11l3 -12h10l6 5l12 -13l5 2l3 8l7 -9l7 5l8 -8l-9 -5h-8l-5 -13l5 -4l15 9v8h7l6 7h-6v9h6l6 -4h4v5l8 5l8 -3l13 3l3 -7h7l5 4l8 -4l4 6l9 -9h6l5 4l3 -6l24 -5l3 -7l9 -9l5 -10l11 -4l12 -11l7 -3 v-9l7 -7h4l3 -11l9 -3l7 -11v-5l7 -7l4 -21l5 -4v-39l7 -12l-4 2l-4 -9l6 -17l-2 -18h6v-9h-5v-58l8 -4l-3 -11l5 -10h-5l-5 -12l-1 -23l6 -6l-12 -8l7 -15l-8 -13l4 -4h4v-5l-8 -8l4 -19l3 -3l-3 -4l4 3l3 -3l-4 -7l1 -10l4 -8l-6 -5l5 -20l-7 -8l-3 -19l7 -25l-6 -11v-9 l-3 -5v-7l3 -3l-3 -2l-1 -9l-10 -4v-5l3 -3l-8 -11h-2l-3 -5l-6 3l-14 -7v-5l2 -2l-7 -3v-11l-9 -5l-6 4l-5 -6v-7l-21 -21l-6 -9h-15l-7 -6h-7l-9 -5h-46l-9 5l-22 6l-5 15l3 4l5 28l10 4v5l24 -2l15 4h23l13 18l12 8v5l7 10h5l14 24h3l3 6v8l3 1l-5 10l5 5v11l-4 3l6 6v16 l-5 8l3 6l-8 10l8 10l2 22l-5 9l4 13l-4 3l5 14v37l-5 14l5 4l-2 3l2 23l-5 14l-6 4l1 5l8 -7v10l-8 4l7 6l-4 8v7l5 4v10l-3 10l3 6l-5 4v7l5 7l-5 5v9l5 2v7l-5 7l5 5v7l-3 5l-2 20l-7 15l3 7l-4 8l-8 -4v4l-7 5l-10 16l-6 2l-3 5l-6 4l-3 5l-6 3l-15 -3l-2 -6l-5 8l3 2 h-14l-3 -4l-6 -2v9h-9l-5 -3l-11 9l-5 11l-8 8l-6 -11l-2 12l-10 -3l-2 -9h-9l-11 -9l-3 -5h-26l-9 -4l9 -9l-4 -3h-8l-4 12h-4v-8l3 -9h-8l-9 9l-12 -9v-7h-6v-2l6 -4l-5 -5h-20l-5 -5l-5 -10l-5 -5l8 -8l-4 -26h-8l-4 -6l7 -12v-32l-5 -8l7 -15h-5l-4 -5l4 -18l5 -5 l-2 -19l-4 -4l8 -11h-7l-1 -26l3 -8l-8 -8v-14l2 -12l3 -4v-12l4 -9v-26l-9 -8l6 -12v-25l4 -4l-4 -6l-2 -23l2 -16l14 -7l-13 3l-2 -3l1 -25h12v-3l-7 -6l9 -19l10 -5l9 -9v-4l5 -2l6 -8l15 -7l1 -4l19 -8l20 4l5 -3h10l18 -22v-12l6 -12l-11 -20l-7 6l-1 -5l-20 -8z M205 788l-13 13l-5 12l3 8l9 10l12 3l5 4l34 8h14l21 9h15l8 6l22 4h17l4 5l19 2l7 3l15 2l6 -5h15l3 -9v-17l-6 -11l-24 -11h-9l-11 -5h-12l-14 -5l-3 -3l-18 -6h-16l-18 -12l3 9l-8 -4l-4 3l-8 -3l-4 -14l-9 10h-8l-4 -5l-16 2l-5 3l-14 -3zM257 711v11l4 -2l3 -7l4 -2 l-2 -5h-5zM234 713v4l11 -5l-6 -5zM276 655h6l-4 7h-2v-7zM141 565l3 2h4v-5h-4zM127 551v-4l5 2v2h-5zM255 32l2 -3h2z" />
<glyph unicode="&#xf3;" d="M190 7l-14 3l-7 4h-16l-17 18l-9 4l-13 20l-11 6l-21 26l-10 7l-14 24l-2 10l-6 12l5 10l-6 6l5 9v7l-3 5l8 20l-10 32l5 10v20l-6 6l7 12l-4 30l5 6l-2 6v24l4 9l-2 5l-6 2l4 9v19l-2 1v70l2 10l-5 -3v16l3 7v44l3 14l-3 9l6 27l5 5l10 20l13 10h5l11 24l12 9l24 26 l5 -5l14 15l9 6v-6h38l7 5l12 -5l13 3l2 13l5 -13h4l3 -3h4l6 -19l6 4v5l12 4l4 4h17l18 8h11l10 10l7 -6h9l10 3l8 -7l9 -3l15 -12h6l5 -9l15 -3l6 -12l19 -14l-3 -3l15 -24l10 -6l14 -20v-15l5 -4l6 -30l-2 -9l-6 -7l4 -10v-12l4 -4v-9l5 -5v-4l-9 -6l4 -3v-8l3 -2v-9 l-3 -5l-2 -11l5 -28l4 -2l-2 -15l5 -12l-5 -3v-3h3l-5 -22v-12l-4 -13l6 -6l-5 -11l3 -7v-14l-3 -5l3 -2v-21l-9 -28h9l2 -4l-2 -37l-3 -13l9 -10v-5l-7 -7l4 -21l-12 -20v-18h-10l-14 -17l-2 -9l-7 -3l-16 -15l-10 -19h-4l-14 -7l-3 -7h-15l-10 -10l-8 4l-6 -5h-52l-5 5 l-9 2l-9 9h-9l2 2h-9l4 5h7l-7 14v18l6 4l3 6h7l11 4l3 5h9l8 8l4 -7l14 4h9l12 8l18 23v3l-6 -6l-3 3v8h16l6 6v10h8v9h7l-3 17l4 11l-7 8l8 4v64l3 19l-5 8l2 5v19l5 8l-5 5v10l4 4l-1 35l-3 17l3 13l-3 12v27l-4 7l4 7v9l-2 2v14l-3 3l3 11v19l5 4v5l-3 2v24l-7 4h-5 l5 15l-11 3l-7 18h-16l-7 12l-10 5l-3 9h-16l-9 9h-5l-4 -7l-23 5l-7 5v4h-11l-7 4l-14 -4h-12v-9l3 -6l-7 3l-16 -1l-10 -5l-9 5l-9 -7l-12 -3l3 -7l-4 -2h-17l-3 -3l-10 3l-8 -16v-8l-13 -8l3 -4l-12 -9l1 -19h8v-6l-3 3l-5 -5v-11l-3 -11l3 -12l3 -3l-3 -14l-9 5l-6 -12 l6 3l4 -3l-6 -10l2 -5l5 -3l-2 -5l-5 -1v-15h10l-5 -6l-3 2l-2 -2v-12h7v-2l-5 -3l-4 -7l3 -4l4 -16l-7 -9v-7l5 -9l-7 -7l7 -14l-5 -12l5 -8l-8 -11l3 -7v-11l5 -21l4 -4v-24l4 -9l-4 -4v-7l4 -4v-10l5 -7l-2 -7l-7 -5l3 -6l-4 -15l5 -6h5l4 -4v-10l7 -12l13 -8l13 -15h8 l5 -8l8 -3h9l11 -6l7 3l4 -6l17 -8l12 5l9 -18l2 -12l6 -6l-5 -17l-10 -7l-5 -9h-9l-13 -4h-30zM201 775l-6 7h-14v21l16 16h9l14 7h16l19 9l32 2l24 13l52 11h27l12 -12v-17l-16 -9v-8l-17 -5l-9 4l-18 -13l-14 4l-13 -11l-15 -2l-2 -3l-7 -3l-2 3l-11 -4l-12 4l-2 -7 l-14 2l-20 -5l-3 -4h-26zM268 642l-7 -8l12 5v3h-5zM257 655l2 -3l9 6h-11v-3zM166 600l3 -2h2z" />
<glyph unicode="&#x104;" horiz-adv-x="500" d="M406 -191h-6l-33 11l-14 13l-4 15l-8 10l-2 28l2 3l-3 25l7 36l8 4l-2 9h10l9 16v4l13 4l-2 8l2 2v12l12 12l-12 11l-7 3v6l-5 5v7h8v11l-12 2l3 8v9l-8 7v5l5 1l-2 10l-5 5l-7 -3l-2 3l10 7l-15 13l3 3l4 12l-4 4h-3l-2 5l-11 -11l-5 6v7l4 2l5 -2l4 3l-4 4l3 6l-6 11 l4 10h-10l-8 -6v-8l-6 -4h-9l-5 -5l-2 -18l-7 7l2 2l-14 2l-8 14l-20 -9l-1 -5l-12 -4v-7l-2 -3v-7l-3 6v11l3 4h-7l-8 7l-15 -7l-8 6l3 6l-4 -3h-12l-5 3l-12 -8l-18 4v-3l5 -2l-7 -3h-10l-4 -9l-5 -5l8 -1v-3h-5l-3 -3l3 -2l3 -8l-9 5l-6 -4v-5l5 -4l-2 -9l-10 -9h16 l-4 -8h-7l-6 3l-4 -7v-9l-10 -12v-14l-8 -11l-4 -14l-9 -14l-14 -4l-8 -9l-4 4l-27 8v8l-5 11l5 8v13l15 48v12l8 23l2 18l7 10l-3 5v9l12 16l3 21v16l5 5l-7 10l18 9l-3 6l5 4l2 24l10 15l-3 12l8 9l-4 5l3 9l6 6l3 27l9 25l7 9l-4 5l6 7v20l5 8h4v16l3 4v5l7 14v21l7 7v11 l7 7v9l5 5v7l-3 6l12 12l7 28l11 9l3 -3l9 3l2 10l2 -5l7 -5h7l7 15l-2 4h-2v11l2 2v19l10 20l20 3l2 -3l25 -4l27 -29l4 -19h9v-19l7 -30h7l1 -2l-4 -5v-7l18 -9l-11 -5v-4l8 -8l-4 -10l5 -10v-10l5 -4l-3 -2v-21l7 -14l5 -2v-22l8 -4l-4 -10l5 4l3 -5h8l3 -7h5v-4h-7l-4 3 l-5 -5v-5l9 -25v-16l7 -10l-4 -7l4 -6l-3 -6l3 -6v-8l5 -1l4 -5h7v-3l-5 -4v-5h-5v-13l8 -8l-3 -9l12 -4l-5 -5v-14l9 -21v-26l8 -4l2 -7l4 5l8 -14h-8l-5 -10l10 -20v-6l-4 -8l8 -22l-3 -4l4 -16l8 -6l-2 -12l8 -6v-21h6v-7l-4 -8l9 -10l-7 -40l-14 -13v-8l-28 -22l-3 -8 l-15 -1l2 -8l-5 -7l5 -4h-5l-4 -10l-3 -27l22 -17l16 -4l7 -7h9l2 3h22l3 -12h11l4 -17l-10 -20l-32 -4l-9 -3h-26zM265 260l3 -9l2 7l11 3v4h-4l-2 3l-8 -4l-8 5l3 4l-8 8h-3l-3 4l-3 -6h-3v7l-4 4v3l-5 -5l5 -4l-3 -6l4 -8l3 4h9v-9l8 -5h6zM254 304v-7l15 21l-29 2l-4 5 h-9v-7l6 -7h14zM194 304v-6l11 15l9 4l3 8h4l3 3l-5 1l-4 5v5h-7l-4 3l6 7l-4 4l-11 -11l15 -10l5 -9l-9 -3l-5 3l-2 -9zM292 310l7 -7l8 8l-2 5l-5 2l-4 -4l-12 6v17h-3l-11 -14l11 -9zM270 369l2 -2v9l6 11l-11 11l-8 -9v-4l9 -12l-5 -4h7zM300 256h10l1 21l-2 3l-14 -9z M229 397l5 -8l6 3v14l-4 7h-7v-16zM208 295l6 -6l5 6l2 -2v5l-11 10l-3 -9h-8l4 -6zM275 299v-11h6v15l-10 5l-8 -10zM286 362v-7h7v14h-16v-7h9zM242 446v-6l8 8l-3 4h-7l-4 7h-3v-9zM167 134l-12 4h-3l6 9l2 -7h9l4 -6l-4 -8zM216 381l8 -4l5 10l-17 1zM212 278l7 -4h5v7 l-9 7zM241 356l4 3v4l-12 8l-4 -2zM185 265l4 -5h5l-5 13l-9 -5v-3h5zM219 433l10 -6l7 6v3h-7l-2 -3l-8 4v-4zM197 376v-18h2l2 9l6 2l-6 7h-4zM261 413v-12h7v7l2 2l-2 3h-7zM180 155h-7v6l14 -3v-7zM266 124l4 7h2v-5l4 -5l-4 -4zM215 445l2 -7l8 11l-4 3zM281 256l3 -2 h9v2h-2v4h-7zM250 338l6 -4v9h-6v-5zM141 147l2 3h5v-7h-5zM227 254l9 -5v7h-9v-2zM239 385l3 -6h5l4 3zM293 332l7 -7v7l-3 4zM242 424v-4h5l3 3l-3 4zM200 266l3 -3l3 2v7h-3zM254 445v-5h7v5h-7zM199 134l4 4l4 -7h-6zM233 332v-3h5v8zM247 468l7 -7h2l-5 7h-4zM280 113 v7l6 -7h-6zM261 343l2 -4h5v4h-7zM189 290l-2 -8l7 4zM383 359l2 -4l4 7h-4zM254 369l2 -2h3v4l-3 2zM240 350v-4h5v4h-5zM169 265l4 -2l3 2l-5 3zM210 422l2 -2l3 4h-5v-2zM302 242l-2 -3h5v3h-3zM236 304v-6l2 1v5h-2zM238 468l2 -2h2v4zM280 249v-2l6 2h-6zM178 314l2 -3 h2l-2 5zM311 247l8 -2v2h-8zM316 625l3 -3v3h-3zM261 424v-2l5 2h-5zM277 418v-3h3zM316 233l-2 -3h2v3zM176 288l-3 -2h3v2zM272 272l-2 -3h2v3zM284 177l-3 -2h3v2zM212 369l-2 -2h2v2zM197 329l-3 -1l5 1h-2z" />
<glyph unicode="&#x105;" horiz-adv-x="500" d="M387 -186l-11 11l-5 7l-13 7l-6 21v41l8 8l-6 12l5 4l-5 12l14 18l8 4v9l9 7l5 11l6 4v8l-3 4l6 5v17l-9 4v9l-5 8l5 15l-8 7v8l-6 6v7l-7 9v12l-8 2v7l3 -2l2 2l-2 7l-7 7v14l-5 7v12l-8 7l-17 4l5 11l-3 2l-20 -6l-10 -10l2 -11h-2l-4 9l-9 3l-8 -16l-16 16l-9 -3l3 -2 l-3 -9l-2 2l-25 9h-8l-6 -9l-7 -5h-3v3l-8 -3l-3 3v11l-9 -9h-3v12h3v4l-5 -2l-5 -9l-13 10l-5 -3v-5l-2 -2l2 -12h-7l-5 -5l-18 -4v-16l3 -7l-12 -3l-8 -20l-4 -16l-24 -69l-11 -12l-22 -5l-21 7v10l-6 10l6 15v11l4 9v7l3 5l2 21l4 4v21l3 7l2 21l3 4l6 25l5 5v17l-4 2 l4 5l10 25l-8 9l14 10v20l4 7v14l5 7l9 33l-4 9l-5 4l3 2h7l2 10l7 6v14l5 5v10l5 10l-6 7l10 17v9l6 7l3 23l7 9v23l2 26l4 4v5l7 9l-4 8l14 26v17l4 4l5 19h7l12 10h9l7 3l6 -11h3l2 5l-2 6l2 14l-5 16l5 3l3 25l5 5h6l3 3l13 2l17 -3l23 -18l2 -10l9 -5v-5l11 -24l-2 -9 l10 -9v-8l10 -11l12 -5l-9 -9l3 -18l-3 -2l5 -5h9l7 -7l-12 -3v-9l7 -8l10 -3v-11l-8 -8l9 -4l3 7h8v-5l-5 -2l-8 -10l6 -12l-3 -9l3 -8h7v-11l4 -6l-3 -11v-13l10 -4l5 -10l-9 -9l11 -3v-3l-6 -5l4 -6h4l-6 -20l6 -3l5 -9v-5l9 -13h2v-3l-6 -6l10 -21l-4 -3v-7l12 -19l7 -2 v-4l5 -3l-8 -3v-4l5 3l6 -6l-3 -11l1 -25h5l-2 -5l7 -9v-18l7 -9l-7 -4v-10l11 -10l3 -20l6 -12l5 -2l-8 -9l13 -26v-18h6l-6 -10l10 -8v-8l-3 -4v-14h-5v-16l-2 -13l-14 -4l-5 -4v-11l-13 -6l-8 -11l-1 -7l-10 -9l-10 -4v-5l-4 -12v-6l-5 -5l8 -2v-21l11 -12l5 -2v-5l4 4 l7 -8l51 -3l17 -5l-3 -6h4v-19l-14 -14l-6 3l-7 -7h-56zM202 284l15 -14h6l6 7l3 -4h3v14l-6 2l-6 -2l5 9v12l-10 9l-4 -12h-5l-3 7h-11l3 9l-14 -4l-12 4l7 5l5 -5h4v14h12v4h-9v5l-5 -10l-7 5l-14 -10l3 -3v-9l-6 -11l10 -3l3 5l18 1v-6l6 -6l-3 -3v-7h6v-3zM297 242 l12 -6l2 2l-2 2v6l9 6l-9 7l4 7l-4 4v9l-17 -15h-13l-15 11h-10l-3 -11l7 -5l2 -5l9 -2l3 6l19 -6zM202 254v-9h11l-5 20l-15 5l-5 14v5h-22l-3 2l-2 -4l5 -8l-7 -11h12l8 -14l-3 -7l10 4l-4 8l6 6l5 -6zM213 366l10 -7l5 4v5l7 6l3 7h13l5 5v7l-3 5l5 3l2 -8l11 2l3 -2v6 h-9l-14 12l-2 -4l-11 -7l6 -2l5 -5h-5l-3 -6l-7 14l6 12h-8v-4l-4 -5l2 -5l-2 -6l-7 6h-3v-6h5v-3l4 -3l5 3v-5l-15 -8l-5 -5h5v-3zM281 282l-7 -9l10 4l13 12v7l9 2l-5 6l3 5l-5 3l-4 -4v-10h-3l-4 -4h-5l3 23l-9 9l-3 -12l-6 -3l-3 6v-9l16 -19v-7zM193 393h19l5 9v9h11v9 h-11v7l11 3v4l-5 5h-5l-11 -14v-5l-8 -11l6 -2v-5l-12 -4v-5zM237 321v-2l19 2v8h13v9l2 1v10l-9 5l-3 -12l-10 -4l-2 -3l-6 -2v-7zM175 354l5 -3l5 8l3 -3l12 3l4 13l-17 2l-5 -5l2 -1v-5l-5 -4h-4v-5zM249 365l3 -4l5 6l4 -6l5 5l5 -3h8l2 6h-10l-2 3l2 2v12h-4l-6 -14 h-12v-7zM221 157h-4l-4 4l13 4l8 -8l-4 -4h-4zM218 498l8 -4h9v3l-18 11zM207 450h5l-3 8l8 4h9v5h-9l-10 -9v-8zM289 152l8 5l9 5v-7l-7 -2l-7 -7zM217 340l11 -3l4 5l-6 5l-9 -3v-4zM322 201l5 -2l2 11l-9 -5v-4h2zM209 330l3 -4h5v7l-5 4zM203 151l11 -3l-2 -2h-14z M224 265l-3 -11h5l2 6zM273 356l4 -7h4v7h-8zM239 339l4 -2l4 2l-8 8v-8zM207 349l2 -2l5 2v-2l4 3l-4 4zM202 298l3 2l7 -2l-5 -4zM244 303l5 -5l5 9zM235 479v-6h4v6h-4zM249 434l-8 -9h3l5 5v4zM237 458l-2 -3h6l3 3h-7zM412 -50l-6 -5h4l5 5h-3zM339 515l4 -2v5h-4v-3z M161 259l-3 -2h8v2h-5zM214 605l3 -3v6zM226 449l-3 -3h7zM432 -26l-3 -3h7zM198 176v-5h4zM172 282h5v-4zM214 419h3l-8 -6zM200 381l-4 -4h4v4zM193 386v-2l3 2v3zM253 252l-2 -3l5 3h-3zM142 162v-2h3v2h-3zM241 309v-4l3 4h-3zM218 520v-2h3v2h-3zM265 264l2 -3h-2v3z M249 458l-2 -3h2v3zM265 423v-3l2 3h-2zM299 261l2 -2h-2v2zM221 369h2v-1z" />
<glyph unicode="&#x106;" horiz-adv-x="534" d="M202 5l-10 1l-5 5h-18l-16 12l-3 9h-6l-12 12l-7 14l-11 4l-17 14l-1 4l-8 7l-2 8l-21 20l-4 11v19l-3 2v17l3 2l-5 4v63l-8 15l6 6v34l-2 2l4 16l-4 31l4 4v74l-4 15l4 9v16l-2 2l4 28l-3 9l4 9l-3 8l2 22l-2 5v17l7 4v18l13 21l17 5v7l11 5l5 10l16 13l2 8l8 7l4 9h6 l12 9l5 12l4 -3l17 3l12 5l2 -2l16 5l7 -8l26 5l21 -12l6 -11v-7l5 -5v-7l-14 -15l-3 -9l-11 -6h-15l-6 -11h-13l-5 -3l-14 5l-25 -21l-5 -8l-10 -3l-4 -10l-9 -9v-5l2 -2l-4 -14l-7 3v-5l-10 -12l10 -9l-9 -5l6 -16l-5 -9l-1 -27l4 -5v-10l8 -8l-6 -2l-5 -6l4 -15l-5 -12 l1 -26l3 -8l-3 -5v-26l-2 -11l5 -5v-16l-3 -14l3 -11l2 -30l-2 -5v-23l-3 -14l5 -9l-2 -3v-14l-4 -2l4 -7v-11h9v-4l-11 -4l8 -9l6 -2l9 -19l14 -9l4 -9l9 -5v-3l22 -13l11 -2l5 2l11 -9h32l9 -6v-3l10 -7v-5l4 -7l-9 -8v-17h-6l-3 -3l3 -1l-8 -3l-7 -7l-11 3l-14 -2l-8 3 l-12 -6zM370 5h-18l-28 1l-18 12v9l-12 17v4l9 7v11l5 -3l34 8l10 7l17 2l6 9h7l5 10l9 3v6l4 9l7 3l12 23v18l-3 11l3 5l6 23l-7 11l10 18l21 11h9l16 -5l5 -5l9 -27l-3 -6l5 -6v-27l2 -5l-4 -16v-47l-7 -1l-2 -8l-9 -9l-3 -9h-9l-9 -10l-7 -15l-10 -8l-2 -7l-11 -2l-10 -9 l-7 -3l-12 -1l-9 -14zM431 475l-9 8l-5 55l-3 7l3 9l-5 7l-3 10l-8 4l-3 6l-9 5l-10 15l-9 4h-7l-5 10l-10 4l-20 -3l-5 -3l-22 10l-4 9v8l-3 2l-2 -2h-7l-3 5l10 5v5l-12 8v4l17 3l4 9l9 9h14v-2l4 2h10l10 3h10l3 4l11 -4l6 -5h18l13 -8l3 -8l7 -5l9 -14l14 -9l23 -28 l7 -4l9 -16v-10l11 -27l-7 -29l3 -17l-2 -21l-18 -20h-17zM232 781h-15l-13 2l-2 2l-12 2l-3 10l10 18l28 9l13 7h14l15 7l51 12l40 4l5 5h36l3 -7l7 -4v-12l-7 -12h-10l-10 -7h-10l-11 -4l-4 -5h-12l-7 -7h-14l-12 4v-6l-6 -5l-9 -2l-16 -8l-10 4l-3 -5h-27l-6 -6zM272 623 h8l2 5h9l-6 -9h-7l-5 -5h-5z" />
<glyph unicode="&#x107;" horiz-adv-x="534" d="M195 1h-19l-4 4l-19 10l-18 18l-5 7h-4l-7 11l-8 5l-5 10l-9 4l-11 11l-4 10l-16 15l-8 20l-2 1v19l-4 5v46l3 8l-4 43l3 5l-4 18l5 7l-5 14l4 9l-4 34l4 7l-2 3v34l3 8l-3 15v19l-4 7l4 7v16l-3 5l3 2v37l-4 6l4 9l-4 7l7 7l-3 3v16l6 7l-8 12l5 19l12 21h3l17 21l19 18 l10 6l2 5l35 30l9 5l4 5l24 2l10 -3l22 2l7 10l3 -5v-5l2 -4h3l1 4h5l4 -4h13l-3 -9v-8h6l13 -16l-14 -9l-10 -19l-11 -6h-14l-6 -6l-4 8h-9l-12 -12l6 -6v-9l-12 9v-3l-4 -4h-3l3 4l-3 3l-23 -15v-4l-9 -5l-16 -30l-7 -2l6 -12l-7 -7l-1 -20l-6 -11l6 -5v-9l-4 -10l4 -6 l2 -21l-12 -3l10 -5l-6 -4l3 -7v-9l5 -13l-10 -21l5 -6l-2 -20v-30l5 -10v-13l-8 -7v-7l10 -25l-2 -5h-5v-16l3 -13l-7 -7l6 -8v-25h6l-8 -17v-9l14 -21l8 -8l3 -14h11v-8l6 -11l3 4h3v-6l5 -3l8 -11l18 -12h7l9 5l1 -3l12 -5l14 -1l14 -8l18 -22h3l8 -6l6 17v10h13l18 14 l4 -4l9 -1l21 4l9 5l6 7l16 5l5 9l12 13l14 23v24l-2 2l4 16v37l18 18l33 -1l9 -10v-14l5 -5l4 -31l-2 -10l4 -10v-39l-4 -4l-2 -8l-5 -6l-2 -8l-11 -8l-3 -8l-7 -6v-4l-7 -10l-12 -6v-5l-7 -8l-13 -9l-10 -4l-11 -12l-14 -9l-8 2l-12 -7l-10 3h-16l-16 2l-4 -2l-20 8l-4 24 h-6l-3 -5l-4 4l-5 -7l-5 -1l-3 -5l-9 -4l-13 -14h-17l-12 -3l-12 3l-8 -3zM451 477l-18 2l-10 15l-4 22v11l-5 5l4 12l-4 26l-10 5l-8 16l-9 11l-5 1l-12 6l-7 11l-6 4l-24 -2l-5 -2l-1 2l-19 5v9l-5 5h-5l3 6l-9 10l6 20v7h5l12 12h7l7 -3l9 8h4v-4l10 6l7 -9l13 5l12 -7 l7 -8l5 3l18 -10h7l14 -20l4 -10l14 -14l15 -9l6 -7l3 -10l9 -5l4 -29l2 -2l-2 -24l2 -25l-4 -27l-8 -13l-20 -8zM207 795h-3l-5 5l-9 -3v6l-6 2l3 4v5l5 4l10 3l20 13h10l2 3l16 7l11 -6l7 8h17l9 5h12l2 5l53 4l5 9h12l6 3l13 -3l5 -9l10 -10l-4 -9l-8 -4l-7 -7l-21 3 l-9 -10l-36 -9l-9 4l-6 -4h-11l-4 -5l-12 3l-4 -4l-22 -8l-16 -3h-11l-10 -4h-11zM273 641l9 9l6 -8l-3 -4l-4 4l-5 -6h-3v5zM282 659v9l4 4l6 -13l-8 -2z" />
</font>
</defs>
</svg>
